<?xml version="1.0" encoding="UTF-8"?>
<svg id="Camada_2" data-name="Camada 2" xmlns="http://www.w3.org/2000/svg" viewBox="0 0 390.22 129.39">
  <defs>
    <style>
      .cls-1 {
        stroke-dasharray: 6.99 6.99;
      }

      .cls-1, .cls-2 {
        fill: none;
        stroke: #2f83c5;
        stroke-linecap: round;
        stroke-linejoin: round;
        stroke-width: 2px;
      }

      .cls-3 {
        fill: #2f83c5;
      }
    </style>
  </defs>
  <g id="Camada_1-2" data-name="Camada 1">
    <g>
      <path class="cls-3" d="M29.81,63.05l-19.86-17.7C3.59,39.67.1,31.7,0,23.19.32,11.7,8.44,2.25,19.19.36c11.33-2,22.29,4.52,26.24,15.47,2.71,8.29,1.64,17.01-2.57,24.62l-13.05,22.59ZM34.38,22.75c0-6.12-4.96-11.07-11.07-11.07s-11.07,4.96-11.07,11.07,4.96,11.07,11.07,11.07,11.07-4.96,11.07-11.07Z"/>
      <g>
        <path class="cls-2" d="M389.22,125.15c-.7-.97-1.41-1.9-2.1-2.8"/>
        <path class="cls-1" d="M382.61,116.99c-30.04-32.87-57.13-5.47-117.46-14.85-64.24-10-61.86-62.64-35.55-59.78,35.16,3.83,2.43,58.96-49.04,70.27-74.48,16.36-102.77-66.29-50.69-64.69,52.04,1.6-21.79,150.71-93.53,38.9"/>
        <path class="cls-2" d="M34.49,83.89c-.6-.98-1.21-1.98-1.81-3"/>
      </g>
      <circle class="cls-3" cx="31.29" cy="71.58" r="5.01"/>
    </g>
  </g>
</svg>