<?xml version="1.0" encoding="UTF-8"?>
<svg id="Camada_2" data-name="Camada 2" xmlns="http://www.w3.org/2000/svg" xmlns:xlink="http://www.w3.org/1999/xlink" viewBox="0 0 118.84 15.09">
  <defs>
    <style>
      .cls-1 {
        fill: #1d1d1b;
      }
    </style>
  </defs>
  <g id="Camada_1-2" data-name="Camada 1">
    <g>
      <image width="200" height="200" transform="translate(33.77) scale(.05)" xlink:href="../../../Carioca backup/references/miguel_pinto_guimaraes_arquitetos_associados_logo.png"/>
      <g>
        <path class="cls-1" d="M.04,4.62c0-.43-.02-.77-.04-1.11h.85l.04.66h.03c.3-.39.79-.75,1.68-.75.71,0,1.26.34,1.5.82h.02c.17-.24.38-.41.61-.53.32-.19.66-.29,1.17-.29.71,0,1.76.36,1.76,1.78v2.41h-.95v-2.32c0-.8-.39-1.26-1.16-1.26-.56,0-.98.31-1.16.67-.04.11-.08.25-.08.37v2.54h-.95v-2.46c0-.65-.37-1.12-1.11-1.12-.59,0-1.04.37-1.2.74-.05.11-.08.24-.08.36v2.47H.04v-2.99Z"/>
        <path class="cls-1" d="M9.48,2.82c-.35,0-.58-.21-.58-.46,0-.26.24-.47.61-.47s.59.2.59.47c0,.25-.23.46-.6.46h-.01ZM9.02,7.61V3.51h.97v4.1h-.97Z"/>
        <path class="cls-1" d="M15.97,7.01c0,.95-.25,1.51-.76,1.88-.53.36-1.28.49-1.95.49s-1.34-.12-1.77-.34l.24-.58c.35.18.9.33,1.56.33.99,0,1.72-.4,1.72-1.44v-.45h-.02c-.29.38-.87.69-1.69.69-1.32,0-2.27-.86-2.27-2.01,0-1.39,1.18-2.17,2.41-2.17.92,0,1.42.36,1.66.71h.02l.03-.62h.86c-.03.29-.04.63-.04,1.12v2.38ZM15.01,5.12c0-.12-.01-.23-.06-.33-.18-.44-.64-.8-1.35-.8-.92,0-1.58.6-1.58,1.56,0,.8.54,1.47,1.57,1.47.61,0,1.14-.29,1.34-.77.05-.12.08-.26.08-.4v-.74Z"/>
        <path class="cls-1" d="M21.81,6.48c0,.43.01.8.04,1.13h-.86l-.05-.67h-.02c-.24.33-.81.76-1.76.76-.84,0-1.84-.36-1.84-1.79v-2.4h.97v2.26c0,.78.32,1.31,1.19,1.31.65,0,1.1-.35,1.28-.69.06-.1.09-.24.09-.38v-2.51h.97v2.97Z"/>
        <path class="cls-1" d="M23.81,5.7c.02,1,.85,1.41,1.82,1.41.69,0,1.12-.09,1.47-.21l.18.53c-.34.12-.93.26-1.78.26-1.63,0-2.62-.84-2.62-2.07s.96-2.21,2.51-2.21c1.74,0,2.19,1.18,2.19,1.93,0,.15-.01.26-.03.35h-3.73ZM26.64,5.16c.01-.47-.25-1.21-1.33-1.21-.99,0-1.41.69-1.49,1.21h2.82Z"/>
        <path class="cls-1" d="M28.64,1.6h.97v6.01h-.97V1.6Z"/>
        <path class="cls-1" d="M47.56,4.85c0-.52-.01-.95-.04-1.34h.87l.05.7h.02c.38-.51,1.02-.8,1.88-.8,1.3,0,2.27.84,2.27,2.08,0,1.47-1.18,2.2-2.42,2.2-.72,0-1.32-.24-1.64-.64h-.02v2.23h-.97v-4.44ZM48.53,5.94c0,.1.01.21.04.3.17.52.76.87,1.44.87,1.02,0,1.62-.64,1.62-1.58,0-.82-.55-1.52-1.57-1.52-.66,0-1.29.36-1.47.92-.02.09-.05.2-.05.3v.71Z"/>
        <path class="cls-1" d="M54.13,2.82c-.35,0-.58-.21-.58-.46,0-.26.24-.47.61-.47s.59.2.59.47c0,.25-.23.46-.6.46h-.01ZM53.67,7.61V3.51h.97v4.1h-.97Z"/>
        <path class="cls-1" d="M56.02,4.62c0-.43-.01-.77-.04-1.11h.86l.05.67h.02c.26-.38.88-.76,1.76-.76.74,0,1.88.34,1.88,1.74v2.45h-.97v-2.36c0-.66-.32-1.22-1.23-1.22-.63,0-1.12.35-1.3.76-.04.09-.07.23-.07.35v2.47h-.97v-2.99Z"/>
        <path class="cls-1" d="M63.02,2.53v.98h1.39v.57h-1.39v2.2c0,.51.19.8.73.8.26,0,.42-.02.56-.05l.04.57c-.19.05-.48.1-.86.1-.45,0-.81-.12-1.04-.31-.26-.23-.37-.59-.37-1.07v-2.23h-.83v-.57h.83v-.75l.95-.23Z"/>
        <path class="cls-1" d="M67.38,7.7c-1.43,0-2.55-.81-2.55-2.11,0-1.37,1.18-2.18,2.64-2.18s2.56.85,2.56,2.1c0,1.52-1.37,2.18-2.64,2.18h-.01ZM67.42,7.14c.92,0,1.62-.67,1.62-1.6,0-.69-.45-1.57-1.6-1.57s-1.63.81-1.63,1.59c0,.9.66,1.57,1.6,1.57h.01Z"/>
        <path class="cls-1" d="M78.14,7.01c0,.95-.25,1.51-.76,1.88-.53.36-1.28.49-1.95.49s-1.34-.12-1.77-.34l.24-.58c.35.18.9.33,1.56.33.99,0,1.72-.4,1.72-1.44v-.45h-.02c-.29.38-.87.69-1.69.69-1.32,0-2.27-.86-2.27-2.01,0-1.39,1.18-2.17,2.41-2.17.92,0,1.42.36,1.66.71h.02l.03-.62h.86c-.03.29-.04.63-.04,1.12v2.38ZM77.17,5.12c0-.12-.01-.23-.05-.33-.18-.44-.64-.8-1.35-.8-.92,0-1.58.6-1.58,1.56,0,.8.54,1.47,1.57,1.47.6,0,1.14-.29,1.34-.77.05-.12.08-.26.08-.4v-.74Z"/>
        <path class="cls-1" d="M83.97,6.48c0,.43.01.8.04,1.13h-.86l-.05-.67h-.02c-.24.33-.81.76-1.76.76-.84,0-1.84-.36-1.84-1.79v-2.4h.97v2.26c0,.78.32,1.31,1.19,1.31.65,0,1.1-.35,1.28-.69.06-.1.09-.24.09-.38v-2.51h.97v2.97Z"/>
        <path class="cls-1" d="M85.83,2.82c-.35,0-.58-.21-.58-.46,0-.26.24-.47.61-.47s.59.2.59.47c0,.25-.23.46-.6.46h-.01ZM85.37,7.61V3.51h.97v4.1h-.97Z"/>
        <path class="cls-1" d="M87.73,4.62c0-.43-.02-.77-.04-1.11h.85l.04.66h.03c.3-.39.79-.75,1.68-.75.72,0,1.27.34,1.5.82h.02c.17-.24.38-.41.61-.53.32-.19.66-.29,1.17-.29.71,0,1.76.36,1.76,1.78v2.41h-.95v-2.32c0-.8-.38-1.26-1.16-1.26-.56,0-.98.31-1.15.67-.04.11-.08.25-.08.37v2.54h-.95v-2.46c0-.65-.37-1.12-1.11-1.12-.59,0-1.04.37-1.2.74-.05.11-.08.24-.08.36v2.47h-.95v-2.99Z"/>
        <path class="cls-1" d="M100.47,6.63c0,.36.02.7.08.98h-.87l-.09-.52h-.03c-.29.32-.87.61-1.63.61-1.08,0-1.63-.58-1.63-1.18,0-.99,1.14-1.53,3.2-1.52v-.08c0-.34-.12-.96-1.21-.95-.51,0-1.02.11-1.4.3l-.22-.5c.44-.21,1.09-.36,1.76-.36,1.64,0,2.04.85,2.04,1.68v1.53ZM99.52,5.52c-1.06-.02-2.25.13-2.25.92,0,.49.42.71.9.71.7,0,1.16-.34,1.31-.69.03-.08.04-.16.04-.24v-.71Z"/>
        <path class="cls-1" d="M101.81,4.79c0-.48-.01-.9-.04-1.28h.85l.04.8h.03c.24-.55.84-.9,1.49-.9.1,0,.18,0,.26.02v.7c-.1,0-.2-.02-.33-.02-.68,0-1.17.4-1.3.95-.02.11-.03.23-.03.35v2.19h-.97v-2.82Z"/>
        <path class="cls-1" d="M109.02,6.63c0,.36.02.7.08.98h-.87l-.09-.52h-.03c-.29.32-.87.61-1.63.61-1.08,0-1.63-.58-1.63-1.18,0-.99,1.14-1.53,3.2-1.52v-.08c0-.34-.12-.96-1.21-.95-.51,0-1.02.11-1.4.3l-.22-.5c.44-.21,1.09-.36,1.76-.36,1.64,0,2.04.85,2.04,1.68v1.53ZM105.73,2.81c-.02-.55.27-.88.75-.88.24,0,.43.08.68.19.18.08.33.14.47.14.16,0,.27-.08.3-.36h.52c.01.56-.23.85-.75.85-.24,0-.45-.08-.68-.18-.22-.1-.34-.15-.47-.15-.18,0-.26.14-.29.38h-.53ZM108.07,5.52c-1.06-.02-2.25.13-2.25.92,0,.49.42.71.9.71.7,0,1.16-.34,1.31-.69.03-.08.04-.16.04-.24v-.71Z"/>
        <path class="cls-1" d="M110.96,5.7c.02,1,.85,1.41,1.82,1.41.69,0,1.12-.09,1.47-.21l.18.53c-.34.12-.93.26-1.78.26-1.63,0-2.62-.84-2.62-2.07s.96-2.21,2.51-2.21c1.74,0,2.19,1.18,2.19,1.93,0,.15-.01.26-.03.35h-3.73ZM113.79,5.16c.01-.47-.25-1.21-1.33-1.21-.99,0-1.41.69-1.49,1.21h2.82Z"/>
        <path class="cls-1" d="M115.6,6.85c.3.14.8.29,1.29.29.69,0,1.02-.26,1.02-.61s-.28-.54-.98-.74c-.97-.27-1.42-.68-1.42-1.16,0-.66.7-1.2,1.84-1.2.54,0,1.01.11,1.3.25l-.23.53c-.21-.09-.59-.24-1.09-.24-.57,0-.88.25-.88.56,0,.34.31.49,1,.7.91.26,1.4.62,1.4,1.23,0,.73-.74,1.24-1.98,1.24-.58,0-1.12-.12-1.5-.29l.23-.56Z"/>
      </g>
      <g>
        <path class="cls-1" d="M15.5,14.53h-.92l-.13.33h-.83l.99-2.02h.88l.99,2.02h-.85l-.13-.33ZM15.34,14.09l-.29-.73-.29.73h.58Z"/>
        <path class="cls-1" d="M18.51,14.86v-2.02h1.35c.25,0,.44.02.57.05s.24.09.32.18c.08.09.12.2.12.33,0,.11-.03.21-.09.29-.06.08-.15.15-.26.2-.07.03-.16.06-.28.08.1.02.17.05.21.07.03.02.07.05.13.11.06.05.09.1.11.13l.39.59h-.92l-.43-.62c-.05-.08-.1-.13-.15-.16-.06-.03-.12-.05-.2-.05h-.07v.82h-.81ZM19.33,13.66h.34s.11,0,.21-.03c.05,0,.1-.03.13-.06.03-.03.05-.07.05-.12,0-.07-.03-.12-.08-.15-.05-.03-.15-.05-.3-.05h-.36v.41Z"/>
        <path class="cls-1" d="M25.39,14.57c.1.05.17.09.2.1.05.02.11.04.19.07l-.23.35c-.11-.04-.23-.09-.34-.15-.11-.06-.19-.1-.23-.13-.18.06-.4.09-.67.09-.4,0-.71-.08-.94-.24-.27-.19-.41-.45-.41-.8s.12-.59.36-.77c.24-.18.57-.28,1-.28s.77.09,1.01.27c.24.18.36.44.36.77,0,.3-.1.54-.29.72ZM24.77,14.25c.06-.09.1-.22.1-.4,0-.2-.05-.35-.15-.44-.1-.09-.23-.13-.41-.13-.16,0-.29.04-.39.13-.1.09-.15.23-.15.42,0,.22.05.38.15.46s.23.13.4.13c.05,0,.11,0,.16-.01-.07-.05-.18-.1-.32-.14l.13-.22c.07.01.13.02.17.04s.12.05.23.12c.03.01.06.03.09.05Z"/>
        <path class="cls-1" d="M29.55,12.84h.81v1.2c0,.12-.02.23-.07.34-.05.11-.12.2-.23.28-.1.08-.21.14-.32.17-.16.05-.35.07-.57.07-.13,0-.27,0-.42-.02-.15-.01-.28-.04-.38-.08-.1-.04-.19-.1-.28-.17-.08-.08-.14-.15-.17-.23-.05-.13-.08-.24-.08-.34v-1.2h.81v1.23c0,.11.04.2.12.26.08.06.19.09.33.09s.25-.03.33-.09c.08-.06.12-.15.12-.26v-1.23Z"/>
        <path class="cls-1" d="M32.65,12.84h.81v2.02h-.81v-2.02Z"/>
        <path class="cls-1" d="M35.56,12.84h2.47v.5h-.83v1.52h-.81v-1.52h-.83v-.5Z"/>
        <path class="cls-1" d="M40.11,12.84h2.17v.43h-1.36v.32h1.26v.41h-1.26v.4h1.4v.46h-2.21v-2.02Z"/>
        <path class="cls-1" d="M44.32,12.84h2.47v.5h-.83v1.52h-.81v-1.52h-.83v-.5Z"/>
        <path class="cls-1" d="M48.77,13.85c0-.33.12-.59.36-.77.24-.18.57-.28,1-.28s.77.09,1.01.27.35.43.35.76c0,.24-.05.43-.15.58-.1.15-.25.27-.45.35-.2.08-.44.13-.73.13s-.54-.04-.74-.11c-.19-.07-.35-.19-.47-.34-.12-.16-.18-.35-.18-.59ZM49.58,13.86c0,.2.05.35.15.44.1.09.23.13.4.13s.31-.04.4-.13c.1-.09.14-.24.14-.47,0-.19-.05-.33-.15-.42s-.23-.13-.41-.13-.29.04-.39.13c-.1.09-.15.24-.15.44Z"/>
        <path class="cls-1" d="M53.51,14.19l.77-.04c.02.1.05.17.1.22.08.08.2.12.36.12.12,0,.21-.02.27-.06.06-.04.09-.09.09-.15s-.03-.1-.09-.14-.2-.08-.42-.12c-.36-.06-.61-.14-.76-.25-.15-.1-.23-.23-.23-.39,0-.1.04-.2.12-.29.08-.09.2-.16.35-.22.16-.05.37-.08.65-.08.34,0,.59.05.77.14.18.1.28.25.31.46l-.76.03c-.02-.09-.06-.16-.13-.2s-.15-.06-.27-.06c-.09,0-.17.02-.21.05-.05.03-.07.07-.07.11,0,.03.02.06.06.09.04.03.13.05.27.07.35.06.61.12.76.18.15.06.26.13.33.22.07.09.1.19.1.3,0,.13-.05.25-.14.36-.09.11-.22.19-.39.25-.17.06-.38.08-.63.08-.45,0-.76-.07-.93-.2s-.27-.3-.29-.5Z"/>
        <path class="cls-1" d="M62.6,14.53h-.92l-.13.33h-.83l.99-2.02h.88l.99,2.02h-.85l-.13-.33ZM62.43,14.09l-.29-.73-.29.73h.58Z"/>
        <path class="cls-1" d="M65.41,14.19l.77-.04c.02.1.05.17.1.22.08.08.2.12.36.12.12,0,.2-.02.27-.06.06-.04.09-.09.09-.15s-.03-.1-.09-.14-.2-.08-.42-.12c-.36-.06-.61-.14-.76-.25-.15-.1-.23-.23-.23-.39,0-.1.04-.2.12-.29.08-.09.2-.16.35-.22.16-.05.37-.08.65-.08.34,0,.59.05.77.14.18.1.28.25.31.46l-.76.03c-.02-.09-.06-.16-.13-.2s-.15-.06-.27-.06c-.09,0-.17.02-.21.05-.05.03-.07.07-.07.11,0,.03.02.06.06.09.04.03.13.05.27.07.35.06.61.12.76.18.15.06.26.13.33.22.07.09.1.19.1.3,0,.13-.05.25-.14.36-.09.11-.22.19-.39.25s-.38.08-.63.08c-.45,0-.76-.07-.93-.2s-.27-.3-.29-.5Z"/>
        <path class="cls-1" d="M69.82,14.19l.77-.04c.02.1.05.17.1.22.08.08.2.12.36.12.12,0,.2-.02.27-.06.06-.04.09-.09.09-.15s-.03-.1-.09-.14-.2-.08-.42-.12c-.36-.06-.61-.14-.76-.25-.15-.1-.23-.23-.23-.39,0-.1.04-.2.12-.29.08-.09.2-.16.35-.22.16-.05.37-.08.65-.08.34,0,.59.05.77.14.18.1.28.25.31.46l-.76.03c-.02-.09-.06-.16-.13-.2s-.15-.06-.27-.06c-.09,0-.17.02-.21.05-.05.03-.07.07-.07.11,0,.03.02.06.06.09.04.03.13.05.27.07.35.06.61.12.76.18.15.06.26.13.33.22.07.09.1.19.1.3,0,.13-.05.25-.14.36-.09.11-.22.19-.39.25s-.38.08-.63.08c-.45,0-.76-.07-.93-.2s-.27-.3-.29-.5Z"/>
        <path class="cls-1" d="M74.24,13.85c0-.33.12-.59.36-.77s.57-.28,1-.28.77.09,1.01.27.35.43.35.76c0,.24-.05.43-.15.58-.1.15-.25.27-.45.35-.2.08-.44.13-.73.13s-.54-.04-.73-.11-.35-.19-.47-.34c-.12-.16-.18-.35-.18-.59ZM75.05,13.86c0,.2.05.35.15.44.1.09.23.13.4.13s.31-.04.4-.13c.1-.09.14-.24.14-.47,0-.19-.05-.33-.15-.42s-.23-.13-.41-.13-.29.04-.39.13-.15.24-.15.44Z"/>
        <path class="cls-1" d="M80.87,14.04l.71.17c-.05.15-.12.28-.23.38-.1.1-.23.18-.38.23-.15.05-.35.08-.58.08-.29,0-.52-.03-.7-.1-.18-.06-.34-.18-.47-.34-.13-.16-.2-.37-.2-.62,0-.33.12-.59.35-.77.23-.18.56-.27.98-.27.33,0,.59.05.78.15.19.1.33.26.42.47l-.72.12c-.03-.06-.05-.11-.08-.14-.05-.05-.1-.08-.17-.11s-.14-.04-.22-.04c-.18,0-.32.06-.42.17-.07.08-.11.22-.11.4,0,.22.04.38.13.46s.21.12.37.12.27-.03.35-.1c.08-.07.14-.16.17-.29Z"/>
        <path class="cls-1" d="M83.72,12.84h.81v2.02h-.81v-2.02Z"/>
        <path class="cls-1" d="M88.46,14.53h-.92l-.13.33h-.83l.99-2.02h.88l.99,2.02h-.85l-.13-.33ZM88.3,14.09l-.29-.73-.29.73h.58Z"/>
        <path class="cls-1" d="M91.47,12.84h1.2c.24,0,.43.02.58.07.15.05.27.12.36.21.1.09.16.2.21.32.04.12.06.25.06.39,0,.22-.03.38-.1.5-.06.12-.15.22-.27.3-.11.08-.24.13-.37.16-.18.04-.34.06-.48.06h-1.2v-2.02ZM92.29,13.3v1.1h.2c.17,0,.29-.01.36-.04s.13-.08.17-.15c.04-.07.06-.19.06-.35,0-.21-.05-.36-.14-.44-.09-.08-.24-.12-.45-.12h-.2Z"/>
        <path class="cls-1" d="M95.95,13.85c0-.33.12-.59.36-.77s.57-.28,1-.28.77.09,1.01.27.35.43.35.76c0,.24-.05.43-.15.58-.1.15-.25.27-.45.35-.2.08-.44.13-.73.13s-.54-.04-.73-.11-.35-.19-.47-.34c-.12-.16-.18-.35-.18-.59ZM96.76,13.86c0,.2.05.35.15.44.1.09.23.13.4.13s.31-.04.4-.13c.1-.09.14-.24.14-.47,0-.19-.05-.33-.15-.42s-.23-.13-.41-.13-.29.04-.39.13-.15.24-.15.44Z"/>
        <path class="cls-1" d="M100.69,14.19l.77-.04c.02.1.05.17.1.22.08.08.2.12.36.12.12,0,.2-.02.27-.06.06-.04.09-.09.09-.15s-.03-.1-.09-.14-.2-.08-.42-.12c-.36-.06-.61-.14-.76-.25-.15-.1-.23-.23-.23-.39,0-.1.04-.2.12-.29.08-.09.2-.16.35-.22.16-.05.37-.08.65-.08.34,0,.59.05.77.14.18.1.28.25.31.46l-.76.03c-.02-.09-.06-.16-.13-.2s-.15-.06-.27-.06c-.09,0-.17.02-.21.05-.05.03-.07.07-.07.11,0,.03.02.06.06.09.04.03.13.05.27.07.35.06.61.12.76.18.15.06.26.13.33.22.07.09.1.19.1.3,0,.13-.05.25-.14.36-.09.11-.22.19-.39.25s-.38.08-.63.08c-.45,0-.76-.07-.93-.2s-.27-.3-.29-.5Z"/>
      </g>
    </g>
  </g>
</svg>