<?xml version="1.0" encoding="UTF-8"?>
<svg id="Camada_2" data-name="Camada 2" xmlns="http://www.w3.org/2000/svg" viewBox="0 0 84.67 26.26">
  <defs>
    <style>
      .cls-1 {
        fill: #1d1d1b;
      }

      .cls-2 {
        fill: #020202;
      }
    </style>
  </defs>
  <g id="Camada_1-2" data-name="Camada 1">
    <g>
      <path class="cls-2" d="M0,11.79v-4.63s1.09,1.96,1.09,1.96C3.73,2.71,7.87-.92,14.86.2c-1.38.21-2.63.39-3.91.83C6.68,2.47,4.46,5.89,2.71,9.92c.93-.09,1.6-.47,2.5-.62L.14,13.81c-.1-.73.13-1.4-.14-2.02Z"/>
      <path class="cls-2" d="M21.81,21.18l1.3-2.92c1.6-4.45.11-8.36-2.19-12.3-.52.84-.65,1.67-.99,2.46l-.66-6.87,5.42,3.81-2.2-.23c2.23,3.58,3.65,7.5,2.29,11.56-.67,1.67-1.54,3.21-2.98,4.49Z"/>
      <path class="cls-2" d="M20.19,22.83l-5.61,3.43,1-1.87c-4.98.72-9.82.13-12.82-3.92-.7-.94-1.33-1.88-1.7-3.02.93.88,1.52,1.79,2.45,2.53,3.37,2.99,7.57,3.19,12.01,2.62l-1.7-1.74,6.39,1.98Z"/>
      <g>
        <path class="cls-2" d="M12.88,17.35c-.11.02-.22-.06-.23-.18-.01-.22-.02-.47.18-.61.42-.29,1.03-.52,1.19-1.06.25-.86-.35-1.6-1.1-2.01-.06-.03-.11-.1-.1-.17v-1.16c.01-.08.06-.15.14-.18l1.79-.68c.08-.03.1-.29.03-.29-.06,0-.21,0-.28-.01-.62-.15.37-.99.64-1.8.13-.4.17-.75.46-1.05.07-.07.07-.18,0-.25s-.09-.13-.09-.18c.04-.29.76-.1.87-.33l.18-.38c.15-.33.52-.14.68-.03.48.35.12.9.26,1.43.01.04.04.08.08.11,1.4.92,3.27.33,3.22,1.21-.01.21-.14.4-.32.55-.36.29-.06.7-.02,1.07l.21,1.61c0,.07-.02.13-.07.18-1.09.85-2.69.92-3.18,1.36l-1.12,1.01c-.19.17-.31.35-.27.57.03.14.14.25.31.37.1.07.11.23.01.31-.24.19-.43.37-.48.64-.02.12-.15.19-.27.14-.47-.2-.96-.14-1.48-.16-.43-.01-.84-.08-1.24-.02ZM15.7,11.14c.13-.11.08-.34-.05-.4-.14-.07-.46.18-.47.37,0,.12.12.18.23.17.09-.01.17-.03.3-.14Z"/>
        <path class="cls-2" d="M10.83,12.73c.24.38.75.6,1.09.92.04.04.06.09.06.14l.16,2.32c0,.08-.03.15-.09.19-.47.35-.91.66-1.18,1.11-.04.06-.1.11-.17.12-1.02.15-2.05.25-3.16.27-.15,0-.32.07-.42.05s-.18-.27-.11-.29c.33-.1.64-.09.96-.08.23,0,.33-.3.12-.42-.06-.03-.12-.06-.18-.08-.47-.17-.93.29-1.49.56-.15.07-.18.27-.05.37,0,0,0,0,0,0,.14.13.08.36-.11.39-.26.05-.48.03-.72-.04-.16-.05-.21-.26-.09-.37.04-.04.09-.08.15-.11.16-.09.15-.33-.02-.4l-.17-.08c-.06-.03-.12-.02-.18,0l-.94.43c-.13.06-.17.23-.08.35l.43.52c.09.11.06.27-.06.34-.28.15-.67.1-.86-.03-.21-.14-.68-.42-.58-.76.09-.27.19-.76.33-.99,0-.02.02-.03.03-.05.52-.55,1.33-.63,2.06-.68.05,0,.1-.02.14-.06.16-.16.3-.36.43-.56.07-.1.04-.25-.06-.32-.45-.29-1.49.24-1.73-.09l-.67-.94c-.1-.14-.01-.33.15-.35.46-.07.8-.23,1.2-.47.03-.02.06-.03.09-.03l1.06-.12s.07-.02.1-.04c.6-.43,1.74-.79,2.38-.7.51.07.96-.05,1.41-.24.19-.06.44.04.63.08.06.01.11.04.14.09Z"/>
      </g>
      <path class="cls-2" d="M12.99,9.19c.37-.52,1.07-.9,1.33-1.56.38-.95-.23-1.87-1.27-2.12l-.06-1.4c-.02-.4-.37-.71-.73-.72-.36,0-.71.32-.72.72l-.04,1.31c-1.32.22-2.32,1-2.16,2.15.02.13.15.22.28.19.73-.16,1.26-.58,1.96-.83l.1,1.96c-.6.54-1.28,1.07-1.52,1.85-.23.73-.02,1.36.52,1.93.36.37.84.68,1.19,1.06l.17,2.53c-.53.41-1.06.74-1.33,1.29-.11.6.06,1.15.59,1.54l.88.63.17,2.2c0,.08.11.08.12,0l.14-1.76c.3.39.29.75.26,1.13.55-.56.4-1.43-.28-1.87l.07-2.03c0-.23-.1-.65.17-.83.42-.29,1.03-.52,1.19-1.06.26-.9-.41-1.67-1.21-2.06l.02-1.41.17-2.84ZM12.97,6.62s.49.15.49.48-.49.48-.49.48v-.96ZM10.16,6.7c-.07.09-.18.14-.24.12-.06-.02-.05-.11.02-.19.07-.09.18-.14.24-.12.06.02.05.11-.02.19ZM11.77,10.28l.05,2.26c-.56-.59-.68-1.57-.05-2.26ZM11.37,17.59c.1-.18.53-.41.65-.13.22.51.1,1.07.15,1.58-.66-.45-1.1-.91-.81-1.45ZM13.15,14.88c0,.25-.08.47-.41.77v-1.34c.32.14.41.39.41.57Z"/>
      <g>
        <polygon class="cls-2" points="67.39 9.23 67.4 6.85 59.75 6.85 59.76 14.55 59.76 16.94 67.39 16.94 67.39 14.54 62.85 14.55 62.85 12.91 66.52 12.9 66.51 10.65 62.89 10.65 62.89 9.24 67.39 9.23"/>
        <path class="cls-2" d="M42.1,6.84c-.77-.16-1.64-.13-2.43,0-3.27.55-4.52,4.84-3.02,7.8.84,1.64,2.43,2.44,4.23,2.45,1.92,0,3.53-1.01,4.31-2.73.37-.81.43-1.53.48-2.45.12-2.33-1.18-4.57-3.57-5.08ZM40.05,14.57c-.85-1.25-.88-3.45-.25-4.84.25-.54.82-.8,1.37-.69,1.45.27,1.3,3.41.78,5.18-.44.63-1.25.75-1.9.36Z"/>
        <path class="cls-2" d="M80.75,6.87v6.55c0,.34-.14.63-.19.95-.69.17-1.35.45-2.24.03v2.46c1.09.23,2.26.29,3.33.09,1.4-.26,2.05-1.39,2.06-2.66l.04-7.43h-3.01Z"/>
        <path class="cls-2" d="M76.51,14.22l-.7-1.68c1.2-.48,1.87-1.48,1.79-2.78,0-1.5-1.23-2.8-2.79-2.82l-6.2-.08v7.44s0,2.63,0,2.63h3.11s0-2.58,0-2.58v-1.27s.97,0,.97,0l.48,1.19,1.03,2.66h3.44s-1.13-2.72-1.13-2.72ZM71.69,10.91v-1.89s1.75.02,1.75.02c.52,0,.87.37.9.81.03.45-.19.98-.76,1l-1.89.06Z"/>
        <path class="cls-2" d="M58.04,6.88l-4.12-.02-1.4,5.23-1.47-5.22h-4.07s0,7.36,0,7.36v2.71s2.34,0,2.34,0v-2.58c0-1.37-.15-2.67.04-4.16l1.18,4.08.71,2.64,1.98.02.67-2.57,1.15-4.23.06,4.12v2.69s2.89,0,2.89,0v-2.58s.07-1.87.07-1.87l-.04-5.61Z"/>
        <path class="cls-2" d="M33.15,10.83l-2.79-.7c-.36-.09-.59-.37-.53-.61.09-.39.35-.51.73-.54.81-.07,1.58.17,1.9.99l2.56-.76c-.35-1.16-1.36-2.08-2.64-2.34-2.4-.48-5.1.11-5.59,2.53-.28,1.41.4,2.69,1.7,3.22,2.11.87,3.98.52,3.56,1.85-.74.39-1.58.25-2.34,0l-.65-.96-2.83.5c0,.28.13.41.18.55.59,1.66,2.24,2.52,4.03,2.52,2.13,0,4.07-.49,4.73-2.5.52-1.58-.31-3.32-2.02-3.74Z"/>
      </g>
      <g>
        <path class="cls-2" d="M26.9,20.78l-.09.31h-.21l.35-1.1h.26l.36,1.1h-.22l-.1-.31h-.35ZM27.22,20.63l-.09-.27c-.02-.07-.04-.14-.06-.21h0c-.02.06-.03.14-.05.21l-.09.27h.28Z"/>
        <path class="cls-2" d="M28.18,20.87c.06.04.16.07.27.07.13,0,.2-.06.2-.15,0-.08-.06-.13-.2-.18-.18-.06-.3-.16-.3-.32,0-.18.15-.32.39-.32.12,0,.21.03.26.05l-.05.16s-.12-.05-.22-.05c-.13,0-.18.07-.18.13,0,.08.06.12.21.18.19.07.28.17.28.33,0,.18-.13.33-.42.33-.12,0-.24-.03-.3-.07l.04-.17Z"/>
        <path class="cls-2" d="M29.46,20.87c.06.04.16.07.27.07.13,0,.2-.06.2-.15,0-.08-.06-.13-.2-.18-.18-.06-.3-.16-.3-.32,0-.18.15-.32.39-.32.12,0,.21.03.26.05l-.05.16s-.12-.05-.22-.05c-.13,0-.18.07-.18.13,0,.08.06.12.21.18.19.07.28.17.28.33,0,.18-.13.33-.42.33-.12,0-.24-.03-.3-.07l.04-.17Z"/>
        <path class="cls-2" d="M31.74,20.53c0,.37-.22.58-.53.58s-.51-.24-.51-.56.21-.58.53-.58.51.24.51.56ZM30.92,20.54c0,.23.11.4.31.4s.31-.18.31-.41c0-.21-.1-.41-.3-.41s-.31.19-.31.41Z"/>
        <path class="cls-2" d="M33.17,21.06s-.15.05-.29.05c-.35,0-.56-.22-.56-.56,0-.36.25-.58.59-.58.13,0,.23.03.27.05l-.04.16c-.05-.02-.12-.04-.22-.04-.23,0-.39.14-.39.41,0,.24.14.4.38.4.08,0,.17-.02.22-.04l.03.16Z"/>
        <path class="cls-2" d="M33.97,19.99v1.1h-.2v-1.1h.2Z"/>
        <path class="cls-2" d="M34.87,20.78l-.09.31h-.21l.35-1.1h.26l.36,1.1h-.22l-.1-.31h-.35ZM35.19,20.63l-.09-.27c-.02-.07-.04-.14-.06-.21h0c-.02.06-.03.14-.05.21l-.09.27h.28Z"/>
        <path class="cls-2" d="M36.89,21.06s-.15.05-.29.05c-.35,0-.56-.22-.56-.56,0-.36.25-.58.59-.58.13,0,.23.03.27.05l-.04.16c-.05-.02-.13-.04-.22-.04-.22,0-.39.14-.39.41,0,.24.14.4.38.4.08,0,.17-.02.22-.04l.03.16ZM36.63,21.08l-.05.08c.06.01.12.06.12.13,0,.11-.09.14-.18.14-.05,0-.1-.01-.13-.03l.03-.09s.06.02.09.02.06-.01.06-.04c0-.04-.04-.06-.13-.07l.07-.15h.11Z"/>
        <path class="cls-2" d="M37.76,20.78l-.09.31h-.21l.35-1.1h.26l.36,1.1h-.22l-.1-.31h-.35ZM37.73,19.92c0-.12.04-.19.12-.19.04,0,.07.01.1.03.03.02.05.03.07.03.03,0,.04-.01.04-.07h.1c0,.13-.04.18-.12.18-.04,0-.07-.01-.1-.03-.03-.02-.05-.03-.07-.03s-.04.03-.04.07h-.1ZM38.07,20.63l-.09-.27c-.02-.07-.04-.14-.06-.21h0c-.02.06-.03.14-.05.21l-.09.27h.28Z"/>
        <path class="cls-2" d="M39.97,20.53c0,.37-.22.58-.53.58s-.51-.24-.51-.56.21-.58.53-.58.51.24.51.56ZM39.14,20.54c0,.23.11.4.31.4s.31-.18.31-.41c0-.21-.1-.41-.3-.41s-.31.19-.31.41Z"/>
        <path class="cls-2" d="M42.26,20.64c0-.14-.01-.31-.01-.46h0c-.04.14-.08.28-.13.42l-.16.48h-.16l-.15-.47c-.04-.14-.08-.29-.11-.43h0c0,.14-.01.32-.02.47l-.02.44h-.19l.07-1.1h.27l.14.44c.04.13.07.26.1.38h0c.03-.12.07-.26.11-.39l.15-.44h.26l.06,1.1h-.2l-.02-.45Z"/>
        <path class="cls-2" d="M43.76,20.6h-.42v.32h.47v.17h-.67v-1.1h.64v.17h-.44v.28h.42v.16ZM43.73,19.73l-.2.2h-.16l.14-.2h.22Z"/>
        <path class="cls-2" d="M44.44,20c.09-.01.2-.02.32-.02.21,0,.35.04.45.13.11.09.17.22.17.41,0,.2-.07.34-.17.44-.11.1-.29.15-.5.15-.12,0-.21,0-.27-.01v-1.09ZM44.65,20.94s.07,0,.11,0c.26,0,.42-.14.42-.42,0-.24-.14-.38-.39-.38-.06,0-.11,0-.14.01v.79Z"/>
        <path class="cls-2" d="M46.22,19.99v1.1h-.2v-1.1h.2Z"/>
        <path class="cls-2" d="M47.7,21.06s-.15.05-.29.05c-.35,0-.56-.22-.56-.56,0-.36.25-.58.59-.58.13,0,.23.03.27.05l-.04.16c-.05-.02-.12-.04-.22-.04-.23,0-.39.14-.39.41,0,.24.14.4.38.4.08,0,.17-.02.22-.04l.03.16Z"/>
        <path class="cls-2" d="M48.57,20.78l-.09.31h-.21l.35-1.1h.26l.36,1.1h-.22l-.1-.31h-.35ZM48.88,20.63l-.09-.27c-.02-.07-.04-.14-.06-.21h0c-.02.06-.03.14-.05.21l-.09.27h.28Z"/>
        <path class="cls-2" d="M50.58,20c.09-.01.2-.02.32-.02.21,0,.35.04.45.13.11.09.17.22.17.41,0,.2-.07.34-.17.44-.11.1-.29.15-.5.15-.12,0-.21,0-.27-.01v-1.09ZM50.78,20.94s.07,0,.11,0c.26,0,.42-.14.42-.42,0-.24-.14-.38-.39-.38-.06,0-.11,0-.14.01v.79Z"/>
        <path class="cls-2" d="M53.13,20.53c0,.37-.22.58-.53.58s-.51-.24-.51-.56.21-.58.53-.58.51.24.51.56ZM52.31,20.54c0,.23.11.4.31.4s.31-.18.31-.41c0-.21-.1-.41-.3-.41s-.31.19-.31.41Z"/>
        <path class="cls-2" d="M55.11,20.6h-.42v.32h.47v.17h-.67v-1.1h.64v.17h-.44v.28h.42v.16Z"/>
        <path class="cls-2" d="M55.79,20.87c.06.04.16.07.27.07.13,0,.2-.06.2-.15,0-.08-.06-.13-.2-.18-.18-.06-.3-.16-.3-.32,0-.18.15-.32.39-.32.12,0,.21.03.26.05l-.05.16s-.12-.05-.22-.05c-.13,0-.18.07-.18.13,0,.08.06.12.21.18.19.07.28.17.28.33,0,.18-.13.33-.42.33-.12,0-.24-.03-.3-.07l.04-.17Z"/>
        <path class="cls-2" d="M57.31,20.16h-.32v-.17h.84v.17h-.32v.93h-.2v-.93Z"/>
        <path class="cls-2" d="M58.54,20.78l-.09.31h-.21l.35-1.1h.26l.36,1.1h-.22l-.1-.31h-.35ZM58.85,20.63l-.09-.27c-.02-.07-.04-.14-.06-.21h0c-.02.06-.03.14-.05.21l-.09.27h.28Z"/>
        <path class="cls-2" d="M59.8,20c.09-.01.2-.02.32-.02.21,0,.35.04.45.13.11.09.17.22.17.41,0,.2-.07.34-.17.44-.11.1-.29.15-.5.15-.12,0-.21,0-.27-.01v-1.09ZM60,20.94s.07,0,.11,0c.26,0,.42-.14.42-.42,0-.24-.14-.38-.39-.38-.06,0-.11,0-.14.01v.79Z"/>
        <path class="cls-2" d="M62.36,20.53c0,.37-.22.58-.53.58s-.51-.24-.51-.56.21-.58.53-.58.51.24.51.56ZM61.53,20.54c0,.23.11.4.31.4s.31-.18.31-.41c0-.21-.1-.41-.3-.41s-.31.19-.31.41Z"/>
        <path class="cls-2" d="M63.72,20c.09-.01.2-.02.32-.02.21,0,.35.04.45.13.11.09.17.22.17.41,0,.2-.07.34-.17.44-.11.1-.29.15-.5.15-.12,0-.21,0-.27-.01v-1.09ZM63.92,20.94s.07,0,.11,0c.26,0,.42-.14.42-.42,0-.24-.14-.38-.39-.38-.06,0-.11,0-.14.01v.79Z"/>
        <path class="cls-2" d="M66.28,20.53c0,.37-.22.58-.53.58s-.51-.24-.51-.56.21-.58.53-.58.51.24.51.56ZM65.45,20.54c0,.23.11.4.31.4s.31-.18.31-.41c0-.21-.1-.41-.3-.41s-.31.19-.31.41Z"/>
        <path class="cls-2" d="M67.64,20c.08-.01.19-.02.31-.02.16,0,.27.03.34.09.06.05.1.13.1.22,0,.14-.1.24-.2.28h0c.08.03.13.11.15.22.04.14.07.26.09.31h-.21s-.04-.12-.07-.26c-.03-.14-.08-.19-.2-.19h-.1v.45h-.2v-1.09ZM67.84,20.49h.12c.14,0,.22-.07.22-.18,0-.12-.08-.18-.21-.18-.06,0-.1,0-.13.01v.35Z"/>
        <path class="cls-2" d="M69.23,19.99v1.1h-.2v-1.1h.2Z"/>
        <path class="cls-2" d="M70.9,20.53c0,.37-.22.58-.53.58s-.51-.24-.51-.56.21-.58.53-.58.51.24.51.56ZM70.08,20.54c0,.23.11.4.31.4s.31-.18.31-.41c0-.21-.1-.41-.3-.41s-.31.19-.31.41Z"/>
        <path class="cls-2" d="M72.27,20c.09-.01.2-.02.32-.02.21,0,.35.04.45.13.11.09.17.22.17.41,0,.2-.07.34-.17.44-.11.1-.29.15-.5.15-.12,0-.21,0-.27-.01v-1.09ZM72.47,20.94s.07,0,.11,0c.26,0,.42-.14.42-.42,0-.24-.14-.38-.39-.38-.06,0-.11,0-.14.01v.79Z"/>
        <path class="cls-2" d="M74.46,20.6h-.42v.32h.47v.17h-.67v-1.1h.64v.17h-.44v.28h.42v.16Z"/>
        <path class="cls-2" d="M76.09,19.99h.2v.72c0,.3-.15.41-.37.41-.06,0-.13-.01-.17-.03l.02-.16s.08.02.12.02c.11,0,.18-.05.18-.24v-.71Z"/>
        <path class="cls-2" d="M77.15,20.78l-.09.31h-.21l.35-1.1h.26l.36,1.1h-.22l-.1-.31h-.35ZM77.47,20.63l-.09-.27c-.02-.07-.04-.14-.06-.21h0c-.02.06-.03.14-.05.21l-.09.27h.28Z"/>
        <path class="cls-2" d="M78.42,21.09v-1.1h.23l.29.47c.07.12.14.25.19.37h0c-.01-.15-.02-.29-.02-.46v-.39h.19v1.1h-.21l-.29-.49c-.07-.12-.14-.26-.2-.38h0c0,.14.01.29.01.47v.39h-.19Z"/>
        <path class="cls-2" d="M80.6,20.6h-.42v.32h.47v.17h-.67v-1.1h.64v.17h-.44v.28h.42v.16Z"/>
        <path class="cls-2" d="M81.48,19.99v1.1h-.2v-1.1h.2Z"/>
        <path class="cls-2" d="M82.17,20c.08-.01.19-.02.31-.02.16,0,.27.03.34.09.06.05.1.13.1.22,0,.14-.1.24-.2.28h0c.08.03.13.11.15.22.04.14.07.26.09.31h-.21s-.04-.12-.07-.26c-.03-.14-.08-.19-.2-.19h-.1v.45h-.2v-1.09ZM82.37,20.49h.12c.14,0,.22-.07.22-.18,0-.12-.08-.18-.21-.18-.06,0-.1,0-.13.01v.35Z"/>
        <path class="cls-2" d="M84.53,20.53c0,.37-.22.58-.53.58s-.51-.24-.51-.56.21-.58.53-.58.51.24.51.56ZM83.71,20.54c0,.23.11.4.31.4s.31-.18.31-.41c0-.21-.1-.41-.3-.41s-.31.19-.31.41Z"/>
      </g>
      <g>
        <path class="cls-2" d="M14.18,18.95c0-.09,0-.19,0-.31h0c-.02.1-.06.22-.08.3l-.08.27h-.16l-.06-.27c-.02-.08-.04-.2-.06-.3h0c0,.11,0,.22-.01.31v.27h-.2l.05-.76h.28l.05.21c.02.09.04.19.06.28h0c.02-.09.05-.2.07-.28l.06-.2h.27l.04.76h-.2v-.27Z"/>
        <path class="cls-2" d="M15.34,19.21s-.1.03-.19.03c-.29,0-.41-.18-.41-.38,0-.27.2-.41.43-.41.09,0,.16.02.19.03l-.04.16s-.08-.03-.14-.03c-.12,0-.22.07-.22.23,0,.14.08.22.22.22.05,0,.11,0,.14-.02l.03.16Z"/>
        <path class="cls-2" d="M16.34,18.95c0-.09,0-.19,0-.31h0c-.02.1-.06.22-.08.3l-.08.27h-.16l-.06-.27c-.02-.08-.04-.2-.06-.3h0c0,.11,0,.22-.01.31v.27h-.2l.05-.76h.28l.05.21c.02.09.04.19.06.28h0c.02-.09.05-.2.07-.28l.06-.2h.27l.04.76h-.2v-.27Z"/>
        <path class="cls-2" d="M16.94,18.46h.2v.59h.29v.17h-.5v-.76Z"/>
        <path class="cls-2" d="M18.2,19.23l-.06-.13s-.04-.09-.06-.13h0s-.03.08-.05.13l-.05.13h-.23l.22-.39-.21-.38h.24l.05.12s.03.08.05.13h0s.03-.08.04-.13l.05-.12h.23l-.21.37.22.39h-.24Z"/>
        <path class="cls-2" d="M19.19,19.23l-.06-.13s-.04-.09-.06-.13h0s-.03.08-.05.13l-.05.13h-.23l.22-.39-.21-.38h.24l.05.12s.03.08.05.13h0s.03-.08.04-.13l.05-.12h.23l-.21.37.22.39h-.24Z"/>
        <path class="cls-2" d="M20.18,19.23l-.06-.13s-.04-.09-.06-.13h0s-.03.08-.05.13l-.05.13h-.23l.22-.39-.21-.38h.24l.05.12s.03.08.05.13h0s.03-.08.04-.13l.05-.12h.23l-.21.37.22.39h-.24Z"/>
        <path class="cls-2" d="M20.96,19.23l-.24-.76h.22l.08.3c.02.09.05.17.06.27h0c.02-.09.04-.18.06-.26l.08-.3h.22l-.25.76h-.24Z"/>
      </g>
      <path class="cls-1" d="M84.56,19.27H26.8c-.06,0-.11-.05-.11-.11s.05-.11.11-.11h57.76c.06,0,.11.05.11.11s-.05.11-.11.11Z"/>
      <path class="cls-1" d="M84.56,22.09H26.8c-.06,0-.11-.05-.11-.11s.05-.11.11-.11h57.76c.06,0,.11.05.11.11s-.05.11-.11.11Z"/>
    </g>
  </g>
</svg>