<?xml version="1.0" encoding="UTF-8"?>
<svg id="Camada_2" data-name="Camada 2" xmlns="http://www.w3.org/2000/svg" xmlns:xlink="http://www.w3.org/1999/xlink" viewBox="0 0 332.69 102.64">
  <defs>
    <style>
      .cls-1 {
        fill: #fff;
      }

      .cls-2 {
        clip-path: url(#clippath-1);
      }

      .cls-3 {
        fill: #ededed;
      }

      .cls-4 {
        clip-path: url(#clippath);
      }
    </style>
    <clipPath id="clippath">
      <path class="cls-1" d="M15.65,17.75c3.99-6.15,10.76-5.73,13.56.14,2.8,5.87,6.87,21.85,12.02,32.15,9.64,19.29,23.62,12.81,28.05,4.75,4.46-8.12,13.7-8.95,19.52-.19,1.77,2.67,3.42,5.13,4.85,7.28V13.42c0-7.38-6.04-13.42-13.42-13.42H13.42c-3.69,0-7.04,1.51-9.48,3.94C.11,7.78,0,12.52,0,13.42v31.46c7.83-13.74,14.42-25.22,15.65-27.12Z"/>
    </clipPath>
    <clipPath id="clippath-1">
      <path class="cls-1" d="M82.47,69.75c-2.8-3.07-7.41-4.19-12.16.7-2.62,2.7-3.33,3.43-6.15,6.29-7.08,7.17-19.06,4.01-22.22-6.71-2.47-8.35-11.88-42.21-13.84-47.94s-8.25-7.27-10.48,0c-2.42,7.85-12.16,48.7-16.56,67.26,2.04,4.82,6.82,8.22,12.36,8.22h66.81c6.27,0,11.57-4.36,13.02-10.19-3.14-5.99-7.72-14.25-10.78-17.62Z"/>
    </clipPath>
  </defs>
  <g id="Camada_1-2" data-name="Camada 1">
    <g>
      <path class="cls-3" d="M137.78,71.06c-4.45,1.36-8.29,2.04-11.53,2.04s-6.47-.92-9.29-2.77c-2.82-1.84-4.94-4.27-6.38-7.28-1.43-3.01-2.15-6.41-2.15-10.19,0-5.64,1.55-10.35,4.65-14.12,3.1-3.77,7.88-5.66,14.36-5.66,2.98,0,6.29.41,9.92,1.23v5.81c-3.88-1.15-7.03-1.73-9.47-1.73-3.85,0-6.76,1.45-8.71,4.36s-2.92,6.34-2.92,10.32c0,4.3,1.1,7.78,3.29,10.44,2.19,2.66,5.04,3.99,8.55,3.99,3.13,0,6.36-.81,9.68-2.43v5.99Z"/>
      <path class="cls-3" d="M165.71,67.36c-2.09,1.9-4.16,3.34-6.2,4.3-2.04.96-4.03,1.44-5.98,1.44-2.74,0-5.29-.89-7.64-2.68-2.36-1.78-3.54-4.39-3.54-7.82,0-3.76,1.64-6.86,4.93-9.32,3.29-2.45,8.54-3.68,15.76-3.68h1.64v-4.63c0-1.84-.25-3.17-.75-4.01-.5-.84-1.28-1.49-2.35-1.96-1.06-.47-2.38-.71-3.96-.71-3.65,0-7.64,1.13-11.97,3.38v-5.74c4.73-1.9,9.19-2.85,13.37-2.85,2.28,0,4.38.36,6.29,1.08,1.91.72,3.44,1.85,4.58,3.39,1.14,1.54,1.71,4.01,1.71,7.42v17.35c0,1.93.15,3.23.46,3.9.3.67.73,1.18,1.29,1.53.55.35,1.19.53,1.92.53.3,0,.75-.05,1.34-.14l.49,3.84c-1.57.75-3.31,1.13-5.21,1.13-1.27,0-2.49-.41-3.66-1.23-1.17-.82-2.02-2.33-2.54-4.51ZM164.69,63.59v-9.9l-2.27-.07c-3.72,0-6.83.7-9.35,2.11s-3.78,3.32-3.78,5.74c0,1.67.62,3.08,1.85,4.23,1.24,1.15,2.68,1.73,4.33,1.73,1.49,0,3-.32,4.53-.97,1.53-.65,3.09-1.6,4.68-2.87Z"/>
      <path class="cls-3" d="M182.23,72.22v-38.26h6.94v7.15c1.31-2.56,3.02-4.54,5.12-5.94,2.1-1.4,4.39-2.1,6.85-2.1.71,0,1.44.06,2.22.18v6.48c-1.17-.4-2.23-.6-3.17-.6-2.18,0-4.2.65-6.04,1.96s-3.5,3.26-4.98,5.87v25.25h-6.94Z"/>
      <path class="cls-3" d="M208.48,27.02v-6.94h6.94v6.94h-6.94ZM208.48,72.22v-38.26h6.94v38.26h-6.94Z"/>
      <path class="cls-3" d="M240.9,73.1c-3.64,0-6.81-.75-9.5-2.24-2.69-1.49-4.83-3.84-6.4-7.05-1.58-3.21-2.36-6.79-2.36-10.74,0-3.71.72-7.16,2.15-10.35,1.43-3.18,3.52-5.59,6.26-7.21,2.74-1.62,6.02-2.43,9.86-2.43s6.82.74,9.52,2.22c2.7,1.48,4.84,3.83,6.4,7.05,1.56,3.22,2.34,6.79,2.34,10.72s-.73,7.23-2.19,10.42c-1.46,3.19-3.54,5.58-6.26,7.19-2.72,1.61-5.99,2.42-9.82,2.42ZM240.88,67.89c3.46,0,6.15-1.29,8.06-3.86,1.91-2.58,2.86-6.23,2.86-10.95s-.96-8.4-2.88-10.95c-1.92-2.55-4.6-3.83-8.04-3.83s-6.11,1.28-8.02,3.83c-1.91,2.55-2.86,6.2-2.86,10.95s.95,8.38,2.86,10.95c1.91,2.58,4.58,3.86,8.02,3.86Z"/>
      <path class="cls-3" d="M293.34,71.06c-4.45,1.36-8.29,2.04-11.53,2.04s-6.47-.92-9.29-2.77c-2.82-1.84-4.94-4.27-6.38-7.28-1.43-3.01-2.15-6.41-2.15-10.19,0-5.64,1.55-10.35,4.65-14.12,3.1-3.77,7.88-5.66,14.36-5.66,2.98,0,6.29.41,9.92,1.23v5.81c-3.88-1.15-7.03-1.73-9.47-1.73-3.85,0-6.76,1.45-8.71,4.36s-2.92,6.34-2.92,10.32c0,4.3,1.1,7.78,3.29,10.44,2.19,2.66,5.04,3.99,8.55,3.99,3.13,0,6.36-.81,9.68-2.43v5.99Z"/>
      <path class="cls-3" d="M321.27,67.36c-2.09,1.9-4.16,3.34-6.2,4.3-2.04.96-4.03,1.44-5.98,1.44-2.74,0-5.29-.89-7.64-2.68-2.36-1.78-3.54-4.39-3.54-7.82,0-3.76,1.64-6.86,4.93-9.32,3.29-2.45,8.54-3.68,15.76-3.68h1.64v-4.63c0-1.84-.25-3.17-.75-4.01-.5-.84-1.28-1.49-2.35-1.96-1.06-.47-2.38-.71-3.96-.71-3.65,0-7.64,1.13-11.97,3.38v-5.74c4.73-1.9,9.19-2.85,13.37-2.85,2.28,0,4.38.36,6.29,1.08,1.91.72,3.44,1.85,4.58,3.39,1.14,1.54,1.71,4.01,1.71,7.42v17.35c0,1.93.15,3.23.46,3.9.3.67.73,1.18,1.29,1.53.55.35,1.19.53,1.92.53.3,0,.75-.05,1.34-.14l.49,3.84c-1.57.75-3.31,1.13-5.21,1.13-1.27,0-2.49-.41-3.66-1.23-1.17-.82-2.02-2.33-2.54-4.51ZM320.25,63.59v-9.9l-2.27-.07c-3.72,0-6.83.7-9.35,2.11s-3.78,3.32-3.78,5.74c0,1.67.62,3.08,1.85,4.23,1.24,1.15,2.68,1.73,4.33,1.73,1.49,0,3-.32,4.53-.97,1.53-.65,3.09-1.6,4.68-2.87Z"/>
    </g>
    <g>
      <path class="cls-1" d="M139.87,97.54c-1.5.45-2.79.67-3.86.67-1.92,0-3.43-.64-4.53-1.91-1.1-1.27-1.65-2.78-1.65-4.52,0-1.14.24-2.23.73-3.26s1.12-1.8,1.91-2.3c.79-.5,1.71-.75,2.77-.75,1.43,0,2.57.5,3.42,1.51s1.27,2.52,1.27,4.53v.67h-7.84c.12,1.08.36,1.91.71,2.49s.82,1.04,1.4,1.36c.58.33,1.32.49,2.22.49.46,0,.91-.04,1.37-.12.45-.08,1.15-.29,2.09-.62v1.75ZM132.19,90.53h5.53c0-1.22-.24-2.09-.73-2.61-.49-.52-1.11-.79-1.88-.79-.87,0-1.55.28-2.04.85-.49.56-.78,1.42-.88,2.55Z"/>
      <path class="cls-1" d="M145.11,97.93l-4.53-12.18h2.22l3.54,9.48,3.74-9.48h2.06l-4.81,12.18h-2.21Z"/>
      <path class="cls-1" d="M162.51,97.54c-1.5.45-2.79.67-3.86.67-1.92,0-3.43-.64-4.53-1.91-1.1-1.27-1.65-2.78-1.65-4.52,0-1.14.24-2.23.73-3.26s1.12-1.8,1.91-2.3c.79-.5,1.71-.75,2.77-.75,1.43,0,2.57.5,3.42,1.51s1.27,2.52,1.27,4.53v.67h-7.84c.12,1.08.36,1.91.71,2.49s.82,1.04,1.4,1.36c.58.33,1.32.49,2.22.49.46,0,.91-.04,1.37-.12.45-.08,1.15-.29,2.09-.62v1.75ZM154.82,90.53h5.53c0-1.22-.24-2.09-.73-2.61-.49-.52-1.11-.79-1.88-.79-.87,0-1.55.28-2.04.85-.49.56-.78,1.42-.88,2.55Z"/>
      <path class="cls-1" d="M165.18,97.93v-12.18h2.21v2.28c.56-.82,1.21-1.45,1.96-1.89s1.52-.67,2.32-.67c1.03,0,1.87.33,2.51.98.64.65.96,1.56.96,2.72v8.76h-2.21v-8.04c0-.85-.07-1.4-.22-1.67-.15-.27-.36-.48-.63-.62-.27-.15-.56-.22-.86-.22-.55,0-1.13.17-1.77.51-.63.34-1.32,1.06-2.06,2.16v7.9h-2.21Z"/>
      <path class="cls-1" d="M183.82,97.93c-.68.19-1.27.28-1.77.28-1.09,0-1.96-.32-2.6-.95s-.96-1.53-.96-2.7v-7.16h-1.53v-1.66h1.53v-2.21l2.21-.21v2.42h3.19v1.66h-3.19v6.75c0,.85.17,1.46.49,1.83.33.37.85.56,1.57.56.29,0,.65-.05,1.07-.15v1.53Z"/>
      <path class="cls-1" d="M190.68,98.21c-1.16,0-2.17-.24-3.03-.71-.86-.48-1.54-1.22-2.04-2.25-.5-1.02-.75-2.16-.75-3.42,0-1.18.23-2.28.69-3.3.46-1.01,1.12-1.78,1.99-2.3.87-.52,1.92-.77,3.14-.77s2.17.24,3.03.71c.86.47,1.54,1.22,2.04,2.25.5,1.03.75,2.16.75,3.41s-.23,2.3-.7,3.32c-.46,1.01-1.13,1.78-1.99,2.29-.86.51-1.91.77-3.13.77ZM190.67,96.55c1.1,0,1.96-.41,2.57-1.23.61-.82.91-1.98.91-3.49s-.31-2.67-.92-3.49-1.46-1.22-2.56-1.22-1.95.41-2.55,1.22c-.61.81-.91,1.98-.91,3.49s.3,2.67.91,3.49c.61.82,1.46,1.23,2.55,1.23Z"/>
      <path class="cls-1" d="M198.3,97.51v-2.03c1.44.72,2.7,1.08,3.77,1.08.63,0,1.15-.17,1.58-.52.42-.34.63-.77.63-1.29,0-.32-.11-.64-.31-.94-.21-.31-.69-.62-1.45-.93l-1.29-.55c-1-.41-1.72-.89-2.18-1.44-.46-.54-.69-1.2-.69-1.99,0-.98.36-1.8,1.07-2.45s1.77-.98,3.16-.98c.68,0,1.53.09,2.53.28l.46.09v1.85c-1.24-.37-2.23-.56-2.96-.56s-1.25.15-1.6.46c-.35.31-.53.67-.53,1.09,0,.33.12.63.36.89.23.27.65.54,1.26.8l1.07.45c1.43.61,2.34,1.21,2.73,1.8.39.59.58,1.24.58,1.93s-.18,1.28-.54,1.85c-.36.57-.9,1.01-1.6,1.34-.71.32-1.49.48-2.36.48-1.01,0-2.24-.24-3.68-.71Z"/>
      <path class="cls-1" d="M226.1,97.93l-.83-.99c-1.23.94-2.67,1.4-4.32,1.4-1.1,0-2.11-.22-3.04-.66-.93-.44-1.65-1.08-2.17-1.94-.52-.85-.78-1.77-.78-2.76,0-1.04.3-2.04.9-3,.6-.96,1.65-1.7,3.15-2.2-.75-1.35-1.12-2.48-1.12-3.38,0-.62.17-1.2.53-1.74s.84-.97,1.45-1.28,1.3-.47,2.04-.47c1.08,0,1.97.33,2.67.98.7.65,1.04,1.44,1.04,2.38,0,1.66-1.21,3.1-3.64,4.33,1.12,1.98,2.43,3.82,3.93,5.54.28-.4.48-.78.61-1.12.12-.34.23-.79.31-1.35.08-.56.12-1.15.12-1.75v-.81s2.2,0,2.2,0c0,2.45-.74,4.57-2.21,6.35.68.85,1.45,1.68,2.31,2.48h-3.15ZM224.3,95.67c-1.05-1.28-1.88-2.38-2.5-3.29-.62-.91-1.29-2-2.03-3.28-1.01.4-1.7.9-2.05,1.48-.36.58-.54,1.2-.54,1.87,0,.72.19,1.42.57,2.12.38.7.87,1.22,1.48,1.58s1.3.54,2.08.54c1.05,0,2.04-.34,2.99-1.02ZM221.18,87.2c1.59-.73,2.38-1.69,2.38-2.89,0-.49-.15-.9-.46-1.23-.31-.33-.73-.49-1.27-.49-.61,0-1.05.19-1.31.56-.26.37-.39.77-.39,1.18,0,.76.35,1.72,1.05,2.88Z"/>
      <path class="cls-1" d="M240.79,97.93l-4.53-12.18h2.22l3.54,9.48,3.74-9.48h2.06l-4.81,12.18h-2.21Z"/>
      <path class="cls-1" d="M249.44,83.54v-2.21h2.21v2.21h-2.21ZM249.44,97.93v-12.18h2.21v12.18h-2.21Z"/>
      <path class="cls-1" d="M261.36,96.39c-.67.61-1.33,1.06-1.97,1.37s-1.28.46-1.9.46c-.87,0-1.68-.28-2.43-.85-.75-.57-1.13-1.4-1.13-2.49,0-1.2.52-2.19,1.57-2.97,1.05-.78,2.72-1.17,5.02-1.17h.52v-1.47c0-.58-.08-1.01-.24-1.28-.16-.27-.41-.47-.75-.62-.34-.15-.76-.23-1.26-.23-1.16,0-2.43.36-3.81,1.08v-1.83c1.51-.61,2.93-.91,4.26-.91.73,0,1.39.11,2,.34s1.1.59,1.46,1.08c.36.49.54,1.28.54,2.36v5.53c0,.61.05,1.03.15,1.24.1.21.23.38.41.49.17.11.38.17.61.17.1,0,.24-.02.43-.04l.16,1.22c-.5.24-1.05.36-1.66.36-.4,0-.79-.13-1.17-.39s-.64-.74-.81-1.44ZM261.03,95.19v-3.15l-.72-.02c-1.18,0-2.18.22-2.98.67s-1.2,1.06-1.2,1.83c0,.53.2.98.59,1.35.39.37.85.55,1.38.55.47,0,.95-.1,1.44-.31.49-.21.99-.51,1.49-.91Z"/>
      <path class="cls-1" d="M266.69,101.98l.26-1.92c1.29.61,2.57.91,3.84.91,1.42,0,2.4-.36,2.95-1.07.55-.71.82-1.68.82-2.89v-1.92c-.33.67-.83,1.27-1.52,1.78s-1.53.77-2.52.77c-1.69,0-2.91-.6-3.68-1.8-.77-1.2-1.16-2.57-1.16-4.09,0-1.16.23-2.24.68-3.25.45-1.01,1.08-1.76,1.89-2.27.8-.51,1.72-.76,2.76-.76.46,0,.89.05,1.29.16.4.1.77.26,1.11.47s.73.55,1.15,1.03v-1.38h2.21v8.86c0,2.58-.22,4.35-.65,5.3-.43.95-1.11,1.64-2.04,2.08-.92.43-2.02.65-3.3.65-.41,0-.86-.02-1.34-.07s-.9-.1-1.28-.17c-.37-.07-.87-.21-1.48-.41ZM274.56,93.71v-5.07c-.49-.51-1.01-.89-1.54-1.14-.54-.25-1.1-.38-1.68-.38-1,0-1.79.4-2.4,1.19-.6.79-.91,1.93-.91,3.43,0,1.18.22,2.13.67,2.87.45.74,1.18,1.11,2.19,1.11.65,0,1.29-.17,1.9-.51.61-.34,1.2-.84,1.77-1.5Z"/>
      <path class="cls-1" d="M289.14,97.54c-1.5.45-2.79.67-3.86.67-1.92,0-3.43-.64-4.53-1.91-1.1-1.27-1.65-2.78-1.65-4.52,0-1.14.24-2.23.73-3.26s1.12-1.8,1.91-2.3c.79-.5,1.71-.75,2.77-.75,1.43,0,2.57.5,3.42,1.51s1.27,2.52,1.27,4.53v.67h-7.84c.12,1.08.36,1.91.71,2.49s.82,1.04,1.4,1.36c.58.33,1.32.49,2.22.49.46,0,.91-.04,1.37-.12.45-.08,1.15-.29,2.09-.62v1.75ZM281.46,90.53h5.53c0-1.22-.24-2.09-.73-2.61-.49-.52-1.11-.79-1.88-.79-.87,0-1.55.28-2.04.85-.49.56-.78,1.42-.88,2.55Z"/>
      <path class="cls-1" d="M291.82,97.93v-12.18h2.21v2.28c.56-.82,1.21-1.45,1.96-1.89s1.52-.67,2.32-.67c1.03,0,1.87.33,2.51.98.64.65.96,1.56.96,2.72v8.76h-2.21v-8.04c0-.85-.07-1.4-.22-1.67-.15-.27-.36-.48-.63-.62-.27-.15-.56-.22-.86-.22-.55,0-1.13.17-1.77.51-.63.34-1.32,1.06-2.06,2.16v7.9h-2.21Z"/>
      <path class="cls-1" d="M304.42,97.51v-2.03c1.44.72,2.7,1.08,3.77,1.08.63,0,1.15-.17,1.58-.52.42-.34.63-.77.63-1.29,0-.32-.11-.64-.31-.94-.21-.31-.69-.62-1.45-.93l-1.29-.55c-1-.41-1.72-.89-2.18-1.44-.46-.54-.69-1.2-.69-1.99,0-.98.36-1.8,1.07-2.45s1.77-.98,3.16-.98c.68,0,1.53.09,2.53.28l.46.09v1.85c-1.24-.37-2.23-.56-2.96-.56s-1.25.15-1.6.46c-.35.31-.53.67-.53,1.09,0,.33.12.63.36.89.23.27.65.54,1.26.8l1.07.45c1.43.61,2.34,1.21,2.73,1.8.39.59.58,1.24.58,1.93s-.18,1.28-.54,1.85c-.36.57-.9,1.01-1.6,1.34-.71.32-1.49.48-2.36.48-1.01,0-2.24-.24-3.68-.71Z"/>
    </g>
    <g>
      <g>
        <path class="cls-1" d="M15.65,17.75c3.99-6.15,10.76-5.73,13.56.14,2.8,5.87,6.87,21.85,12.02,32.15,9.64,19.29,23.62,12.81,28.05,4.75,4.46-8.12,13.7-8.95,19.52-.19,1.77,2.67,3.42,5.13,4.85,7.28V13.42c0-7.38-6.04-13.42-13.42-13.42H13.42c-3.69,0-7.04,1.51-9.48,3.94C.11,7.78,0,12.52,0,13.42v31.46c7.83-13.74,14.42-25.22,15.65-27.12Z"/>
        <g class="cls-4">
          <g>
            <path class="cls-1" d="M72.6-.08c4.42,0,8.85-.27,13.25.06,6.87.51,14.06,5.67,14.71,13.92.8,1.67.88,3.22-.47,4.78,3.13,3.91-1.01,7.03-1.8,10.64-1.94,2.51-4.35,4.04-7.66,3.64-1.23.03-1.41-2.53-3.14-1.27-.46.22-.94.33-1.44.52.76.23,1.5-.05,2.22.07.9.13,1.62.76,2.51.9.65.07,1.3.08,1.96.02,1.35-.11,2.19-1.62,3.68-1.35.42.24.78.55,1.07.93.23.44.35.91.37,1.41-.29,1.96-.16,4.01-1.38,5.75-.41.29-.87.49-1.37.57-1.21-.19-2.43-.28-2.54-.28.11,0,1.33.08,2.45.66.65.36,1.21.84,1.73,1.36.54.5,1.06,1.01,1.62,1.48,4.45,2.11,2.32,5.97,2.45,9.23-1.03,3.03,1.03,6.66-1.82,9.33-5.59-.24-7.66-5.11-10.97-8.35,0-1.92-.63-4.02.98-5.03-.29.29-1.08.14-1.85-.12-.42.09-.22-.85-.87-.54.38.09.63.28.8.62.53,1.73,1.83,3.58-.82,4.72-1.99.55-3.93,1.25-5.72,2.31-.36.25-.74.49-1.1.75-.33.29-.68.56-1.02.83-.17.14-.34.27-.51.41-.68.53-1.37,1.06-1.95,1.72-.27.36-.55.7-.84,1.05-.44.54-.94,1.03-1.49,1.47-.8.6-1.68.98-2.7.97-1.69-.18-3.38-1.23-5.1.13.55.89,2.12,1.11,1.86,2.59-1.1,2.74-3.7,2.99-6.05,3.67-1.81.11-3.38-.37-4.5-1.89-.28-2.04-.16-4.04.01-5.69-1.08,1.17.88,3.79-1.17,5.14-1.46.63-2.74.21-3.93-.68-.42-.34-.78-.75-1.07-1.2-.1-.23-.2-.47-.31-.71-.46-2.1,1-3.71,1.57-5.75.26-.45-.56.02-.56.16.06,1.37-.94,2.22-1.83,3.12-.2.15-.41.29-.61.44-.24.08-.48.15-.73.22-.79-.04-1.48-.36-2.1-.83-1.33-1.25-2.2-2.75-2.48-4.57-.01-.49.08-.97.25-1.42.77-1.18,1.66-2.26,2.68-3.24.63-.25,1.27-.12,2.37,0-1.22-.3-1.94-.36-2.61.17-.61.48-1.25.49-1.93.18-.3-.33-.46-.71-.47-1.14.13-.27.26-.56.4-.85-.58,0-1.04.43-1.63.46-.76.07-1.48-.05-2.18-.36-2.98-3.3-4.32-7.25-4.69-11.6.13-1.06.84-1.86,1.4-2.57-.64-1.62-2.28-2.64-1.64-4.46.27-1.06.43-2.12-.25-3.12-.23-.4-.4-.81-.55-1.24-.27-2.12-1.72-3.17-3.52-3.92-1.25-.88-1.96-2.17-2.66-3.47-1.04-2.2-2.15-4.34-4.16-5.84-1.02-.9-2.71-1.1-2.94-2.81.21-.42.52-.75.94-.97,1.02-.44,2.15-.59,3.11-1.2,1.46-1.03,2.85-2.16,4.46-2.98.4-.23.81-.42,1.24-.6,1.07-.43,2.16-.74,3.31-.31.47.22.86.56,1.23.93.32-.07.51-.31.57-.74.29-.77.67-1.45,1.26-2.01.61-.35,1.23-.27,1.85-.03.39.16.77.36,1.14.56.81.36,1.65.38,2.52.24,3.95.66,6.45-3.05,9.7-3.5,2.28.89,2.75,2.52,2.97,4.3-.12.47-.31.92-.5,1.4.55-.02.22-.58.5-.79.65-1.31-.59-2.93.8-4.18,4.12-2.72,8.78-1.41,13.27-1.48.97.32,1.78.06,2.43-.72Z"/>
            <path class="cls-1" d="M23.15,11.74h-1.08c-3.77-.56-2.14,3.4-3.83,4.59-.74.69-1.48,1.35-2.59.81-1.02-.3-1.22-1.39-1.88-2.04.12,1.2.65,2,1.93,2.09.99,1.16.33,2.21-.21,3.26-.48.82-.98,1.62-1.48,2.42-.92,1.32-1.82,2.66-2.51,4.13-.19.41-.41.81-.64,1.2-.2.41-.42.81-.63,1.21-.19.43-.41.83-.62,1.25-.31.66-.61,1.32-.92,1.98-1.94,3.95-3.62,8.05-6.14,11.67-.98,1.4-1.65,3.78-4.31,2.7-.75-5.43-.14-10.89-.34-16.33.14-3.94,3.12-1.18,4.42-2.13-1.1-.95-3.57.32-4.31-1.98-.15-3.04-.82-6.24,2.43-8.28.41-.48,1.02-.51,2.77-.98-1.69.33-2.14.47-2.55.8-.34.35-.73.46-1.19.31-1.19-1.07-.96-2.51-1.04-3.87,0-.23,0-.46-.01-.69v-2.15c.28-.31.6-.55.96-.75.38-.14.77-.22,1.16-.28.58-.09,1.16-.19,1.7-.42.71-.42,1.28-1.06,2.06-1.38,1.33-.44,2.65.02,3.97-.03.81-.09,1.56-.32,2.22-.82.27-.3.55-.58.8-.9.61-.86,1.16-1.77,2.13-2.28.4-.21.79-.41,1.16-.59.27-.18.56-.25.85-.19-.52-.3-.88.17-1.33.28-.4.19-.78.38-1.15.59-1.06.68-1.93,1.71-3.3,1.82-.56-.03-1.06-.26-1.55-.5,0,.02-.44-.07-.44-.07,0,0-.45.08-.45.11-.23.23-.44.47-.61.76-.18.33-.43.57-.77.73-.38.09-.75.08-1.13-.04-.54-.28-.97-.69-1.3-1.19-.28-.55-.37-1.13-.25-1.74.13-.37.31-.71.56-1.02.25-.28.53-.55.81-.79.31-.21.52-.94.89-.98.57,0,.91-.15,1.33-.54.69-.42,1.95-.42,2.31-1.49,1.22-.57,2.44-.21,3.96-.17C19.25,0,25.5-.08,31.75-.08c.67.93.46,2.12.93,3.11.6,1.36.53,2.54-.96,3.28-.43.3-1.14.35-1.04,1.14-1.43,1.08-2.87,2.15-4.3,3.23-1.19,0-2.31.23-3.23,1.08Z"/>
            <path class="cls-1" d="M55.4,6.37c.36-1.68-1.1-2.71-1.52-4.49-1.74.9-3.76,1.06-4.81,2.95.31.37.6.73.9,1.09-1.7,1.24-2.9-.04-4.18-.63-1.2.16-1.93,1.56-3.29,1.09-.65-.64-.56-1.31-.1-2,.82-.9,1.65-1.79,2.95-2.12-1.55-.25-2,.99-2.7,1.87-.67.58-1.01,1.81-2.3,1.17-.67-1.25-2.04-2.21-1.6-3.92.29-.75,1.07-.96,1.6-1.45h31.18c.66.72.58,1.43,0,2.15-3.23-1.97-6.78-.9-10.19-1.02-1.9-.07-3.47,1.13-4.77,2.54.37.52.73,1.04,1.11,1.57-.44.83-.82,1.56-1.2,2.28-.98.26-1.48.05-1.08-1.08Z"/>
            <path class="cls-1" d="M96.32,28.95v-2.92c.99-.92,2.13-1.99,3.22-2.99v-3.22c-.42-.94-1.74-.12-2.14-1.23.61-.2,1.22-.41,2.15-.72v-3.97c2.09.37,1.02,2,1.02,2.98.08,14.6.05,29.2.05,43.81v2.67c.63.72.59,1.43,0,2.15-1.25.18-1.67-.67-2.01-1.62.68-3.73-.11-7.58.93-11.28v-7.28c-1.23-.05-1.74,1.49-2.96.58-.58-.48-.13-1.24-.26-1.9-.72-1.77,1.59-2.19,1.61-3.63.42-3.1.18-6.21.19-9.3-.1-.59-.33-1.12-.91-1.42-.36-.15-.66-.39-.89-.71Z"/>
            <path class="cls-1" d="M4.87,7.44h1.08c.27-.24.36-.48.27-.72-.09-.24-.18-.36-.27-.36v-1.08c.72-.59,1.43-.63,2.15,0,.74-.03,1.1.33,1.08,1.08.19,1.08.23,2.15,0,3.23-.04,1.28-1.21,1.43-1.66.91-1.12-1.29-2.45-.77-3.72-.91-.3.37-.69.5-1.16.38-1.18-.44-1.34-1.72-2.07-2.53v-1.08c.4-.32.72-.72,1.08-1.08.36-.36.75-.68,1.08-1.08.36-.42.72-.42,1.08,0v2.15c.36.36.74.69,1.08,1.08Z"/>
            <path class="cls-1" d="M39.27.99c0,.85-.18,1.73.72,2.35.72.49.23,1.3.36,1.95-.72-.36-1.43-.72-2.15-1.08-2.48,1.79-4.24,1.01-5.51-1.54-.62-1.37.25-2.09,1.21-2.76h5.38c.27.24.36.48.27.72-.09.24-.18.36-.27.36Z"/>
            <path class="cls-1" d="M2.72,9.59h1.08c-.16.81.53,2.06-1.08,2.15-.72-.68-1.43-.68-2.15,0H-.51c-.65-.72-.6-1.43,0-2.15-.03-.74.33-1.1,1.08-1.08.77.26,1.53.53,2.15,1.08Z"/>
            <path class="cls-1" d="M33.9-.08c-.36.72-.72,1.43-1.08,2.15.38,1.1-.07,1.36-1.08,1.08-1.48-.26-1.31-1.05-.67-2.03.25-.38.45-.8.67-1.2h2.15Z"/>
            <path class="cls-1" d="M9.17.99c-.16,1.1,1.79,1.41.89,2.96-1.5.33-1.61-2.05-3.04-1.89.09-1.61,1.34-.91,2.15-1.08Z"/>
            <path class="cls-1" d="M2.72,9.59c-.81-.16-2.06.53-2.15-1.08v-1.08c1.17.26,1.89.98,2.15,2.15Z"/>
            <path class="cls-1" d="M71.53,2.07V-.08h1.08c-.16.81.53,2.06-1.08,2.15Z"/>
            <path class="cls-1" d="M5.95,3.14v-1.08h1.08c.03.74-.33,1.1-1.08,1.08Z"/>
            <path class="cls-1" d="M39.27.99V-.08h1.08c.03.74-.33,1.1-1.08,1.08Z"/>
            <path class="cls-1" d="M37.12,38.62c-.74.03-1.95-.4-1.92-1.14-.8-4.44-2.13-7.01-2.83-11.45,3.26-1.6,2.52,1.84,3.67,2.91,1.24.78.32,2.28,1.08,3.23.14.87-.74,1.06-1.07,1.66,2.16.76,4,1.76,2.96,4.69-.57-.3-1.05-.55-1.53-.81-.13.32-.24.62-.36.91Z"/>
            <path class="cls-1" d="M71.53,62.27c-.36.72-.72,1.43-1.08,2.15-.08.3-.28.49-.58.56,0,0-.38.15-.38.15,0,0,.15.39.14.4,0,0-.27.35-.28.35-.28.19-.57.28-.9.29-.54,0-.98-.16-1.23-.67-1.19-2.52-2.65-.47-4.01-.24-.56-.79-.2-1.67-.25-2.76,1.97-.22,4.07-.43,4.66-2.31,2.37-.27,1.24,1.76,2.32,2.08h1.58Z"/>
            <path class="cls-1" d="M58.63,25.72c-.03.74.33,1.1,1.08,1.08.66.55,1.48.99,1.55,2,.01,1.11.43,2.2.26,3.32-.15.44-.4.81-.74,1.12-1.11.81-.32,2.89-2.15,3.23.82-3.36-1.6-6.35-1.08-9.68-.3-1.02.11-1.33,1.08-1.08Z"/>
            <path class="cls-1" d="M88.73,53.67h-3.23c-.27-.24-.36-.48-.27-.72.09-.24.18-.36.27-.36h2.55c-1.81-1.45-1.44-2.92-1.48-4.3,1-.17,2.2.49,2.98-.35,1.38-1.47,2.89-.16,4.37-.95.07.99.11,1.47.17,2.28h-5.37v4.4Z"/>
            <path class="cls-1" d="M25.3,13.89c-1.58,0-3.16,0-4.73,0-1.03.58-1.48,1.93-2.79,2.15-.48-1.36.94-2.1,1.08-3.25.26-1.04-1.43-1.12-1.09-2.17.08-1.03,1.08-1.32,1.56-2.05.76,1.2.98,2.86,2.74,3.18,0,1.44,1.1,1.01,1.88,1.07.73.05,1.43.06,1.35,1.09Z"/>
            <path class="cls-1" d="M51.1,64.42h-1.08c-.36-.72-.72-1.43-1.08-2.15.28-.24.37-.48.28-.72-.09-.24-.19-.36-.28-.36-.12-1.47,1.27-.8,1.83-1.3,1.31-1.44-.49-2.68-.37-4.01,1.78-.53,1.64.77,1.98,1.72.3.81,1.92-.17,1.92,1.09.11,1.46-.81,1.46-1.73,1.45-.62,1.41-.32,3.1-1.48,4.27Z"/>
            <path class="cls-1" d="M84.43,8.52c-.37-1.82-2.47-2.29-3.2-4.28,2.41-.23,4.86,2.98,6.94-.06.73.91,1.88,1.38,1.63,2.69-1,1.68-3.61-.82-4.3,1.66-.36.48-.72.48-1.08,0Z"/>
            <path class="cls-1" d="M100.56,41.85c0,1.44-1.1,1.01-1.88,1.07-.73.05-1.43.06-1.35,1.09-.74.03-1.1-.33-1.08-1.08-.75-1.08-.89-2.15,0-3.23.08-2.2-.51-4.5,1.08-6.45.46-.26.92-.28,1.38-.02,1.12,1.37,1.17,2.88.57,4.46-.67,1.74-.11,3.07,1.28,4.16Z"/>
            <path class="cls-1" d="M42.5,9.59c.66-.17.88.43,1.43.85,1.45-1.22,3.27-.79,5.02-.85.36-.38.72-.38,1.08,0v5.38c-.36.33-.72.33-1.08,0,0-1.55.31-3.2-1.48-4.1-2.02.92-4.08,2.05-6.05-.21.12-.6.47-.96,1.08-1.08Z"/>
            <path class="cls-1" d="M76.9,41.85c-1.08.13-2.03-.08-2.72-1.14-.34.77-.66,1.49-.87,1.98-.66-.45-1.35-.93-1.82-1.25.08-1.79.95-2.46,2.18-2.81.54,0,.65-.22.35-.68-.17-.25-.26-.4-.35-.4.22-1.02.86-1.64,2.15-2.11v4.26c.54.67,1.62.39,2.14,1.26.24.9-.3,1.01-1.06.89Z"/>
            <path class="cls-1" d="M98.41,33.25h-1.08c-.28-.44-.76-.68-1.08-1.08-1.08.72-2.15,1.43-3.23,2.15-.72-.68-1.43-.68-2.15,0l-2.15-1.08c-.27-.25-.38-.51-.34-.8.04-.3.11-.44.18-.44.46-.28.86-.21,1.23.16,3.02.11,5.9-.09,7.53-3.23h1.08c.67.56.93,1.3.95,2.15-.01.85-.27,1.59-.95,2.15Z"/>
            <path class="cls-1" d="M48.95,32.17c2.6,1.03,3.8-1.9,5.92-2.28,1.32,1.93-.32,3.19-1.26,3.2-1.89.02-1.09,1.95-1.94,2.3-1.69,0-2.34-.92-2.72-2.16-.27-.24-.36-.48-.27-.72.09-.24.18-.36.27-.36Z"/>
            <path class="cls-1" d="M31.75,3.14c.74.03,1.1-.33,1.08-1.08,1.44-.11.83,1.22,1.53,2.15h3.84c-.16.81.53,2.06-1.08,2.15-.18,0-.36,0-.54,0-.36.01-.72.01-1.08,0-.18,0-.36,0-.54,0-1.37-.53-2.08.92-3.23,1.08-.32-.4-1-.43-1.08-1.08-.16-1.69,1.83-.53,2.07-1.69-.25-.48-1.14-.67-1-1.54Z"/>
            <path class="cls-1" d="M58.63,44c1.67-.36,2.85.84,4.07,1.53.82.46,1.53.62,2.38.63.6.72.64,1.43,0,2.15-2.19.19-3.85-2.09-6.45-.76v-3.54Z"/>
            <path class="cls-1" d="M60.78,28.95c-.36-.72-.72-1.43-1.08-2.15h2.15c.72-.05,1.43-.74,2.15,0,.66.07,1.42.2.58.99-.73.68-.53,1.46-.58,2.24-.67.72-.69,1.43,0,2.15-.5,2.07-2.17.67-3.23,1.08v-1.08c1.07-1.08.23-2.15,0-3.23Z"/>
            <path class="cls-1" d="M58.63,25.72c-.74-.03-1.1.33-1.08,1.08-1.16.02-2.37.22-2.25-1.66.03-.49-1.1-.73-.98-1.57,1.08-.13,2.03.08,2.66,1.06,1.09-.71,1.57-2.33,3.39-2.11.12.4.49.96.35,1.29-.39.91-.96,1.77-2.1,1.92Z"/>
            <path class="cls-1" d="M100.56,64.42c-1.17-.26-1.89-.98-2.15-2.15,1.64-2.07.85-4.51,1.12-6.8.11-.98-1.01-2.55,1.03-2.87v11.83Z"/>
            <path class="cls-1" d="M74.75,23.57c.68.18.89-.46,1.33-.78,2.21,1.49,4.92.27,7.14.99.57,1.7-.87,2.02-1.42,3.34-.62-.94-1.1-1.65-1.64-2.48h-5.41c-.24-.24-.32-.48-.24-.72.08-.24.16-.36.24-.36Z"/>
            <path class="cls-1" d="M60.78,20.34c-2.81-4.67-2.86-5.64-.47-8.54,1.19,1.14.2,1.82-.44,2.47.68,1.33,1.33,2.63,1.99,3.92-.02.89-.44,1.57-1.08,2.15Z"/>
            <path class="cls-1" d="M55.94,46.15c-.94-.94-1.8-1.8-3.2-3.2,2.68.6,4.28-1.55,7.2-.89-1.43,1.58-2.76,2.79-4,4.09Z"/>
            <path class="cls-1" d="M48.95,14.97h1.08c.66-.12.91.29,1.18,1.19-1.09,1.66-2.66,3.11-4.26,4.33-1.49-.52-1.56-1.86-.88-1.96,2.25-.34,1.73-2.57,2.88-3.56Z"/>
            <path class="cls-1" d="M69.38,10.67v-2.68c-1-.81-2.6-.79-3.12-2.26,3.01-1.99,3.88,2.22,6.23,2.14-.34,1.18-1.99,1.41-2.04,2.8-.36.37-.72.37-1.08,0Z"/>
            <path class="cls-1" d="M79.05,18.19c.3.13.61.25.91.38-.53.96-1.2,1.83-1.24,2.75-1.49.35-1.89-.61-2.7-1.29-.57-1.18-.01-2.62-.2-3.99,1.34-.64,1.77.51,2.4,1.24.26.32.53.62.82.91Z"/>
            <path class="cls-1" d="M31.75,25.72c0-.72-.46-1.46-.46-2.18,1.5.03,3.61-.37,4.76,2.05v3.36c-.65.12-1-.27-1.05-.8-.13-1.37-1.54-1.04-2.78-1.38-.36.38-.1-.67-.46-1.05Z"/>
            <path class="cls-1" d="M65.08,48.3v-2.15c.87-.13,1.07.73,1.61,1.06.55-.33.75-1.19,1.61-1.06.27.24.36.48.27.72-.09.24-.18.36-.27.36v6.58c-1.86-1.72-.54-3.66-1.28-5.18-.55-.62-1.29-.19-1.94-.32Z"/>
            <path class="cls-1" d="M76.9,41.85c.52.07.86-.12.95-.68-.4-.86-2.21.2-2.02-1.47h4.3c.73.84.48,1.87.55,2.84-.3.76-1.09.97-1.62,1.46-1.17-.26-1.89-.98-2.15-2.15Z"/>
            <path class="cls-1" d="M79.05,18.19h-1.08c-1.03-1.27-.32-2.96-1.08-4.3.13-1.01-.3-2.08.63-3.49.29.74.54,1.36.79,1.98.24-.14.49-.29.73-.43v6.24Z"/>
            <path class="cls-1" d="M88.73,32.17v1.08c-1.33.08-2.84-.46-3.78,1.11-.48-.99-.96-1.96-1.59-3.26h4.3c.59.13.96.47,1.08,1.08Z"/>
            <path class="cls-1" d="M69.38,17.12v-2.15c-.17-.18-.33-.37-.5-.55.1-.23.19-.45.29-.68.47-.27.9-.23,1.28.15.31,1.76,1.98,1.98,3.17,2.74-.52.52-1.02,1.02-1.51,1.51-1.34.75-1.63-1.19-2.74-1.03Z"/>
            <path class="cls-1" d="M48.95,42.92c1.13.57,2.27,1.13,3.23,1.61.08,2.4-2.28,1.32-2.83,2.71-.56-1.52-.36-3.16-1.47-4.33.36-.43.72-.43,1.08,0Z"/>
            <path class="cls-1" d="M68.3,47.22v-1.08c-.42-1.49.58-2.29,1.52-3.13,1.42.58-.02,1.95.65,2.42.42,1.14,1.85.2,2.03,1.48-1.39.67-2.82.11-4.2.3Z"/>
            <path class="cls-1" d="M46.7,52.13c2.14-.17,3.72-1.22,5.42-3.41.15,3.22-1.91,3.79-2.53,4.77-1.68.52-1.74-1.19-2.89-1.35Z"/>
            <path class="cls-1" d="M69.27,31.19h1.85c1.33,2.14-.63,3.47-1.15,5.6-1.14-2.08-.27-3.83-.7-5.6Z"/>
            <path class="cls-1" d="M69.38,17.04v3.86c-1.53-.14-2.18,2.26-4.52,1.2,1.21-.86,1.52-2.34,3-1.79.95-1.14-.38-2.87,1.52-3.26Z"/>
            <path class="cls-1" d="M55.4,67.65v-1.08c1.01.08,1.07-.6,1.07-1.33,0-1.69,0-3.38.41-5.07.96,2.45.52,4.99.66,7.48h-2.15Z"/>
            <path class="cls-1" d="M47.88,26.79c-1.02,1.27-1.2,2.74-1.08,4.3.28.24.37.48.28.72-.09.24-.18.36-.28.36-1.3.02-1.3-1.43-2.59-1.59,1.31-1.38.87-3.25,2.59-3.78.36-.52.72-.52,1.08,0Z"/>
            <path class="cls-1" d="M58.59,36.65c-.82,1.09-1.51,2.41-1.36,4.21-.56-1.76-1.8-2.79-3.31-4.21h4.67Z"/>
            <path class="cls-1" d="M74.75,23.57v1.08c-.13.66.32,1.42-.35,1.98-1.82-.57-1.7-2.58-2.75-3.71,1.45-1.72,1.97.9,3.1.66Z"/>
            <path class="cls-1" d="M77.98,56.9c-.17.68.45.89.99,1.62-.82.3-1.72.63-2.62.95-.43.94-.57-.66-1.6-.42.34-1.83,2.41-1.04,3.23-2.15Z"/>
            <path class="cls-1" d="M88.73,32.17c-.74.03-1.1-.33-1.08-1.08-.21-1.51.43-2.49,2.15-3.23v4.31h-1.08Z"/>
            <path class="cls-1" d="M28.21,10.8c2.65-.35,3.22.94,3.75,2.7-2.4.85-3.05-.5-3.75-2.7Z"/>
            <path class="cls-1" d="M87.66,17.12c.49-1.8-.89-3.19-1.18-4.71.63-.75,1.24-.83,2.26-.28v4.99c-.36.37-.72.37-1.08,0Z"/>
            <path class="cls-1" d="M93.11,17.57v-4.24c.41-.73.99-.44,1.46-.54,1.12.8.48,1.87.49,2.83-.5.5-1,1-1.95,1.95Z"/>
            <path class="cls-1" d="M95.18,41.85c-1.84-1.59-4.22-.84-6.35-1.5,2.06-1,4.24-.5,6.35-.65.65.72.59,1.43,0,2.15Z"/>
            <path class="cls-1" d="M45.44,39.87c-3.56-.39-4.24-2.25-5.09-3.97,1.79.63,2.96,1.99,5.09,3.97Z"/>
            <path class="cls-1" d="M39.27,18.19c-.18,0-.49.05-.51,0-.59-1.66-1.16-3.33-1.94-5.61,2.46,1.18,2.55,3.19,3.53,4.54-.33.39-.4,1.03-1.08,1.08Z"/>
            <path class="cls-1" d="M54.62,23.57c-1.18,0-2.06,0-2.95,0-1.12-.66-.02-2.39-2.17-2.68,1.08-.35,1.46-.62,1.69-.52,1.46.64,2.38,1.85,3.43,3.2Z"/>
            <path class="cls-1" d="M48.95,42.92h-1.08c-1.01-.13-2.07.3-3.12-.39v-1.34c1.68-1.27,2.86.15,4.2.65v1.08Z"/>
            <path class="cls-1" d="M43.57,50.45c1.6-.12,1.89-2.53,3.9-2.11.15.38.32.83.57,1.49-1.17.59-2.28,1.14-3.39,1.7-1,.28-1.34-.09-1.08-1.08Z"/>
            <path class="cls-1" d="M95.82,18.16c.91,1.91.38,3.18-1.28,4.36-.87-1.78-.48-3.09,1.28-4.36Z"/>
            <path class="cls-1" d="M85.8,24.52c-.45-.91-.38-1.52.25-2.02,1.47-.2,2.22,1.4,4.28,1.37-1.91,1.19-3.29.68-4.52.65Z"/>
            <path class="cls-1" d="M46.8,52.6v3.23h-2.15c-.57-.55-.69-1.25-.72-1.99.11-.49.34-.9.72-1.23h2.15Z"/>
            <path class="cls-1" d="M55.4,6.37c-.03.74.33,1.1,1.08,1.08-.34,1.17,2.12,1.27,1.04,2.72-.12.12-.35.37-.36.36-1-.87-1.99-1.76-2.85-2.53.03-.98.06-1.7,1.09-1.62Z"/>
            <path class="cls-1" d="M44.65,52.6v1.08c-.25.38-.58.52-1.02.38-.51-.38-.72-1-1.13-1.46-1.61-.09-.91-1.34-1.08-2.15h2.15c-.03.74.33,1.1,1.08,1.08v1.08Z"/>
            <path class="cls-1" d="M79.05,44c-.03-.74.33-1.1,1.08-1.08.37-.35.43-1,1.08-1.08.53,0,1.06,0,1.59,0,.64.5.72,1.11.19,2.15h-3.93Z"/>
            <path class="cls-1" d="M86.59,48.33c-1.52-.38-2.01-1.95-3.26-2.6.87-1.18,1.92-.56,2.88-.51.71.96.23,2.05.38,3.1Z"/>
            <path class="cls-1" d="M87.66,17.12h1.08v2.96l-.59.33-.9-2.65c-.66-.1-.52-.71.42-.64Z"/>
            <path class="cls-1" d="M47.88,26.79h-1.08c.94-1.58-2.03-2.47-.74-4.12,2.18.7,1.81,2.49,1.82,4.12Z"/>
            <path class="cls-1" d="M76.9,13.89c.93-.07,1.08.53,1.08,1.26,0,1.01,0,2.02,0,3.04-1.01.08-1.01-.61-1.1-1.33-.06-.54-.4-.94-1.05-.82.36-.72.72-1.43,1.08-2.15Z"/>
            <path class="cls-1" d="M64,26.79c-.8-.13-1.02.64-1.52.97-.48-.14-.7-.46-.63-.97q.17-1.84,1.8-1.97c.67.56.22,1.32.35,1.97Z"/>
            <path class="cls-1" d="M68.7,25.79c.97.65,1.89,1.24,1.76,2.61-.49.63-1.09.7-1.78.38-.58-.94-.52-1.89.03-2.99Z"/>
            <path class="cls-1" d="M60.87,58.68v-1.4c1.39-.8,2.7-.11,4.77-.66-1.51,2.07-3.85.43-4.77,2.05Z"/>
            <path class="cls-1" d="M23.15,11.74c-.04-1.05.87-1.51,1.49-1.94.7-.48,1.67-.46,1.73.86-.5,2.07-2.17.67-3.23,1.08Z"/>
            <path class="cls-1" d="M44.7,20.62c-.17,2.05-1.14,2.87-2.97,2.96,1.01-1.01,1.91-1.91,2.97-2.96Z"/>
            <path class="cls-1" d="M37.12,32.17c-2.07-.5-.67-2.17-1.08-3.23h1.65c1.45,1.66-.74,2.12-.57,3.23Z"/>
            <path class="cls-1" d="M77.98,5.29V1.21c.24-.13.48-.27.72-.4.04.77.09,1.54.13,2.3.37-.28.75-.56,1.12-.83-.09,1.05-1.35,1.84-.89,3.02-.36.37-.72.37-1.08,0Z"/>
            <path class="cls-1" d="M68.47,14.99c-.79,1.17-1.26,2.61-3.35,1.86.72-1.39,1.65-2.12,3.35-1.86Z"/>
            <path class="cls-1" d="M57.46,47.24v1.63c-.46.73-1.03.44-1.62.53-.8-1.36-.78-2.25,1.62-2.16Z"/>
            <path class="cls-1" d="M60.78,20.34c.16-.81-.53-2.06,1.08-2.15,1.36.07,1.13.93.92,1.77-.59.7-1.35.25-2,.38Z"/>
            <path class="cls-1" d="M34.5,21.42c-.41,0-.76,0-1.11,0-.65-.48-.71-1.09-.42-1.73.37-.65.96-.35,1.45-.43.83.71.71,1.43.08,2.16Z"/>
            <path class="cls-1" d="M46.8,32.17v-1.08c.81.16,2.06-.53,2.15,1.08v1.08c-.81-.16-2.06.53-2.15-1.08Z"/>
            <path class="cls-1" d="M48.78,41.82c.79-1.17,1.26-2.61,3.35-1.86-.72,1.39-1.65,2.12-3.35,1.86Z"/>
            <path class="cls-1" d="M55.3,53.6c1.41.73,2.35,1.22,3.31,1.71-.89.9-1.89.49-2.83.34-.6-.38-.31-.95-.48-2.05Z"/>
            <path class="cls-1" d="M43.57,53.67h1.08v3.23c-1.83-.34-1.04-2.41-2.15-3.23.36-.38.72-.38,1.08,0Z"/>
            <path class="cls-1" d="M37.12,6.37v4.33c-1.1-2.21-1.62-3.27-2.15-4.33.72-.6,1.43-.6,2.15,0Z"/>
            <path class="cls-1" d="M50.03,9.59h-1.08v-1.98c.75-.08,1.21-.12,1.66-.17.69,1.01.97,1.85-.58,2.15Z"/>
            <path class="cls-1" d="M42.5,9.59c.03.74-.33,1.1-1.08,1.08-1.52-.29-1.45-1.27-.58-2,.57-.47,1.62-.34,1.65.92Z"/>
            <path class="cls-1" d="M70.45,13.89h-1.08c-.75-.52-.33-1.63-1.08-2.15-.03-.74.33-1.1,1.08-1.08h1.08v3.23Z"/>
            <path class="cls-1" d="M74.36,54.56h-4.74c1.89-1.01,2.84-1.16,4.74,0Z"/>
            <path class="cls-1" d="M95,51.92v4.74c-1.01-1.89-1.16-2.84,0-4.74Z"/>
            <path class="cls-1" d="M60.73,37.01c1.12-.85,2.2-.85,3.32,0-1.12.85-2.2.85-3.32,0Z"/>
            <path class="cls-1" d="M81.2,41.85c.03.74-.33,1.1-1.08,1.08v-3.23c1.61.09.91,1.34,1.08,2.15Z"/>
            <path class="cls-1" d="M95.18,41.85v-2.15h1.08v3.23c-.74.03-1.1-.33-1.08-1.08Z"/>
            <path class="cls-1" d="M40.35,5.29c.72-.36,1.43-.72,2.15-1.08v2.15c-.81-.16-2.06.53-2.15-1.08Z"/>
            <path class="cls-1" d="M62.52,42.35c.97-.48,1.68-.84,2.32-1.16.4,1.1.75,2.35-2.32,1.16Z"/>
            <path class="cls-1" d="M79.05,48.3c.12-.65-.3-1.39.44-2.05h1.35c.71,1.05-1.17,1.15-.72,2.05-.36.37-.72.37-1.08,0Z"/>
            <path class="cls-1" d="M39.27,18.19c-.03-.74.33-1.1,1.08-1.08-.18.89.83,1,.99,1.7-.88.67-1.72.99-2.06-.63Z"/>
            <path class="cls-1" d="M80.81,30.91h-4.74c1.89-1.01,2.84-1.16,4.74,0Z"/>
            <path class="cls-1" d="M84.43,8.52h1.08v2.1c-1.64-.4-.85-1.44-1.08-2.1Z"/>
            <path class="cls-1" d="M77.98,5.29h1.08c.52-.07.86.12.95.69-.94.56-1.77.8-2.03-.69Z"/>
            <path class="cls-1" d="M30.67,6.37c.74-.03,1.1.33,1.08,1.08h-1.08c-.52.04-1-.07-.85-.71.04-.18.56-.24.85-.36Z"/>
            <path class="cls-1" d="M68.3,11.74c1.61.09.91,1.34,1.08,2.15-.36.38-.72.38-1.08,0v-2.15Z"/>
            <path class="cls-1" d="M79.05,48.3h1.08c-.26,1.49-1.08,1.25-2.03.69.09-.57.43-.76.95-.69Z"/>
            <path class="cls-1" d="M73.68,37.55c1.49.26,1.25,1.08.69,2.03-.57-.09-.76-.43-.69-.95v-1.08Z"/>
            <path class="cls-1" d="M90.88,34.32c-.08-1.01.61-1.13,1.33-1.05.54.06.94.4.82,1.05h-2.15Z"/>
            <path class="cls-1" d="M64,32.17c-1.01.08-1.13-.61-1.05-1.33.06-.54.4-.94,1.05-.82v2.15Z"/>
            <path class="cls-1" d="M75.91,29.48c-.88.7-1.48.74-2.1.16.44-1.17,1.13-.85,2.1-.16Z"/>
            <path class="cls-1" d="M68.3,13.89h1.08v1.08h-1.08v-1.08Z"/>
            <path class="cls-1" d="M74.75,60.12c.03.74-.33,1.1-1.08,1.08-.03-.74.33-1.1,1.08-1.08Z"/>
            <path class="cls-1" d="M48.95,61.2c.52-.04,1,.07.85.71-.04.18-.56.24-.85.36v-1.08Z"/>
            <path class="cls-1" d="M51.1,65.5v-1.08c.74-.03,1.1.33,1.08,1.08-.36.29-.72.29-1.08,0Z"/>
            <path class="cls-1" d="M96.26,32.17c.74-.03,1.1.33,1.08,1.08-.74.03-1.1-.33-1.08-1.08Z"/>
            <path class="cls-1" d="M43.04,31.1c.5.35.5.71,0,1.06-.5-.35-.5-.71,0-1.06Z"/>
            <path class="cls-1" d="M79.05,55.82c.03.74-.33,1.1-1.08,1.08-.03-.74.33-1.1,1.08-1.08Z"/>
            <path class="cls-1" d="M57.01,17.12c.5.35.5.71,0,1.06-.5-.35-.5-.71,0-1.06Z"/>
            <path class="cls-1" d="M-1.58,28.95v-2.15c.89-.22.99.88,1.75.94.44-.37.79-1.1,1.54-.96,1.23,1.36,2.41,2.67,4.13,4.56-.02-.17-.9-.04-.97.1-.92-.92-1.91-1.4-2.96-2.45-1.05.89-1.47.64-1.84.95-.62-.18-.78-1.17-1.66-.99Z"/>
            <path class="cls-1" d="M15.7,17.05c-1.4.65-2.6,1.93-4.22.76.01-1.39,1.6-.13,1.86-1.1.92-1.43-1.49-1.87-.89-3.21.54-1.12,2.04-.71,2.74-1.66,1.67,1.43-.8,1.98-.61,3.34.29.49.71,1.19,1.12,1.87Z"/>
            <path class="cls-1" d="M9.17,9.59c.13-.87-.73-1.07-1.06-1.61.33-.55,1.19-.75,1.06-1.61,1.08-.72,2.15-1.43,3.23-2.15.32.39,1.03.41,1.08,1.08-1.11.81-.32,2.89-2.15,3.23-.09,1.61-1.34.91-2.15,1.08Z"/>
            <path class="cls-1" d="M7.02,20.34c.03-1.03-.37-2.22,1.23-2.5-.7-.82-1.69-1.24-.94-2.69.24-.28.84-.35,1.58.04.77,1.85.21,3.53-.8,5.14-.36.42-.72.42-1.08,0Z"/>
            <path class="cls-1" d="M13.47,4.22c1.29-1.7,2.97-2.36,5.42-2.05-.99,2.06-3,2.15-4.35,3.12-.32-.4-1-.43-1.08-1.08Z"/>
            <path class="cls-1" d="M.51,17.78c1.82-.24,3.32-1.27,4.69-1.8.89.52.7,1.08.78,1.83-1.72.87-3.63.08-5.47-.03Z"/>
            <path class="cls-1" d="M7.02,20.34h1.08c.17.67-.44.88-.79,1.35-.16,1.3,1.59,1.4,1.74,2.53-.34.58-1.1.61-1.38.38-2.19-1.75-2.17-1.82-.64-4.26Z"/>
            <path class="cls-1" d="M14.55,23.57c-.74.03-1.1-.33-1.08-1.08.16-.81-.53-2.06,1.08-2.15.66.07,1.42.2.58.99-.73.68-.53,1.46-.58,2.24Z"/>
            <path class="cls-1" d="M22.07,4.22c2.01.66.88,1.98.77,3.17-1.23-.45-.6-1.4-.77-2.1-.24-.24-.32-.48-.24-.72.08-.24.16-.36.24-.36Z"/>
            <path class="cls-1" d="M1.95,24.25c1.32-.66,2.04-1.02,2.51-1.25q.34,1.43-2.51,1.25Z"/>
            <path class="cls-1" d="M8.1,5.29h-2.15c-.08-1.01.61-1.13,1.33-1.05.54.06.94.4.82,1.05Z"/>
            <path class="cls-1" d="M13.47,4.22c.74-.03,1.1.33,1.08,1.08h-1.08c-.74.03-1.1-.33-1.08-1.08h1.08Z"/>
            <path class="cls-1" d="M.57,11.74c-.08-1.01.61-1.13,1.33-1.05.54.06.94.4.82,1.05H.57Z"/>
            <path class="cls-1" d="M3.8,4.22v-1.08h1.08c.03.74-.33,1.1-1.08,1.08Z"/>
            <path class="cls-1" d="M22.07,4.22v1.08c-.52.04-1-.07-.85-.71.04-.18.56-.24.85-.36Z"/>
            <path class="cls-1" d="M4.87,7.44c-.74.03-1.1-.33-1.08-1.08.74-.03,1.1.33,1.08,1.08Z"/>
            <path class="cls-1" d="M5.95,6.37c.52-.04,1,.07.85.71-.04.18-.56.24-.85.36v-1.08Z"/>
            <path class="cls-1" d="M10.25,27.87c.03.74-.33,1.1-1.08,1.08-.03-.74.33-1.1,1.08-1.08Z"/>
            <path class="cls-1" d="M9.17,30.02c.03.74-.33,1.1-1.08,1.08-.03-.74.33-1.1,1.08-1.08Z"/>
            <path class="cls-1" d="M42.43,4.61c.26-1.51-.13-2.4-1.24-3.37h7.71c-1.45,2.75-4.41,1.88-6.47,3.37Z"/>
            <path class="cls-1" d="M98.41,33.25v-2.15c1-.44,0-2.86,2.15-2.15v12.9h-2.71c-1.04-1.03-.26-2.35-.61-3.82.74-.53,1.6-1.15,2.48-1.79-1.11-.99-1.51-1.88-1.31-2.99Z"/>
            <path class="cls-1" d="M100.56,28.95c-1.01-.08-1.01.61-1.1,1.33-.06.54-.4.94-1.05.82v-2.15c-.08-1.01.61-1.13,1.33-1.05.54.06.94.4.82,1.05Z"/>
            <path class="cls-1" d="M43.57,53.67h-1.08v-1.08c.74-.03,1.1.33,1.08,1.08Z"/>
            <path class="cls-1" d="M69.37,64.42c-.52.09-.84-.15-.95-.64-.02-.08.23-.33.32-.32.49.11.73.44.64.95Z"/>
            <path class="cls-1" d="M60.78,28.95c1.47,1.08,1.47,2.14,0,3.23-.04-.78.16-1.55-.58-2.24-.84-.79-.08-.92.58-.99Z"/>
            <path class="cls-1" d="M37.12,6.37h-2.15c-.08-1.01.61-1.13,1.33-1.05.54.06.94.4.82,1.05Z"/>
            <path class="cls-1" d="M11.32,8.51c-.52.09-.84-.15-.95-.64-.02-.08.23-.33.32-.32.49.11.73.44.64.95Z"/>
          </g>
        </g>
      </g>
      <g>
        <path class="cls-1" d="M82.47,69.75c-2.8-3.07-7.41-4.19-12.16.7-2.62,2.7-3.33,3.43-6.15,6.29-7.08,7.17-19.06,4.01-22.22-6.71-2.47-8.35-11.88-42.21-13.84-47.94s-8.25-7.27-10.48,0c-2.42,7.85-12.16,48.7-16.56,67.26,2.04,4.82,6.82,8.22,12.36,8.22h66.81c6.27,0,11.57-4.36,13.02-10.19-3.14-5.99-7.72-14.25-10.78-17.62Z"/>
        <g class="cls-2">
          <g>
            <path class="cls-1" d="M2.64,75.53v-5.41c.81-7.48,1.72-14.94,4.19-22.11,1.39-1.99,2.68-4.09,4.96-5.13,2.08.41,2.89,2.05,3.92,3.45.27.43.46.91.58,1.4.36,2.07-1.72,2.81-2.37,4.32-.13.46-.17.93-.12,1.45.78-.45.16-1.24.46-1.78,1.06-1.3,2.18-2.54,3.16-3.9,1.1-.95,2.32-1.45,3.78-1.11-1.64-1.98-.13-3.47.8-5.06.3-.4.67-.74,1.08-1.02.49-.14.98-.12,1.46.07,1.13.97,2.41,1.87,2.23,3.65-.8,1.35-1.99,2.58-1.5,4.25,1.15,1.88,3.53,1.1,4.73,2.57-1.16-1.43-3.22-1.13-4.51-2.21-.46-2.21.4-3.6,2.13-4.57,1.04-.3,2.04-.19,3.02.25,1.98,1.62,4.07,3.1,6.16,4.6,1.62,1.57,1.76,3.78,2.5,5.74.93,4.62,3.3,8.79,4.23,13.41-.52,2.44-2.11,2.46-3.96,1.8-.28-.21-.47-.35-.52-.38.28.14.54.33.79.61.63.78.24,1.62.24,2.43,1.22-1.86,2.9-1.77,4.7-1.16.93.51,1.48,1.29,1.72,2.31-.1,1.36-.2,2.72,1.01,3.74.51.88.61,1.83.54,2.81-.08,1.25-.87,2.77,1.25,3.14,1.11.21,1.76,1.14,2.67,1.63,1.1.37,2.01-.43,3.05-.48.49.07.88.29,1.17.69.58.84.62,1.78.59,2.74.05.62.03,1.26.55,1.75.47-.36-.15-.6-.12-.92-.29-1.59-.21-3.19-.72-4.83,3.26-1.71,6.12-2.77,8.59.68.27.09.43.32.45.63.26-.24.17-.39-.3-.46-.86-1.26-2.04-2.28-2.33-3.85.07-.74-.26-3.31.11-3.94,1.23-1.57,2.77-4.71,4.72-5.24.47-.03,1.51,3.92,1.95,4.1.65.66,1.04,1.47,1.41,2.31.15.41.25.84.29,1.27.26,1.16,1.48.65,2.1,1.18.99.69,2.18.85,3.46,1.25-1.16-.58-2.36-.57-3.28-1.29-.37-.27-.78-.42-1.23-.48-.44-.13-.75-.41-.95-.82-.07-.43-.17-.85-.32-1.25-.18-.39-.35-.79-.51-1.2-.19-.4-.36-.81-.52-1.23-.04-.46-2.47-3.18-2.33-3.62.22-.42,2.12-2.14,2.48-2.45.39-.27,1.69,3.23,2.15,3.22.2.09.41.19.6.27.23.25.53.43.91.54.58-1.47-1.4-4.84-.58-6.27,5.57-4.75,9.77-3.04,14.95,1.77,1.11,2.03-.18,3.24-1.51,4.44-.22.39-.4.79-.51,1.22-.11.66-.16,1.32-.18,1.99,0,.92-.04,1.84-.23,2.75-.14.46-.33.9-.55,1.32-.56,1.12-.18,1.93.91,2.59-.51-.44-.77-.91-.86-1.49.33-1.85,1.43-1.64,2.69-1.02,1,.64,1.78,1.52,2.54,2.41.3.34.58.7.86,1.06.59.7,1.31,1.3,1.67,2.18.86,4.83-3.3,4.99-6.03,6.5-.53.17-1.08.26-.91.42.01,0,.81.16,1.51.6,1.29,1.18,1.31,2.46.09,3.63-1.69,1.64-3.21.49-5.11-.75.1,1.71,1.07,3.69-1.31,4.24-5.02.7-10.02.94-15.02-.14-2.54-2.44-.05-3.83,1.14-5.48.44-.26.92-.39,1.4-.4.4-.44.97,1.32,1.34-.12.05-.43.19-.8.42-1.16.41-.75.89-1.42,1.5-2.11-.86.67-1.27,1.62-2.03,2.26-.42.32-.88.57-1.39.73-3.38.88-2.79,5.38-5.93,6.49-7.88.74-15.76.89-23.63-.11-1.52-.51-2.41-1.61-2.9-3.09-.87-1.88.6-4.13-.95-5.88-1.55.97-3.07,1.47-4.6.04-.15-.19-.3-.39-.46-.58-.21-.44-.34-.92-.39-1.41-.04-.99.33-1.88.72-2.76.85-2.64-.86-5.02-.81-7.57.01-.48.08-.96.19-1.43.32-1.15.62-2.31.72-3.51.48-2-1.48-3.74-.82-4.92-.75,3.65-3.84,3.56-7.31,2.71-.45-.24-.79-.59-1.03-1.04-.14-.48-.14-.96-.02-1.44.3-.9.84-1.67,1.41-2.41.22-.41.44-.81.62-1.24.41-1.46-.38-2.86-.18-4.26.01-.31.14-.61.39-.89-.83-.02-.74.94-1.3,1.18-.88.83-.08,1.47.25,2.17.69,1.88-.17,3.38-1.2,4.82-.34.67-.73,1.3-1.38,1.72-2.66,1.11-6.39-.83-8.14,2.88-1.26,2.75-.21,7.28-5.4,6.96-1.87-1.23-.05-3.49-2.09-4.84-.31.01-1.99,1.61-1.91-1.11Z"/>
            <path class="cls-1" d="M2.64,75.53c.12.3.17.79.38.87.43.17.94.12,1.3.15,1.1-.88-.13-2.2.93-3.08h1.51c.9,1.81-1.9,2.99-.69,4.9.51.23,1.25.56,1.97.89-.33,1.12-2.35-.05-2.16,1.69,0,0-.3.33-.31.33,0,0-.47,0-.47,0,0,0-.39-.26-.4-.25.24.59.09,1.04-.47,1.37-2.22.31-2.59-1.43-3.23-2.88-.03-1.02-.13-2.04.56-2.91-.03-.75.33-1.11,1.08-1.08Z"/>
            <path class="cls-1" d="M26.45,13.84c.92,2,2.31,3.82,2.4,6.15,0,.12.51,1.98.8,2.09,1.33,3.83,1.44,6.42,2.2,10.48-.27,3.3,1.97,6.1,2.71,9.19.38,1.56.25,3.06.54,4.55-2.22,2.73-2.87-.79-4.33-1.08h-3.25c-.38-.32-.57-.74-.56-1.24-.04-1.77-1.78-2.07-2.69-3.09h-1.08c-.48.05-.61.3-.39.74.12.23.25.34.39.34-.22,1.33-1.61,1.77-2.16,2.84-.42,1.04.78,1.38.96,2.23-1.39.5-3.03.31-4.21,1.42-.91.02-1.59-.44-2.16-1.08-1.36-2.29-1.32-5.81-4.88-5.37-1.17-1.77-1.42-3.04-.54-4.37v-1.08c1.47-1.17.5-2.94,1.08-4.33,1.39-5.55,2.67-11.14,5.41-16.23,1.25-1.47,2.51-2.94,3.61-4.24,1.97-.26,3.62-.13,5.05,1,.33.39.7.75,1.08,1.08Z"/>
            <path class="cls-1" d="M38.36,100.42c-8.43,0-16.87-.1-25.3.05-3.05.05-5.74-.61-8.25-2.22-1.53-2.25-.4-3.63,2.2-4.55-1.16-.34-1.61-.61-2.03-.96-.37-.36-.66-.77-.88-1.23-1.14-3.01.99-4.76,2.57-6.73.24-.44.52-.86.79-1.27,2.05-1.81,2.6-4.71,4.7-6.49,1.86-.87,2.55,1.82,4.28,1.41,2,.89,2.58,2.32,1.85,4.01-1.16,2.11-3.94-.25-4.94,3.31,2.16-3.42,5.13-1.07,7.14-2.72.67-.59,1.38-1.13,2.03-1.73.63-.64,1.21-1.33,2.07-1.7.47-.07.88.06,1.24.36,1.16,1.32,1.06,2.84.69,4.39.26,1.15,1.31.96,2.09,1.23,2.99.74.92,3.62,2.18,5.1v1.08c-.57.52-.55,1.26-.7,1.91-.06.36-.16.67-.28.89.41-.42.35-.98.46-1.51.03-.5.21-.92.52-1.29.68.37,1.35.74,2.01,1.1,1.32-.19,2.02-.98,2.32-2.18,2.23-.44,1.65,1.2,1.53,2.25-.17,1.5-1.14,3.05.63,4.25-.53,1.38.93,2.1,1.08,3.25Z"/>
            <path class="cls-1" d="M96.8,82.02c.34,1.77,2.32,2.14,3.02,4.02-.26.9,1.43,2.67-.86,3.56-.64.39-1.08.13-1.43-.37-.7-.53.05.25-.1.2.74,1.65-1.76,2.82-.63,4.5-.64,1.52-1.72,2.61-3.25,3.25-2.27-.93-3.04,1.14-4.33,2.16.07.98-.57,1.08-1.31,1.08-1.73,0-3.46,0-5.18,0-.79-1.6-1.58-3.19-2.33-4.7,1.01-1.12,1.19.07,1.77.28.32-.27.68-.58,1.06-.91.73,1.18.96,2.82,2.69,3.17,1.16-.14,1.66-1.05,2.22-1.91-.02-.72-.07-1.41-1.09-1.33-.61-.72-.66-1.44,0-2.16.12-.65-.3-1.4.33-1.96.97-.53,1.62-.06,2.44,1.13.73-1.29,1.39-2.45,2.05-3.62.2.19.39.38.59.57v-2.62c-.68-1.6-1.02-3.12.96-4.11,1.1-.46,2.21-.8,3.37-.22Z"/>
            <path class="cls-1" d="M96.8,82.02c-1.15.16-1.87,1.61-3.25,1.08-1.79-.42-3.64-.55-5.41-1.08-.82.16-.98-.7-1.63-.95-.38.11-.61.43-.53.95-1.02.3-1.37-.07-1.08-1.08v-1.08c1.6-2.16,1.6-4.33,0-6.49.25-2.05,2.05-.57,2.89-1.26.68-.56.22-1.32.35-1.98,3.19,3.75,6.7,7.26,8.66,11.9Z"/>
            <path class="cls-1" d="M57.78,78.64c.72,0,.99.45,1.71.45l.84-.17s-.08,2.75-.05,2.7c.03-.05-.09.19-.09.19,0,0,.27-.15.3-.17.47-.17.08-2.07.43-2.44.32-.26,1.59-1.7,1.99-1.71.15.14.19,3.31.34,3.45-.05,1.06.9,1.45,1.49,1.97.8.7.66,1.52.67,2.36h-1.57c-.79-.39-.44-1.24-.91-2.04-1.72,1.74-4.09.44-6.55,1.46,1.23.61,2.18,1.07,3.25,1.6-1.62,1.29-1.96,2.2-1.79,3.32-1.22.63-1.57-.48-2.16-1.08v-3.25c-.39-.33-.83-.55-1.33-.68-.2-.16-.39-.33-.59-.49-.83-1.1-1.29-3.5-.2-4.73.76-.25,1.73-1.17,2.38-.56.72,0,1.13-.17,1.85-.17Z"/>
            <path class="cls-1" d="M22.12,72.28c1.97,0,3.93,0,5.9,0,1.24-1.87,2.01-3.88,1.69-6,.83-.76,1.43-.53,2.35-.02-.8,1.72-1.84,3.39-1.21,5.35.21,1.13,1.62.25,2.08,1.25.72,1.25-1.24,1.56-1.08,2.66-.44.38-.95.52-1.53.44-2.89-1-5.97-.41-8.88-1.05-1.76-.39-4.04.25-4.93-2.17,1.75-1.55,3.65-1.36,5.6-.46Z"/>
            <path class="cls-1" d="M53.51,80.94c-.53,1.38.93,2.1,1.08,3.25-.69,1.32-1.71,2.13-3.25,2.16-1.02.08-1.02-.62-1.1-1.34-.06-.54-.4-.94-1.06-.82-1.27-.72-1.58-2.07-2.16-3.25v-3.25c.29-.39.69-.55,1.17-.51,1.05.06,1.52.89,2.08,1.59h1.08c.31.41.75.69,1.08,1.08h1.08c.38.24.5.48.38.72-.13.24-.25.36-.38.36Z"/>
            <path class="cls-1" d="M10.22,37.65c0,1.64-.36,3.44,1.79,4.16.25-.25.49-.49.62-.62.95.88,1.91,1.77,3,2.77v3.43c-2.32-.4-1.98-3.12-3.75-4.24-.96,1.68-1.75,3.57-3.82,4.24.05-3.18,1.6-6.15,1.31-9.39,0-.09.56-.23.86-.35Z"/>
            <path class="cls-1" d="M45.93,93.92c.03-1.04-.37-2.23,1.91-2.66-1.41-.95-2.26-1.52-3.1-2.09,1-1.04,1.95-.47,2.78-.66,1.16.72.2,2,.78,2.92.66.74.7-.38,1.69-.45.63.77,1.93,1.44,2.44,2.94-1.28-.19-2.85.68-3.67-1.19-1.22,1.34-.24,3.04-.8,4.27-1.12.22-1.98.42-2.03-.91.1-.72.72-1.44,0-2.16Z"/>
            <path class="cls-1" d="M22.12,72.28c-1.37,0-2.75,0-4.12,0-.74,0-1.36.12-1.29,1.08.73.79.63,1.51-.17,2.16-1.13.43-2.01-.27-2.97-.6-.44-.16-.86-.37-1.28-.59-.2-.13-.39-.27-.58-.4-.14-.19-.28-.38-.42-.57.52-2.27,2.88-2.11,4.28-3.37,1.28,1.14,2.79,1.34,4.38,1.2.72-.61,1.44-.66,2.16,0v1.08Z"/>
            <path class="cls-1" d="M30.78,79.86c1.13,2.33.63,5.12,2.12,7.39.34.52-.07,1.34-1.03,1.27-1.38-.75-1.93-1.89-1.65-3.49-.73.69-1.6.84-2.53.76-.82-.02-1.34-.43-1.56-1.21.25-.76.85-.93,1.54-.93-.82-1.41-.34-2.63.53-3.81.38-.32.82-.51,1.32-.58.5.04.93.26,1.28.61Z"/>
            <path class="cls-1" d="M27.54,44.14v1.08c-1.76.02-.65,2.32-2.17,2.63.5.54.97,1.03,1.53,1.63.36-.29.72-.57,1.18-.94,1.37,1.09,2.33,3.21,4.76,1.82v2.47c-2.75-1.96-6.37-1.26-8.54-3.8-.08-2.1.41-3.78,2.16-4.89.36-.52.72-.52,1.08,0Z"/>
            <path class="cls-1" d="M42.69,69.03c1.84.34,1.05,2.43,2.16,3.25h-3.9c-.93,1.51.16,3.05-.83,4.21-.51.1-1.01.3-1.76-.5.91-1.66,1.32-3.73,1.08-5.87.88.26,1.61-1.98,2.65-.15.08.14.67-.41.6-.93Z"/>
            <path class="cls-1" d="M12.38,77.69c-2.26.22-.29,2.44-1.57,3.26-.95.62-1.88,1.49-1.9,2.87,0,.12-.56.24-.86.36-.47-.76-1.17-1.06-2.05-.98-.76-.72-.92-1.47-.12-2.26.89,0,1.78,0,2.66,0,1.24-1.89,1.96-3.9,1.68-6.21-.09-.72.03-1.44,1.07-1.36.46.42.83.91,1.03,1.51.22.58.41,1.17.54,1.77.02.43-.13.79-.49,1.05Z"/>
            <path class="cls-1" d="M69.52,69.77c.64-1.52,2.6-2.36,4.12-3.01.01.87,1.26,5.18,2.66,5.9-2.04,1.25-.53,3.43-1.51,4.97-.48.02-.83.04-1.19.06-1.73-.99-1.58-7.24-4.08-7.93Z"/>
            <path class="cls-1" d="M37.28,97.17h-2.88c-.97-1.93.73-2.31,1.25-3.27.64-1.17,1.41-2.45-.53-3.23.36-2.22,2.03-.26,2.61-1.16,2.01,1.87-1.19,2.36-.53,3.96.44,1.06.08,2.45.08,3.69Z"/>
            <path class="cls-1" d="M88.14,82.02c.12-.65-.3-1.4.63-2.23.57,2.66,3.69,1.3,4.78,3.31q-1.23,1.12-.18,2.89c-.3.12-.6.24-.9.36-.82-.16-2.07.54-2.16-1.08.3-.23.48-.53.49-.91,0-.12-.22-.18-.49-.18-1.18-.26-1.9-.98-2.16-2.16Z"/>
            <path class="cls-1" d="M24.29,62.54c.03.81.01,1.53.59,2.32.73,1,1.33,2.4-.59,3.09-.26,1.18-.98,1.9-2.16,2.16-.36.46-.72.46-1.08,0-.18-1.91,1.64-3.42,1.08-5.41-.11-1,.43-1.73,1.01-2.44.45-.2.84-.12,1.16.27Z"/>
            <path class="cls-1" d="M72.99,79.86c2.35,1.78,4.72,1.19,6.94-.13,1.54,1.7-.12,2.27-.82,3.23-2.37.45-4.52.09-6.12-2.02-.37-.24-.5-.48-.37-.72.12-.24.25-.36.37-.36Z"/>
            <path class="cls-1" d="M84.89,80.94c-.03.75.33,1.11,1.08,1.08.37,2.01,2.99,2.39,3.25,4.36-.07,1.13-.8,1.06-1.61,1.05-.84-2.41-2.6-4.04-4.86-4.81-.16-2.18,1.21-1.58,2.14-1.67Z"/>
            <path class="cls-1" d="M14.55,51.72c-.11,1.44,1.22.84,1.41.98-1.19,1.19-2.46,2.46-3.28,3.28.11-.7-1.43-2.67.79-4.27.36-.46.72-.46,1.08,0Z"/>
            <path class="cls-1" d="M74.41,98.06c1.84-2.59,3.15-4.44,4.68-6.59.23,4.59-.69,6.06-4.68,6.59Z"/>
            <path class="cls-1" d="M31.74,54.15v6.75c-.53.6-1,1.13-1.47,1.66-.44-.44-.82-.82-1.22-1.22.46-2.18,1.07-4.32,2.69-7.2Z"/>
            <path class="cls-1" d="M30.78,45.22c1.97-.66,2.57,1.51,3.97,2.04.14-.38.25-.67.36-.96,2.09.51.67,2.18,1.08,3.25-.81-.03-1.69.22-2.28-.65-.76-1.11-1.88-1.74-3.13-1.78v-1.9Z"/>
            <path class="cls-1" d="M69.74,93.92c1.49-1.93,2.21-4.64,5.54-5.21-.7,2.83-3.09,4.23-4.46,6.29-.6-.12-.96-.49-1.08-1.08Z"/>
            <path class="cls-1" d="M55.67,88.51c.72.36,1.44.72,2.16,1.08,1.46-.4,2.29.52,3.19,1.59-.42.46-.85.93-1.42,1.56-1.54-1.21-4.32-1.14-3.93-4.23Z"/>
            <path class="cls-1" d="M84.89,73.36h1.71c1.12,1.97-.04,4.1.56,5.79-.83,1.03-1.61.57-2.27.7v-3.25c.68-.72.69-1.44,0-2.16v-1.08Z"/>
            <path class="cls-1" d="M65.41,100.42h-1.08c.24-2.97,1.74-5.09,4.33-6.49.63.72.63,1.44,0,2.16-2.27.55-2.11,2.92-3.25,4.33Z"/>
            <path class="cls-1" d="M39.44,70.12c-.9,0-1.8,0-2.7,0-.6-.92-2.34-1.33-1.29-3.11,1.75-.81,2.43,1.65,3.99,1.45v1.65Z"/>
            <path class="cls-1" d="M47.02,80.94c1.71.42,2.34,1.57,2.16,3.25.04.53-.38,1.2-.66.85-.87-1.09-1.52-.42-2.14.19-1.22-1.81.07-2.98.64-4.29Z"/>
            <path class="cls-1" d="M48.1,77.69h-3.98c-.17-.57-.26-.88-.35-1.18-.24-1.7,2.5-.27,2.16-2.07,1.18.26,1.9.98,2.16,2.16.37.24.5.48.37.72-.12.24-.25.36-.37.36Z"/>
            <path class="cls-1" d="M27.54,85.27c1.05.1,2.01-.02,2.89-1.42.33,1.82.45,3.42,1.44,4.67-1.62.09-.92,1.34-1.08,2.16-.67.12-1.02-.29-1.06-.84-.07-1.04-.02-2.09-.02-2.92-.74-.9-1.5-.44-2.16-.57-.32-.24-.43-.48-.32-.72.11-.24.21-.36.32-.36Z"/>
            <path class="cls-1" d="M52.43,93.92h1.66c.58,1.17,1.16,2.36,1.68,3.4-.46,1.06-1.58,1.2-1.74.79-.53-1.39-2-2.46-1.6-4.19Z"/>
            <path class="cls-1" d="M14.55,51.72h-1.08c-.05-1.06.9-1.45,1.49-1.97.8-.7.66-1.52.67-2.36.82.16,2.07-.54,2.16,1.08-.64,1.52-1.72,2.61-3.25,3.25Z"/>
            <path class="cls-1" d="M87.06,92.84v2.16c-1.36-.53-2.44-1.88-4.23-.88v-2.96c.29-.55.46-.5.8-.16.95.96,1.72,2.29,3.43,1.84Z"/>
            <path class="cls-1" d="M23.21,62.54c-.16.82.54,2.07-1.08,2.16-1.02-.13-2.11.31-3.15-.4v-1.35c1.05-.72,2.14-.27,3.15-.4.36-.46.72-.46,1.08,0Z"/>
            <path class="cls-1" d="M23.21,62.54h-1.08c1.01-1.19,1.05-2.71,1.5-5.08.65,1.32,1,2.05,1.36,2.78,1.05.92-.86,1.19-.69,2.3h-1.08Z"/>
            <path class="cls-1" d="M29.7,79.86h-1.08c-.42.37-.84.35-1.26,0-.11-2.43,1.74-3.32,3.43-4.33h1.08c-.41,1.07,1,2.74-1.08,3.25-.29.43-.71.73-1.08,1.08Z"/>
            <path class="cls-1" d="M27.54,44.14h-1.08c.12-.67-.3-1.07-.83-1.05-1.82.05-1.25-1.25-1.34-2.19h3.25v3.25Z"/>
            <path class="cls-1" d="M51.35,86.35c.34-1.84,2.43-1.05,3.25-2.16.27.24.37.48.27.72-.09.24-.18.36-.27.36.05,1.06-.87,1.52-1.5,1.95-.71.48-1.68.46-1.74-.87Z"/>
            <path class="cls-1" d="M13.37,66.14v1.39c-1.02.88-1.99.06-3.05.62q.39-2.24,3.05-2Z"/>
            <path class="cls-1" d="M65.4,85.27h2.73c.49.5.99,1.01,1.5,1.54-.19.2-.37.57-.59.6-1.72.2-3.1-.27-3.64-2.14Z"/>
            <path class="cls-1" d="M70.83,96.09h1.76c.54.93.56,1.52-.06,2.1-1.62.25-2.33-.74-2.78-2.1.36-.38.72-.38,1.08,0Z"/>
            <path class="cls-1" d="M38.71,61.97c-1.55.71-2.51.81-3.5.15v-1.33c1.66-1.2,2.1.55,3.5,1.17Z"/>
            <path class="cls-1" d="M34.56,56.89c.44.71.89,1.44,1.36,2.21-.61.76-1.68-.21-2.46.3-.65-1.11-.96-1.88,1.1-2.5Z"/>
            <path class="cls-1" d="M14.63,65.4v-3.52c.91-.8,1.53-.42,2.03.02.24,1.64-1.02,1.99-2.03,3.5Z"/>
            <path class="cls-1" d="M23.21,41.98c-1.59.41-2.35-.69-3.43-1.83,1.43-.13,2.76-1.27,3.43.75v1.08Z"/>
            <path class="cls-1" d="M70.83,96.09h-2.16v-2.16h1.08c.75-.03,1.11.33,1.08,1.08v1.08Z"/>
            <path class="cls-1" d="M72.99,79.86v1.08c-1.11-.15-1.57,1.95-3.08.73.29-.58.6-1.19.91-1.81.36-.52.72-.52,1.08,0h1.08Z"/>
            <path class="cls-1" d="M80.02,72.33c-.85-1.13-.85-2.21,0-3.35.85,1.13.85,2.21,0,3.35Z"/>
            <path class="cls-1" d="M70.83,78.77c-1.62-.09-.92-1.34-1.08-2.16.36-.42.72-.42,1.08,0,.35.38.67.78,1.08,1.08v1.08c-.36.42-.72.42-1.08,0Z"/>
            <path class="cls-1" d="M70.83,76.61h-2.16c0-.36-.4-2.71-.4-3.07.72-.36,1.84,1.26,2.57.9v2.16Z"/>
            <path class="cls-1" d="M45.93,93.92c1.02-.08,1.14.62,1.06,1.34-.06.54-.4.94-1.06.82-.52.08-.84-.15-.98-.63.34-.51,1.11-.73.98-1.53Z"/>
            <path class="cls-1" d="M84.89,74.44c1.02-.08,1.14.62,1.06,1.34-.06.54-.4.94-1.06.82v-2.16Z"/>
            <path class="cls-1" d="M22.67,50.65c-.79-.73-.79-1.45,0-2.19.79.73.79,1.45,0,2.19Z"/>
            <path class="cls-1" d="M21.04,70.12h1.08v1.08h-2.16c-.03-.75.33-1.11,1.08-1.08Z"/>
            <path class="cls-1" d="M90.31,84.18c-.07-.52.12-.87.7-.96.56.95.81,1.78-.7,2.04v-1.08Z"/>
            <path class="cls-1" d="M54.59,85.27v-1.08c.75-.03,1.11.33,1.08,1.08h-1.08Z"/>
            <path class="cls-1" d="M71.91,77.69c-.75.03-1.11-.33-1.08-1.08.75-.03,1.11.33,1.08,1.08Z"/>
            <path class="cls-1" d="M29.7,79.86c-.03-.75.33-1.11,1.08-1.08v1.08h-1.08Z"/>
            <path class="cls-1" d="M81.11,87.44c.5.35.5.71,0,1.06-.5-.35-.5-.71,0-1.06Z"/>
            <path class="cls-1" d="M63.25,79.86h1.08c.03.75-.33,1.11-1.08,1.08-.35-.24-.47-.48-.35-.72.12-.24.23-.36.35-.36Z"/>
            <path class="cls-1" d="M70.83,78.77h1.08v1.08h-1.08v-1.08Z"/>
            <path class="cls-1" d="M70.83,74.44c-.03-.75.33-1.11,1.08-1.08.03.75-.33,1.11-1.08,1.08Z"/>
            <path class="cls-1" d="M8.06,85.27c-.44,1.45-1.25,2.46-3.25,2.08v4.41c-1.8.26-3.61.21-5.41,0-.3-.12-.84-.2-.87-.37-.36-1.81.22-3.53,1.95-6.12,2.31.85,3.95-1.15,6-1.41.84.13,1.1.88,1.57,1.41Z"/>
            <path class="cls-1" d="M6.97,84.18c-1.82.49-2.45,2.46-3.79,3.16H.95c-.81-.64-.33-1.42-.47-2.08v-2.16c.73-.54.34-1.63,1.08-2.16v-1.08c1.64-.14.62,1.68,1.69,2.11.67.09,1.53.26,1.55-1.02h1.08c.16.82-.54,2.07,1.08,2.16.27.24.36.48.27.72-.09.24-.18.36-.27.36Z"/>
            <path class="cls-1" d="M-.6,91.76c1.7.16.54-1.84,1.65-2.12,1.86-.43,2.15,2,3.76,2.12,1.31,2.46-.49,3.36-2.16,4.33-1.74-.95-3.41-1.95-3.25-4.33Z"/>
            <path class="cls-1" d="M2.64,96.09c-.05-1.06.9-1.45,1.49-1.97.8-.7.66-1.52.67-2.36,1.86,1.64,4.29.87,6.82,1.2-.82.87-1.27,1.36-1.89,2.03h-4.43c-.83,1.14-.35,2.24-.49,3.27-1.18-.26-1.9-.98-2.16-2.16Z"/>
            <path class="cls-1" d="M96.8,93.92c-1.14-.57-2.27-1.14-3.17-1.59-.18-1.02.1-1.41.62-1.65,1.03-.43,1.35.83,2.18.92.69-.96.22-2.06.36-3.09.36-.44.72-.44,1.08,0-.03.75.33,1.11,1.08,1.08.09,1.85-.75,3.23-2.16,4.33Z"/>
            <path class="cls-1" d="M89.22,99.34c-.3-.12-.6-.24-.94-.38.63-1.24,1.47-2.17,3.55-1.68-.8-.95-1.11-1.31-1.47-1.73.43-.46.89-.94,1.39-1.47,1.39.58,2.02,1.58,1.81,3.09-1.1,1.42-2.48,2.25-4.33,2.16Z"/>
            <path class="cls-1" d="M1.56,80.94c-.16.82.54,2.07-1.08,2.16v-2.16h1.08Z"/>
            <path class="cls-1" d="M11.3,32.24c.37.68.74,1.35,1.1,2.01-.19,1.32-.98,2.02-2.18,2.32,0-1.02,0-2.04,0-3.06,0-.74.15-1.34,1.08-1.27Z"/>
            <path class="cls-1" d="M4.94,81.37c-1.55-1.07-1.16-1.79-1.03-2.61,1.39.51.71,1.48,1.03,2.61Z"/>
            <path class="cls-1" d="M21.04,18.17c1.7,1.47,3.32,3.05,5.39,3.63.06.9.02,1.41-.79,1.95-2.19-1.8-5.35-2.54-6.76-5.58.72-.62,1.44-.67,2.16,0Z"/>
            <path class="cls-1" d="M14.34,31.48c.78-3.83,3.77-4.87,5.08-6.79,1.63-.09,1.58.68,1.69,1.57-2.67.73-3.97,3.31-6.76,5.22Z"/>
            <path class="cls-1" d="M27.54,30.07c.64,2.35.75,2.48,3.24,3.78.04.69.16,1.41-1.19,1.71-1.3-1.08-3.28-1.87-3.13-4.41-.4-1.12.09-1.35,1.08-1.08Z"/>
            <path class="cls-1" d="M21.04,18.17h-2.16c0-.52,0-1.05,0-1.57.61-1.18,2.45.02,2.59-1.76,1.93,1.72-.68,2.19-.42,3.33Z"/>
            <path class="cls-1" d="M27.54,30.07c-.75-.03-1.11.33-1.08,1.08-.18,0-.5.04-.52,0-.55-1.87.27-3.39,2.39-4.28.06,1.19-1.27,2.01-.79,3.2Z"/>
            <path class="cls-1" d="M23.04,30.29c.33,3.24-.9,3.86-2.59,4.26-.22-.55-.4-1-.54-1.35.11-.29.12-.5.23-.58.88-.59,2.07-.35,2.9-2.33Z"/>
            <path class="cls-1" d="M29.71,43.6c.35-.5.72-.5,1.07,0-.35.5-.72.5-1.07,0Z"/>
            <path class="cls-1" d="M30.78,75.53v1.59c-1.2.77-2.93.92-3.25,2.74-.72.57-1.44.65-2.16,0-.65-.6-1.44-.98-2.21-1.37-2.52.06-5.02.18-7.53.29-.11.29-.22.58-.41,1.08-1-.7-.75-3.18-2.84-2.16v-1.08c.01-.73-.73-.71-1.08-1.08v-2.16h1.08c.36.39.72.39,1.08,0,1.33.12,1.61,1.57,2.82,2.01.82-.38.29-1.29.43-2.01,2.39.24,4.94-.64,7.54,1.06,2.23-1.81,4.55-1.47,6.53,1.11Z"/>
            <path class="cls-1" d="M15.63,78.77c.12-.3.25-.87.37-.87,2.39,0,4.66-.6,6.94-1.26.68-.2,1.43.02,1.35,1.05-.44.87-1.26,1.34-2,1.88-1.29.87-1.26,2.2-1.24,3.53-.18.88.8,1.05,1.02,1.69-.37.37-.75.75-1.13,1.13-.25.47-.41.32-.78.13-1.72-.87-3.22-2.7-5.47-1.55-.69,1.82,2.37,3.01.53,4.98-.38.02-.87.04-1.34.06-.4-2.41-2.14-4.45-1.32-7.12,1.63-1.45,3,.46,4.71.93,1.04-2.26.64-3.73-1.63-4.57Z"/>
            <path class="cls-1" d="M23.21,92.84c-2.5.66.08,3.32-1.69,4.27-.13-.13-.36-.25-.37-.38-.03-1.07-.02-2.14-.02-3.15-2.01-1.11-4.36-1.92-2.9-5.21,1.35,1.64,2.76,2.94,4.96,2.31.63.72.63,1.44,0,2.16Z"/>
            <path class="cls-1" d="M21.04,83.1c-1.12-.19-1.64-1.05-2.21-1.98.49-1.61,1.44-2.6,3.3-2.35,2.74.29,1.47,1.91,1.08,3.25-.09,1.62-1.34.92-2.16,1.08Z"/>
            <path class="cls-1" d="M30.78,92.84c-.15,1.11.12,2.05,1.09,2.71-1.44.35-.37,2.96-2.47,2.7-1.19-.55-1.08-2.46.3-5.41.36-.33.72-.33,1.08,0Z"/>
            <path class="cls-1" d="M25.37,79.86h3.25c-.03.8.17,1.62-.62,2.28-.94.79.42.9.51,1.48-.41,1-1.34.41-2.05.56-.36.34-.72.34-1.08,0-.18-.9.84-1.01.99-1.69-.9-.59-1.12-1.54-.99-2.63Z"/>
            <path class="cls-1" d="M23.21,82.02c-.41-1.07,1-2.74-1.08-3.25.09-1.62,1.34-.92,2.16-1.08,1.62.09.92,1.34,1.08,2.16-1.02-.08-1.02.62-1.1,1.34-.06.54-.4.94-1.06.82Z"/>
            <path class="cls-1" d="M25.37,84.18h1.08c-.03.75.33,1.11,1.08,1.08v1.08c-.9-.18-1.01.83-1.7,1q-1.7-1.87-.46-3.16Z"/>
            <path class="cls-1" d="M23.21,92.84v-2.16c1.24-.04,2.55-.14,2.1,1.68-.67.81-1.44.35-2.1.49Z"/>
            <path class="cls-1" d="M6.97,84.18v-1.08c.12-.3.24-.6.38-.94,1.26.33.48,1.36.71,2.03v1.08c-.75.03-1.11-.33-1.08-1.08Z"/>
            <path class="cls-1" d="M30.78,92.84h-1.08c-.03-.75.33-1.11,1.08-1.08v1.08Z"/>
            <path class="cls-1" d="M97.88,88.51h-1.08c.26-1.14-1.89-1.31-.52-3.23,1.14-1.03,1.7.95,2.67,1.59-.32.57-1.21.77-1.07,1.64Z"/>
            <path class="cls-1" d="M89.21,93.38c-.35.5-.71.5-1.06,0,.35-.5.71-.5,1.06,0Z"/>
            <path class="cls-1" d="M60.75,78.36c.36,0,1.06,2.57,1.42,2.57-.09,1.62-1.34.92-2.16,1.08v-1.08c.36,0-.2-2.75.74-2.57Z"/>
            <path class="cls-1" d="M60.79,81.82c-1.81,1.68-2.87,1.57-3.99.82.9-1.21,2.16-.37,3.99-.82Z"/>
            <path class="cls-1" d="M13.47,73.36c.04.53-.07,1.01-.72.86-.18-.04-.25-.56-.37-.86h1.08Z"/>
            <path class="cls-1" d="M11.3,75.53h1.94c.1,1.03-.33,1.12-.86,1.08-.75.03-1.11-.33-1.08-1.08Z"/>
            <path class="cls-1" d="M24.42,68.39c-1.55-1.07-1.16-1.79-1.03-2.61,1.39.51.71,1.48,1.03,2.61Z"/>
          </g>
        </g>
      </g>
    </g>
  </g>
</svg>