<?xml version="1.0" encoding="UTF-8"?>
<svg id="Camada_2" data-name="Camada 2" xmlns="http://www.w3.org/2000/svg" xmlns:xlink="http://www.w3.org/1999/xlink" viewBox="0 0 190.2 274.15">
  <defs>
    <style>
      .cls-1 {
        fill: #fff;
      }

      .cls-2 {
        clip-path: url(#clippath-1);
      }

      .cls-3 {
        fill: #ededed;
      }

      .cls-4 {
        clip-path: url(#clippath);
      }
    </style>
    <clipPath id="clippath">
      <path class="cls-1" d="M32.68,35.73c8.03-12.39,21.66-11.53,27.29.28,5.63,11.82,13.83,43.98,24.19,64.71,19.41,38.82,47.54,25.79,56.45,9.57,8.98-16.35,27.57-18,39.29-.38,3.57,5.37,6.88,10.33,9.75,14.65V27.01c0-14.85-12.15-27.01-27.01-27.01H28.18c-7.43,0-14.18,3.04-19.07,7.93C1.39,15.65,1.18,25.19,1.18,27.01v63.31c15.76-27.65,29.02-50.76,31.51-54.59Z"/>
    </clipPath>
    <clipPath id="clippath-1">
      <path class="cls-1" d="M167.16,140.38c-5.63-6.19-14.91-8.44-24.48,1.41-5.27,5.43-6.7,6.9-12.38,12.66-14.25,14.44-38.35,8.06-44.73-13.5-4.97-16.8-23.91-84.96-27.85-96.5-3.94-11.53-16.6-14.63-21.1,0-4.86,15.8-24.47,98.02-33.32,135.38,4.11,9.69,13.74,16.54,24.88,16.54h134.47c12.62,0,23.28-8.77,26.21-20.51-6.31-12.06-15.53-28.68-21.71-35.47Z"/>
    </clipPath>
  </defs>
  <g id="Camada_1-2" data-name="Camada 1">
    <g>
      <path class="cls-3" d="M24.71,247.56c-3.75,1.15-6.98,1.72-9.71,1.72s-5.45-.78-7.82-2.33-4.16-3.6-5.37-6.13c-1.21-2.53-1.81-5.39-1.81-8.58,0-4.75,1.3-8.71,3.91-11.89,2.61-3.18,6.64-4.76,12.09-4.76,2.51,0,5.29.35,8.35,1.04v4.89c-3.26-.97-5.92-1.45-7.97-1.45-3.24,0-5.69,1.22-7.33,3.67-1.64,2.45-2.46,5.34-2.46,8.69,0,3.62.92,6.55,2.77,8.79,1.85,2.24,4.25,3.36,7.2,3.36,2.64,0,5.36-.68,8.15-2.05v5.04Z"/>
      <path class="cls-3" d="M48.45,244.45c-1.76,1.6-3.5,2.81-5.22,3.62s-3.39,1.22-5.04,1.22c-2.31,0-4.45-.75-6.44-2.25-1.98-1.5-2.98-3.7-2.98-6.58,0-3.16,1.38-5.78,4.15-7.84,2.77-2.07,7.19-3.1,13.27-3.1h1.38v-3.9c0-1.55-.21-2.67-.63-3.38-.42-.7-1.08-1.25-1.98-1.65-.9-.4-2.01-.59-3.33-.59-3.08,0-6.43.95-10.07,2.85v-4.83c3.98-1.6,7.74-2.4,11.26-2.4,1.92,0,3.69.3,5.3.91,1.61.6,2.9,1.55,3.86,2.85.96,1.3,1.44,3.38,1.44,6.25v14.61c0,1.62.13,2.72.38,3.28s.62,1,1.08,1.29c.46.3,1,.45,1.62.45.26,0,.63-.04,1.13-.12l.42,3.23c-1.33.63-2.79.95-4.39.95-1.07,0-2.1-.35-3.08-1.04-.99-.69-1.7-1.96-2.14-3.8ZM47.58,241.27v-8.33l-1.91-.06c-3.13,0-5.75.59-7.87,1.78-2.12,1.19-3.18,2.8-3.18,4.83,0,1.4.52,2.59,1.56,3.56s2.26,1.45,3.65,1.45c1.25,0,2.52-.27,3.82-.82s2.6-1.35,3.94-2.42Z"/>
      <path class="cls-3" d="M62.59,248.54v-32.21h5.84v6.02c1.11-2.16,2.54-3.82,4.32-5,1.77-1.18,3.69-1.77,5.77-1.77.59,0,1.22.05,1.87.15v5.46c-.99-.34-1.88-.5-2.67-.5-1.84,0-3.53.55-5.09,1.65-1.55,1.1-2.95,2.75-4.2,4.94v21.26h-5.84Z"/>
      <path class="cls-3" d="M84.93,210.49v-5.84h5.84v5.84h-5.84ZM84.93,248.54v-32.21h5.84v32.21h-5.84Z"/>
      <path class="cls-3" d="M112.47,249.28c-3.07,0-5.73-.63-8-1.88s-4.06-3.24-5.39-5.94c-1.33-2.7-1.99-5.71-1.99-9.04,0-3.13.6-6.03,1.81-8.71,1.21-2.68,2.96-4.71,5.27-6.07,2.31-1.37,5.07-2.05,8.3-2.05s5.74.62,8.02,1.87c2.27,1.25,4.07,3.23,5.39,5.94,1.32,2.71,1.97,5.72,1.97,9.03s-.61,6.09-1.84,8.77c-1.23,2.68-2.98,4.7-5.27,6.06-2.29,1.36-5.04,2.03-8.27,2.03ZM112.45,244.89c2.92,0,5.18-1.08,6.78-3.25,1.61-2.17,2.41-5.24,2.41-9.22s-.81-7.07-2.43-9.22c-1.62-2.15-3.87-3.22-6.77-3.22s-5.15,1.07-6.75,3.22c-1.61,2.15-2.41,5.22-2.41,9.22s.8,7.05,2.41,9.22c1.61,2.17,3.86,3.25,6.75,3.25Z"/>
      <path class="cls-3" d="M156.85,247.56c-3.75,1.15-6.98,1.72-9.71,1.72s-5.45-.78-7.82-2.33c-2.37-1.55-4.16-3.6-5.37-6.13-1.21-2.53-1.81-5.39-1.81-8.58,0-4.75,1.3-8.71,3.91-11.89,2.61-3.18,6.64-4.76,12.09-4.76,2.51,0,5.29.35,8.35,1.04v4.89c-3.26-.97-5.92-1.45-7.97-1.45-3.24,0-5.69,1.22-7.33,3.67-1.64,2.45-2.46,5.34-2.46,8.69,0,3.62.92,6.55,2.77,8.79,1.85,2.24,4.25,3.36,7.2,3.36,2.64,0,5.36-.68,8.15-2.05v5.04Z"/>
      <path class="cls-3" d="M180.59,244.45c-1.76,1.6-3.5,2.81-5.22,3.62s-3.39,1.22-5.04,1.22c-2.31,0-4.45-.75-6.44-2.25-1.98-1.5-2.98-3.7-2.98-6.58,0-3.16,1.38-5.78,4.15-7.84,2.77-2.07,7.19-3.1,13.27-3.1h1.38v-3.9c0-1.55-.21-2.67-.63-3.38-.42-.7-1.08-1.25-1.98-1.65-.9-.4-2.01-.59-3.33-.59-3.08,0-6.43.95-10.07,2.85v-4.83c3.98-1.6,7.74-2.4,11.26-2.4,1.92,0,3.69.3,5.3.91,1.61.6,2.9,1.55,3.86,2.85.96,1.3,1.44,3.38,1.44,6.25v14.61c0,1.62.13,2.72.38,3.28s.62,1,1.08,1.29c.46.3,1,.45,1.62.45.26,0,.63-.04,1.13-.12l.42,3.23c-1.33.63-2.79.95-4.39.95-1.07,0-2.1-.35-3.08-1.04-.99-.69-1.7-1.96-2.14-3.8ZM179.73,241.27v-8.33l-1.91-.06c-3.13,0-5.75.59-7.87,1.78-2.12,1.19-3.18,2.8-3.18,4.83,0,1.4.52,2.59,1.56,3.56s2.26,1.45,3.65,1.45c1.25,0,2.52-.27,3.82-.82s2.6-1.35,3.94-2.42Z"/>
    </g>
    <g>
      <path class="cls-1" d="M26.47,269.86c-1.26.38-2.35.57-3.25.57-1.62,0-2.89-.54-3.81-1.61-.93-1.07-1.39-2.34-1.39-3.8,0-.96.2-1.88.61-2.75.41-.87.94-1.51,1.6-1.94.66-.42,1.44-.63,2.33-.63,1.2,0,2.16.43,2.88,1.28.72.85,1.07,2.12,1.07,3.82v.57h-6.6c.1.91.3,1.61.6,2.1s.69.87,1.18,1.15c.49.27,1.12.41,1.87.41.39,0,.77-.03,1.15-.1.38-.07.97-.24,1.76-.52v1.47ZM20,263.96h4.66c0-1.03-.21-1.76-.62-2.2-.41-.44-.94-.66-1.58-.66-.73,0-1.3.24-1.72.71-.41.48-.66,1.19-.74,2.15Z"/>
      <path class="cls-1" d="M30.91,270.19l-3.82-10.26h1.87l2.98,7.98,3.15-7.98h1.73l-4.05,10.26h-1.86Z"/>
      <path class="cls-1" d="M45.58,269.86c-1.26.38-2.35.57-3.25.57-1.62,0-2.89-.54-3.81-1.61-.93-1.07-1.39-2.34-1.39-3.8,0-.96.2-1.88.61-2.75.41-.87.94-1.51,1.6-1.94.66-.42,1.44-.63,2.33-.63,1.2,0,2.16.43,2.88,1.28.72.85,1.07,2.12,1.07,3.82v.57h-6.6c.1.91.3,1.61.6,2.1s.69.87,1.18,1.15c.49.27,1.12.41,1.87.41.39,0,.77-.03,1.15-.1.38-.07.97-.24,1.76-.52v1.47ZM39.11,263.96h4.66c0-1.03-.21-1.76-.62-2.2-.41-.44-.94-.66-1.58-.66-.73,0-1.3.24-1.72.71-.41.48-.66,1.19-.74,2.15Z"/>
      <path class="cls-1" d="M47.85,270.19v-10.26h1.86v1.92c.47-.69,1.02-1.22,1.65-1.59.63-.38,1.28-.56,1.95-.56.87,0,1.57.28,2.12.83.54.55.81,1.32.81,2.29v7.37h-1.86v-6.77c0-.71-.06-1.18-.19-1.41-.13-.23-.3-.4-.53-.53-.23-.12-.47-.18-.73-.18-.46,0-.96.14-1.49.42-.53.28-1.11.89-1.73,1.82v6.65h-1.86Z"/>
      <path class="cls-1" d="M63.57,270.19c-.57.16-1.07.24-1.49.24-.92,0-1.65-.27-2.19-.8-.54-.53-.81-1.29-.81-2.27v-6.03h-1.29v-1.4h1.29v-1.86l1.86-.18v2.04h2.68v1.4h-2.68v5.69c0,.72.14,1.23.42,1.54.28.31.72.47,1.32.47.25,0,.54-.04.9-.12v1.28Z"/>
      <path class="cls-1" d="M69.38,270.43c-.98,0-1.83-.2-2.55-.6s-1.29-1.03-1.72-1.89c-.42-.86-.63-1.82-.63-2.88,0-1,.19-1.92.58-2.77s.94-1.5,1.68-1.93c.73-.43,1.61-.65,2.64-.65s1.83.2,2.55.6c.72.4,1.3,1.03,1.72,1.89.42.86.63,1.82.63,2.87s-.2,1.94-.59,2.79c-.39.85-.95,1.5-1.68,1.93-.73.43-1.61.65-2.63.65ZM69.37,269.03c.93,0,1.65-.34,2.16-1.04s.77-1.67.77-2.94-.26-2.25-.77-2.94c-.51-.68-1.23-1.03-2.16-1.03s-1.64.34-2.15,1.03c-.51.68-.77,1.66-.77,2.94s.26,2.25.77,2.94,1.23,1.04,2.15,1.04Z"/>
      <path class="cls-1" d="M75.82,269.83v-1.71c1.21.6,2.27.91,3.17.91.53,0,.97-.14,1.33-.43s.53-.65.53-1.09c0-.27-.09-.54-.27-.79s-.58-.52-1.22-.79l-1.09-.46c-.84-.35-1.45-.75-1.84-1.21-.38-.45-.58-1.01-.58-1.67,0-.83.3-1.51.9-2.06.6-.55,1.49-.82,2.66-.82.57,0,1.29.08,2.13.24l.39.08v1.56c-1.04-.31-1.88-.47-2.5-.47s-1.05.13-1.35.39-.45.56-.45.92c0,.28.1.53.3.75.2.23.55.45,1.06.67l.9.38c1.2.51,1.97,1.01,2.3,1.51s.49,1.04.49,1.63-.15,1.08-.46,1.56c-.31.48-.76.85-1.35,1.12-.59.27-1.26.41-1.99.41-.85,0-1.88-.2-3.1-.6Z"/>
      <path class="cls-1" d="M99.23,270.19l-.7-.83c-1.04.79-2.25,1.18-3.63,1.18-.92,0-1.78-.18-2.56-.55s-1.39-.91-1.83-1.63-.65-1.49-.65-2.32c0-.88.25-1.72.75-2.53.5-.81,1.39-1.43,2.65-1.86-.63-1.14-.94-2.09-.94-2.84,0-.52.15-1.01.44-1.47.3-.46.7-.82,1.22-1.08s1.09-.4,1.71-.4c.91,0,1.66.27,2.25.82.58.55.88,1.21.88,2,0,1.4-1.02,2.61-3.06,3.64.95,1.67,2.05,3.22,3.31,4.66.24-.34.41-.65.51-.94.11-.29.19-.67.26-1.14.07-.47.1-.96.1-1.48v-.68s1.85,0,1.85,0c0,2.07-.62,3.85-1.86,5.35.57.72,1.22,1.41,1.95,2.09h-2.65ZM97.71,268.28c-.88-1.08-1.58-2-2.1-2.77-.52-.77-1.09-1.69-1.71-2.76-.85.34-1.43.75-1.73,1.24-.3.49-.45,1.01-.45,1.57,0,.6.16,1.2.48,1.78.32.59.73,1.03,1.24,1.33.51.3,1.09.45,1.75.45.88,0,1.72-.29,2.52-.86ZM95.08,261.15c1.33-.61,2-1.42,2-2.44,0-.42-.13-.76-.39-1.04-.26-.28-.61-.42-1.07-.42-.52,0-.88.16-1.1.47-.22.31-.33.65-.33.99,0,.64.3,1.45.89,2.43Z"/>
      <path class="cls-1" d="M111.59,270.19l-3.82-10.26h1.87l2.98,7.98,3.15-7.98h1.73l-4.05,10.26h-1.86Z"/>
      <path class="cls-1" d="M118.9,258.07v-1.86h1.86v1.86h-1.86ZM118.9,270.19v-10.26h1.86v10.26h-1.86Z"/>
      <path class="cls-1" d="M128.96,268.89c-.56.51-1.12.89-1.66,1.15-.55.26-1.08.39-1.6.39-.73,0-1.42-.24-2.05-.72s-.95-1.18-.95-2.1c0-1.01.44-1.84,1.32-2.5.88-.66,2.29-.99,4.23-.99h.44v-1.24c0-.49-.07-.85-.2-1.08-.13-.22-.34-.4-.63-.53-.28-.13-.64-.19-1.06-.19-.98,0-2.05.3-3.21.91v-1.54c1.27-.51,2.46-.77,3.59-.77.61,0,1.17.1,1.69.29.51.19.92.49,1.23.91.31.41.46,1.08.46,1.99v4.65c0,.52.04.87.12,1.04.08.18.2.32.34.41.15.09.32.14.52.14.08,0,.2-.01.36-.04l.13,1.03c-.42.2-.89.3-1.4.3-.34,0-.67-.11-.98-.33-.31-.22-.54-.62-.68-1.21ZM128.68,267.88v-2.65l-.61-.02c-1,0-1.83.19-2.51.57-.67.38-1.01.89-1.01,1.54,0,.45.17.83.5,1.13s.72.46,1.16.46c.4,0,.8-.09,1.22-.26.41-.17.83-.43,1.25-.77Z"/>
      <path class="cls-1" d="M133.48,273.6l.22-1.62c1.09.51,2.17.76,3.23.76,1.19,0,2.02-.3,2.48-.9.46-.6.69-1.41.69-2.43v-1.62c-.27.57-.7,1.07-1.28,1.5s-1.29.65-2.12.65c-1.42,0-2.45-.51-3.1-1.52-.65-1.01-.97-2.16-.97-3.45,0-.98.19-1.89.57-2.74s.91-1.49,1.59-1.91c.68-.43,1.45-.64,2.32-.64.39,0,.75.04,1.08.13s.65.22.93.4c.29.18.61.47.97.87v-1.16h1.86v7.46c0,2.17-.18,3.66-.55,4.46s-.94,1.38-1.71,1.75-1.7.55-2.77.55c-.35,0-.73-.02-1.13-.06-.4-.04-.76-.09-1.08-.15-.31-.06-.73-.17-1.24-.34ZM140.1,266.64v-4.27c-.42-.43-.85-.75-1.3-.96-.45-.21-.92-.32-1.42-.32-.84,0-1.51.33-2.02,1-.51.67-.76,1.63-.76,2.89,0,.99.19,1.8.57,2.42.38.62.99.93,1.84.93.55,0,1.08-.14,1.6-.43.51-.28,1.01-.71,1.49-1.27Z"/>
      <path class="cls-1" d="M152.4,269.86c-1.26.38-2.35.57-3.25.57-1.62,0-2.89-.54-3.81-1.61-.93-1.07-1.39-2.34-1.39-3.8,0-.96.2-1.88.61-2.75.41-.87.94-1.51,1.6-1.94.66-.42,1.44-.63,2.33-.63,1.2,0,2.16.43,2.88,1.28.72.85,1.07,2.12,1.07,3.82v.57h-6.6c.1.91.3,1.61.6,2.1s.69.87,1.18,1.15c.49.27,1.12.41,1.87.41.39,0,.77-.03,1.15-.1.38-.07.97-.24,1.76-.52v1.47ZM145.93,263.96h4.66c0-1.03-.21-1.76-.62-2.2-.41-.44-.94-.66-1.58-.66-.73,0-1.3.24-1.72.71-.41.48-.66,1.19-.74,2.15Z"/>
      <path class="cls-1" d="M154.68,270.19v-10.26h1.86v1.92c.47-.69,1.02-1.22,1.65-1.59.63-.38,1.28-.56,1.95-.56.87,0,1.57.28,2.12.83.54.55.81,1.32.81,2.29v7.37h-1.86v-6.77c0-.71-.06-1.18-.19-1.41-.13-.23-.3-.4-.53-.53-.23-.12-.47-.18-.73-.18-.46,0-.96.14-1.49.42-.53.28-1.11.89-1.73,1.82v6.65h-1.86Z"/>
      <path class="cls-1" d="M165.32,269.83v-1.71c1.21.6,2.27.91,3.17.91.53,0,.97-.14,1.33-.43s.53-.65.53-1.09c0-.27-.09-.54-.27-.79s-.58-.52-1.22-.79l-1.09-.46c-.84-.35-1.45-.75-1.84-1.21-.38-.45-.58-1.01-.58-1.67,0-.83.3-1.51.9-2.06.6-.55,1.49-.82,2.66-.82.57,0,1.29.08,2.13.24l.39.08v1.56c-1.04-.31-1.88-.47-2.5-.47s-1.05.13-1.35.39-.45.56-.45.92c0,.28.1.53.3.75.2.23.55.45,1.06.67l.9.38c1.2.51,1.97,1.01,2.3,1.51s.49,1.04.49,1.63-.15,1.08-.46,1.56c-.31.48-.76.85-1.35,1.12-.59.27-1.26.41-1.99.41-.85,0-1.88-.2-3.1-.6Z"/>
    </g>
    <g>
      <g>
        <path class="cls-1" d="M32.68,35.73c8.03-12.39,21.66-11.53,27.29.28,5.63,11.82,13.83,43.98,24.19,64.71,19.41,38.82,47.54,25.79,56.45,9.57,8.98-16.35,27.57-18,39.29-.38,3.57,5.37,6.88,10.33,9.75,14.65V27.01c0-14.85-12.15-27.01-27.01-27.01H28.18c-7.43,0-14.18,3.04-19.07,7.93C1.39,15.65,1.18,25.19,1.18,27.01v63.31c15.76-27.65,29.02-50.76,31.51-54.59Z"/>
        <g class="cls-4">
          <g>
            <path class="cls-1" d="M147.31-.17c8.89,0,17.82-.53,26.66.12,13.84,1.03,28.29,11.42,29.6,28.01,1.6,3.36,1.77,6.48-.96,9.63,6.3,7.87-2.03,14.15-3.62,21.41-3.9,5.05-8.75,8.14-15.42,7.33-2.47.05-2.83-5.08-6.33-2.55-.92.44-1.89.66-2.89,1.04,1.53.46,3.02-.1,4.48.13,1.8.27,3.25,1.53,5.05,1.8,1.31.15,2.63.15,3.94.05,2.72-.21,4.4-3.26,7.41-2.73.85.48,1.57,1.1,2.16,1.87.47.89.71,1.83.75,2.83-.58,3.94-.33,8.08-2.77,11.57-.83.59-1.75.98-2.76,1.14-2.43-.39-4.88-.56-5.11-.57.23,0,2.68.16,4.93,1.33,1.31.72,2.43,1.7,3.48,2.74,1.08,1,2.13,2.03,3.27,2.98,8.96,4.25,4.67,12.01,4.94,18.58-2.07,6.1,2.08,13.4-3.66,18.78-11.25-.48-15.42-10.28-22.08-16.8.01-3.87-1.26-8.08,1.97-10.13-.59.59-2.17.29-3.73-.24-.84.19-.44-1.71-1.74-1.08.76.17,1.26.57,1.62,1.25,1.06,3.48,3.69,7.2-1.66,9.49-4.01,1.1-7.91,2.51-11.5,4.64-.73.51-1.48.99-2.21,1.5-.67.58-1.37,1.12-2.06,1.67-.33.29-.69.55-1.03.83-1.38,1.07-2.76,2.14-3.93,3.47-.54.73-1.11,1.41-1.69,2.11-.89,1.09-1.88,2.08-2.99,2.96-1.61,1.2-3.39,1.97-5.44,1.96-3.4-.37-6.81-2.48-10.27.26,1.1,1.79,4.27,2.24,3.74,5.21-2.21,5.51-7.45,6.01-12.17,7.4-3.65.23-6.8-.75-9.06-3.81-.56-4.1-.32-8.14.03-11.45-2.17,2.36,1.77,7.63-2.35,10.34-2.94,1.26-5.51.43-7.91-1.38-.85-.69-1.56-1.52-2.15-2.42-.21-.46-.41-.96-.62-1.43-.92-4.23,2.01-7.48,3.16-11.57.53-.91-1.13.05-1.12.32.11,2.75-1.89,4.48-3.67,6.27-.41.31-.82.59-1.23.89-.49.16-.98.3-1.47.44-1.6-.09-2.97-.72-4.22-1.68-2.67-2.52-4.42-5.54-4.99-9.2-.02-.99.17-1.94.51-2.87,1.55-2.37,3.34-4.55,5.38-6.52,1.26-.5,2.55-.24,4.78-.01-2.45-.6-3.91-.73-5.26.35-1.22.97-2.52.99-3.88.37-.6-.66-.94-1.43-.95-2.29.26-.54.53-1.12.8-1.71-1.17,0-2.1.87-3.29.93-1.54.15-2.98-.1-4.38-.73-6-6.64-8.69-14.6-9.44-23.35.26-2.13,1.69-3.74,2.82-5.18-1.29-3.27-4.58-5.32-3.3-8.97.55-2.14.86-4.27-.5-6.29-.46-.8-.81-1.64-1.11-2.5-.55-4.26-3.46-6.38-7.08-7.89-2.51-1.78-3.95-4.37-5.36-6.99-2.09-4.42-4.33-8.74-8.38-11.75-2.05-1.8-5.45-2.2-5.92-5.65.42-.85,1.05-1.5,1.89-1.96,2.05-.88,4.33-1.18,6.26-2.41,2.94-2.08,5.74-4.35,8.98-5.99.8-.46,1.64-.85,2.49-1.2,2.16-.86,4.35-1.5,6.66-.62.95.44,1.73,1.12,2.47,1.87.65-.15,1.03-.63,1.15-1.48.59-1.54,1.35-2.92,2.54-4.05,1.24-.7,2.48-.54,3.73-.06.79.33,1.55.72,2.3,1.12,1.63.72,3.32.77,5.06.48,7.95,1.33,12.97-6.14,19.53-7.05,4.59,1.8,5.53,5.08,5.99,8.66-.23.95-.62,1.85-1.02,2.82,1.11-.04.45-1.17,1-1.58,1.3-2.63-1.18-5.9,1.61-8.42,8.3-5.48,17.67-2.84,26.7-2.98,1.96.65,3.58.12,4.88-1.46Z"/>
            <path class="cls-1" d="M47.77,23.64h-2.16c-7.58-1.12-4.3,6.85-7.71,9.23-1.48,1.38-2.98,2.73-5.22,1.63-2.06-.61-2.46-2.81-3.79-4.11.23,2.41,1.3,4.03,3.89,4.21,2,2.34.65,4.44-.42,6.57-.97,1.64-1.98,3.26-2.98,4.88-1.86,2.66-3.67,5.36-5.05,8.31-.38.83-.83,1.63-1.28,2.42-.4.83-.84,1.63-1.27,2.44-.38.86-.82,1.68-1.25,2.51-.62,1.33-1.23,2.65-1.84,3.99-3.91,7.95-7.28,16.21-12.36,23.49-1.97,2.83-3.32,7.61-8.68,5.44-1.51-10.94-.27-21.93-.69-32.86.29-7.94,6.27-2.38,8.89-4.29-2.22-1.92-7.19.65-8.68-3.98-.3-6.12-1.65-12.55,4.9-16.66.83-.97,2.06-1.03,5.58-1.96-3.41.66-4.31.95-5.13,1.6-.69.71-1.47.93-2.4.62-2.4-2.15-1.93-5.05-2.08-7.78,0-.46-.02-.92-.02-1.39v-4.33c.56-.61,1.2-1.11,1.92-1.51.76-.27,1.55-.45,2.34-.55,1.16-.18,2.33-.38,3.42-.85,1.44-.84,2.57-2.13,4.15-2.77,2.67-.89,5.33.04,7.98-.07,1.62-.18,3.15-.64,4.47-1.66.55-.6,1.1-1.18,1.61-1.81,1.23-1.72,2.33-3.56,4.28-4.6.8-.41,1.6-.82,2.33-1.19.54-.35,1.14-.49,1.72-.39-1.04-.61-1.77.34-2.67.56-.8.38-1.56.77-2.32,1.19-2.14,1.37-3.88,3.44-6.63,3.65-1.13-.07-2.14-.53-3.11-1,.02.04-.9-.14-.9-.14,0,0-.92.16-.9.21-.47.47-.88.95-1.22,1.53-.36.67-.87,1.15-1.55,1.48-.77.18-1.52.15-2.27-.08-1.09-.57-1.94-1.38-2.61-2.4-.56-1.11-.74-2.28-.5-3.51.26-.74.63-1.43,1.12-2.04.51-.56,1.06-1.1,1.63-1.6.62-.43,1.05-1.89,1.8-1.97,1.14.01,1.83-.31,2.67-1.08,1.38-.85,3.92-.85,4.64-3,2.46-1.14,4.9-.42,7.96-.34C39.93.01,52.51-.17,65.08-.17c1.36,1.87.93,4.27,1.88,6.26,1.2,2.74,1.07,5.1-1.94,6.59-.86.6-2.29.7-2.1,2.29-2.89,2.16-5.77,4.33-8.66,6.49-2.4.02-4.65.47-6.49,2.16Z"/>
            <path class="cls-1" d="M112.69,12.82c.73-3.38-2.22-5.46-3.06-9.05-3.51,1.81-7.57,2.13-9.69,5.94.62.75,1.21,1.47,1.81,2.19-3.42,2.5-5.84-.08-8.4-1.27-2.41.32-3.89,3.13-6.62,2.19-1.3-1.28-1.13-2.63-.2-4.02,1.65-1.81,3.32-3.6,5.94-4.26-3.12-.49-4.02,2-5.43,3.76-1.36,1.17-2.04,3.63-4.63,2.36-1.36-2.51-4.11-4.46-3.22-7.89.58-1.52,2.16-1.93,3.22-2.93h62.76c1.33,1.44,1.17,2.89,0,4.33-6.49-3.96-13.65-1.8-20.51-2.04-3.83-.13-6.99,2.28-9.6,5.1.74,1.05,1.47,2.1,2.22,3.17-.88,1.67-1.64,3.13-2.41,4.59-1.97.53-2.99.1-2.16-2.16Z"/>
            <path class="cls-1" d="M10.98,14.98h2.16c.54-.48.72-.96.54-1.44-.18-.48-.36-.72-.54-.72v-2.16c1.44-1.2,2.89-1.26,4.33,0,1.5-.06,2.22.67,2.16,2.16.38,2.16.46,4.33,0,6.49-.08,2.57-2.43,2.87-3.34,1.82-2.25-2.6-4.93-1.55-7.48-1.82-.61.75-1.39,1-2.33.76-2.38-.89-2.69-3.46-4.16-5.09v-2.16c.8-.65,1.44-1.44,2.16-2.16.72-.72,1.52-1.37,2.16-2.16.72-.85,1.44-.85,2.16,0v4.33c.72.72,1.49,1.4,2.16,2.16Z"/>
            <path class="cls-1" d="M80.23,2c0,1.72-.37,3.49,1.44,4.73,1.45.99.45,2.62.72,3.93-1.44-.72-2.89-1.44-4.33-2.16-4.99,3.59-8.54,2.03-11.1-3.1-1.24-2.75.49-4.2,2.44-5.55h10.82c.55.48.73.96.55,1.44-.18.48-.37.72-.55.72Z"/>
            <path class="cls-1" d="M6.65,19.31h2.16c-.33,1.64,1.07,4.14-2.16,4.33-1.44-1.38-2.89-1.37-4.33,0H.16c-1.31-1.44-1.22-2.89,0-4.33-.06-1.5.67-2.22,2.16-2.16,1.55.51,3.07,1.06,4.33,2.16Z"/>
            <path class="cls-1" d="M69.41-.17c-.72,1.44-1.44,2.89-2.16,4.33.77,2.22-.15,2.74-2.16,2.16-2.97-.53-2.64-2.12-1.35-4.08.51-.77.9-1.61,1.35-2.41h4.33Z"/>
            <path class="cls-1" d="M19.64,2c-.33,2.22,3.6,2.84,1.79,5.97-3.02.66-3.23-4.12-6.11-3.8.18-3.24,2.69-1.84,4.33-2.16Z"/>
            <path class="cls-1" d="M6.65,19.31c-1.64-.33-4.14,1.07-4.33-2.16v-2.16c2.36.53,3.8,1.97,4.33,4.33Z"/>
            <path class="cls-1" d="M145.15,4.16V-.17h2.16c-.33,1.64,1.07,4.14-2.16,4.33Z"/>
            <path class="cls-1" d="M.16,19.31v4.33h-2.16c.33-1.64-1.07-4.14,2.16-4.33Z"/>
            <path class="cls-1" d="M13.14,6.32v-2.16h2.16c.06,1.5-.67,2.22-2.16,2.16Z"/>
            <path class="cls-1" d="M80.23,2V-.17h2.16c.06,1.5-.67,2.22-2.16,2.16Z"/>
            <path class="cls-1" d="M75.9,77.74c-1.5.06-3.92-.8-3.87-2.29-1.6-8.93-4.3-14.11-5.69-23.04,6.56-3.21,5.08,3.71,7.39,5.86,2.5,1.57.63,4.6,2.16,6.49.28,1.74-1.49,2.14-2.16,3.34,4.34,1.54,8.04,3.54,5.95,9.43-1.15-.61-2.1-1.11-3.07-1.62-.25.64-.49,1.24-.72,1.84Z"/>
            <path class="cls-1" d="M145.15,125.34c-.72,1.44-1.44,2.89-2.16,4.33-.16.61-.55.98-1.16,1.12,0,.01-.77.3-.77.3,0,0,.3.78.29.8-.01.02-.54.7-.56.71-.55.38-1.15.57-1.81.59-1.08,0-1.97-.33-2.48-1.36-2.39-5.07-5.34-.95-8.06-.48-1.13-1.59-.41-3.36-.5-5.56,3.97-.44,8.18-.86,9.38-4.64,4.78-.53,2.5,3.54,4.67,4.19h3.17Z"/>
            <path class="cls-1" d="M119.18,51.77c-.06,1.5.67,2.22,2.16,2.16,1.33,1.12,2.98,1.99,3.12,4.03.02,2.24.86,4.42.53,6.69-.31.88-.8,1.63-1.49,2.26-2.23,1.64-.65,5.82-4.33,6.49,1.65-6.76-3.22-12.79-2.16-19.48-.61-2.05.21-2.67,2.16-2.16Z"/>
            <path class="cls-1" d="M179.77,108.03h-6.49c-.54-.48-.72-.96-.54-1.44.18-.48.36-.72.54-.72h5.14c-3.64-2.91-2.89-5.87-2.98-8.66,2.01-.34,4.42.98,6-.7,2.77-2.96,5.82-.33,8.8-1.92.14,2,.21,2.96.33,4.59h-10.8v8.85Z"/>
            <path class="cls-1" d="M52.09,27.96c-3.18,0-6.35,0-9.53,0-2.08,1.17-2.98,3.88-5.62,4.33-.96-2.74,1.89-4.22,2.18-6.55.52-2.09-2.87-2.25-2.19-4.38.17-2.06,2.17-2.66,3.15-4.13,1.54,2.42,1.98,5.77,5.52,6.4.01,2.89,2.21,2.03,3.78,2.14,1.46.11,2.87.13,2.71,2.18Z"/>
            <path class="cls-1" d="M104.03,129.67h-2.16c-.72-1.44-1.44-2.89-2.16-4.33.57-.48.75-.96.57-1.44-.19-.48-.38-.72-.57-.72-.24-2.96,2.55-1.61,3.69-2.61,2.63-2.89-.98-5.39-.75-8.06,3.58-1.07,3.3,1.55,3.99,3.46.59,1.63,3.86-.34,3.87,2.2.23,2.95-1.64,2.94-3.49,2.91-1.25,2.84-.64,6.25-2.99,8.59Z"/>
            <path class="cls-1" d="M171.11,17.14c-.74-3.66-4.96-4.6-6.43-8.62,4.86-.46,9.78,5.99,13.97-.12,1.48,1.83,3.78,2.78,3.28,5.41-2.01,3.39-7.27-1.66-8.66,3.33-.72.97-1.44.97-2.16,0Z"/>
            <path class="cls-1" d="M86.72,19.31c1.33-.34,1.77.86,2.87,1.71,2.92-2.46,6.58-1.59,10.11-1.71.72-.76,1.44-.76,2.16,0v10.82c-.72.67-1.44.67-2.16,0,0-3.11.62-6.44-2.98-8.24-4.06,1.85-8.21,4.13-12.17-.41.23-1.21.96-1.93,2.16-2.16Z"/>
            <path class="cls-1" d="M155.97,84.23c-2.17.26-4.08-.16-5.47-2.29-.68,1.55-1.32,3-1.75,3.98-1.32-.91-2.71-1.86-3.66-2.52.17-3.6,1.91-4.96,4.38-5.66,1.1-.01,1.31-.45.7-1.37-.34-.51-.53-.8-.7-.8.44-2.05,1.73-3.29,4.33-4.25v8.57c1.09,1.35,3.27.78,4.3,2.55.48,1.81-.6,2.03-2.14,1.78Z"/>
            <path class="cls-1" d="M199.25,66.92h-2.16c-.56-.88-1.53-1.36-2.16-2.16-2.16,1.44-4.33,2.89-6.49,4.33-1.44-1.36-2.89-1.36-4.33,0-1.44-.72-2.89-1.44-4.33-2.16-.54-.49-.77-1.03-.69-1.6.09-.59.21-.89.37-.89.92-.57,1.74-.43,2.48.33,6.07.22,11.88-.18,15.15-6.49h2.16c1.35,1.13,1.87,2.62,1.91,4.33-.02,1.71-.55,3.2-1.91,4.33Z"/>
            <path class="cls-1" d="M99.7,64.75c5.23,2.08,7.64-3.82,11.92-4.58,2.67,3.88-.65,6.43-2.53,6.45-3.81.04-2.19,3.92-3.91,4.64-3.41.02-4.72-1.85-5.48-4.34-.55-.48-.73-.96-.55-1.44.18-.48.36-.72.55-.72Z"/>
            <path class="cls-1" d="M65.08,6.32c1.5.06,2.22-.67,2.16-2.16,2.9-.22,1.67,2.46,3.08,4.33h7.74c-.33,1.64,1.07,4.14-2.16,4.33-.36,0-.72,0-1.08.01-.72.02-1.44.02-2.16,0-.36,0-.72-.01-1.08-.02-2.76-1.06-4.19,1.85-6.49,2.16-.64-.81-2.02-.87-2.16-2.16-.31-3.41,3.67-1.07,4.18-3.4-.51-.96-2.3-1.35-2.01-3.09Z"/>
            <path class="cls-1" d="M119.18,88.56c3.36-.73,5.73,1.68,8.2,3.07,1.66.93,3.08,1.25,4.78,1.26,1.21,1.44,1.29,2.89,0,4.33-4.41.38-7.75-4.2-12.98-1.54v-7.12Z"/>
            <path class="cls-1" d="M123.51,58.26c-.72-1.44-1.44-2.89-2.16-4.33h4.33c1.44-.09,2.89-1.5,4.33,0,1.33.13,2.86.4,1.16,1.99-1.48,1.38-1.07,2.93-1.16,4.51-1.35,1.44-1.38,2.89,0,4.33-1.01,4.17-4.36,1.34-6.49,2.16v-2.16c2.16-2.16.46-4.33,0-6.49Z"/>
            <path class="cls-1" d="M119.18,51.77c-1.5-.06-2.22.67-2.16,2.16-2.34.04-4.77.45-4.52-3.33.06-.99-2.22-1.48-1.97-3.16,2.17-.26,4.08.16,5.36,2.13,2.19-1.42,3.16-4.69,6.83-4.25.24.8.99,1.92.7,2.59-.79,1.83-1.93,3.56-4.24,3.86Z"/>
            <path class="cls-1" d="M151.64,47.44c1.38.35,1.8-.92,2.67-1.57,4.45,3.01,9.9.55,14.37,1.99,1.16,3.41-1.75,4.07-2.85,6.72-1.26-1.9-2.21-3.33-3.3-4.98h-10.89c-.48-.48-.64-.96-.48-1.44.16-.48.32-.72.48-.72Z"/>
            <path class="cls-1" d="M123.51,40.95c-5.65-9.4-5.76-11.35-.96-17.19,2.4,2.29.4,3.66-.89,4.96,1.36,2.68,2.68,5.29,4.01,7.89-.04,1.78-.88,3.17-2.16,4.33Z"/>
            <path class="cls-1" d="M113.78,92.89c-1.88-1.88-3.62-3.62-6.43-6.43,5.39,1.2,8.61-3.13,14.49-1.79-2.88,3.19-5.56,5.62-8.06,8.23Z"/>
            <path class="cls-1" d="M99.7,30.13h2.16c1.33-.24,1.84.58,2.38,2.4-2.2,3.34-5.36,6.25-8.58,8.71-3-1.04-3.14-3.75-1.77-3.95,4.52-.68,3.47-5.17,5.8-7.16Z"/>
            <path class="cls-1" d="M140.82,21.47v-5.39c-2.01-1.63-5.23-1.59-6.29-4.55,6.05-4.01,7.82,4.47,12.55,4.3-.69,2.37-4,2.84-4.1,5.64-.72.75-1.44.75-2.16,0Z"/>
            <path class="cls-1" d="M160.29,36.62c.61.25,1.23.51,1.84.76-1.06,1.93-2.41,3.68-2.49,5.54-2.99.71-3.8-1.22-5.43-2.59-1.14-2.38-.03-5.27-.41-8.03,2.71-1.28,3.56,1.02,4.84,2.5.52.64,1.06,1.25,1.65,1.83Z"/>
            <path class="cls-1" d="M65.08,51.77c0-1.44-.92-2.95-.92-4.39,3.01.06,7.26-.75,9.58,4.12v6.76c-1.3.24-2.02-.55-2.12-1.61-.27-2.77-3.11-2.08-5.6-2.78-.72.76-.21-1.35-.93-2.1Z"/>
            <path class="cls-1" d="M132.16,97.21v-4.33c1.74-.27,2.15,1.47,3.25,2.13,1.1-.66,1.5-2.4,3.25-2.13.55.48.73.96.55,1.44-.18.48-.36.72-.55.72v13.23c-3.74-3.47-1.09-7.37-2.59-10.43-1.11-1.25-2.6-.39-3.91-.64Z"/>
            <path class="cls-1" d="M155.97,84.23c1.04.13,1.73-.24,1.91-1.37-.8-1.72-4.45.4-4.07-2.96h8.66c1.47,1.69.96,3.76,1.1,5.71-.6,1.52-2.19,1.94-3.26,2.94-2.36-.53-3.8-1.97-4.33-4.33Z"/>
            <path class="cls-1" d="M160.29,36.62h-2.16c-2.06-2.55-.65-5.97-2.16-8.66.26-2.03-.61-4.19,1.27-7.01.59,1.48,1.09,2.73,1.58,3.99.49-.29.98-.58,1.47-.87v12.55Z"/>
            <path class="cls-1" d="M179.77,64.75v2.16c-2.68.16-5.72-.92-7.6,2.24-.97-2-1.92-3.94-3.21-6.57h8.65c1.19.25,1.93.95,2.16,2.16Z"/>
            <path class="cls-1" d="M140.82,34.46v-4.33c-.33-.37-.67-.74-1-1.1.19-.46.39-.91.58-1.37.94-.54,1.8-.47,2.58.31.63,3.54,3.98,3.98,6.38,5.52-1.06,1.06-2.06,2.06-3.04,3.04-2.69,1.51-3.29-2.39-5.51-2.07Z"/>
            <path class="cls-1" d="M99.7,86.39c2.28,1.14,4.57,2.28,6.5,3.25.16,4.83-4.58,2.65-5.7,5.46-1.13-3.06-.72-6.35-2.97-8.71.72-.87,1.44-.87,2.16,0Z"/>
            <path class="cls-1" d="M138.65,95.05v-2.16c-.85-2.99,1.17-4.61,3.06-6.3,2.86,1.16-.05,3.92,1.3,4.87.85,2.3,3.72.39,4.08,2.99-2.79,1.34-5.68.22-8.44.61Z"/>
            <path class="cls-1" d="M95.17,104.93c4.3-.34,7.49-2.45,10.91-6.87.29,6.48-3.84,7.64-5.09,9.59-3.38,1.05-3.5-2.4-5.83-2.72Z"/>
            <path class="cls-1" d="M140.61,62.78h3.72c2.68,4.31-1.26,6.98-2.31,11.26-2.29-4.19-.54-7.71-1.41-11.26Z"/>
            <path class="cls-1" d="M140.82,34.29v7.76c-3.08-.27-4.39,4.55-9.11,2.42,2.43-1.73,3.05-4.7,6.05-3.61,1.9-2.29-.76-5.78,3.06-6.57Z"/>
            <path class="cls-1" d="M112.69,136.16v-2.16c2.02.15,2.16-1.21,2.16-2.68,0-3.4,0-6.8.83-10.21,1.94,4.94,1.05,10.05,1.33,15.06h-4.33Z"/>
            <path class="cls-1" d="M97.54,53.93c-2.05,2.55-2.42,5.53-2.16,8.66.55.48.74.96.55,1.44-.18.48-.37.72-.55.72-2.62.04-2.61-2.87-5.22-3.2,2.63-2.78,1.75-6.55,5.22-7.62.72-1.04,1.44-1.04,2.16,0Z"/>
            <path class="cls-1" d="M119.1,73.76c-1.65,2.19-3.04,4.85-2.73,8.47-1.13-3.55-3.62-5.61-6.67-8.47h9.39Z"/>
            <path class="cls-1" d="M151.64,47.44v2.16c-.27,1.32.65,2.86-.71,3.98-3.67-1.15-3.42-5.18-5.54-7.46,2.92-3.46,3.97,1.82,6.25,1.32Z"/>
            <path class="cls-1" d="M158.13,114.52c-.35,1.36.9,1.79,1.99,3.25-1.66.6-3.46,1.26-5.27,1.92-.86,1.9-1.15-1.32-3.22-.85.68-3.67,4.85-2.1,6.49-4.33Z"/>
            <path class="cls-1" d="M179.77,64.75c-1.5.06-2.22-.67-2.16-2.16-.43-3.03.86-5.01,4.33-6.51v8.67h-2.16Z"/>
            <path class="cls-1" d="M57.97,21.75c5.34-.7,6.48,1.89,7.54,5.43-4.83,1.71-6.14-1.01-7.54-5.43Z"/>
            <path class="cls-1" d="M177.61,34.46c.98-3.62-1.78-6.43-2.38-9.48,1.28-1.51,2.5-1.68,4.54-.56v10.04c-.72.75-1.44.75-2.16,0Z"/>
            <path class="cls-1" d="M188.59,35.37v-8.53c.82-1.47,2-.88,2.93-1.08,2.25,1.62.97,3.77.98,5.69-1.01,1.01-2.01,2.01-3.92,3.92Z"/>
            <path class="cls-1" d="M192.75,84.23c-3.71-3.2-8.5-1.7-12.78-3.01,4.15-2.01,8.54-1,12.78-1.32,1.32,1.44,1.19,2.89,0,4.33Z"/>
            <path class="cls-1" d="M92.63,80.25c-7.16-.78-8.53-4.54-10.24-7.99,3.61,1.27,5.97,4,10.24,7.99Z"/>
            <path class="cls-1" d="M80.23,36.62c-.36,0-.99.1-1.03-.01-1.2-3.34-2.33-6.7-3.91-11.29,4.95,2.38,5.14,6.43,7.1,9.14-.66.78-.8,2.08-2.16,2.16Z"/>
            <path class="cls-1" d="M111.11,47.44c-2.36,0-4.15,0-5.93,0-2.26-1.33-.04-4.81-4.37-5.39,2.16-.7,2.94-1.24,3.4-1.05,2.94,1.28,4.78,3.73,6.91,6.44Z"/>
            <path class="cls-1" d="M99.7,86.39h-2.16c-2.03-.25-4.18.6-6.29-.78v-2.69c3.39-2.56,5.76.31,8.45,1.31v2.16Z"/>
            <path class="cls-1" d="M88.88,101.54c3.21-.24,3.8-5.1,7.84-4.25.3.77.64,1.68,1.15,3-2.36,1.18-4.59,2.3-6.83,3.42-2.01.57-2.7-.19-2.16-2.16Z"/>
            <path class="cls-1" d="M173.87,49.35c-.91-1.84-.76-3.06.49-4.07,2.96-.4,4.47,2.81,8.61,2.76-3.85,2.39-6.61,1.36-9.11,1.31Z"/>
            <path class="cls-1" d="M95.37,105.87v6.49h-4.33c-1.15-1.1-1.38-2.52-1.45-4.01.22-.98.69-1.81,1.45-2.48h4.33Z"/>
            <path class="cls-1" d="M112.69,12.82c-.06,1.5.67,2.22,2.16,2.16-.68,2.35,4.28,2.55,2.1,5.48-.25.25-.71.74-.73.72-2.01-1.75-4-3.54-5.74-5.1.07-1.98.11-3.43,2.2-3.26Z"/>
            <path class="cls-1" d="M91.05,105.87v2.16c-.5.77-1.17,1.04-2.06.77-1.03-.77-1.45-2-2.27-2.93-3.24-.18-1.84-2.69-2.16-4.33h4.33c-.06,1.5.67,2.22,2.16,2.16v2.16Z"/>
            <path class="cls-1" d="M160.29,88.56c-.06-1.5.67-2.22,2.16-2.16.74-.7.87-2.02,2.16-2.16,1.07,0,2.14,0,3.21,0,1.28,1,1.45,2.23.38,4.33h-7.92Z"/>
            <path class="cls-1" d="M175.45,97.29c-3.06-.76-4.04-3.92-6.57-5.22,1.76-2.38,3.87-1.13,5.8-1.02,1.43,1.93.46,4.13.76,6.25Z"/>
            <path class="cls-1" d="M177.61,34.46h2.16v5.95l-1.18.66c-.61-1.78-1.21-3.55-1.82-5.33-1.32-.2-1.05-1.43.84-1.29Z"/>
            <path class="cls-1" d="M97.54,53.93h-2.16c1.89-3.18-4.08-4.98-1.5-8.3,4.38,1.41,3.65,5.02,3.66,8.3Z"/>
            <path class="cls-1" d="M155.97,27.96c1.88-.13,2.17,1.07,2.17,2.54,0,2.04,0,4.07,0,6.11-2.03.16-2.03-1.24-2.2-2.69-.13-1.08-.8-1.89-2.12-1.64.72-1.44,1.44-2.89,2.16-4.33Z"/>
            <path class="cls-1" d="M130,53.93c-1.6-.26-2.05,1.28-3.07,1.95-.96-.28-1.42-.92-1.26-1.95q.35-3.7,3.63-3.96c1.34,1.12.44,2.65.7,3.96Z"/>
            <path class="cls-1" d="M139.45,51.9c1.95,1.3,3.81,2.49,3.53,5.25-.98,1.26-2.2,1.4-3.59.77-1.17-1.89-1.05-3.8.05-6.02Z"/>
            <path class="cls-1" d="M123.69,118.1v-2.81c2.8-1.61,5.43-.23,9.59-1.32-3.04,4.17-7.74.86-9.59,4.13Z"/>
            <path class="cls-1" d="M47.77,23.64c-.09-2.12,1.74-3.04,3.01-3.9,1.42-.96,3.36-.92,3.49,1.73-1.01,4.17-4.36,1.34-6.49,2.16Z"/>
            <path class="cls-1" d="M91.14,41.51c-.33,4.12-2.29,5.77-5.97,5.96,2.03-2.03,3.85-3.84,5.97-5.96Z"/>
            <path class="cls-1" d="M75.9,64.75c-4.17-1.01-1.34-4.36-2.16-6.49h3.31c2.91,3.35-1.5,4.27-1.15,6.49Z"/>
            <path class="cls-1" d="M158.13,10.65V2.44c.48-.27.96-.54,1.44-.82.09,1.55.17,3.09.26,4.64.75-.56,1.5-1.12,2.26-1.68-.19,2.12-2.71,3.7-1.8,6.07-.72.75-1.44.75-2.16,0Z"/>
            <path class="cls-1" d="M138.99,30.18c-1.59,2.35-2.53,5.26-6.74,3.74,1.46-2.8,3.31-4.27,6.74-3.74Z"/>
            <path class="cls-1" d="M116.83,95.07v3.27c-.92,1.47-2.08.89-3.26,1.07-1.6-2.74-1.57-4.53,3.26-4.34Z"/>
            <path class="cls-1" d="M123.51,40.95c.33-1.64-1.07-4.14,2.16-4.33,2.73.15,2.28,1.88,1.86,3.56-1.19,1.41-2.71.51-4.02.77Z"/>
            <path class="cls-1" d="M70.61,43.11c-.83,0-1.53,0-2.23,0-1.3-.96-1.43-2.19-.85-3.48.74-1.31,1.92-.7,2.91-.86,1.67,1.43,1.42,2.88.16,4.34Z"/>
            <path class="cls-1" d="M95.37,64.75v-2.16c1.64.33,4.14-1.07,4.33,2.16v2.16c-1.64-.33-4.14,1.07-4.33-2.16Z"/>
            <path class="cls-1" d="M99.36,84.17c1.59-2.35,2.53-5.26,6.74-3.74-1.46,2.8-3.31,4.27-6.74,3.74Z"/>
            <path class="cls-1" d="M112.49,107.89c2.84,1.47,4.73,2.45,6.66,3.44-1.78,1.81-3.8.98-5.69.68-1.2-.77-.63-1.92-.96-4.12Z"/>
            <path class="cls-1" d="M88.88,108.03h2.16v6.49c-3.67-.68-2.1-4.85-4.33-6.49.72-.76,1.44-.76,2.16,0Z"/>
            <path class="cls-1" d="M75.9,12.82v8.71c-2.21-4.45-3.27-6.58-4.33-8.71,1.44-1.22,2.89-1.22,4.33,0Z"/>
            <path class="cls-1" d="M101.87,19.31h-2.16v-3.98c1.5-.15,2.43-.25,3.34-.34,1.39,2.04,1.96,3.72-1.17,4.32Z"/>
            <path class="cls-1" d="M86.72,19.31c.06,1.5-.67,2.22-2.16,2.16-3.06-.58-2.92-2.57-1.16-4.02,1.14-.95,3.27-.69,3.33,1.85Z"/>
            <path class="cls-1" d="M142.98,27.96h-2.16c-1.51-1.05-.67-3.27-2.16-4.33-.06-1.5.67-2.22,2.16-2.16h2.16v6.49Z"/>
            <path class="cls-1" d="M150.85,109.82h-9.55c3.8-2.03,5.73-2.34,9.55,0Z"/>
            <path class="cls-1" d="M123.41,74.49c2.26-1.71,4.43-1.71,6.69,0-2.26,1.71-4.43,1.71-6.69,0Z"/>
            <path class="cls-1" d="M164.62,84.23c.06,1.5-.67,2.22-2.16,2.16v-6.49c3.24.18,1.84,2.69,2.16,4.33Z"/>
            <path class="cls-1" d="M82.39,10.65c1.44-.72,2.89-1.44,4.33-2.16v4.33c-1.64-.33-4.14,1.07-4.33-2.16Z"/>
            <path class="cls-1" d="M127.01,85.24c1.94-.97,3.39-1.69,4.66-2.33.8,2.21,1.51,4.73-4.66,2.33Z"/>
            <path class="cls-1" d="M160.29,97.21c.25-1.3-.61-2.8.89-4.13h2.72c1.43,2.11-2.36,2.31-1.44,4.13-.72.75-1.44.75-2.16,0Z"/>
            <path class="cls-1" d="M80.23,36.62c-.06-1.5.67-2.22,2.16-2.16-.37,1.8,1.67,2.02,1.99,3.43-1.76,1.35-3.46,2-4.15-1.26Z"/>
            <path class="cls-1" d="M163.83,62.21h-9.55c3.8-2.03,5.73-2.34,9.55,0Z"/>
            <path class="cls-1" d="M171.11,17.14h2.16v4.22c-3.3-.81-1.7-2.89-2.16-4.22Z"/>
            <path class="cls-1" d="M158.13,10.65h2.16c1.04-.13,1.73.24,1.91,1.39-1.89,1.12-3.56,1.62-4.08-1.39Z"/>
            <path class="cls-1" d="M62.91,12.82c1.5-.06,2.22.67,2.16,2.16h-2.16c-1.05.08-2.01-.14-1.72-1.43.08-.35,1.12-.49,1.72-.73Z"/>
            <path class="cls-1" d="M138.65,23.64c3.24.18,1.84,2.69,2.16,4.33-.72.76-1.44.76-2.16,0v-4.33Z"/>
            <path class="cls-1" d="M160.29,97.21h2.16c-.52,3.01-2.18,2.51-4.08,1.39.19-1.15.87-1.53,1.92-1.39Z"/>
            <path class="cls-1" d="M149.47,75.57c3.01.52,2.51,2.18,1.39,4.08-1.15-.19-1.53-.87-1.39-1.92v-2.16Z"/>
            <path class="cls-1" d="M184.1,69.08c-.16-2.03,1.23-2.28,2.69-2.12,1.08.12,1.89.8,1.64,2.12h-4.33Z"/>
            <path class="cls-1" d="M130,64.75c-2.03.16-2.28-1.23-2.12-2.69.12-1.08.8-1.89,2.12-1.64v4.33Z"/>
            <path class="cls-1" d="M153.97,59.34c-1.77,1.42-2.97,1.49-4.24.32.9-2.35,2.27-1.72,4.24-.32Z"/>
            <path class="cls-1" d="M138.65,27.96h2.16v2.16h-2.16v-2.16Z"/>
            <path class="cls-1" d="M151.64,121.01c.06,1.5-.67,2.22-2.16,2.16-.06-1.5.67-2.22,2.16-2.16Z"/>
            <path class="cls-1" d="M99.7,123.18c1.05-.08,2.01.14,1.72,1.43-.08.35-1.12.49-1.72.73v-2.16Z"/>
            <path class="cls-1" d="M104.03,131.83v-2.16c1.5-.06,2.22.67,2.16,2.16-.72.57-1.44.57-2.16,0Z"/>
            <path class="cls-1" d="M87.8,62.6c1.01.71,1.01,1.43,0,2.14-1.01-.71-1.01-1.43,0-2.14Z"/>
            <path class="cls-1" d="M160.29,112.36c.06,1.5-.67,2.22-2.16,2.16-.06-1.5.67-2.22,2.16-2.16Z"/>
            <path class="cls-1" d="M115.93,34.47c1.01.71,1.01,1.43,0,2.14-1.01-.71-1.01-1.43,0-2.14Z"/>
            <path class="cls-1" d="M-2,58.26v-4.33c1.8-.44,1.99,1.78,3.53,1.9.89-.75,1.58-2.22,3.1-1.93,2.48,2.74,4.86,5.37,8.31,9.18-.03-.34-1.81-.08-1.95.21-1.85-1.85-3.84-2.82-5.95-4.94-2.11,1.78-2.96,1.28-3.7,1.91-1.25-.37-1.58-2.36-3.33-2Z"/>
            <path class="cls-1" d="M32.78,34.32c-2.82,1.3-5.24,3.88-8.49,1.54.02-2.81,3.22-.26,3.74-2.22,1.84-2.87-3-3.76-1.79-6.46,1.08-2.25,4.11-1.43,5.51-3.33,3.37,2.89-1.62,3.98-1.22,6.71.59.99,1.43,2.39,2.25,3.76Z"/>
            <path class="cls-1" d="M19.64,19.31c.27-1.74-1.47-2.15-2.13-3.25.66-1.1,2.4-1.5,2.13-3.25,2.16-1.44,4.33-2.89,6.49-4.33.65.79,2.07.82,2.16,2.16-2.23,1.64-.65,5.82-4.33,6.49-.18,3.24-2.69,1.84-4.33,2.16Z"/>
            <path class="cls-1" d="M15.31,40.95c.06-2.07-.74-4.48,2.48-5.03-1.42-1.66-3.39-2.49-1.89-5.41.47-.56,1.69-.7,3.19.09,1.55,3.72.42,7.1-1.62,10.35-.72.85-1.44.85-2.16,0Z"/>
            <path class="cls-1" d="M28.29,8.49c2.59-3.42,5.98-4.75,10.92-4.12-1.99,4.14-6.04,4.32-8.75,6.29-.64-.81-2.02-.87-2.16-2.16Z"/>
            <path class="cls-1" d="M2.21,35.79c3.66-.49,6.67-2.56,9.44-3.61,1.8,1.04,1.4,2.17,1.57,3.68-3.46,1.75-7.31.17-11.01-.06Z"/>
            <path class="cls-1" d="M15.31,40.95h2.16c.34,1.34-.88,1.78-1.6,2.72-.32,2.61,3.19,2.82,3.5,5.08-.69,1.17-2.21,1.23-2.78.77-4.41-3.53-4.38-3.67-1.29-8.58Z"/>
            <path class="cls-1" d="M.16,36.62c-1.88.13-2.17-1.07-2.17-2.54,0-2.04,0-4.07,0-6.11,1.88-.13,2.17,1.07,2.17,2.54,0,2.04,0,4.07,0,6.11Z"/>
            <path class="cls-1" d="M30.46,47.44c-1.5.06-2.22-.67-2.16-2.16.33-1.64-1.07-4.14,2.16-4.33,1.33.13,2.86.4,1.16,1.99-1.48,1.38-1.07,2.93-1.16,4.51Z"/>
            <path class="cls-1" d="M45.6,8.49c4.04,1.34,1.76,3.99,1.55,6.39-2.47-.92-1.21-2.82-1.55-4.22-.49-.48-.65-.96-.49-1.44.16-.48.32-.72.49-.72Z"/>
            <path class="cls-1" d="M5.11,48.81c2.66-1.33,4.1-2.05,5.05-2.52q.69,2.87-5.05,2.52Z"/>
            <path class="cls-1" d="M17.47,10.65h-4.33c-.16-2.03,1.23-2.28,2.69-2.12,1.08.12,1.89.8,1.64,2.12Z"/>
            <path class="cls-1" d="M28.29,8.49c1.5-.06,2.22.67,2.16,2.16h-2.16c-1.5.06-2.22-.67-2.16-2.16h2.16Z"/>
            <path class="cls-1" d="M2.32,23.64c-.16-2.03,1.23-2.28,2.69-2.12,1.08.12,1.89.8,1.64,2.12H2.32Z"/>
            <path class="cls-1" d="M8.82,8.49v-2.16h2.16c.06,1.5-.67,2.22-2.16,2.16Z"/>
            <path class="cls-1" d="M45.6,8.49v2.16c-1.05.08-2.01-.14-1.72-1.43.08-.35,1.12-.49,1.72-.73Z"/>
            <path class="cls-1" d="M10.98,14.98c-1.5.06-2.22-.67-2.16-2.16,1.5-.06,2.22.67,2.16,2.16Z"/>
            <path class="cls-1" d="M13.14,12.82c1.05-.08,2.01.14,1.72,1.43-.08.35-1.12.49-1.72.73v-2.16Z"/>
            <path class="cls-1" d="M21.8,56.1c.06,1.5-.67,2.22-2.16,2.16-.06-1.5.67-2.22,2.16-2.16Z"/>
            <path class="cls-1" d="M19.64,60.42c.06,1.5-.67,2.22-2.16,2.16-.06-1.5.67-2.22,2.16-2.16Z"/>
            <path class="cls-1" d="M86.58,9.28c.53-3.03-.26-4.83-2.49-6.79h15.52c-2.91,5.54-8.87,3.78-13.03,6.79Z"/>
            <path class="cls-1" d="M88.88,108.03h-2.16v-2.16c1.5-.06,2.22.67,2.16,2.16Z"/>
            <path class="cls-1" d="M140.81,129.66c-1.04.19-1.69-.29-1.92-1.28-.04-.17.47-.67.64-.64.99.22,1.47.88,1.28,1.92Z"/>
            <path class="cls-1" d="M123.51,58.26c2.97,2.18,2.97,4.32,0,6.49-.09-1.57.31-3.13-1.16-4.51-1.7-1.58-.17-1.85,1.16-1.99Z"/>
            <path class="cls-1" d="M75.9,12.82h-4.33c-.16-2.03,1.23-2.28,2.69-2.12,1.08.12,1.89.8,1.64,2.12Z"/>
            <path class="cls-1" d="M23.95,17.13c-1.04.19-1.69-.29-1.92-1.28-.04-.17.47-.67.64-.64.99.22,1.47.88,1.28,1.92Z"/>
          </g>
        </g>
      </g>
      <g>
        <path class="cls-1" d="M167.16,140.38c-5.63-6.19-14.91-8.44-24.48,1.41-5.27,5.43-6.7,6.9-12.38,12.66-14.25,14.44-38.35,8.06-44.73-13.5-4.97-16.8-23.91-84.96-27.85-96.5-3.94-11.53-16.6-14.63-21.1,0-4.86,15.8-24.47,98.02-33.32,135.38,4.11,9.69,13.74,16.54,24.88,16.54h134.47c12.62,0,23.28-8.77,26.21-20.51-6.31-12.06-15.53-28.68-21.71-35.47Z"/>
        <g class="cls-2">
          <g>
            <path class="cls-1" d="M6.5,152.02v-10.89c1.63-15.06,3.45-30.08,8.43-44.5,2.8-4,5.39-8.24,9.98-10.32,4.2.82,5.81,4.13,7.88,6.94.54.87.92,1.83,1.17,2.82.72,4.17-3.45,5.65-4.78,8.7-.27.92-.33,1.87-.24,2.91,1.56-.91.32-2.49.93-3.59,2.14-2.61,4.38-5.12,6.36-7.85,2.21-1.91,4.68-2.93,7.6-2.23-3.3-3.99-.25-6.99,1.6-10.19.61-.81,1.34-1.49,2.18-2.06.99-.28,1.97-.24,2.94.14,2.28,1.96,4.84,3.76,4.48,7.34-1.61,2.72-4,5.2-3.02,8.56,2.32,3.79,7.1,2.22,9.53,5.17-2.32-2.88-6.49-2.28-9.09-4.46-.92-4.45.8-7.24,4.29-9.2,2.09-.61,4.11-.38,6.08.5,4,3.26,8.19,6.25,12.39,9.25,3.25,3.16,3.55,7.61,5.03,11.54,1.88,9.3,6.64,17.7,8.51,27-1.05,4.91-4.25,4.95-7.97,3.62-.56-.43-.95-.71-1.05-.77.57.28,1.08.67,1.59,1.23,1.27,1.56.47,3.26.48,4.89,2.46-3.75,5.83-3.56,9.47-2.33,1.86,1.02,2.98,2.6,3.47,4.64-.2,2.73-.41,5.48,2.04,7.53,1.02,1.77,1.23,3.67,1.08,5.66-.16,2.51-1.75,5.58,2.52,6.32,2.23.41,3.54,2.29,5.38,3.29,2.21.74,4.05-.86,6.14-.97.99.13,1.77.58,2.35,1.39,1.17,1.68,1.25,3.59,1.19,5.51.1,1.24.07,2.53,1.12,3.52.95-.73-.3-1.2-.25-1.85-.58-3.2-.42-6.41-1.44-9.71,6.56-3.44,12.33-5.58,17.28,1.37.54.19.88.64.92,1.28.52-.49.34-.78-.61-.92-1.73-2.53-4.11-4.59-4.68-7.75.14-1.49-.53-6.66.23-7.93,2.48-3.16,5.57-9.47,9.49-10.55.95-.06,3.03,7.89,3.92,8.26,1.3,1.32,2.1,2.97,2.83,4.64.3.83.49,1.69.58,2.56.53,2.34,2.97,1.3,4.23,2.37,2,1.4,4.39,1.7,6.97,2.51-2.33-1.17-4.76-1.15-6.6-2.59-.74-.54-1.58-.85-2.48-.98-.89-.26-1.51-.83-1.91-1.66-.13-.86-.34-1.7-.63-2.53-.36-.79-.7-1.6-1.03-2.41-.39-.81-.73-1.63-1.04-2.47-.08-.93-4.97-6.4-4.69-7.29.43-.85,4.27-4.31,4.99-4.92.78-.54,3.39,6.49,4.33,6.49.4.19.82.38,1.21.55.47.5,1.06.87,1.82,1.09,1.17-2.96-2.81-9.74-1.18-12.63,11.21-9.56,19.66-6.12,30.09,3.56,2.23,4.08-.37,6.52-3.03,8.93-.44.78-.8,1.59-1.02,2.46-.22,1.33-.33,2.66-.37,4.01-.01,1.86-.07,3.71-.46,5.54-.27.93-.65,1.81-1.1,2.66-1.12,2.25-.37,3.88,1.83,5.22-1.02-.89-1.55-1.84-1.73-2.99.67-3.73,2.88-3.31,5.41-2.06,2.01,1.29,3.59,3.05,5.12,4.86.6.69,1.16,1.41,1.73,2.13,1.19,1.4,2.63,2.62,3.36,4.38,1.73,9.72-6.65,10.05-12.13,13.08-1.08.34-2.17.52-1.82.84.03.01,1.64.32,3.04,1.2,2.59,2.37,2.63,4.95.19,7.31-3.4,3.3-6.45.98-10.28-1.5.21,3.44,2.15,7.44-2.64,8.53-10.1,1.41-20.18,1.89-30.22-.27-5.11-4.91-.09-7.7,2.3-11.04.88-.53,1.85-.78,2.82-.8.8-.89,1.95,2.65,2.7-.24.1-.87.39-1.62.85-2.34.83-1.5,1.79-2.86,3.03-4.24-1.74,1.34-2.55,3.26-4.08,4.55-.85.65-1.78,1.14-2.8,1.47-6.8,1.78-5.62,10.83-11.93,13.07-15.87,1.49-31.72,1.8-47.56-.22-3.07-1.02-4.86-3.24-5.83-6.21-1.75-3.78,1.2-8.32-1.92-11.83-3.11,1.95-6.18,2.96-9.26.09-.31-.39-.61-.79-.92-1.18-.43-.9-.69-1.84-.79-2.83-.07-2,.67-3.79,1.46-5.56,1.72-5.32-1.73-10.1-1.64-15.24.02-.98.17-1.93.38-2.88.64-2.32,1.25-4.65,1.45-7.06.96-4.04-2.98-7.52-1.64-9.91-1.5,7.34-7.73,7.17-14.7,5.46-.9-.49-1.58-1.2-2.06-2.09-.28-.96-.28-1.93-.04-2.89.6-1.82,1.68-3.36,2.84-4.85.44-.82.88-1.64,1.26-2.49.83-2.93-.77-5.76-.36-8.58.03-.62.28-1.22.79-1.79-1.68-.04-1.49,1.9-2.62,2.37-1.77,1.67-.17,2.97.49,4.38,1.38,3.79-.33,6.8-2.42,9.71-.68,1.35-1.47,2.62-2.77,3.47-5.35,2.22-12.86-1.67-16.38,5.79-2.53,5.53-.42,14.66-10.87,14.01-3.77-2.47-.1-7.02-4.21-9.75-.63.03-4.01,3.24-3.85-2.23Z"/>
            <path class="cls-1" d="M6.5,152.02c.24.61.34,1.58.76,1.74.86.34,1.88.24,2.62.3,2.22-1.78-.25-4.43,1.88-6.2h3.04c1.82,3.65-3.82,6.01-1.38,9.87,1.03.46,2.51,1.13,3.97,1.79-.66,2.26-4.73-.1-4.36,3.4,0,0-.61.65-.62.66,0,0-.96.02-.96.02,0,0-.79-.52-.81-.5.48,1.2.18,2.1-.95,2.76-4.46.62-5.22-2.88-6.51-5.8-.06-2.04-.26-4.11,1.14-5.86-.06-1.51.67-2.23,2.18-2.18Z"/>
            <path class="cls-1" d="M54.42,27.85c1.85,4.03,4.65,7.68,4.84,12.39.01.25,1.02,3.98,1.61,4.2,2.67,7.72,2.91,12.92,4.42,21.09-.55,6.64,3.96,12.28,5.46,18.51.76,3.15.51,6.16,1.1,9.17-4.46,5.5-5.77-1.6-8.71-2.18h-6.53c-.77-.65-1.14-1.48-1.12-2.49-.09-3.57-3.59-4.17-5.41-6.22h-2.18c-.97.1-1.24.6-.79,1.49.23.47.51.69.79.69-.44,2.67-3.24,3.56-4.35,5.72-.84,2.09,1.56,2.78,1.93,4.48-2.8,1-6.1.62-8.47,2.87-1.83.04-3.19-.88-4.36-2.18-2.74-4.61-2.66-11.7-9.81-10.81-2.35-3.55-2.86-6.11-1.08-8.8v-2.18c2.95-2.35,1.01-5.92,2.18-8.71,2.8-11.17,5.37-22.41,10.89-32.67,2.52-2.96,5.05-5.93,7.27-8.54,3.97-.53,7.29-.25,10.16,2,.67.78,1.4,1.5,2.18,2.18Z"/>
            <path class="cls-1" d="M78.38,202.12c-16.97,0-33.95-.2-50.91.1-6.13.11-11.55-1.22-16.61-4.46-3.08-4.53-.81-7.3,4.43-9.15-2.33-.69-3.23-1.23-4.09-1.93-.75-.73-1.32-1.55-1.77-2.48-2.3-6.06,2-9.58,5.17-13.54.49-.88,1.04-1.72,1.59-2.57,4.13-3.64,5.23-9.49,9.46-13.06,3.75-1.76,5.14,3.67,8.61,2.83,4.02,1.79,5.19,4.68,3.72,8.08-2.34,4.24-7.94-.51-9.94,6.66,4.35-6.89,10.33-2.15,14.38-5.48,1.34-1.19,2.78-2.27,4.09-3.49,1.26-1.29,2.44-2.68,4.16-3.41.94-.13,1.77.12,2.49.73,2.33,2.66,2.14,5.71,1.38,8.83.53,2.31,2.63,1.93,4.2,2.47,6.01,1.48,1.86,7.29,4.4,10.26v2.18c-1.14,1.06-1.11,2.54-1.41,3.83-.12.72-.31,1.34-.56,1.8.82-.85.71-1.98.92-3.04.07-1,.42-1.86,1.05-2.59,1.36.75,2.72,1.5,4.04,2.22,2.66-.39,4.07-1.96,4.67-4.4,4.48-.88,3.32,2.42,3.08,4.52-.34,3.02-2.3,6.15,1.27,8.55-1.07,2.78,1.86,4.22,2.18,6.53Z"/>
            <path class="cls-1" d="M196.01,165.09c.68,3.56,4.67,4.31,6.08,8.08-.53,1.81,2.88,5.37-1.72,7.17-1.28.79-2.18.27-2.88-.75-1.41-1.07.11.5-.21.41,1.49,3.32-3.53,5.67-1.26,9.06-1.29,3.07-3.47,5.25-6.53,6.53-4.57-1.87-6.12,2.28-8.71,4.36.15,1.96-1.15,2.18-2.63,2.18-3.48,0-6.96,0-10.44,0-1.59-3.21-3.18-6.42-4.68-9.47,2.03-2.25,2.4.14,3.56.56.64-.55,1.36-1.17,2.14-1.84,1.47,2.38,1.94,5.68,5.42,6.39,2.34-.28,3.34-2.12,4.46-3.85-.04-1.44-.15-2.85-2.19-2.68-1.23-1.45-1.32-2.9,0-4.36.25-1.31-.61-2.81.65-3.94,1.95-1.07,3.25-.12,4.92,2.27,1.47-2.59,2.8-4.94,4.13-7.28.39.39.79.77,1.18,1.16v-5.28c-1.36-3.22-2.05-6.29,1.92-8.28,2.21-.92,4.44-1.61,6.79-.44Z"/>
            <path class="cls-1" d="M196.01,165.09c-2.32.31-3.76,3.24-6.53,2.18-3.61-.85-7.33-1.11-10.89-2.18-1.65.32-1.98-1.42-3.29-1.91-.77.23-1.23.87-1.07,1.91-2.05.6-2.76-.14-2.18-2.18v-2.18c3.22-4.36,3.22-8.71,0-13.07.5-4.12,4.12-1.14,5.82-2.54,1.36-1.13.45-2.67.71-3.99,6.42,7.54,13.49,14.62,17.43,23.96Z"/>
            <path class="cls-1" d="M117.47,158.29c1.45,0,1.99.91,3.45.91l1.69-.35s-.16,5.53-.09,5.43c.06-.1-.17.38-.17.38,0,0,.54-.29.6-.34.95-.35.17-4.17.86-4.91.64-.53,3.2-3.42,4.01-3.45.3.28.39,6.66.68,6.94-.09,2.13,1.8,2.91,3.01,3.97,1.61,1.42,1.33,3.05,1.35,4.74h-3.16c-1.59-.79-.89-2.5-1.84-4.11-3.46,3.5-8.22.88-13.19,2.93,2.48,1.22,4.39,2.16,6.54,3.21-3.26,2.59-3.95,4.43-3.6,6.68-2.45,1.28-3.15-.96-4.36-2.18v-6.53c-.79-.66-1.68-1.11-2.68-1.36-.4-.33-.79-.66-1.19-.98-1.68-2.22-2.6-7.05-.41-9.51,1.53-.51,3.49-2.35,4.78-1.13,1.45,0,2.28-.35,3.73-.35Z"/>
            <path class="cls-1" d="M45.71,145.48c3.96,0,7.92,0,11.87,0,2.49-3.76,4.04-7.8,3.41-12.08,1.67-1.53,2.88-1.06,4.73-.04-1.61,3.45-3.71,6.82-2.43,10.77.43,2.28,3.26.5,4.19,2.51,1.44,2.51-2.5,3.13-2.17,5.36-.89.76-1.91,1.05-3.07.88-5.81-2.02-12.01-.82-17.88-2.12-3.54-.79-8.13.5-9.92-4.37,3.53-3.12,7.34-2.73,11.26-.93Z"/>
            <path class="cls-1" d="M108.88,162.91c-1.07,2.78,1.86,4.22,2.18,6.53-1.38,2.65-3.44,4.28-6.53,4.36-2.04.16-2.05-1.24-2.22-2.7-.13-1.09-.81-1.9-2.14-1.65-2.55-1.45-3.19-4.17-4.36-6.53v-6.53c.59-.78,1.38-1.1,2.35-1.03,2.12.13,3.06,1.79,4.19,3.21h2.18c.63.82,1.51,1.39,2.18,2.18h2.18c.76.48,1.01.97.76,1.45-.25.48-.5.73-.76.73Z"/>
            <path class="cls-1" d="M21.75,75.78c.01,3.3-.72,6.93,3.61,8.37.5-.5.99-.99,1.25-1.25,1.92,1.78,3.85,3.56,6.03,5.58v6.91c-4.67-.81-3.99-6.28-7.56-8.53-1.93,3.38-3.53,7.19-7.69,8.53.11-6.4,3.22-12.39,2.63-18.9-.02-.18,1.12-.47,1.73-.71Z"/>
            <path class="cls-1" d="M93.63,189.05c.06-2.09-.74-4.5,3.84-5.36-2.84-1.92-4.55-3.06-6.24-4.21,2.01-2.09,3.92-.94,5.59-1.33,2.33,1.45.39,4.02,1.58,5.88,1.33,1.49,1.41-.77,3.41-.91,1.28,1.55,3.89,2.91,4.9,5.92-2.58-.39-5.74,1.37-7.38-2.4-2.46,2.71-.49,6.11-1.61,8.59-2.25.44-3.98.84-4.08-1.83.2-1.45,1.44-2.9,0-4.36Z"/>
            <path class="cls-1" d="M45.71,145.48c-2.76,0-5.53,0-8.29,0-1.48,0-2.74.25-2.6,2.18,1.48,1.59,1.27,3.04-.34,4.35-2.28.86-4.05-.53-5.97-1.21-.88-.33-1.73-.74-2.57-1.19-.39-.26-.78-.54-1.16-.8-.29-.37-.56-.76-.84-1.14,1.04-4.56,5.8-4.25,8.61-6.77,2.58,2.3,5.62,2.69,8.81,2.42,1.45-1.22,2.9-1.33,4.36,0v2.18Z"/>
            <path class="cls-1" d="M63.13,160.73c2.27,4.7,1.28,10.31,4.26,14.88.68,1.05-.14,2.69-2.08,2.55-2.77-1.51-3.88-3.81-3.32-7.03-1.47,1.38-3.22,1.68-5.1,1.52-1.66-.04-2.69-.87-3.14-2.44.49-1.52,1.71-1.87,3.09-1.88-1.65-2.83-.69-5.3,1.06-7.67.77-.65,1.66-1.02,2.65-1.17,1.01.09,1.87.52,2.58,1.24Z"/>
            <path class="cls-1" d="M56.6,88.85v2.18c-3.54.05-1.31,4.67-4.37,5.29,1.01,1.08,1.94,2.07,3.08,3.28.73-.58,1.45-1.15,2.38-1.9,2.77,2.19,4.69,6.46,9.58,3.66v4.98c-5.53-3.95-12.83-2.54-17.19-7.65-.16-4.22.82-7.61,4.34-9.84.73-1.04,1.45-1.04,2.18,0Z"/>
            <path class="cls-1" d="M87.1,138.95c3.7.68,2.11,4.88,4.36,6.53h-7.85c-1.88,3.04.32,6.13-1.68,8.48-1.03.21-2.04.6-3.55-1.02,1.83-3.34,2.66-7.5,2.18-11.82,1.76.53,3.24-3.98,5.33-.3.16.28,1.35-.83,1.21-1.87Z"/>
            <path class="cls-1" d="M26.1,156.37c-4.54.44-.59,4.9-3.15,6.57-1.92,1.25-3.79,2.99-3.83,5.77,0,.25-1.13.48-1.73.72-.95-1.53-2.35-2.14-4.12-1.98-1.52-1.45-1.84-2.96-.24-4.56,1.79,0,3.57,0,5.36,0,2.49-3.8,3.95-7.85,3.38-12.5-.18-1.46.06-2.91,2.15-2.74.93.85,1.67,1.82,2.07,3.03.45,1.16.83,2.35,1.09,3.57.05.87-.27,1.58-.98,2.11Z"/>
            <path class="cls-1" d="M141.1,140.43c1.29-3.07,5.23-4.76,8.3-6.05.03,1.75,2.54,10.43,5.36,11.88-4.11,2.51-1.07,6.9-3.05,10.01-.96.04-1.67.08-2.4.11-3.48-1.98-3.18-14.57-8.21-15.95Z"/>
            <path class="cls-1" d="M76.2,195.58h-5.8c-1.95-3.88,1.46-4.65,2.52-6.57,1.29-2.35,2.83-4.93-1.07-6.5.73-4.47,4.09-.53,5.25-2.34,4.04,3.77-2.4,4.76-1.06,7.97.89,2.13.17,4.93.17,7.43Z"/>
            <path class="cls-1" d="M178.58,165.09c.25-1.31-.61-2.81,1.27-4.49,1.15,5.36,7.43,2.61,9.62,6.67q-2.48,2.25-.37,5.82c-.6.24-1.2.48-1.81.72-1.65-.33-4.17,1.08-4.36-2.18.61-.46.97-1.07.98-1.83,0-.23-.44-.35-.98-.35-2.37-.53-3.83-1.98-4.36-4.36Z"/>
            <path class="cls-1" d="M50.06,125.88c.05,1.64.03,3.08,1.19,4.67,1.47,2.01,2.68,4.83-1.19,6.22-.53,2.37-1.98,3.83-4.36,4.36-.73.92-1.45.92-2.18,0-.36-3.85,3.3-6.89,2.18-10.89-.23-2.01.86-3.47,2.03-4.9.91-.4,1.69-.25,2.33.55Z"/>
            <path class="cls-1" d="M148.09,160.73c4.73,3.58,9.5,2.4,13.97-.25,3.09,3.42-.23,4.56-1.65,6.5-4.78.92-9.1.17-12.32-4.07-.75-.48-1-.97-.75-1.45.25-.48.5-.73.75-.73Z"/>
            <path class="cls-1" d="M172.05,162.91c-.06,1.51.67,2.23,2.18,2.18.75,4.04,6.02,4.8,6.54,8.78-.14,2.27-1.61,2.14-3.24,2.1-1.69-4.85-5.24-8.12-9.79-9.69-.31-4.39,2.43-3.17,4.31-3.37Z"/>
            <path class="cls-1" d="M30.46,104.09c-.22,2.9,2.45,1.69,2.85,1.98-2.39,2.39-4.95,4.95-6.61,6.61.22-1.4-2.87-5.38,1.58-8.59.73-.92,1.45-.92,2.18,0Z"/>
            <path class="cls-1" d="M150.95,197.36c3.69-5.21,6.34-8.94,9.41-13.27.45,9.23-1.39,12.19-9.41,13.27Z"/>
            <path class="cls-1" d="M65.06,109v13.6c-1.07,1.21-2.01,2.28-2.95,3.34-.89-.89-1.66-1.66-2.45-2.45.93-4.39,2.15-8.7,5.41-14.49Z"/>
            <path class="cls-1" d="M63.13,91.02c3.97-1.32,5.16,3.05,8,4.11.29-.77.5-1.35.72-1.93,4.2,1.02,1.35,4.39,2.18,6.53-1.64-.05-3.4.44-4.6-1.31-1.53-2.24-3.78-3.5-6.3-3.58v-3.82Z"/>
            <path class="cls-1" d="M141.55,189.05c3.01-3.89,4.45-9.35,11.15-10.48-1.41,5.69-6.22,8.51-8.97,12.66-1.22-.23-1.92-.98-2.18-2.18Z"/>
            <path class="cls-1" d="M113.23,178.16c1.45.73,2.9,1.45,4.36,2.18,2.94-.8,4.61,1.05,6.43,3.2-.84.92-1.72,1.87-2.87,3.13-3.11-2.43-8.69-2.3-7.92-8.51Z"/>
            <path class="cls-1" d="M172.05,147.66h3.44c2.25,3.97-.08,8.24,1.13,11.66-1.68,2.08-3.23,1.14-4.57,1.41v-6.53c1.36-1.45,1.4-2.9,0-4.36v-2.18Z"/>
            <path class="cls-1" d="M132.84,202.12h-2.18c.47-5.98,3.51-10.25,8.71-13.07,1.27,1.45,1.27,2.9,0,4.36-4.57,1.11-4.26,5.88-6.53,8.71Z"/>
            <path class="cls-1" d="M80.56,141.13c-1.81,0-3.62,0-5.43,0-1.21-1.86-4.7-2.68-2.6-6.26,3.53-1.63,4.9,3.32,8.03,2.93v3.33Z"/>
            <path class="cls-1" d="M95.81,162.91c3.44.85,4.71,3.16,4.36,6.53.08,1.06-.77,2.41-1.33,1.72-1.76-2.19-3.07-.85-4.31.39-2.46-3.64.14-6,1.28-8.64Z"/>
            <path class="cls-1" d="M97.99,156.37h-8c-.34-1.15-.53-1.76-.71-2.38-.49-3.42,5.03-.55,4.36-4.16,2.37.53,3.83,1.98,4.36,4.36.75.48,1,.97.75,1.45-.25.48-.5.73-.75.73Z"/>
            <path class="cls-1" d="M56.6,171.62c2.11.2,4.05-.04,5.81-2.86.67,3.66.9,6.88,2.91,9.39-3.26.19-1.85,2.71-2.18,4.36-1.35.25-2.06-.58-2.14-1.69-.15-2.1-.04-4.21-.04-5.88-1.48-1.8-3.03-.88-4.36-1.15-.64-.48-.86-.97-.64-1.45.21-.48.43-.73.64-.73Z"/>
            <path class="cls-1" d="M106.7,189.05h3.35c1.16,2.36,2.34,4.75,3.37,6.84-.92,2.13-3.18,2.42-3.5,1.59-1.07-2.81-4.02-4.95-3.22-8.43Z"/>
            <path class="cls-1" d="M30.46,104.09h-2.18c-.09-2.13,1.8-2.91,3.01-3.97,1.61-1.42,1.33-3.05,1.35-4.74,1.65.33,4.17-1.08,4.36,2.18-1.29,3.07-3.47,5.25-6.53,6.53Z"/>
            <path class="cls-1" d="M176.41,186.87v4.36c-2.74-1.07-4.91-3.78-8.52-1.77v-5.97c.58-1.11.93-1.01,1.61-.32,1.9,1.93,3.47,4.61,6.91,3.7Z"/>
            <path class="cls-1" d="M47.89,125.88c-.33,1.65,1.08,4.17-2.18,4.36-2.05-.27-4.24.63-6.35-.82v-2.73c2.11-1.45,4.3-.55,6.35-.82.73-.92,1.45-.92,2.18,0Z"/>
            <path class="cls-1" d="M47.89,125.88h-2.18c2.04-2.39,2.12-5.45,3.01-10.23,1.3,2.66,2.02,4.13,2.74,5.6,2.12,1.86-1.74,2.4-1.4,4.63h-2.18Z"/>
            <path class="cls-1" d="M60.96,160.73h-2.18c-.85.74-1.69.71-2.54,0-.22-4.9,3.49-6.68,6.9-8.72h2.18c-.83,2.14,2.02,5.51-2.18,6.53-.59.86-1.44,1.47-2.18,2.18Z"/>
            <path class="cls-1" d="M56.6,88.85h-2.18c.25-1.34-.6-2.15-1.66-2.12-3.65.11-2.51-2.52-2.69-4.41h6.53v6.53Z"/>
            <path class="cls-1" d="M104.52,173.8c.68-3.7,4.88-2.11,6.53-4.36.55.48.74.97.55,1.45-.18.48-.37.73-.55.73.09,2.13-1.76,3.06-3.03,3.92-1.43.97-3.38.93-3.51-1.75Z"/>
            <path class="cls-1" d="M28.09,133.13v2.79c-2.06,1.77-4.01.12-6.14,1.24q.79-4.5,6.14-4.03Z"/>
            <path class="cls-1" d="M132.81,171.62h5.5c.98,1.01,1.98,2.04,3.02,3.11-.38.4-.74,1.15-1.19,1.2-3.47.39-6.25-.54-7.33-4.31Z"/>
            <path class="cls-1" d="M143.73,193.4h3.54c1.09,1.86,1.14,3.06-.13,4.23-3.26.51-4.69-1.49-5.59-4.23.73-.76,1.45-.76,2.18,0Z"/>
            <path class="cls-1" d="M79.09,124.72c-3.12,1.43-5.04,1.64-7.05.3v-2.67c3.34-2.42,4.22,1.1,7.05,2.36Z"/>
            <path class="cls-1" d="M70.73,114.5c.88,1.43,1.78,2.89,2.74,4.44-1.23,1.53-3.39-.42-4.96.6-1.31-2.23-1.94-3.78,2.22-5.04Z"/>
            <path class="cls-1" d="M30.63,131.64v-7.09c1.83-1.61,3.09-.85,4.09.04.49,3.3-2.05,4.01-4.09,7.05Z"/>
            <path class="cls-1" d="M47.89,84.49c-3.2.82-4.72-1.39-6.89-3.69,2.88-.26,5.55-2.55,6.89,1.51v2.18Z"/>
            <path class="cls-1" d="M143.73,193.4h-4.36v-4.36h2.18c1.51-.06,2.23.67,2.18,2.18v2.18Z"/>
            <path class="cls-1" d="M148.09,160.73v2.18c-2.23-.31-3.15,3.93-6.19,1.47.58-1.16,1.21-2.4,1.84-3.64.73-1.04,1.45-1.04,2.18,0h2.18Z"/>
            <path class="cls-1" d="M162.25,145.58c-1.72-2.28-1.72-4.46,0-6.73,1.72,2.28,1.72,4.46,0,6.73Z"/>
            <path class="cls-1" d="M143.73,158.55c-3.26-.19-1.85-2.71-2.18-4.36.73-.84,1.45-.84,2.18,0,.7.76,1.34,1.56,2.18,2.18v2.18c-.73.85-1.45.85-2.18,0Z"/>
            <path class="cls-1" d="M143.73,154.2h-4.36c0-.73-.81-5.45-.81-6.17,1.45-.73,3.71,2.54,5.16,1.82v4.36Z"/>
            <path class="cls-1" d="M93.63,189.05c2.04-.16,2.3,1.24,2.14,2.7-.12,1.09-.81,1.9-2.14,1.65-1.04.16-1.68-.3-1.97-1.27.68-1.02,2.23-1.47,1.97-3.09Z"/>
            <path class="cls-1" d="M172.05,149.84c2.04-.16,2.3,1.24,2.14,2.7-.12,1.09-.81,1.9-2.14,1.65v-4.36Z"/>
            <path class="cls-1" d="M46.8,101.94c-1.58-1.47-1.58-2.93,0-4.4,1.58,1.47,1.58,2.93,0,4.4Z"/>
            <path class="cls-1" d="M43.53,141.13h2.18v2.18h-4.36c-.06-1.51.67-2.23,2.18-2.18Z"/>
            <path class="cls-1" d="M182.94,169.44c-.13-1.05.24-1.74,1.4-1.93,1.13,1.91,1.63,3.58-1.4,4.1v-2.18Z"/>
            <path class="cls-1" d="M111.06,171.62v-2.18c1.51-.06,2.23.67,2.18,2.18h-2.18Z"/>
            <path class="cls-1" d="M145.91,156.37c-1.51.06-2.23-.67-2.18-2.18,1.51-.06,2.23.67,2.18,2.18Z"/>
            <path class="cls-1" d="M60.96,160.73c-.06-1.51.67-2.23,2.18-2.18v2.18h-2.18Z"/>
            <path class="cls-1" d="M164.42,176c1.02.71,1.02,1.43,0,2.14-1.02-.71-1.02-1.43,0-2.14Z"/>
            <path class="cls-1" d="M128.48,160.73h2.18c.06,1.51-.67,2.23-2.18,2.18-.71-.48-.95-.97-.71-1.45.24-.48.47-.73.71-.73Z"/>
            <path class="cls-1" d="M143.73,158.55h2.18v2.18h-2.18v-2.18Z"/>
            <path class="cls-1" d="M143.73,149.84c-.06-1.51.67-2.23,2.18-2.18.06,1.51-.67,2.23-2.18,2.18Z"/>
            <path class="cls-1" d="M17.39,171.62c-.89,2.92-2.51,4.94-6.53,4.19v8.88c-3.63.53-7.26.42-10.89,0-.61-.25-1.68-.4-1.75-.75-.73-3.65.44-7.11,3.93-12.32,4.65,1.71,7.95-2.32,12.08-2.85,1.68.25,2.22,1.78,3.17,2.85Z"/>
            <path class="cls-1" d="M15.21,169.44c-3.67.98-4.94,4.95-7.63,6.37H3.09c-1.62-1.29-.67-2.85-.94-4.19v-4.36c1.47-1.08.68-3.29,2.18-4.36v-2.18c3.3-.29,1.25,3.38,3.41,4.24,1.35.18,3.08.52,3.12-2.06h2.18c.33,1.65-1.08,4.17,2.18,4.36.54.48.72.97.54,1.45-.18.48-.36.73-.54.73Z"/>
            <path class="cls-1" d="M-.04,184.69c3.43.32,1.08-3.7,3.33-4.27,3.74-.87,4.33,4.03,7.56,4.27,2.63,4.95-.99,6.77-4.36,8.71-3.5-1.91-6.86-3.93-6.53-8.71Z"/>
            <path class="cls-1" d="M6.5,193.4c-.09-2.13,1.8-2.91,3.01-3.97,1.61-1.42,1.33-3.05,1.35-4.74,3.74,3.31,8.64,1.74,13.72,2.41-1.64,1.76-2.56,2.75-3.8,4.08h-8.93c-1.66,2.3-.71,4.51-.99,6.58-2.37-.53-3.83-1.98-4.36-4.36Z"/>
            <path class="cls-1" d="M196.01,189.05c-2.29-1.15-4.58-2.3-6.38-3.21-.36-2.06.21-2.83,1.25-3.32,2.07-.86,2.72,1.68,4.4,1.85,1.39-1.94.45-4.15.73-6.21.73-.88,1.45-.88,2.18,0-.06,1.51.67,2.23,2.18,2.18.17,3.72-1.51,6.51-4.36,8.71Z"/>
            <path class="cls-1" d="M180.76,199.94c-.61-.24-1.22-.49-1.9-.76,1.27-2.51,2.97-4.37,7.14-3.37-1.61-1.9-2.23-2.63-2.95-3.48.87-.92,1.79-1.89,2.79-2.96,2.8,1.16,4.06,3.18,3.63,6.22-2.21,2.85-5,4.53-8.71,4.36Z"/>
            <path class="cls-1" d="M4.32,162.91c-.33,1.65,1.08,4.17-2.18,4.36v-4.36h2.18Z"/>
            <path class="cls-1" d="M23.92,64.89c.75,1.36,1.5,2.72,2.22,4.04-.39,2.66-1.96,4.07-4.4,4.67,0-2.05,0-4.1,0-6.15,0-1.49.29-2.7,2.18-2.56Z"/>
            <path class="cls-1" d="M11.12,163.79c-3.11-2.16-2.34-3.6-2.08-5.26,2.81,1.03,1.43,2.98,2.08,5.26Z"/>
            <path class="cls-1" d="M43.53,36.57c3.42,2.96,6.68,6.13,10.84,7.3.11,1.81.04,2.84-1.59,3.93-4.42-3.62-10.76-5.12-13.6-11.23,1.45-1.26,2.9-1.34,4.36,0Z"/>
            <path class="cls-1" d="M30.05,63.37c1.56-7.7,7.59-9.81,10.22-13.67,3.29-.17,3.17,1.37,3.39,3.17-5.38,1.46-7.99,6.66-13.61,10.5Z"/>
            <path class="cls-1" d="M56.6,60.53c1.3,4.73,1.52,4.99,6.51,7.61.09,1.39.32,2.85-2.4,3.44-2.62-2.18-6.6-3.77-6.29-8.88-.8-2.25.18-2.72,2.18-2.18Z"/>
            <path class="cls-1" d="M43.53,36.57h-4.36c0-1.06,0-2.11,0-3.17,1.22-2.37,4.93.04,5.21-3.54,3.88,3.47-1.37,4.42-.85,6.71Z"/>
            <path class="cls-1" d="M56.6,60.53c-1.51-.06-2.23.67-2.18,2.18-.36,0-1.01.09-1.04-.01-1.1-3.76.55-6.82,4.82-8.61.12,2.4-2.57,4.05-1.6,6.44Z"/>
            <path class="cls-1" d="M47.55,60.96c.66,6.51-1.81,7.76-5.22,8.57-.44-1.11-.8-2.02-1.09-2.72.22-.57.24-1.01.46-1.16,1.77-1.18,4.17-.7,5.84-4.69Z"/>
            <path class="cls-1" d="M60.97,87.76c.71-1.01,1.44-1.01,2.16,0-.71,1.01-1.44,1.01-2.16,0Z"/>
            <path class="cls-1" d="M63.13,152.02v3.2c-2.41,1.54-5.89,1.86-6.53,5.51-1.45,1.16-2.9,1.3-4.36,0-1.31-1.2-2.89-1.97-4.46-2.76-5.06.12-10.1.37-15.15.58-.22.58-.44,1.17-.82,2.17-2.01-1.42-1.51-6.4-5.72-4.35v-2.18c.02-1.48-1.48-1.43-2.18-2.18v-4.36h2.18c.73.79,1.45.79,2.18,0,2.68.25,3.24,3.16,5.68,4.04,1.66-.76.59-2.6.86-4.04,4.8.48,9.95-1.29,15.17,2.12,4.48-3.64,9.16-2.96,13.15,2.23Z"/>
            <path class="cls-1" d="M32.64,158.55c.25-.61.49-1.75.74-1.75,4.81-.02,9.38-1.21,13.96-2.54,1.36-.4,2.88.04,2.72,2.12-.89,1.76-2.53,2.7-4.03,3.78-2.6,1.75-2.54,4.44-2.5,7.12-.35,1.76,1.62,2.11,2.05,3.4-.74.74-1.51,1.51-2.27,2.27-.51.96-.82.64-1.56.26-3.45-1.76-6.47-5.44-11-3.12-1.39,3.67,4.78,6.06,1.07,10.02-.77.04-1.74.08-2.71.12-.81-4.85-4.31-8.95-2.67-14.34,3.28-2.93,6.03.92,9.48,1.87,2.1-4.54,1.29-7.51-3.27-9.19Z"/>
            <path class="cls-1" d="M47.89,186.87c-5.02,1.32.17,6.68-3.39,8.59-.26-.26-.73-.51-.74-.77-.06-2.15-.03-4.3-.03-6.35-4.04-2.24-8.78-3.87-5.83-10.48,2.73,3.29,5.57,5.92,9.99,4.66,1.27,1.45,1.27,2.9,0,4.36Z"/>
            <path class="cls-1" d="M43.53,167.27c-2.26-.38-3.31-2.12-4.46-3.98.98-3.25,2.89-5.23,6.63-4.73,5.51.58,2.96,3.85,2.18,6.53-.19,3.26-2.71,1.85-4.36,2.18Z"/>
            <path class="cls-1" d="M63.13,186.87c-.3,2.23.23,4.12,2.19,5.46-2.89.7-.75,5.97-4.98,5.43-2.39-1.1-2.18-4.94.61-10.89.73-.67,1.45-.67,2.18,0Z"/>
            <path class="cls-1" d="M52.24,160.73h6.53c-.06,1.62.35,3.25-1.25,4.59-1.89,1.58.85,1.81,1.02,2.98-.82,2.01-2.7.83-4.12,1.14-.73.68-1.45.68-2.18,0-.37-1.81,1.68-2.03,1.99-3.41-1.81-1.19-2.26-3.1-1.99-5.3Z"/>
            <path class="cls-1" d="M47.89,165.09c-.83-2.14,2.02-5.51-2.18-6.53.19-3.26,2.71-1.85,4.36-2.18,3.26.19,1.85,2.71,2.18,4.36-2.04-.16-2.05,1.24-2.22,2.7-.13,1.09-.81,1.9-2.14,1.65Z"/>
            <path class="cls-1" d="M52.24,169.44h2.18c-.06,1.51.67,2.23,2.18,2.18v2.18c-1.81-.36-2.04,1.66-3.42,2.01q-3.43-3.76-.94-6.37Z"/>
            <path class="cls-1" d="M47.89,186.87v-4.36c2.5-.08,5.13-.29,4.22,3.38-1.36,1.63-2.89.71-4.22.98Z"/>
            <path class="cls-1" d="M15.21,169.44v-2.18c.24-.61.49-1.22.76-1.9,2.54.66.97,2.73,1.42,4.08v2.18c-1.51.06-2.23-.67-2.18-2.18Z"/>
            <path class="cls-1" d="M63.13,186.87h-2.18c-.06-1.51.67-2.23,2.18-2.18v2.18Z"/>
            <path class="cls-1" d="M180.74,187.96c-.71,1.02-1.43,1.02-2.14,0,.71-1.02,1.43-1.02,2.14,0Z"/>
            <path class="cls-1" d="M123.45,157.73c.73,0,2.13,5.18,2.86,5.18-.19,3.26-2.71,1.85-4.36,2.18v-2.18c.73,0-.4-5.53,1.5-5.18Z"/>
            <path class="cls-1" d="M123.54,164.68c-3.64,3.37-5.77,3.16-8.04,1.66,1.81-2.44,4.35-.75,8.04-1.66Z"/>
            <path class="cls-1" d="M28.28,147.66c.08,1.06-.14,2.02-1.44,1.73-.36-.08-.5-1.13-.74-1.73h2.18Z"/>
            <path class="cls-1" d="M23.92,152.02h3.91c.19,2.07-.66,2.25-1.73,2.18-1.51.06-2.23-.67-2.18-2.18Z"/>
            <path class="cls-1" d="M50.33,137.65c-3.11-2.16-2.34-3.6-2.08-5.26,2.81,1.03,1.43,2.98,2.08,5.26Z"/>
          </g>
        </g>
      </g>
    </g>
  </g>
</svg>