<?xml version="1.0" encoding="UTF-8"?>
<svg id="Camada_2" xmlns="http://www.w3.org/2000/svg" version="1.1" xmlns:xlink="http://www.w3.org/1999/xlink" viewBox="0 0 208.1 274.8">
  <!-- Generator: Adobe Illustrator 30.5.1, SVG Export Plug-In . SVG Version: 2.1.4 Build 3)  -->
  <defs>
    <style>
      .st0 {
        fill: #71b73b;
      }

      .st1 {
        fill: #2e83c5;
      }

      .st2 {
        fill: #fff;
      }

      .st3 {
        clip-path: url(#clippath-1);
      }

      .st4 {
        fill: #ededed;
      }

      .st5 {
        clip-path: url(#clippath);
      }
    </style>
    <clipPath id="clippath">
      <path class="st1" d="M35.8,36.3c8-12.4,21.7-11.5,27.3.3,5.6,11.8,13.8,44,24.2,64.7,19.4,38.8,47.5,25.8,56.4,9.6,9-16.3,27.6-18,39.3-.4,3.6,5.4,6.9,10.3,9.8,14.7V27.6c0-14.9-12.1-27-27-27H31.3c-7.4,0-14.2,3-19.1,7.9-7.7,7.7-7.9,17.3-7.9,19.1v63.3c15.8-27.7,29-50.8,31.5-54.6h0Z"/>
    </clipPath>
    <clipPath id="clippath-1">
      <path class="st0" d="M170.3,145.3c-5.6-5.7-14.9-7.8-24.5,1.3-5.3,5-6.7,6.4-12.4,11.7-14.3,13.3-38.4,7.4-44.8-12.5-5-15.5-23.9-78.5-27.9-89.1-3.9-10.6-16.6-13.5-21.1,0-4.9,14.6-24.5,90.5-33.4,125,4.1,8.9,13.8,15.3,24.9,15.3h134.6c12.6,0,23.3-8.1,26.2-18.9-6.3-11.1-15.5-26.5-21.7-32.8h0Z"/>
    </clipPath>
  </defs>
  <g id="Camada_1-2">
    <g>
      <path class="st4" d="M27.9,248.2c-3.8,1.1-7,1.7-9.7,1.7s-5.4-.8-7.8-2.3-4.2-3.6-5.4-6.1-1.8-5.4-1.8-8.6c0-4.8,1.3-8.7,3.9-11.9,2.6-3.2,6.6-4.8,12.1-4.8s5.3.4,8.3,1v4.9c-3.3-1-5.9-1.4-8-1.4-3.2,0-5.7,1.2-7.3,3.7-1.6,2.4-2.5,5.3-2.5,8.7s.9,6.6,2.8,8.8c1.9,2.2,4.2,3.4,7.2,3.4s5.4-.7,8.1-2.1v5h0Z"/>
      <path class="st4" d="M51.6,245.1c-1.8,1.6-3.5,2.8-5.2,3.6s-3.4,1.2-5,1.2-4.5-.8-6.4-2.2c-2-1.5-3-3.7-3-6.6s1.4-5.8,4.1-7.8c2.8-2.1,7.2-3.1,13.3-3.1h1.4v-3.9c0-1.6-.2-2.7-.6-3.4-.4-.7-1.1-1.2-2-1.6-.9-.4-2-.6-3.3-.6-3.1,0-6.4.9-10.1,2.9v-4.8c4-1.6,7.7-2.4,11.3-2.4s3.7.3,5.3.9c1.6.6,2.9,1.6,3.9,2.9s1.4,3.4,1.4,6.2v14.6c0,1.6.1,2.7.4,3.3s.6,1,1.1,1.3c.5.3,1,.4,1.6.4s.6,0,1.1-.1l.4,3.2c-1.3.6-2.8.9-4.4.9s-2.1-.4-3.1-1c-1-.7-1.7-2-2.1-3.8h0ZM50.7,241.9v-8.3h-1.9c-3.1,0-5.8.5-7.9,1.7s-3.2,2.8-3.2,4.8.5,2.6,1.6,3.6,2.3,1.4,3.7,1.4,2.5-.3,3.8-.8,2.6-1.4,3.9-2.4h0Z"/>
      <path class="st4" d="M65.7,249.2v-32.2h5.8v6c1.1-2.2,2.5-3.8,4.3-5,1.8-1.2,3.7-1.8,5.8-1.8s1.2,0,1.9.1v5.5c-1-.3-1.9-.5-2.7-.5-1.8,0-3.5.6-5.1,1.6-1.6,1.1-2.9,2.8-4.2,4.9v21.3h-5.8Z"/>
      <path class="st4" d="M88.1,211.1v-5.8h5.8v5.8h-5.8ZM88.1,249.2v-32.2h5.8v32.2h-5.8Z"/>
      <path class="st4" d="M115.6,249.9c-3.1,0-5.7-.6-8-1.9s-4.1-3.2-5.4-5.9-2-5.7-2-9,.6-6,1.8-8.7c1.2-2.7,3-4.7,5.3-6.1,2.3-1.4,5.1-2.1,8.3-2.1s5.7.6,8,1.9c2.3,1.2,4.1,3.2,5.4,5.9s2,5.7,2,9-.6,6.1-1.8,8.8c-1.2,2.7-3,4.7-5.3,6.1-2.3,1.4-5,2-8.3,2h0ZM115.6,245.5c2.9,0,5.2-1.1,6.8-3.2,1.6-2.2,2.4-5.2,2.4-9.2s-.8-7.1-2.4-9.2-3.9-3.2-6.8-3.2-5.2,1.1-6.8,3.2c-1.6,2.1-2.4,5.2-2.4,9.2s.8,7.1,2.4,9.2,3.9,3.2,6.8,3.2h0Z"/>
      <path class="st4" d="M160,248.2c-3.8,1.1-7,1.7-9.7,1.7s-5.4-.8-7.8-2.3c-2.4-1.6-4.2-3.6-5.4-6.1-1.2-2.5-1.8-5.4-1.8-8.6,0-4.8,1.3-8.7,3.9-11.9s6.6-4.8,12.1-4.8,5.3.4,8.4,1v4.9c-3.3-1-5.9-1.4-8-1.4-3.2,0-5.7,1.2-7.3,3.7s-2.5,5.3-2.5,8.7.9,6.6,2.8,8.8c1.9,2.2,4.2,3.4,7.2,3.4s5.4-.7,8.1-2.1v5h0Z"/>
      <path class="st4" d="M183.7,245.1c-1.8,1.6-3.5,2.8-5.2,3.6s-3.4,1.2-5,1.2-4.4-.8-6.4-2.2c-2-1.5-3-3.7-3-6.6s1.4-5.8,4.1-7.8c2.8-2.1,7.2-3.1,13.3-3.1h1.4v-3.9c0-1.6-.2-2.7-.6-3.4-.4-.7-1.1-1.2-2-1.6s-2-.6-3.3-.6c-3.1,0-6.4.9-10.1,2.9v-4.8c4-1.6,7.7-2.4,11.3-2.4s3.7.3,5.3.9c1.6.6,2.9,1.6,3.9,2.9s1.4,3.4,1.4,6.2v14.6c0,1.6.1,2.7.4,3.3s.6,1,1.1,1.3c.5.3,1,.4,1.6.4s.6,0,1.1-.1l.4,3.2c-1.3.6-2.8.9-4.4.9s-2.1-.4-3.1-1c-1-.7-1.7-2-2.1-3.8h0ZM182.9,241.9v-8.3h-1.9c-3.1,0-5.8.5-7.9,1.7s-3.2,2.8-3.2,4.8.5,2.6,1.6,3.6,2.3,1.4,3.6,1.4,2.5-.3,3.8-.8,2.6-1.4,3.9-2.4h0Z"/>
    </g>
    <g>
      <path class="st2" d="M29.6,270.5c-1.3.4-2.4.6-3.2.6-1.6,0-2.9-.5-3.8-1.6-.9-1.1-1.4-2.3-1.4-3.8s.2-1.9.6-2.8.9-1.5,1.6-1.9c.7-.4,1.4-.6,2.3-.6s2.2.4,2.9,1.3c.7.9,1.1,2.1,1.1,3.8v.6h-6.6c.1.9.3,1.6.6,2.1s.7.9,1.2,1.1c.5.3,1.1.4,1.9.4s.8,0,1.1-.1,1-.2,1.8-.5v1.5h0ZM23.1,264.6h4.7c0-1-.2-1.8-.6-2.2-.4-.4-.9-.7-1.6-.7s-1.3.2-1.7.7c-.4.5-.7,1.2-.7,2.1h0Z"/>
      <path class="st2" d="M34.1,270.8l-3.8-10.3h1.9l3,8,3.1-8h1.7l-4,10.3h-1.9Z"/>
      <path class="st2" d="M48.7,270.5c-1.3.4-2.3.6-3.2.6-1.6,0-2.9-.5-3.8-1.6-.9-1.1-1.4-2.3-1.4-3.8s.2-1.9.6-2.8.9-1.5,1.6-1.9c.7-.4,1.4-.6,2.3-.6s2.2.4,2.9,1.3,1.1,2.1,1.1,3.8v.6h-6.6c0,.9.3,1.6.6,2.1s.7.9,1.2,1.1c.5.3,1.1.4,1.9.4s.8,0,1.2-.1,1-.2,1.8-.5v1.5h0ZM42.3,264.6h4.7c0-1-.2-1.8-.6-2.2s-.9-.7-1.6-.7-1.3.2-1.7.7c-.4.5-.7,1.2-.7,2.1h0Z"/>
      <path class="st2" d="M51,270.8v-10.3h1.9v1.9c.5-.7,1-1.2,1.7-1.6.6-.4,1.3-.6,2-.6s1.6.3,2.1.8c.5.5.8,1.3.8,2.3v7.4h-1.9v-6.8c0-.7,0-1.2-.2-1.4-.1-.2-.3-.4-.5-.5-.2-.1-.5-.2-.7-.2-.5,0-1,.1-1.5.4-.5.3-1.1.9-1.7,1.8v6.6h-1.9Z"/>
      <path class="st2" d="M66.7,270.8c-.6.2-1.1.2-1.5.2-.9,0-1.7-.3-2.2-.8-.5-.5-.8-1.3-.8-2.3v-6h-1.3v-1.4h1.3v-1.9l1.9-.2v2h2.7v1.4h-2.7v5.7c0,.7.1,1.2.4,1.5s.7.5,1.3.5.5,0,.9-.1v1.3h0Z"/>
      <path class="st2" d="M72.5,271c-1,0-1.8-.2-2.6-.6s-1.3-1-1.7-1.9c-.4-.9-.6-1.8-.6-2.9s.2-1.9.6-2.8.9-1.5,1.7-1.9c.7-.4,1.6-.6,2.6-.6s1.8.2,2.6.6,1.3,1,1.7,1.9c.4.9.6,1.8.6,2.9s-.2,1.9-.6,2.8-.9,1.5-1.7,1.9-1.6.6-2.6.6h0ZM72.5,269.6c.9,0,1.7-.3,2.2-1s.8-1.7.8-2.9-.3-2.2-.8-2.9c-.5-.7-1.2-1-2.2-1s-1.6.3-2.2,1c-.5.7-.8,1.7-.8,2.9s.3,2.2.8,2.9,1.2,1,2.2,1Z"/>
      <path class="st2" d="M79,270.4v-1.7c1.2.6,2.3.9,3.2.9s1-.1,1.3-.4.5-.6.5-1.1,0-.5-.3-.8-.6-.5-1.2-.8l-1.1-.5c-.8-.4-1.4-.8-1.8-1.2-.4-.5-.6-1-.6-1.7s.3-1.5.9-2.1,1.5-.8,2.7-.8,1.3,0,2.1.2h.4v1.6c-1-.3-1.9-.5-2.5-.5s-1.1.1-1.3.4-.4.6-.4.9,0,.5.3.8c.2.2.6.5,1.1.7l.9.4c1.2.5,2,1,2.3,1.5s.5,1,.5,1.6-.2,1.1-.5,1.6-.8.9-1.3,1.1-1.3.4-2,.4-1.9-.2-3.1-.6h0Z"/>
      <path class="st2" d="M102.4,270.8l-.7-.8c-1,.8-2.2,1.2-3.6,1.2s-1.8-.2-2.6-.5-1.4-.9-1.8-1.6-.7-1.5-.7-2.3.2-1.7.8-2.5,1.4-1.4,2.7-1.9c-.6-1.1-.9-2.1-.9-2.8s.2-1,.4-1.5c.3-.5.7-.8,1.2-1.1s1.1-.4,1.7-.4c.9,0,1.7.3,2.2.8.6.5.9,1.2.9,2,0,1.4-1,2.6-3.1,3.6.9,1.7,2.1,3.2,3.3,4.7.2-.3.4-.6.5-.9.1-.3.2-.7.3-1.1s0-1,0-1.5v-.7h1.8c0,2.1-.6,3.9-1.9,5.4.6.7,1.2,1.4,1.9,2.1h-2.7ZM100.9,268.9c-.9-1.1-1.6-2-2.1-2.8s-1.1-1.7-1.7-2.8c-.8.3-1.4.8-1.7,1.2s-.4,1-.4,1.6.2,1.2.5,1.8c.3.6.7,1,1.2,1.3.5.3,1.1.5,1.8.5s1.7-.3,2.5-.9h0ZM98.2,261.8c1.3-.6,2-1.4,2-2.4s-.1-.8-.4-1-.6-.4-1.1-.4-.9.2-1.1.5-.3.6-.3,1c0,.6.3,1.5.9,2.4h0Z"/>
      <path class="st2" d="M114.7,270.8l-3.8-10.3h1.9l3,8,3.2-8h1.7l-4.1,10.3h-1.9Z"/>
      <path class="st2" d="M122,258.7v-1.9h1.9v1.9h-1.9ZM122,270.8v-10.3h1.9v10.3h-1.9Z"/>
      <path class="st2" d="M132.1,269.5c-.6.5-1.1.9-1.7,1.1-.6.3-1.1.4-1.6.4s-1.4-.2-2.1-.7-.9-1.2-.9-2.1.4-1.8,1.3-2.5,2.3-1,4.2-1h.4v-1.2c0-.5,0-.9-.2-1.1-.1-.2-.3-.4-.6-.5-.3-.1-.6-.2-1.1-.2-1,0-2.1.3-3.2.9v-1.5c1.3-.5,2.5-.8,3.6-.8s1.2.1,1.7.3c.5.2.9.5,1.2.9.3.4.5,1.1.5,2v4.6c0,.5,0,.9.1,1,0,.2.2.3.3.4.1,0,.3.1.5.1s.2,0,.4,0v1c-.3.2-.8.3-1.3.3s-.7-.1-1-.3-.5-.6-.7-1.2h0ZM131.8,268.5v-2.6h-.6c-1,0-1.8.2-2.5.6-.7.4-1,.9-1,1.5s.2.8.5,1.1.7.5,1.2.5.8,0,1.2-.3c.4-.2.8-.4,1.2-.8h0Z"/>
      <path class="st2" d="M136.6,274.2l.2-1.6c1.1.5,2.2.8,3.2.8s2-.3,2.5-.9c.5-.6.7-1.4.7-2.4v-1.6c-.3.6-.7,1.1-1.3,1.5s-1.3.6-2.1.6c-1.4,0-2.4-.5-3.1-1.5-.6-1-1-2.2-1-3.5s.2-1.9.6-2.7.9-1.5,1.6-1.9c.7-.4,1.4-.6,2.3-.6s.8,0,1.1.1.6.2.9.4c.3.2.6.5,1,.9v-1.2h1.9v7.5c0,2.2-.2,3.7-.6,4.5s-.9,1.4-1.7,1.8-1.7.5-2.8.5-.7,0-1.1,0c-.4,0-.8,0-1.1-.1-.3,0-.7-.2-1.2-.3h0ZM143.2,267.3v-4.3c-.4-.4-.9-.8-1.3-1s-.9-.3-1.4-.3c-.8,0-1.5.3-2,1-.5.7-.8,1.6-.8,2.9s.2,1.8.6,2.4c.4.6,1,.9,1.8.9s1.1-.1,1.6-.4c.5-.3,1-.7,1.5-1.3h0Z"/>
      <path class="st2" d="M155.5,270.5c-1.3.4-2.4.6-3.2.6-1.6,0-2.9-.5-3.8-1.6-.9-1.1-1.4-2.3-1.4-3.8s.2-1.9.6-2.8.9-1.5,1.6-1.9c.7-.4,1.4-.6,2.3-.6s2.2.4,2.9,1.3,1.1,2.1,1.1,3.8v.6h-6.6c.1.9.3,1.6.6,2.1s.7.9,1.2,1.1c.5.3,1.1.4,1.9.4s.8,0,1.1-.1c.4,0,1-.2,1.8-.5v1.5h0ZM149.1,264.6h4.7c0-1-.2-1.8-.6-2.2-.4-.4-.9-.7-1.6-.7s-1.3.2-1.7.7c-.4.5-.7,1.2-.7,2.1h0Z"/>
      <path class="st2" d="M157.8,270.8v-10.3h1.9v1.9c.5-.7,1-1.2,1.6-1.6.6-.4,1.3-.6,1.9-.6s1.6.3,2.1.8c.5.5.8,1.3.8,2.3v7.4h-1.9v-6.8c0-.7,0-1.2-.2-1.4s-.3-.4-.5-.5c-.2-.1-.5-.2-.7-.2-.5,0-1,.1-1.5.4s-1.1.9-1.7,1.8v6.6h-1.9,0Z"/>
      <path class="st2" d="M168.5,270.4v-1.7c1.2.6,2.3.9,3.2.9s1-.1,1.3-.4.5-.6.5-1.1,0-.5-.3-.8-.6-.5-1.2-.8l-1.1-.5c-.8-.4-1.4-.8-1.8-1.2-.4-.5-.6-1-.6-1.7s.3-1.5.9-2.1c.6-.5,1.5-.8,2.7-.8s1.3,0,2.1.2h.4v1.6c-1-.3-1.9-.5-2.5-.5s-1.1.1-1.4.4-.4.6-.4.9.1.5.3.8c.2.2.6.5,1.1.7l.9.4c1.2.5,2,1,2.3,1.5s.5,1,.5,1.6-.1,1.1-.5,1.6c-.3.5-.8.9-1.4,1.1-.6.3-1.3.4-2,.4s-1.9-.2-3.1-.6h0Z"/>
    </g>
    <g>
      <g>
        <path class="st1" d="M35.8,36.3c8-12.4,21.7-11.5,27.3.3,5.6,11.8,13.8,44,24.2,64.7,19.4,38.8,47.5,25.8,56.4,9.6,9-16.3,27.6-18,39.3-.4,3.6,5.4,6.9,10.3,9.8,14.7V27.6c0-14.9-12.1-27-27-27H31.3c-7.4,0-14.2,3-19.1,7.9-7.7,7.7-7.9,17.3-7.9,19.1v63.3c15.8-27.7,29-50.8,31.5-54.6h0Z"/>
        <g class="st5">
          <g>
            <path class="st1" d="M150.5.4c8.9,0,17.8-.5,26.7.1,13.8,1,28.3,11.4,29.6,28,1.6,3.4,1.8,6.5-1,9.6,6.3,7.9-2,14.1-3.6,21.4-3.9,5.1-8.8,8.1-15.4,7.3-2.5,0-2.8-5.1-6.3-2.5-.9.4-1.9.7-2.9,1,1.5.5,3,0,4.5.1,1.8.3,3.2,1.5,5.1,1.8,1.3.2,2.6.2,3.9,0,2.7-.2,4.4-3.3,7.4-2.7.9.5,1.6,1.1,2.2,1.9.5.9.7,1.8.8,2.8-.6,3.9-.3,8.1-2.8,11.6-.8.6-1.8,1-2.8,1.1-2.4-.4-4.9-.6-5.1-.6.2,0,2.7.2,4.9,1.3,1.3.7,2.4,1.7,3.5,2.7,1.1,1,2.1,2,3.3,3,9,4.2,4.7,12,4.9,18.6-2.1,6.1,2.1,13.4-3.7,18.8-11.2-.5-15.4-10.3-22.1-16.8,0-3.9-1.3-8.1,2-10.1-.6.6-2.2.3-3.7-.2-.8.2-.4-1.7-1.7-1.1.8.2,1.3.6,1.6,1.2,1.1,3.5,3.7,7.2-1.7,9.5-4,1.1-7.9,2.5-11.5,4.6-.7.5-1.5,1-2.2,1.5-.7.6-1.4,1.1-2.1,1.7-.3.3-.7.6-1,.8-1.4,1.1-2.8,2.1-3.9,3.5-.5.7-1.1,1.4-1.7,2.1-.9,1.1-1.9,2.1-3,3-1.6,1.2-3.4,2-5.4,2-3.4-.4-6.8-2.5-10.3.3,1.1,1.8,4.3,2.2,3.7,5.2-2.2,5.5-7.4,6-12.2,7.4-3.7.2-6.8-.8-9.1-3.8-.6-4.1-.3-8.1,0-11.4-2.2,2.4,1.8,7.6-2.3,10.3-2.9,1.3-5.5.4-7.9-1.4-.8-.7-1.6-1.5-2.2-2.4-.2-.5-.4-1-.6-1.4-.9-4.2,2-7.5,3.2-11.6.5-.9-1.1,0-1.1.3.1,2.8-1.9,4.5-3.7,6.3-.4.3-.8.6-1.2.9-.5.2-1,.3-1.5.4-1.6,0-3-.7-4.2-1.7-2.7-2.5-4.4-5.5-5-9.2,0-1,.2-1.9.5-2.9,1.6-2.4,3.3-4.6,5.4-6.5,1.3-.5,2.6-.2,4.8,0-2.4-.6-3.9-.7-5.3.3-1.2,1-2.5,1-3.9.4-.6-.7-.9-1.4-.9-2.3.3-.5.5-1.1.8-1.7-1.2,0-2.1.9-3.3.9-1.5.2-3,0-4.4-.7-6-6.6-8.7-14.6-9.4-23.3.3-2.1,1.7-3.7,2.8-5.2-1.3-3.3-4.6-5.3-3.3-9,.6-2.1.9-4.3-.5-6.3-.5-.8-.8-1.6-1.1-2.5-.6-4.3-3.5-6.4-7.1-7.9-2.5-1.8-4-4.4-5.4-7-2.1-4.4-4.3-8.7-8.4-11.8-2-1.8-5.5-2.2-5.9-5.6.4-.9,1-1.5,1.9-2,2-.9,4.3-1.2,6.3-2.4,2.9-2.1,5.7-4.4,9-6,.8-.5,1.6-.9,2.5-1.2,2.2-.9,4.3-1.5,6.7-.6.9.4,1.7,1.1,2.5,1.9.7-.1,1-.6,1.2-1.5.6-1.5,1.3-2.9,2.5-4.1,1.2-.7,2.5-.5,3.7,0,.8.3,1.6.7,2.3,1.1,1.6.7,3.3.8,5.1.5,7.9,1.3,13-6.1,19.5-7.1,4.6,1.8,5.5,5.1,6,8.7-.2.9-.6,1.9-1,2.8,1.1,0,.4-1.2,1-1.6,1.3-2.6-1.2-5.9,1.6-8.4,8.3-5.5,17.7-2.8,26.7-3,2,.6,3.6.1,4.9-1.5h0Z"/>
            <path class="st1" d="M50.9,24.3h-2.2c-7.6-1.1-4.3,6.9-7.7,9.2-1.5,1.4-3,2.7-5.2,1.6-2.1-.6-2.5-2.8-3.8-4.1.2,2.4,1.3,4,3.9,4.2,2,2.3.7,4.4-.4,6.6-1,1.6-2,3.3-3,4.9-1.9,2.7-3.7,5.4-5,8.3-.4.8-.8,1.6-1.3,2.4-.4.8-.8,1.6-1.3,2.4-.4.9-.8,1.7-1.2,2.5-.6,1.3-1.2,2.7-1.8,4-3.9,7.9-7.3,16.2-12.4,23.5-2,2.8-3.3,7.6-8.7,5.4-1.5-10.9-.3-21.9-.7-32.9.3-7.9,6.3-2.4,8.9-4.3-2.2-1.9-7.2.7-8.7-4-.3-6.1-1.7-12.5,4.9-16.7.8-1,2.1-1,5.6-2-3.4.7-4.3,1-5.1,1.6-.7.7-1.5.9-2.4.6-2.4-2.2-1.9-5-2.1-7.8,0-.5,0-.9,0-1.4v-4.3c.6-.6,1.2-1.1,1.9-1.5.8-.3,1.5-.5,2.3-.5,1.2-.2,2.3-.4,3.4-.9,1.4-.8,2.6-2.1,4.2-2.8,2.7-.9,5.3,0,8,0,1.6-.2,3.1-.6,4.5-1.7.5-.6,1.1-1.2,1.6-1.8,1.2-1.7,2.3-3.6,4.3-4.6.8-.4,1.6-.8,2.3-1.2.5-.4,1.1-.5,1.7-.4-1-.6-1.8.3-2.7.6-.8.4-1.6.8-2.3,1.2-2.1,1.4-3.9,3.4-6.6,3.6-1.1,0-2.1-.5-3.1-1,0,0-.9-.1-.9-.1,0,0-.9.2-.9.2-.5.5-.9.9-1.2,1.5-.4.7-.9,1.1-1.6,1.5-.8.2-1.5.1-2.3,0-1.1-.6-1.9-1.4-2.6-2.4-.6-1.1-.7-2.3-.5-3.5.3-.7.6-1.4,1.1-2,.5-.6,1.1-1.1,1.6-1.6.6-.4,1.1-1.9,1.8-2,1.1,0,1.8-.3,2.7-1.1,1.4-.8,3.9-.8,4.6-3,2.5-1.1,4.9-.4,8-.3,12.5.3,25.1.2,37.7.2,1.4,1.9.9,4.3,1.9,6.3,1.2,2.7,1.1,5.1-1.9,6.6-.9.6-2.3.7-2.1,2.3-2.9,2.2-5.8,4.3-8.7,6.5-2.4,0-4.7.5-6.5,2.2h0Z"/>
            <path class="st1" d="M115.8,13.4c.7-3.4-2.2-5.5-3.1-9.1-3.5,1.8-7.6,2.1-9.7,5.9.6.8,1.2,1.5,1.8,2.2-3.4,2.5-5.8,0-8.4-1.3-2.4.3-3.9,3.1-6.6,2.2-1.3-1.3-1.1-2.6-.2-4,1.7-1.8,3.3-3.6,5.9-4.3-3.1-.5-4,2-5.4,3.8-1.4,1.2-2,3.6-4.6,2.4-1.4-2.5-4.1-4.5-3.2-7.9.6-1.5,2.2-1.9,3.2-2.9h62.8c1.3,1.4,1.2,2.9,0,4.3-6.5-4-13.6-1.8-20.5-2-3.8-.1-7,2.3-9.6,5.1.7,1,1.5,2.1,2.2,3.2-.9,1.7-1.6,3.1-2.4,4.6-2,.5-3,.1-2.2-2.2h0Z"/>
            <path class="st1" d="M14.1,15.6h2.2c.5-.5.7-1,.5-1.4-.2-.5-.4-.7-.5-.7v-2.2c1.4-1.2,2.9-1.3,4.3,0,1.5,0,2.2.7,2.2,2.2.4,2.2.5,4.3,0,6.5,0,2.6-2.4,2.9-3.3,1.8-2.2-2.6-4.9-1.5-7.5-1.8-.6.8-1.4,1-2.3.8-2.4-.9-2.7-3.5-4.2-5.1v-2.2c.8-.6,1.4-1.4,2.2-2.2.7-.7,1.5-1.4,2.2-2.2.7-.8,1.4-.8,2.2,0v4.3c.7.7,1.5,1.4,2.2,2.2h0Z"/>
            <path class="st1" d="M83.4,2.6c0,1.7-.4,3.5,1.4,4.7,1.4,1,.4,2.6.7,3.9-1.4-.7-2.9-1.4-4.3-2.2-5,3.6-8.5,2-11.1-3.1-1.2-2.8.5-4.2,2.4-5.6h10.8c.6.5.7,1,.6,1.4-.2.5-.4.7-.6.7h0Z"/>
            <path class="st1" d="M9.8,19.9h2.2c-.3,1.6,1.1,4.1-2.2,4.3-1.4-1.4-2.9-1.4-4.3,0h-2.2c-1.3-1.4-1.2-2.9,0-4.3,0-1.5.7-2.2,2.2-2.2,1.5.5,3.1,1.1,4.3,2.2Z"/>
            <path class="st1" d="M72.6.4c-.7,1.4-1.4,2.9-2.2,4.3.8,2.2-.2,2.7-2.2,2.2-3-.5-2.6-2.1-1.3-4.1.5-.8.9-1.6,1.3-2.4h4.3,0Z"/>
            <path class="st1" d="M22.8,2.6c-.3,2.2,3.6,2.8,1.8,6-3,.7-3.2-4.1-6.1-3.8.2-3.2,2.7-1.8,4.3-2.2h0Z"/>
            <path class="st1" d="M9.8,19.9c-1.6-.3-4.1,1.1-4.3-2.2v-2.2c2.4.5,3.8,2,4.3,4.3h0Z"/>
            <path class="st1" d="M148.3,4.8V.4h2.2c-.3,1.6,1.1,4.1-2.2,4.3Z"/>
            <path class="st1" d="M3.3,19.9v4.3H1.1c.3-1.6-1.1-4.1,2.2-4.3Z"/>
            <path class="st1" d="M16.3,6.9v-2.2h2.2c0,1.5-.7,2.2-2.2,2.2Z"/>
            <path class="st1" d="M83.4,2.6V.4h2.2c0,1.5-.7,2.2-2.2,2.2h0Z"/>
            <path class="st1" d="M79,78.4c-1.5,0-3.9-.8-3.9-2.3-1.6-8.9-4.3-14.1-5.7-23,6.6-3.2,5.1,3.7,7.4,5.9,2.5,1.6.6,4.6,2.2,6.5.3,1.7-1.5,2.1-2.2,3.3,4.3,1.5,8,3.5,5.9,9.4-1.2-.6-2.1-1.1-3.1-1.6-.2.6-.5,1.2-.7,1.8h0Z"/>
            <path class="st1" d="M148.3,126c-.7,1.4-1.4,2.9-2.2,4.3-.2.6-.6,1-1.2,1.1,0,0-.8.3-.8.3,0,0,.3.8.3.8,0,0-.5.7-.6.7-.6.4-1.1.6-1.8.6-1.1,0-2-.3-2.5-1.4-2.4-5.1-5.3-.9-8.1-.5-1.1-1.6-.4-3.4-.5-5.6,4-.4,8.2-.9,9.4-4.6,4.8-.5,2.5,3.5,4.7,4.2h3.2,0Z"/>
            <path class="st1" d="M122.3,52.4c0,1.5.7,2.2,2.2,2.2,1.3,1.1,3,2,3.1,4,0,2.2.9,4.4.5,6.7-.3.9-.8,1.6-1.5,2.3-2.2,1.6-.7,5.8-4.3,6.5,1.7-6.8-3.2-12.8-2.2-19.5-.6-2,.2-2.7,2.2-2.2h0Z"/>
            <path class="st1" d="M182.9,108.6h-6.5c-.5-.5-.7-1-.5-1.4.2-.5.4-.7.5-.7h5.1c-3.6-2.9-2.9-5.9-3-8.7,2-.3,4.4,1,6-.7,2.8-3,5.8-.3,8.8-1.9.1,2,.2,3,.3,4.6h-10.8v8.9Z"/>
            <path class="st1" d="M55.2,28.6h-9.5c-2.1,1.2-3,3.9-5.6,4.3-1-2.7,1.9-4.2,2.2-6.5.5-2.1-2.9-2.2-2.2-4.4.2-2.1,2.2-2.7,3.2-4.1,1.5,2.4,2,5.8,5.5,6.4,0,2.9,2.2,2,3.8,2.1,1.5.1,2.9.1,2.7,2.2h0Z"/>
            <path class="st1" d="M107.2,130.3h-2.2c-.7-1.4-1.4-2.9-2.2-4.3.6-.5.8-1,.6-1.4-.2-.5-.4-.7-.6-.7-.2-3,2.6-1.6,3.7-2.6,2.6-2.9-1-5.4-.8-8.1,3.6-1.1,3.3,1.6,4,3.5.6,1.6,3.9-.3,3.9,2.2.2,2.9-1.6,2.9-3.5,2.9-1.2,2.8-.6,6.2-3,8.6Z"/>
            <path class="st1" d="M174.3,17.8c-.7-3.7-5-4.6-6.4-8.6,4.9-.5,9.8,6,14-.1,1.5,1.8,3.8,2.8,3.3,5.4-2,3.4-7.3-1.7-8.7,3.3-.7,1-1.4,1-2.2,0Z"/>
            <path class="st1" d="M89.9,19.9c1.3-.3,1.8.9,2.9,1.7,2.9-2.5,6.6-1.6,10.1-1.7.7-.8,1.4-.8,2.2,0v10.8c-.7.7-1.4.7-2.2,0,0-3.1.6-6.4-3-8.2-4.1,1.9-8.2,4.1-12.2-.4.2-1.2,1-1.9,2.2-2.2h0Z"/>
            <path class="st1" d="M159.1,84.8c-2.2.3-4.1-.2-5.5-2.3-.7,1.6-1.3,3-1.8,4-1.3-.9-2.7-1.9-3.7-2.5.2-3.6,1.9-5,4.4-5.7,1.1,0,1.3-.4.7-1.4-.3-.5-.5-.8-.7-.8.4-2.1,1.7-3.3,4.3-4.2v8.6c1.1,1.3,3.3.8,4.3,2.6.5,1.8-.6,2-2.1,1.8h0Z"/>
            <path class="st1" d="M202.4,67.5h-2.2c-.6-.9-1.5-1.4-2.2-2.2-2.2,1.4-4.3,2.9-6.5,4.3-1.4-1.4-2.9-1.4-4.3,0-1.4-.7-2.9-1.4-4.3-2.2-.5-.5-.8-1-.7-1.6,0-.6.2-.9.4-.9.9-.6,1.7-.4,2.5.3,6.1.2,11.9-.2,15.1-6.5h2.2c1.4,1.1,1.9,2.6,1.9,4.3,0,1.7-.6,3.2-1.9,4.3h0Z"/>
            <path class="st1" d="M102.8,65.4c5.2,2.1,7.6-3.8,11.9-4.6,2.7,3.9-.7,6.4-2.5,6.4-3.8,0-2.2,3.9-3.9,4.6-3.4,0-4.7-1.8-5.5-4.3-.6-.5-.7-1-.6-1.4s.4-.7.6-.7h0Z"/>
            <path class="st1" d="M68.2,6.9c1.5,0,2.2-.7,2.2-2.2,2.9-.2,1.7,2.5,3.1,4.3h7.7c-.3,1.6,1.1,4.1-2.2,4.3-.4,0-.7,0-1.1,0-.7,0-1.4,0-2.2,0-.4,0-.7,0-1.1,0-2.8-1.1-4.2,1.9-6.5,2.2-.6-.8-2-.9-2.2-2.2-.3-3.4,3.7-1.1,4.2-3.4-.5-1-2.3-1.4-2-3.1h0Z"/>
            <path class="st1" d="M122.3,89.2c3.4-.7,5.7,1.7,8.2,3.1,1.7.9,3.1,1.2,4.8,1.3,1.2,1.4,1.3,2.9,0,4.3-4.4.4-7.8-4.2-13-1.5,0,0,0-7.1,0-7.1Z"/>
            <path class="st1" d="M126.7,58.9c-.7-1.4-1.4-2.9-2.2-4.3h4.3c1.4,0,2.9-1.5,4.3,0,1.3.1,2.9.4,1.2,2-1.5,1.4-1.1,2.9-1.2,4.5-1.4,1.4-1.4,2.9,0,4.3-1,4.2-4.4,1.3-6.5,2.2v-2.2c2.2-2.2.5-4.3,0-6.5h0Z"/>
            <path class="st1" d="M122.3,52.4c-1.5,0-2.2.7-2.2,2.2-2.3,0-4.8.5-4.5-3.3,0-1-2.2-1.5-2-3.2,2.2-.3,4.1.2,5.4,2.1,2.2-1.4,3.2-4.7,6.8-4.2.2.8,1,1.9.7,2.6-.8,1.8-1.9,3.6-4.2,3.9Z"/>
            <path class="st1" d="M154.8,48.1c1.4.3,1.8-.9,2.7-1.6,4.4,3,9.9.5,14.4,2,1.2,3.4-1.8,4.1-2.9,6.7-1.3-1.9-2.2-3.3-3.3-5h-10.9c-.5-.5-.6-1-.5-1.4s.3-.7.5-.7h0Z"/>
            <path class="st1" d="M126.7,41.6c-5.7-9.4-5.8-11.4-1-17.2,2.4,2.3.4,3.7-.9,5,1.4,2.7,2.7,5.3,4,7.9,0,1.8-.9,3.2-2.2,4.3h0Z"/>
            <path class="st1" d="M116.9,93.5l-6.4-6.4c5.4,1.2,8.6-3.1,14.5-1.8-2.9,3.2-5.6,5.6-8.1,8.2h0Z"/>
            <path class="st1" d="M102.8,30.7h2.2c1.3-.2,1.8.6,2.4,2.4-2.2,3.3-5.4,6.2-8.6,8.7-3-1-3.1-3.8-1.8-4,4.5-.7,3.5-5.2,5.8-7.2h0Z"/>
            <path class="st1" d="M144,22.1v-5.4c-2-1.6-5.2-1.6-6.3-4.6,6.1-4,7.8,4.5,12.6,4.3-.7,2.4-4,2.8-4.1,5.6-.7.8-1.4.8-2.2,0Z"/>
            <path class="st1" d="M163.4,37.2c.6.2,1.2.5,1.8.8-1.1,1.9-2.4,3.7-2.5,5.5-3,.7-3.8-1.2-5.4-2.6-1.1-2.4,0-5.3-.4-8,2.7-1.3,3.6,1,4.8,2.5.5.6,1.1,1.2,1.6,1.8h0Z"/>
            <path class="st1" d="M68.2,52.4c0-1.4-.9-3-.9-4.4,3,0,7.3-.8,9.6,4.1v6.8c-1.3.2-2-.5-2.1-1.6-.3-2.8-3.1-2.1-5.6-2.8-.7.8-.2-1.3-.9-2.1h0Z"/>
            <path class="st1" d="M135.3,97.8v-4.3c1.7-.3,2.1,1.5,3.2,2.1,1.1-.7,1.5-2.4,3.2-2.1.6.5.7,1,.6,1.4s-.4.7-.6.7v13.2c-3.7-3.5-1.1-7.4-2.6-10.4-1.1-1.2-2.6-.4-3.9-.6h0Z"/>
            <path class="st1" d="M159.1,84.8c1,.1,1.7-.2,1.9-1.4-.8-1.7-4.4.4-4.1-3h8.7c1.5,1.7,1,3.8,1.1,5.7-.6,1.5-2.2,1.9-3.3,2.9-2.4-.5-3.8-2-4.3-4.3h0Z"/>
            <path class="st1" d="M163.4,37.2h-2.2c-2.1-2.5-.6-6-2.2-8.7.3-2-.6-4.2,1.3-7,.6,1.5,1.1,2.7,1.6,4,.5-.3,1-.6,1.5-.9v12.6Z"/>
            <path class="st1" d="M182.9,65.4v2.2c-2.7.2-5.7-.9-7.6,2.2-1-2-1.9-3.9-3.2-6.6h8.6c1.2.2,1.9,1,2.2,2.2h0Z"/>
            <path class="st1" d="M144,35.1v-4.3c-.3-.4-.7-.7-1-1.1.2-.5.4-.9.6-1.4.9-.5,1.8-.5,2.6.3.6,3.5,4,4,6.4,5.5-1.1,1.1-2.1,2.1-3,3-2.7,1.5-3.3-2.4-5.5-2.1h0Z"/>
            <path class="st1" d="M102.8,87c2.3,1.1,4.6,2.3,6.5,3.2.2,4.8-4.6,2.7-5.7,5.5-1.1-3.1-.7-6.3-3-8.7.7-.9,1.4-.9,2.2,0h0Z"/>
            <path class="st1" d="M141.8,95.7v-2.2c-.9-3,1.2-4.6,3.1-6.3,2.9,1.2,0,3.9,1.3,4.9.9,2.3,3.7.4,4.1,3-2.8,1.3-5.7.2-8.4.6h0Z"/>
            <path class="st1" d="M98.3,105.5c4.3-.3,7.5-2.4,10.9-6.9.3,6.5-3.8,7.6-5.1,9.6-3.4,1.1-3.5-2.4-5.8-2.7h0Z"/>
            <path class="st1" d="M143.8,63.4h3.7c2.7,4.3-1.3,7-2.3,11.3-2.3-4.2-.5-7.7-1.4-11.3Z"/>
            <path class="st1" d="M144,34.9v7.8c-3.1-.3-4.4,4.5-9.1,2.4,2.4-1.7,3.1-4.7,6.1-3.6,1.9-2.3-.8-5.8,3.1-6.6Z"/>
            <path class="st1" d="M115.8,136.8v-2.2c2,.1,2.2-1.2,2.2-2.7,0-3.4,0-6.8.8-10.2,1.9,4.9,1.1,10,1.3,15.1h-4.3,0Z"/>
            <path class="st1" d="M100.7,54.5c-2.1,2.5-2.4,5.5-2.2,8.7.6.5.7,1,.6,1.4-.2.5-.4.7-.6.7-2.6,0-2.6-2.9-5.2-3.2,2.6-2.8,1.8-6.5,5.2-7.6.7-1,1.4-1,2.2,0Z"/>
            <path class="st1" d="M122.2,74.4c-1.7,2.2-3,4.8-2.7,8.5-1.1-3.6-3.6-5.6-6.7-8.5h9.4Z"/>
            <path class="st1" d="M154.8,48.1v2.2c-.3,1.3.6,2.9-.7,4-3.7-1.2-3.4-5.2-5.5-7.5,2.9-3.5,4,1.8,6.2,1.3Z"/>
            <path class="st1" d="M161.3,115.1c-.4,1.4.9,1.8,2,3.2-1.7.6-3.5,1.3-5.3,1.9-.9,1.9-1.1-1.3-3.2-.8.7-3.7,4.9-2.1,6.5-4.3h0Z"/>
            <path class="st1" d="M182.9,65.4c-1.5,0-2.2-.7-2.2-2.2-.4-3,.9-5,4.3-6.5v8.7h-2.2Z"/>
            <path class="st1" d="M61.1,22.4c5.3-.7,6.5,1.9,7.5,5.4-4.8,1.7-6.1-1-7.5-5.4Z"/>
            <path class="st1" d="M180.8,35.1c1-3.6-1.8-6.4-2.4-9.5,1.3-1.5,2.5-1.7,4.5-.6v10c-.7.8-1.4.8-2.2,0h0Z"/>
            <path class="st1" d="M191.7,36v-8.5c.8-1.5,2-.9,2.9-1.1,2.2,1.6,1,3.8,1,5.7-1,1-2,2-3.9,3.9h0Z"/>
            <path class="st1" d="M195.9,84.8c-3.7-3.2-8.5-1.7-12.8-3,4.1-2,8.5-1,12.8-1.3,1.3,1.4,1.2,2.9,0,4.3Z"/>
            <path class="st1" d="M95.8,80.9c-7.2-.8-8.5-4.5-10.2-8,3.6,1.3,6,4,10.2,8Z"/>
            <path class="st1" d="M83.4,37.2c-.4,0-1,0-1,0-1.2-3.3-2.3-6.7-3.9-11.3,4.9,2.4,5.1,6.4,7.1,9.1-.7.8-.8,2.1-2.2,2.2Z"/>
            <path class="st1" d="M114.3,48.1h-5.9c-2.3-1.3,0-4.8-4.4-5.4,2.2-.7,2.9-1.2,3.4-1,2.9,1.3,4.8,3.7,6.9,6.4h0Z"/>
            <path class="st1" d="M102.8,87h-2.2c-2-.2-4.2.6-6.3-.8v-2.7c3.4-2.6,5.8.3,8.4,1.3,0,0,0,2.2,0,2.2Z"/>
            <path class="st1" d="M92,102.2c3.2-.2,3.8-5.1,7.8-4.2.3.8.6,1.7,1.2,3-2.4,1.2-4.6,2.3-6.8,3.4-2,.6-2.7-.2-2.2-2.2h0Z"/>
            <path class="st1" d="M177,50c-.9-1.8-.8-3.1.5-4.1,3-.4,4.5,2.8,8.6,2.8-3.9,2.4-6.6,1.4-9.1,1.3h0Z"/>
            <path class="st1" d="M98.5,106.5v6.5h-4.3c-1.2-1.1-1.4-2.5-1.4-4,.2-1,.7-1.8,1.4-2.5,0,0,4.3,0,4.3,0Z"/>
            <path class="st1" d="M115.8,13.4c0,1.5.7,2.2,2.2,2.2-.7,2.4,4.3,2.5,2.1,5.5-.2.2-.7.7-.7.7-2-1.8-4-3.5-5.7-5.1,0-2,.1-3.4,2.2-3.3h0Z"/>
            <path class="st1" d="M94.2,106.5v2.2c-.5.8-1.2,1-2.1.8-1-.8-1.4-2-2.3-2.9-3.2-.2-1.8-2.7-2.2-4.3h4.3c0,1.5.7,2.2,2.2,2.2v2.2h0Z"/>
            <path class="st1" d="M163.4,89.2c0-1.5.7-2.2,2.2-2.2.7-.7.9-2,2.2-2.2h3.2c1.3,1,1.4,2.2.4,4.3h-7.9,0Z"/>
            <path class="st1" d="M178.6,97.9c-3.1-.8-4-3.9-6.6-5.2,1.8-2.4,3.9-1.1,5.8-1,1.4,1.9.5,4.1.8,6.2h0Z"/>
            <path class="st1" d="M180.8,35.1h2.2v6l-1.2.7c-.6-1.8-1.2-3.5-1.8-5.3-1.3-.2-1.1-1.4.8-1.3h0Z"/>
            <path class="st1" d="M100.7,54.5h-2.2c1.9-3.2-4.1-5-1.5-8.3,4.4,1.4,3.7,5,3.7,8.3Z"/>
            <path class="st1" d="M159.1,28.6c1.9-.1,2.2,1.1,2.2,2.5v6.1c-2,.2-2-1.2-2.2-2.7-.1-1.1-.8-1.9-2.1-1.6.7-1.4,1.4-2.9,2.2-4.3h0Z"/>
            <path class="st1" d="M133.1,54.5c-1.6-.3-2.1,1.3-3.1,2-1-.3-1.4-.9-1.3-2,.2-2.5,1.4-3.8,3.6-4,1.3,1.1.4,2.7.7,4Z"/>
            <path class="st1" d="M142.6,52.5c1.9,1.3,3.8,2.5,3.5,5.2-1,1.3-2.2,1.4-3.6.8-1.2-1.9-1.1-3.8,0-6h0Z"/>
            <path class="st1" d="M126.8,118.7v-2.8c2.8-1.6,5.4-.2,9.6-1.3-3,4.2-7.7.9-9.6,4.1Z"/>
            <path class="st1" d="M50.9,24.3c0-2.1,1.7-3,3-3.9,1.4-1,3.4-.9,3.5,1.7-1,4.2-4.4,1.3-6.5,2.2h0Z"/>
            <path class="st1" d="M94.3,42.1c-.3,4.1-2.3,5.8-6,6,2-2,3.8-3.8,6-6Z"/>
            <path class="st1" d="M79,65.4c-4.2-1-1.3-4.4-2.2-6.5h3.3c2.9,3.3-1.5,4.3-1.1,6.5Z"/>
            <path class="st1" d="M161.3,11.3V3.1c.5-.3,1-.5,1.4-.8,0,1.5.2,3.1.3,4.6.8-.6,1.5-1.1,2.3-1.7-.2,2.1-2.7,3.7-1.8,6.1-.7.8-1.4.8-2.2,0h0Z"/>
            <path class="st1" d="M142.1,30.8c-1.6,2.3-2.5,5.3-6.7,3.7,1.5-2.8,3.3-4.3,6.7-3.7Z"/>
            <path class="st1" d="M120,95.7v3.3c-.9,1.5-2.1.9-3.3,1.1-1.6-2.7-1.6-4.5,3.3-4.3Z"/>
            <path class="st1" d="M126.7,41.6c.3-1.6-1.1-4.1,2.2-4.3,2.7.2,2.3,1.9,1.9,3.6-1.2,1.4-2.7.5-4,.8Z"/>
            <path class="st1" d="M73.8,43.7h-2.2c-1.3-1-1.4-2.2-.8-3.5.7-1.3,1.9-.7,2.9-.9,1.7,1.4,1.4,2.9.2,4.3h0Z"/>
            <path class="st1" d="M98.5,65.4v-2.2c1.6.3,4.1-1.1,4.3,2.2v2.2c-1.6-.3-4.1,1.1-4.3-2.2Z"/>
            <path class="st1" d="M102.5,84.8c1.6-2.3,2.5-5.3,6.7-3.7-1.5,2.8-3.3,4.3-6.7,3.7Z"/>
            <path class="st1" d="M115.6,108.5c2.8,1.5,4.7,2.4,6.7,3.4-1.8,1.8-3.8,1-5.7.7-1.2-.8-.6-1.9-1-4.1h0Z"/>
            <path class="st1" d="M92,108.6h2.2v6.5c-3.7-.7-2.1-4.8-4.3-6.5.7-.8,1.4-.8,2.2,0h0Z"/>
            <path class="st1" d="M79,13.4v8.7c-2.2-4.5-3.3-6.6-4.3-8.7,1.4-1.2,2.9-1.2,4.3,0Z"/>
            <path class="st1" d="M105,19.9h-2.2v-4c1.5-.1,2.4-.2,3.3-.3,1.4,2,2,3.7-1.2,4.3h0Z"/>
            <path class="st1" d="M89.9,19.9c0,1.5-.7,2.2-2.2,2.2-3.1-.6-2.9-2.6-1.2-4,1.1-1,3.3-.7,3.3,1.9h0Z"/>
            <path class="st1" d="M146.1,28.6h-2.2c-1.5-1-.7-3.3-2.2-4.3,0-1.5.7-2.2,2.2-2.2h2.2v6.5Z"/>
            <path class="st1" d="M154,110.4h-9.6c3.8-2,5.7-2.3,9.6,0Z"/>
            <path class="st1" d="M126.6,75.1c2.3-1.7,4.4-1.7,6.7,0-2.3,1.7-4.4,1.7-6.7,0Z"/>
            <path class="st1" d="M167.8,84.8c0,1.5-.7,2.2-2.2,2.2v-6.5c3.2.2,1.8,2.7,2.2,4.3Z"/>
            <path class="st1" d="M85.5,11.3c1.4-.7,2.9-1.4,4.3-2.2v4.3c-1.6-.3-4.1,1.1-4.3-2.2h0Z"/>
            <path class="st1" d="M130.2,85.9c1.9-1,3.4-1.7,4.7-2.3.8,2.2,1.5,4.7-4.7,2.3Z"/>
            <path class="st1" d="M163.4,97.8c.2-1.3-.6-2.8.9-4.1h2.7c1.4,2.1-2.4,2.3-1.4,4.1-.7.8-1.4.8-2.2,0h0Z"/>
            <path class="st1" d="M83.4,37.2c0-1.5.7-2.2,2.2-2.2-.4,1.8,1.7,2,2,3.4-1.8,1.3-3.5,2-4.2-1.3h0Z"/>
            <path class="st1" d="M167,62.8h-9.6c3.8-2,5.7-2.3,9.6,0Z"/>
            <path class="st1" d="M174.3,17.8h2.2v4.2c-3.3-.8-1.7-2.9-2.2-4.2Z"/>
            <path class="st1" d="M161.3,11.3h2.2c1-.1,1.7.2,1.9,1.4-1.9,1.1-3.6,1.6-4.1-1.4h0Z"/>
            <path class="st1" d="M66.1,13.4c1.5,0,2.2.7,2.2,2.2h-2.2c-1,0-2-.1-1.7-1.4,0-.4,1.1-.5,1.7-.7Z"/>
            <path class="st1" d="M141.8,24.3c3.2.2,1.8,2.7,2.2,4.3-.7.8-1.4.8-2.2,0v-4.3Z"/>
            <path class="st1" d="M163.4,97.8h2.2c-.5,3-2.2,2.5-4.1,1.4.2-1.2.9-1.5,1.9-1.4Z"/>
            <path class="st1" d="M152.6,76.2c3,.5,2.5,2.2,1.4,4.1-1.1-.2-1.5-.9-1.4-1.9v-2.2Z"/>
            <path class="st1" d="M187.2,69.7c-.2-2,1.2-2.3,2.7-2.1,1.1.1,1.9.8,1.6,2.1h-4.3Z"/>
            <path class="st1" d="M133.1,65.4c-2,.2-2.3-1.2-2.1-2.7.1-1.1.8-1.9,2.1-1.6v4.3Z"/>
            <path class="st1" d="M157.1,60c-1.8,1.4-3,1.5-4.2.3.9-2.3,2.3-1.7,4.2-.3Z"/>
            <path class="st1" d="M141.8,28.6h2.2v2.2h-2.2v-2.2Z"/>
            <path class="st1" d="M154.8,121.6c0,1.5-.7,2.2-2.2,2.2,0-1.5.7-2.2,2.2-2.2Z"/>
            <path class="st1" d="M102.8,123.8c1.1,0,2,.1,1.7,1.4,0,.3-1.1.5-1.7.7v-2.2Z"/>
            <path class="st1" d="M107.2,132.4v-2.2c1.5,0,2.2.7,2.2,2.2-.7.6-1.4.6-2.2,0Z"/>
            <path class="st1" d="M90.9,63.2c1,.7,1,1.4,0,2.1-1-.7-1-1.4,0-2.1Z"/>
            <path class="st1" d="M163.4,113c0,1.5-.7,2.2-2.2,2.2,0-1.5.7-2.2,2.2-2.2Z"/>
            <path class="st1" d="M119.1,35.1c1,.7,1,1.4,0,2.1-1-.7-1-1.4,0-2.1Z"/>
            <path class="st1" d="M1.1,58.9v-4.3c1.8-.4,2,1.8,3.5,1.9.9-.8,1.6-2.2,3.1-1.9,2.5,2.7,4.9,5.4,8.3,9.2,0-.3-1.8,0-1.9.2-1.9-1.8-3.8-2.8-5.9-4.9-2.1,1.8-3,1.3-3.7,1.9-1.2-.4-1.6-2.4-3.3-2h0Z"/>
            <path class="st1" d="M35.9,34.9c-2.8,1.3-5.2,3.9-8.5,1.5,0-2.8,3.2-.3,3.7-2.2,1.8-2.9-3-3.8-1.8-6.5,1.1-2.2,4.1-1.4,5.5-3.3,3.4,2.9-1.6,4-1.2,6.7.6,1,1.4,2.4,2.2,3.8Z"/>
            <path class="st1" d="M22.8,19.9c.3-1.7-1.5-2.1-2.1-3.2.7-1.1,2.4-1.5,2.1-3.2,2.2-1.4,4.3-2.9,6.5-4.3.6.8,2.1.8,2.2,2.2-2.2,1.6-.6,5.8-4.3,6.5-.2,3.2-2.7,1.8-4.3,2.2h0Z"/>
            <path class="st1" d="M18.5,41.6c0-2.1-.7-4.5,2.5-5-1.4-1.7-3.4-2.5-1.9-5.4.5-.6,1.7-.7,3.2,0,1.5,3.7.4,7.1-1.6,10.4-.7.8-1.4.8-2.2,0Z"/>
            <path class="st1" d="M31.4,9.1c2.6-3.4,6-4.8,10.9-4.1-2,4.1-6,4.3-8.8,6.3-.6-.8-2-.9-2.2-2.2h0Z"/>
            <path class="st1" d="M5.4,36.4c3.7-.5,6.7-2.6,9.4-3.6,1.8,1,1.4,2.2,1.6,3.7-3.5,1.8-7.3.2-11,0h0Z"/>
            <path class="st1" d="M18.5,41.6h2.2c.3,1.3-.9,1.8-1.6,2.7-.3,2.6,3.2,2.8,3.5,5.1-.7,1.2-2.2,1.2-2.8.8-4.4-3.5-4.4-3.7-1.3-8.6h0Z"/>
            <path class="st1" d="M3.3,37.2c-1.9.1-2.2-1.1-2.2-2.5v-6.1c1.9-.1,2.2,1.1,2.2,2.5s0,4.1,0,6.1Z"/>
            <path class="st1" d="M33.6,48.1c-1.5,0-2.2-.7-2.2-2.2.3-1.6-1.1-4.1,2.2-4.3,1.3.1,2.9.4,1.2,2-1.5,1.4-1.1,2.9-1.2,4.5h0Z"/>
            <path class="st1" d="M48.7,9.1c4,1.3,1.8,4,1.5,6.4-2.5-.9-1.2-2.8-1.5-4.2-.5-.5-.7-1-.5-1.4.2-.5.3-.7.5-.7h0Z"/>
            <path class="st1" d="M8.3,49.4c2.7-1.3,4.1-2,5-2.5.5,1.9-1.2,2.8-5,2.5Z"/>
            <path class="st1" d="M20.6,11.3h-4.3c-.2-2,1.2-2.3,2.7-2.1,1.1.1,1.9.8,1.6,2.1Z"/>
            <path class="st1" d="M31.4,9.1c1.5,0,2.2.7,2.2,2.2h-2.2c-1.5,0-2.2-.7-2.2-2.2h2.2Z"/>
            <path class="st1" d="M5.5,24.3c-.2-2,1.2-2.3,2.7-2.1,1.1.1,1.9.8,1.6,2.1h-4.3Z"/>
            <path class="st1" d="M12,9.1v-2.2h2.2c0,1.5-.7,2.2-2.2,2.2Z"/>
            <path class="st1" d="M48.7,9.1v2.2c-1,0-2-.1-1.7-1.4,0-.4,1.1-.5,1.7-.7Z"/>
            <path class="st1" d="M14.1,15.6c-1.5,0-2.2-.7-2.2-2.2,1.5,0,2.2.7,2.2,2.2Z"/>
            <path class="st1" d="M16.3,13.4c1.1,0,2,.1,1.7,1.4,0,.4-1.1.5-1.7.7v-2.2Z"/>
            <path class="st1" d="M24.9,56.7c0,1.5-.7,2.2-2.2,2.2,0-1.5.7-2.2,2.2-2.2Z"/>
            <path class="st1" d="M22.8,61c0,1.5-.7,2.2-2.2,2.2,0-1.5.7-2.2,2.2-2.2Z"/>
            <path class="st1" d="M89.7,9.9c.5-3-.3-4.8-2.5-6.8h15.5c-2.9,5.5-8.9,3.8-13,6.8Z"/>
            <path class="st1" d="M92,108.6h-2.2v-2.2c1.5,0,2.2.7,2.2,2.2Z"/>
            <path class="st1" d="M144,130.3c-1,.2-1.7-.3-1.9-1.3,0-.2.5-.7.6-.6,1,.2,1.5.9,1.3,1.9Z"/>
            <path class="st1" d="M126.7,58.9c3,2.2,3,4.3,0,6.5,0-1.6.3-3.1-1.2-4.5-1.7-1.6-.2-1.8,1.2-2h0Z"/>
            <path class="st1" d="M79,13.4h-4.3c-.2-2,1.2-2.3,2.7-2.1,1.1.1,1.9.8,1.6,2.1Z"/>
            <path class="st1" d="M27.1,17.7c-1,.2-1.7-.3-1.9-1.3,0-.2.5-.7.6-.6,1,.2,1.5.9,1.3,1.9Z"/>
          </g>
        </g>
      </g>
      <g>
        <path class="st0" d="M170.3,145.3c-5.6-5.7-14.9-7.8-24.5,1.3-5.3,5-6.7,6.4-12.4,11.7-14.3,13.3-38.4,7.4-44.8-12.5-5-15.5-23.9-78.5-27.9-89.1-3.9-10.6-16.6-13.5-21.1,0-4.9,14.6-24.5,90.5-33.4,125,4.1,8.9,13.8,15.3,24.9,15.3h134.6c12.6,0,23.3-8.1,26.2-18.9-6.3-11.1-15.5-26.5-21.7-32.8h0Z"/>
        <g class="st3">
          <g>
            <path class="st0" d="M9.4,156v-10.1c1.6-13.9,3.5-27.8,8.4-41.1,2.8-3.7,5.4-7.6,10-9.5,4.2.8,5.8,3.8,7.9,6.4.5.8.9,1.7,1.2,2.6.7,3.9-3.5,5.2-4.8,8-.3.8-.3,1.7-.2,2.7,1.6-.8.3-2.3.9-3.3,2.1-2.4,4.4-4.7,6.4-7.2,2.2-1.8,4.7-2.7,7.6-2.1-3.3-3.7-.3-6.5,1.6-9.4.6-.7,1.3-1.4,2.2-1.9,1-.3,2-.2,2.9.1,2.3,1.8,4.8,3.5,4.5,6.8-1.6,2.5-4,4.8-3,7.9,2.3,3.5,7.1,2,9.5,4.8-2.3-2.7-6.5-2.1-9.1-4.1-.9-4.1.8-6.7,4.3-8.5,2.1-.6,4.1-.4,6.1.5,4,3,8.2,5.8,12.4,8.5,3.3,2.9,3.6,7,5,10.7,1.9,8.6,6.6,16.3,8.5,24.9-1.1,4.5-4.3,4.6-8,3.3-.6-.4-1-.7-1.1-.7.6.3,1.1.6,1.6,1.1,1.3,1.4.5,3,.5,4.5,2.5-3.5,5.8-3.3,9.5-2.2,1.9.9,3,2.4,3.5,4.3-.2,2.5-.4,5.1,2,7,1,1.6,1.2,3.4,1.1,5.2-.2,2.3-1.8,5.2,2.5,5.8,2.2.4,3.5,2.1,5.4,3,2.2.7,4.1-.8,6.1-.9,1,.1,1.8.5,2.4,1.3,1.2,1.6,1.3,3.3,1.2,5.1.1,1.1,0,2.3,1.1,3.3,1-.7-.3-1.1-.3-1.7-.6-3-.4-5.9-1.4-9,6.6-3.2,12.3-5.2,17.3,1.3.5.2.9.6.9,1.2.5-.5.3-.7-.6-.8-1.7-2.3-4.1-4.2-4.7-7.2.1-1.4-.5-6.1.2-7.3,2.5-2.9,5.6-8.7,9.5-9.7,1,0,3,7.3,3.9,7.6,1.3,1.2,2.1,2.7,2.8,4.3.3.8.5,1.6.6,2.4.5,2.2,3,1.2,4.2,2.2,2,1.3,4.4,1.6,7,2.3-2.3-1.1-4.8-1.1-6.6-2.4-.7-.5-1.6-.8-2.5-.9-.9-.2-1.5-.8-1.9-1.5-.1-.8-.3-1.6-.6-2.3-.4-.7-.7-1.5-1-2.2-.4-.7-.7-1.5-1-2.3,0-.9-5-5.9-4.7-6.7.4-.8,4.3-4,5-4.5.8-.5,3.4,6,4.3,6,.4.2.8.4,1.2.5.5.5,1.1.8,1.8,1,1.2-2.7-2.8-9-1.2-11.7,11.2-8.8,19.7-5.7,30.1,3.3,2.2,3.8-.4,6-3,8.2-.4.7-.8,1.5-1,2.3-.2,1.2-.3,2.5-.4,3.7,0,1.7,0,3.4-.5,5.1-.3.9-.7,1.7-1.1,2.5-1.1,2.1-.4,3.6,1.8,4.8-1-.8-1.6-1.7-1.7-2.8.7-3.4,2.9-3.1,5.4-1.9,2,1.2,3.6,2.8,5.1,4.5.6.6,1.2,1.3,1.7,2,1.2,1.3,2.6,2.4,3.4,4,1.7,9-6.7,9.3-12.1,12.1-1.1.3-2.2.5-1.8.8,0,0,1.6.3,3,1.1,2.6,2.2,2.6,4.6.2,6.8-3.4,3-6.5.9-10.3-1.4.2,3.2,2.2,6.9-2.6,7.9-10.1,1.3-20.2,1.7-30.3-.2-5.1-4.5,0-7.1,2.3-10.2.9-.5,1.9-.7,2.8-.7.8-.8,2,2.4,2.7-.2.1-.8.4-1.5.9-2.2.8-1.4,1.8-2.6,3-3.9-1.7,1.2-2.6,3-4.1,4.2-.9.6-1.8,1.1-2.8,1.4-6.8,1.6-5.6,10-11.9,12.1-15.9,1.4-31.8,1.7-47.6-.2-3.1-.9-4.9-3-5.8-5.7-1.8-3.5,1.2-7.7-1.9-10.9-3.1,1.8-6.2,2.7-9.3,0-.3-.4-.6-.7-.9-1.1-.4-.8-.7-1.7-.8-2.6,0-1.8.7-3.5,1.5-5.1,1.7-4.9-1.7-9.3-1.6-14.1,0-.9.2-1.8.4-2.7.6-2.1,1.3-4.3,1.5-6.5,1-3.7-3-6.9-1.6-9.2-1.5,6.8-7.7,6.6-14.7,5-.9-.5-1.6-1.1-2.1-1.9-.3-.9-.3-1.8,0-2.7.6-1.7,1.7-3.1,2.8-4.5.4-.8.9-1.5,1.3-2.3.8-2.7-.8-5.3-.4-7.9,0-.6.3-1.1.8-1.7-1.7,0-1.5,1.8-2.6,2.2-1.8,1.5-.2,2.7.5,4,1.4,3.5-.3,6.3-2.4,9-.7,1.2-1.5,2.4-2.8,3.2-5.4,2-12.9-1.5-16.4,5.3-2.5,5.1-.4,13.5-10.9,12.9-3.8-2.3-.1-6.5-4.2-9-.6,0-4,3-3.9-2.1h0Z"/>
            <path class="st0" d="M9.4,156c.2.6.3,1.5.8,1.6.9.3,1.9.2,2.6.3,2.2-1.6-.3-4.1,1.9-5.7h3c1.8,3.4-3.8,5.5-1.4,9.1,1,.4,2.5,1,4,1.7-.7,2.1-4.7,0-4.4,3.1,0,0-.6.6-.6.6h-1s-.8-.5-.8-.4c.5,1.1.2,1.9-1,2.5-4.5.6-5.2-2.7-6.5-5.4,0-1.9-.3-3.8,1.1-5.4,0-1.4.7-2.1,2.2-2Z"/>
            <path class="st0" d="M57.4,41.4c1.9,3.7,4.7,7.1,4.8,11.4,0,.2,1,3.7,1.6,3.9,2.7,7.1,2.9,11.9,4.4,19.5-.6,6.1,4,11.3,5.5,17.1.8,2.9.5,5.7,1.1,8.5-4.5,5.1-5.8-1.5-8.7-2h-6.5c-.8-.6-1.1-1.4-1.1-2.3,0-3.3-3.6-3.9-5.4-5.7h-2.2c-1,0-1.2.6-.8,1.4.2.4.5.6.8.6-.4,2.5-3.2,3.3-4.4,5.3-.8,1.9,1.6,2.6,1.9,4.1-2.8.9-6.1.6-8.5,2.7-1.8,0-3.2-.8-4.4-2-2.7-4.3-2.7-10.8-9.8-10-2.4-3.3-2.9-5.6-1.1-8.1v-2c3-2.2,1-5.5,2.2-8,2.8-10.3,5.4-20.7,10.9-30.2,2.5-2.7,5.1-5.5,7.3-7.9,4-.5,7.3-.2,10.2,1.8.7.7,1.4,1.4,2.2,2h0Z"/>
            <path class="st0" d="M81.4,202.3c-17,0-34-.2-51,0-6.1.1-11.6-1.1-16.6-4.1-3.1-4.2-.8-6.7,4.4-8.4-2.3-.6-3.2-1.1-4.1-1.8-.8-.7-1.3-1.4-1.8-2.3-2.3-5.6,2-8.8,5.2-12.5.5-.8,1-1.6,1.6-2.4,4.1-3.4,5.2-8.8,9.5-12.1,3.8-1.6,5.1,3.4,8.6,2.6,4,1.7,5.2,4.3,3.7,7.5-2.3,3.9-8-.5-10,6.1,4.4-6.4,10.3-2,14.4-5.1,1.3-1.1,2.8-2.1,4.1-3.2,1.3-1.2,2.4-2.5,4.2-3.1.9-.1,1.8.1,2.5.7,2.3,2.5,2.1,5.3,1.4,8.2.5,2.1,2.6,1.8,4.2,2.3,6,1.4,1.9,6.7,4.4,9.5v2c-1.1,1-1.1,2.3-1.4,3.5-.1.7-.3,1.2-.6,1.7.8-.8.7-1.8.9-2.8,0-.9.4-1.7,1.1-2.4,1.4.7,2.7,1.4,4,2,2.7-.4,4.1-1.8,4.7-4.1,4.5-.8,3.3,2.2,3.1,4.2-.3,2.8-2.3,5.7,1.3,7.9-1.1,2.6,1.9,3.9,2.2,6h0Z"/>
            <path class="st0" d="M199.2,168.1c.7,3.3,4.7,4,6.1,7.5-.5,1.7,2.9,5-1.7,6.6-1.3.7-2.2.2-2.9-.7-1.4-1,.1.5-.2.4,1.5,3.1-3.5,5.2-1.3,8.4-1.3,2.8-3.5,4.8-6.5,6-4.6-1.7-6.1,2.1-8.7,4,.2,1.8-1.2,2-2.6,2h-10.5c-1.6-3-3.2-5.9-4.7-8.7,2-2.1,2.4.1,3.6.5.6-.5,1.4-1.1,2.1-1.7,1.5,2.2,1.9,5.2,5.4,5.9,2.3-.3,3.3-2,4.5-3.6,0-1.3-.2-2.6-2.2-2.5-1.2-1.3-1.3-2.7,0-4,.3-1.2-.6-2.6.7-3.6,2-1,3.3-.1,4.9,2.1,1.5-2.4,2.8-4.6,4.1-6.7.4.4.8.7,1.2,1.1v-4.9c-1.4-3-2.1-5.8,1.9-7.6,2.2-.8,4.4-1.5,6.8-.4h0Z"/>
            <path class="st0" d="M199.2,168.1c-2.3.3-3.8,3-6.5,2-3.6-.8-7.3-1-10.9-2-1.7.3-2-1.3-3.3-1.8-.8.2-1.2.8-1.1,1.8-2.1.6-2.8-.1-2.2-2v-2c3.2-4,3.2-8,0-12.1.5-3.8,4.1-1.1,5.8-2.3,1.4-1,.5-2.5.7-3.7,6.4,7,13.5,13.5,17.5,22.1h0Z"/>
            <path class="st0" d="M120.5,161.8c1.5,0,2,.8,3.5.8l1.7-.3s-.2,5.1,0,5c0,0-.2.4-.2.4,0,0,.5-.3.6-.3,1-.3.2-3.9.9-4.5.6-.5,3.2-3.2,4-3.2.3.3.4,6.1.7,6.4,0,2,1.8,2.7,3,3.7,1.6,1.3,1.3,2.8,1.4,4.4h-3.2c-1.6-.7-.9-2.3-1.8-3.8-3.5,3.2-8.2.8-13.2,2.7,2.5,1.1,4.4,2,6.5,3-3.3,2.4-4,4.1-3.6,6.2-2.5,1.2-3.2-.9-4.4-2v-6c-.8-.6-1.7-1-2.7-1.3-.4-.3-.8-.6-1.2-.9-1.7-2-2.6-6.5-.4-8.8,1.5-.5,3.5-2.2,4.8-1,1.5,0,2.3-.3,3.7-.3h0Z"/>
            <path class="st0" d="M48.7,150h11.9c2.5-3.5,4-7.2,3.4-11.2,1.7-1.4,2.9-1,4.7,0-1.6,3.2-3.7,6.3-2.4,9.9.4,2.1,3.3.5,4.2,2.3,1.4,2.3-2.5,2.9-2.2,4.9-.9.7-1.9,1-3.1.8-5.8-1.9-12-.8-17.9-2-3.5-.7-8.1.5-9.9-4,3.5-2.9,7.3-2.5,11.3-.9h0Z"/>
            <path class="st0" d="M111.9,166.1c-1.1,2.6,1.9,3.9,2.2,6-1.4,2.4-3.4,4-6.5,4-2,.1-2.1-1.1-2.2-2.5-.1-1-.8-1.8-2.1-1.5-2.6-1.3-3.2-3.9-4.4-6v-6c.6-.7,1.4-1,2.4-1,2.1.1,3.1,1.7,4.2,3h2.2c.6.8,1.5,1.3,2.2,2h2.2c.8.4,1,.9.8,1.3s-.5.7-.8.7h0Z"/>
            <path class="st0" d="M24.7,85.6c0,3-.7,6.4,3.6,7.7.5-.5,1-.9,1.3-1.2,1.9,1.6,3.9,3.3,6,5.2v6.4c-4.7-.7-4-5.8-7.6-7.9-1.9,3.1-3.5,6.6-7.7,7.9.1-5.9,3.2-11.4,2.6-17.5,0-.2,1.1-.4,1.7-.7Z"/>
            <path class="st0" d="M96.7,190.2c0-1.9-.7-4.2,3.8-4.9-2.8-1.8-4.6-2.8-6.2-3.9,2-1.9,3.9-.9,5.6-1.2,2.3,1.3.4,3.7,1.6,5.4,1.3,1.4,1.4-.7,3.4-.8,1.3,1.4,3.9,2.7,4.9,5.5-2.6-.4-5.7,1.3-7.4-2.2-2.5,2.5-.5,5.6-1.6,7.9-2.3.4-4,.8-4.1-1.7.2-1.3,1.4-2.7,0-4h0Z"/>
            <path class="st0" d="M48.7,150h-8.3c-1.5,0-2.7.2-2.6,2,1.5,1.5,1.3,2.8-.3,4-2.3.8-4.1-.5-6-1.1-.9-.3-1.7-.7-2.6-1.1-.4-.2-.8-.5-1.2-.7-.3-.3-.6-.7-.8-1.1,1-4.2,5.8-3.9,8.6-6.3,2.6,2.1,5.6,2.5,8.8,2.2,1.5-1.1,2.9-1.2,4.4,0v2h0Z"/>
            <path class="st0" d="M66.1,164.1c2.3,4.3,1.3,9.5,4.3,13.7.7,1-.1,2.5-2.1,2.4-2.8-1.4-3.9-3.5-3.3-6.5-1.5,1.3-3.2,1.6-5.1,1.4-1.7,0-2.7-.8-3.1-2.3.5-1.4,1.7-1.7,3.1-1.7-1.7-2.6-.7-4.9,1.1-7.1.8-.6,1.7-.9,2.7-1.1,1,0,1.9.5,2.6,1.1h0Z"/>
            <path class="st0" d="M59.6,97.7v2c-3.5,0-1.3,4.3-4.4,4.9,1,1,1.9,1.9,3.1,3,.7-.5,1.5-1.1,2.4-1.8,2.8,2,4.7,6,9.6,3.4v4.6c-5.5-3.6-12.8-2.3-17.2-7.1-.2-3.9.8-7,4.3-9.1.7-1,1.5-1,2.2,0Z"/>
            <path class="st0" d="M90.1,144c3.7.6,2.1,4.5,4.4,6h-7.9c-1.9,2.8.3,5.7-1.7,7.8-1,.2-2,.6-3.6-.9,1.8-3.1,2.7-6.9,2.2-10.9,1.8.5,3.2-3.7,5.3-.3.2.3,1.4-.8,1.2-1.7Z"/>
            <path class="st0" d="M29,160.1c-4.5.4-.6,4.5-3.2,6.1-1.9,1.2-3.8,2.8-3.8,5.3,0,.2-1.1.4-1.7.7-1-1.4-2.4-2-4.1-1.8-1.5-1.3-1.8-2.7-.2-4.2h5.4c2.5-3.5,4-7.2,3.4-11.5-.2-1.3,0-2.7,2.2-2.5.9.8,1.7,1.7,2.1,2.8.5,1.1.8,2.2,1.1,3.3,0,.8-.3,1.5-1,1.9h0Z"/>
            <path class="st0" d="M144.2,145.3c1.3-2.8,5.2-4.4,8.3-5.6,0,1.6,2.5,9.6,5.4,11-4.1,2.3-1.1,6.4-3.1,9.2-1,0-1.7,0-2.4.1-3.5-1.8-3.2-13.5-8.2-14.7Z"/>
            <path class="st0" d="M79.2,196.3h-5.8c-2-3.6,1.5-4.3,2.5-6.1,1.3-2.2,2.8-4.6-1.1-6,.7-4.1,4.1-.5,5.3-2.2,4,3.5-2.4,4.4-1.1,7.4.9,2,.2,4.6.2,6.9h0Z"/>
            <path class="st0" d="M181.7,168.1c.3-1.2-.6-2.6,1.3-4.1,1.2,4.9,7.4,2.4,9.6,6.2-1.7,1.4-1.8,3.2-.4,5.4-.6.2-1.2.4-1.8.7-1.7-.3-4.2,1-4.4-2,.6-.4,1-1,1-1.7,0-.2-.4-.3-1-.3-2.4-.5-3.8-1.8-4.4-4h0Z"/>
            <path class="st0" d="M53,131.9c0,1.5,0,2.8,1.2,4.3,1.5,1.9,2.7,4.5-1.2,5.7-.5,2.2-2,3.5-4.4,4-.7.8-1.5.8-2.2,0-.4-3.6,3.3-6.4,2.2-10.1-.2-1.9.9-3.2,2-4.5.9-.4,1.7-.2,2.3.5h0Z"/>
            <path class="st0" d="M151.2,164.1c4.7,3.3,9.5,2.2,14-.2,3.1,3.2-.2,4.2-1.7,6-4.8.8-9.1.2-12.3-3.8-.8-.4-1-.9-.8-1.3s.5-.7.8-.7Z"/>
            <path class="st0" d="M175.2,166.1c0,1.4.7,2.1,2.2,2,.8,3.7,6,4.4,6.5,8.1-.1,2.1-1.6,2-3.2,1.9-1.7-4.5-5.2-7.5-9.8-8.9-.3-4.1,2.4-2.9,4.3-3.1h0Z"/>
            <path class="st0" d="M33.4,111.8c-.2,2.7,2.5,1.6,2.9,1.8-2.4,2.2-5,4.6-6.6,6.1.2-1.3-2.9-5,1.6-7.9.7-.8,1.5-.8,2.2,0Z"/>
            <path class="st0" d="M154.1,197.9c3.7-4.8,6.3-8.3,9.4-12.3.5,8.5-1.4,11.3-9.4,12.3Z"/>
            <path class="st0" d="M68.1,116.3v12.6c-1.1,1.1-2,2.1-3,3.1-.9-.8-1.7-1.5-2.5-2.3.9-4.1,2.2-8,5.4-13.4h0Z"/>
            <path class="st0" d="M66.1,99.7c4-1.2,5.2,2.8,8,3.8.3-.7.5-1.2.7-1.8,4.2.9,1.4,4.1,2.2,6-1.6,0-3.4.4-4.6-1.2-1.5-2.1-3.8-3.2-6.3-3.3,0,0,0-3.5,0-3.5Z"/>
            <path class="st0" d="M144.6,190.2c3-3.6,4.5-8.6,11.2-9.7-1.4,5.3-6.2,7.9-9,11.7-1.2-.2-1.9-.9-2.2-2h0Z"/>
            <path class="st0" d="M116.3,180.2c1.5.7,2.9,1.3,4.4,2,2.9-.7,4.6,1,6.4,3-.8.8-1.7,1.7-2.9,2.9-3.1-2.2-8.7-2.1-7.9-7.9Z"/>
            <path class="st0" d="M175.2,152h3.4c2.3,3.7,0,7.6,1.1,10.8-1.7,1.9-3.2,1.1-4.6,1.3v-6c1.4-1.3,1.4-2.7,0-4v-2h0Z"/>
            <path class="st0" d="M135.9,202.3h-2.2c.5-5.5,3.5-9.5,8.7-12.1,1.3,1.3,1.3,2.7,0,4-4.6,1-4.3,5.4-6.5,8h0Z"/>
            <path class="st0" d="M83.6,146h-5.4c-1.2-1.7-4.7-2.5-2.6-5.8,3.5-1.5,4.9,3.1,8,2.7v3.1Z"/>
            <path class="st0" d="M98.8,166.1c3.4.8,4.7,2.9,4.4,6,0,1-.8,2.2-1.3,1.6-1.8-2-3.1-.8-4.3.4-2.5-3.4.1-5.5,1.3-8Z"/>
            <path class="st0" d="M101,160.1h-8c-.3-1.1-.5-1.6-.7-2.2-.5-3.2,5-.5,4.4-3.8,2.4.5,3.8,1.8,4.4,4,.8.4,1,.9.8,1.3s-.5.7-.8.7h0Z"/>
            <path class="st0" d="M59.6,174.1c2.1.2,4.1,0,5.8-2.6.7,3.4.9,6.4,2.9,8.7-3.3.2-1.9,2.5-2.2,4-1.4.2-2.1-.5-2.1-1.6-.2-1.9,0-3.9,0-5.4-1.5-1.7-3-.8-4.4-1.1-.6-.4-.9-.9-.6-1.3.2-.4.4-.7.6-.7h0Z"/>
            <path class="st0" d="M109.7,190.2h3.4c1.2,2.2,2.3,4.4,3.4,6.3-.9,2-3.2,2.2-3.5,1.5-1.1-2.6-4-4.6-3.2-7.8h0Z"/>
            <path class="st0" d="M33.4,111.8h-2.2c0-2,1.8-2.7,3-3.7,1.6-1.3,1.3-2.8,1.4-4.4,1.7.3,4.2-1,4.4,2-1.3,2.8-3.5,4.8-6.5,6h0Z"/>
            <path class="st0" d="M179.5,188.2v4c-2.7-1-4.9-3.5-8.5-1.6v-5.5c.6-1,.9-.9,1.6-.3,1.9,1.8,3.5,4.3,6.9,3.4h0Z"/>
            <path class="st0" d="M50.9,131.9c-.3,1.5,1.1,3.9-2.2,4-2.1-.2-4.2.6-6.4-.8v-2.5c2.1-1.3,4.3-.5,6.4-.8.7-.8,1.5-.8,2.2,0h0Z"/>
            <path class="st0" d="M50.9,131.9h-2.2c2-2.2,2.1-5,3-9.4,1.3,2.5,2,3.8,2.7,5.2,2.1,1.7-1.7,2.2-1.4,4.3h-2.2,0Z"/>
            <path class="st0" d="M63.9,164.1h-2.2c-.9.7-1.7.7-2.5,0-.2-4.5,3.5-6.2,6.9-8.1h2.2c-.8,2,2,5.1-2.2,6-.6.8-1.4,1.4-2.2,2h0Z"/>
            <path class="st0" d="M59.6,97.7h-2.2c.3-1.2-.6-2-1.7-2-3.7.1-2.5-2.3-2.7-4.1h6.5v6Z"/>
            <path class="st0" d="M107.6,176.1c.7-3.4,4.9-1.9,6.5-4,.6.4.7.9.6,1.3-.2.4-.4.7-.6.7,0,2-1.8,2.8-3,3.6-1.4.9-3.4.9-3.5-1.6h0Z"/>
            <path class="st0" d="M31,138.6v2.6c-2.1,1.6-4,.1-6.1,1.1.5-2.8,2.6-4,6.1-3.7Z"/>
            <path class="st0" d="M135.9,174.1h5.5c1,.9,2,1.9,3,2.9-.4.4-.7,1.1-1.2,1.1-3.5.4-6.3-.5-7.3-4Z"/>
            <path class="st0" d="M146.8,194.2h3.5c1.1,1.7,1.1,2.8-.1,3.9-3.3.5-4.7-1.4-5.6-3.9.7-.7,1.5-.7,2.2,0h0Z"/>
            <path class="st0" d="M82.1,130.8c-3.1,1.3-5,1.5-7.1.3v-2.5c3.3-2.2,4.2,1,7.1,2.2h0Z"/>
            <path class="st0" d="M73.7,121.4c.9,1.3,1.8,2.7,2.7,4.1-1.2,1.4-3.4-.4-5,.6-1.3-2.1-1.9-3.5,2.2-4.7Z"/>
            <path class="st0" d="M33.6,137.2v-6.5c1.8-1.5,3.1-.8,4.1,0,.5,3-2.1,3.7-4.1,6.5Z"/>
            <path class="st0" d="M50.9,93.7c-3.2.8-4.7-1.3-6.9-3.4,2.9-.2,5.6-2.4,6.9,1.4v2Z"/>
            <path class="st0" d="M146.8,194.2h-4.4v-4h2.2c1.5,0,2.2.6,2.2,2v2h0Z"/>
            <path class="st0" d="M151.2,164.1v2c-2.2-.3-3.2,3.6-6.2,1.4.6-1.1,1.2-2.2,1.8-3.4.7-1,1.5-1,2.2,0h2.2,0Z"/>
            <path class="st0" d="M165.4,150.1c-1.7-2.1-1.7-4.1,0-6.2,1.7,2.1,1.7,4.1,0,6.2Z"/>
            <path class="st0" d="M146.8,162.1c-3.3-.2-1.9-2.5-2.2-4,.7-.8,1.5-.8,2.2,0,.7.7,1.3,1.4,2.2,2v2c-.7.8-1.5.8-2.2,0h0Z"/>
            <path class="st0" d="M146.8,158h-4.4c0-.7-.8-5-.8-5.7,1.5-.7,3.7,2.3,5.2,1.7v4h0Z"/>
            <path class="st0" d="M96.7,190.2c2-.1,2.3,1.1,2.1,2.5-.1,1-.8,1.8-2.1,1.5-1,.1-1.7-.3-2-1.2.7-.9,2.2-1.4,2-2.9h0Z"/>
            <path class="st0" d="M175.2,154c2-.1,2.3,1.1,2.1,2.5-.1,1-.8,1.8-2.1,1.5v-4h0Z"/>
            <path class="st0" d="M49.8,109.8c-1.6-1.4-1.6-2.7,0-4.1,1.6,1.4,1.6,2.7,0,4.1Z"/>
            <path class="st0" d="M46.5,146h2.2v2h-4.4c0-1.4.7-2.1,2.2-2Z"/>
            <path class="st0" d="M186.1,172.1c-.1-1,.2-1.6,1.4-1.8,1.1,1.8,1.6,3.3-1.4,3.8v-2h0Z"/>
            <path class="st0" d="M114.1,174.1v-2c1.5,0,2.2.6,2.2,2h-2.2Z"/>
            <path class="st0" d="M149,160.1c-1.5,0-2.2-.6-2.2-2,1.5,0,2.2.6,2.2,2Z"/>
            <path class="st0" d="M63.9,164.1c0-1.4.7-2.1,2.2-2v2h-2.2Z"/>
            <path class="st0" d="M167.5,178.2c1,.7,1,1.3,0,2-1-.7-1-1.3,0-2Z"/>
            <path class="st0" d="M131.6,164.1h2.2c0,1.4-.7,2.1-2.2,2-.7-.4-1-.9-.7-1.3s.5-.7.7-.7Z"/>
            <path class="st0" d="M146.8,162.1h2.2v2h-2.2v-2Z"/>
            <path class="st0" d="M146.8,154c0-1.4.7-2.1,2.2-2,0,1.4-.7,2.1-2.2,2Z"/>
            <path class="st0" d="M20.3,174.1c-.9,2.7-2.5,4.6-6.5,3.9v8.2c-3.6.5-7.3.4-10.9,0-.6-.2-1.7-.4-1.8-.7-.7-3.4.4-6.6,3.9-11.4,4.7,1.6,8-2.1,12.1-2.6,1.7.2,2.2,1.6,3.2,2.6h0Z"/>
            <path class="st0" d="M18.1,172.1c-3.7.9-4.9,4.6-7.6,5.9h-4.5c-1.6-1.2-.7-2.6-.9-3.9v-4c1.5-1,.7-3,2.2-4v-2c3.3-.3,1.3,3.1,3.4,3.9,1.4.2,3.1.5,3.1-1.9h2.2c.3,1.5-1.1,3.9,2.2,4,.5.4.7.9.5,1.3s-.4.7-.5.7h0Z"/>
            <path class="st0" d="M2.9,186.2c3.4.3,1.1-3.4,3.3-3.9,3.7-.8,4.3,3.7,7.6,3.9,2.6,4.6-1,6.3-4.4,8-3.5-1.8-6.9-3.6-6.5-8Z"/>
            <path class="st0" d="M9.4,194.2c0-2,1.8-2.7,3-3.7,1.6-1.3,1.3-2.8,1.4-4.4,3.7,3.1,8.7,1.6,13.7,2.2-1.6,1.6-2.6,2.5-3.8,3.8h-8.9c-1.7,2.1-.7,4.2-1,6.1-2.4-.5-3.8-1.8-4.4-4Z"/>
            <path class="st0" d="M199.2,190.2c-2.3-1.1-4.6-2.1-6.4-3-.4-1.9.2-2.6,1.3-3.1,2.1-.8,2.7,1.6,4.4,1.7,1.4-1.8.5-3.8.7-5.7.7-.8,1.5-.8,2.2,0,0,1.4.7,2.1,2.2,2,.2,3.4-1.5,6-4.4,8h0Z"/>
            <path class="st0" d="M183.9,200.3c-.6-.2-1.2-.5-1.9-.7,1.3-2.3,3-4,7.1-3.1-1.6-1.8-2.2-2.4-3-3.2.9-.8,1.8-1.7,2.8-2.7,2.8,1.1,4.1,2.9,3.6,5.7-2.2,2.6-5,4.2-8.7,4h0Z"/>
            <path class="st0" d="M7.2,166.1c-.3,1.5,1.1,3.9-2.2,4v-4h2.2Z"/>
            <path class="st0" d="M26.9,75.6c.8,1.3,1.5,2.5,2.2,3.7-.4,2.5-2,3.8-4.4,4.3v-5.7c0-1.4.3-2.5,2.2-2.4Z"/>
            <path class="st0" d="M14,166.9c-3.1-2-2.3-3.3-2.1-4.9,2.8,1,1.4,2.8,2.1,4.9Z"/>
            <path class="st0" d="M46.5,49.4c3.4,2.7,6.7,5.7,10.9,6.7.1,1.7,0,2.6-1.6,3.6-4.4-3.3-10.8-4.7-13.6-10.4,1.5-1.2,2.9-1.2,4.4,0h0Z"/>
            <path class="st0" d="M33,74.2c1.6-7.1,7.6-9.1,10.2-12.6,3.3-.2,3.2,1.3,3.4,2.9-5.4,1.3-8,6.1-13.6,9.7Z"/>
            <path class="st0" d="M59.6,71.6c1.3,4.4,1.5,4.6,6.5,7,0,1.3.3,2.6-2.4,3.2-2.6-2-6.6-3.5-6.3-8.2-.8-2.1.2-2.5,2.2-2h0Z"/>
            <path class="st0" d="M46.5,49.4h-4.4v-2.9c1.2-2.2,4.9,0,5.2-3.3,3.9,3.2-1.4,4.1-.9,6.2Z"/>
            <path class="st0" d="M59.6,71.6c-1.5,0-2.2.6-2.2,2-.4,0-1,0-1,0-1.1-3.5.6-6.3,4.8-8,.1,2.2-2.6,3.7-1.6,5.9Z"/>
            <path class="st0" d="M50.5,71.9c.7,6-1.8,7.2-5.2,7.9-.4-1-.8-1.9-1.1-2.5.2-.5.2-.9.5-1.1,1.8-1.1,4.2-.6,5.8-4.3h0Z"/>
            <path class="st0" d="M64,96.7c.7-.9,1.4-.9,2.2,0-.7.9-1.4.9-2.2,0Z"/>
            <path class="st0" d="M66.1,156v3c-2.4,1.4-5.9,1.7-6.5,5.1-1.5,1.1-2.9,1.2-4.4,0-1.3-1.1-2.9-1.8-4.5-2.5-5.1.1-10.1.3-15.2.5-.2.5-.4,1.1-.8,2-2-1.3-1.5-5.9-5.7-4v-2c0-1.4-1.5-1.3-2.2-2v-4h2.2c.7.7,1.5.7,2.2,0,2.7.2,3.2,2.9,5.7,3.7,1.7-.7.6-2.4.9-3.7,4.8.4,10-1.2,15.2,2,4.5-3.4,9.2-2.7,13.2,2.1h0Z"/>
            <path class="st0" d="M35.6,162.1c.3-.6.5-1.6.7-1.6,4.8,0,9.4-1.1,14-2.3,1.4-.4,2.9,0,2.7,2-.9,1.6-2.5,2.5-4,3.5-2.6,1.6-2.5,4.1-2.5,6.6-.4,1.6,1.6,1.9,2.1,3.1-.7.7-1.5,1.4-2.3,2.1-.5.9-.8.6-1.6.2-3.5-1.6-6.5-5-11-2.9-1.4,3.4,4.8,5.6,1.1,9.3-.8,0-1.7,0-2.7.1-.8-4.5-4.3-8.3-2.7-13.2,3.3-2.7,6,.8,9.5,1.7,2.1-4.2,1.3-6.9-3.3-8.5h0Z"/>
            <path class="st0" d="M50.9,188.2c-5,1.2.2,6.2-3.4,7.9-.3-.2-.7-.5-.7-.7,0-2,0-4,0-5.9-4-2.1-8.8-3.6-5.8-9.7,2.7,3,5.6,5.5,10,4.3,1.3,1.3,1.3,2.7,0,4h0Z"/>
            <path class="st0" d="M46.5,170.1c-2.3-.4-3.3-2-4.5-3.7,1-3,2.9-4.8,6.6-4.4,5.5.5,3,3.6,2.2,6-.2,3-2.7,1.7-4.4,2h0Z"/>
            <path class="st0" d="M66.1,188.2c-.3,2.1.2,3.8,2.2,5-2.9.6-.8,5.5-5,5-2.4-1-2.2-4.6.6-10.1.7-.6,1.5-.6,2.2,0Z"/>
            <path class="st0" d="M55.2,164.1h6.5c0,1.5.4,3-1.3,4.2-1.9,1.5.9,1.7,1,2.8-.8,1.9-2.7.8-4.1,1.1-.7.6-1.5.6-2.2,0-.4-1.7,1.7-1.9,2-3.1-1.8-1.1-2.3-2.9-2-4.9h0Z"/>
            <path class="st0" d="M50.9,168.1c-.8-2,2-5.1-2.2-6,.2-3,2.7-1.7,4.4-2,3.3.2,1.9,2.5,2.2,4-2-.1-2.1,1.1-2.2,2.5-.1,1-.8,1.8-2.1,1.5Z"/>
            <path class="st0" d="M55.2,172.1h2.2c0,1.4.7,2.1,2.2,2v2c-1.8-.3-2,1.5-3.4,1.9-2.3-2.3-2.6-4.3-.9-5.9h0Z"/>
            <path class="st0" d="M50.9,188.2v-4c2.5,0,5.1-.3,4.2,3.1-1.4,1.5-2.9.7-4.2.9Z"/>
            <path class="st0" d="M18.1,172.1v-2c.2-.6.5-1.1.8-1.8,2.5.6,1,2.5,1.4,3.8v2c-1.5,0-2.2-.6-2.2-2h0Z"/>
            <path class="st0" d="M66.1,188.2h-2.2c0-1.4.7-2.1,2.2-2v2Z"/>
            <path class="st0" d="M183.9,189.2c-.7.9-1.4.9-2.1,0,.7-.9,1.4-.9,2.1,0Z"/>
            <path class="st0" d="M126.5,161.3c.7,0,2.1,4.8,2.9,4.8-.2,3-2.7,1.7-4.4,2v-2c.7,0-.4-5.1,1.5-4.8Z"/>
            <path class="st0" d="M126.6,167.7c-3.6,3.1-5.8,2.9-8.1,1.5,1.8-2.3,4.4-.7,8.1-1.5Z"/>
            <path class="st0" d="M31.2,152c0,1-.1,1.9-1.4,1.6-.4,0-.5-1-.7-1.6h2.2Z"/>
            <path class="st0" d="M26.9,156h3.9c.2,1.9-.7,2.1-1.7,2-1.5,0-2.2-.6-2.2-2Z"/>
            <path class="st0" d="M53.3,142.8c-3.1-2-2.3-3.3-2.1-4.9,2.8,1,1.4,2.8,2.1,4.9Z"/>
          </g>
        </g>
      </g>
    </g>
  </g>
</svg>