<?xml version="1.0" encoding="UTF-8"?>
<svg id="Camada_2" xmlns="http://www.w3.org/2000/svg" version="1.1" xmlns:xlink="http://www.w3.org/1999/xlink" viewBox="0 0 334.8 103">
  <!-- Generator: Adobe Illustrator 30.5.1, SVG Export Plug-In . SVG Version: 2.1.4 Build 3)  -->
  <defs>
    <style>
      .st0 {
        fill: #71b73b;
      }

      .st1 {
        fill: #2e83c5;
      }

      .st2 {
        fill: #fff;
      }

      .st3 {
        clip-path: url(#clippath-1);
      }

      .st4 {
        fill: #ededed;
      }

      .st5 {
        clip-path: url(#clippath);
      }
    </style>
    <clipPath id="clippath">
      <path class="st1" d="M17.8,18.1c4-6.2,10.8-5.7,13.6.1s6.9,21.8,12,32.1c9.6,19.3,23.6,12.8,28,4.8,4.5-8.1,13.7-8.9,19.5-.2,1.8,2.7,3.4,5.1,4.8,7.3V13.7c0-7.4-6-13.4-13.4-13.4H15.6c-3.7,0-7,1.5-9.5,3.9-3.8,3.8-3.9,8.6-3.9,9.5v31.5c7.8-13.7,14.4-25.2,15.6-27.1h0Z"/>
    </clipPath>
    <clipPath id="clippath-1">
      <path class="st0" d="M84.6,70.7c-2.8-3-7.4-4.1-12.2.7-2.6,2.6-3.3,3.4-6.2,6.1-7.1,7-19.2,3.9-22.3-6.6-2.5-8.2-11.9-41.2-13.9-46.8-2-5.6-8.3-7.1-10.5,0-2.4,7.7-12.2,47.6-16.6,65.7,2.1,4.7,6.9,8,12.4,8h67.1c6.3,0,11.6-4.3,13.1-10-3.2-5.9-7.8-13.9-10.8-17.2h0Z"/>
    </clipPath>
  </defs>
  <g id="Camada_1-2">
    <g>
      <path class="st4" d="M139.9,71.4c-4.4,1.4-8.3,2-11.5,2s-6.5-.9-9.3-2.8c-2.8-1.8-4.9-4.3-6.4-7.3-1.4-3-2.2-6.4-2.2-10.2,0-5.6,1.6-10.4,4.7-14.1,3.1-3.8,7.9-5.7,14.4-5.7s6.3.4,9.9,1.2v5.8c-3.9-1.2-7-1.7-9.5-1.7-3.8,0-6.8,1.5-8.7,4.4s-2.9,6.3-2.9,10.3,1.1,7.8,3.3,10.4,5,4,8.6,4,6.4-.8,9.7-2.4c0,0,0,6,0,6Z"/>
      <path class="st4" d="M167.9,67.7c-2.1,1.9-4.2,3.3-6.2,4.3-2,1-4,1.4-6,1.4s-5.3-.9-7.6-2.7c-2.4-1.8-3.5-4.4-3.5-7.8s1.6-6.9,4.9-9.3c3.3-2.5,8.5-3.7,15.8-3.7h1.6v-4.6c0-1.8-.2-3.2-.8-4-.5-.8-1.3-1.5-2.4-2-1.1-.5-2.4-.7-4-.7-3.6,0-7.6,1.1-12,3.4v-5.7c4.7-1.9,9.2-2.8,13.4-2.8s4.4.4,6.3,1.1c1.9.7,3.4,1.8,4.6,3.4s1.7,4,1.7,7.4v17.3c0,1.9.1,3.2.5,3.9.3.7.7,1.2,1.3,1.5.6.3,1.2.5,1.9.5s.8,0,1.3-.1l.5,3.8c-1.6.8-3.3,1.1-5.2,1.1s-2.5-.4-3.7-1.2-2-2.3-2.5-4.5h0ZM166.8,63.9v-9.9h-2.3c-3.7,0-6.8.6-9.4,2s-3.8,3.3-3.8,5.7.6,3.1,1.9,4.2c1.2,1.2,2.7,1.7,4.3,1.7s3-.3,4.5-1,3.1-1.6,4.7-2.9h0Z"/>
      <path class="st4" d="M184.4,72.5v-38.3h6.9v7.2c1.3-2.6,3-4.5,5.1-5.9,2.1-1.4,4.4-2.1,6.9-2.1s1.4,0,2.2.2v6.5c-1.2-.4-2.2-.6-3.2-.6-2.2,0-4.2.7-6,2s-3.5,3.3-5,5.9v25.2h-6.9Z"/>
      <path class="st4" d="M210.6,27.3v-6.9h6.9v6.9h-6.9ZM210.6,72.5v-38.3h6.9v38.3h-6.9Z"/>
      <path class="st4" d="M243,73.4c-3.6,0-6.8-.8-9.5-2.2s-4.8-3.8-6.4-7c-1.6-3.2-2.4-6.8-2.4-10.7s.7-7.2,2.1-10.3c1.4-3.2,3.5-5.6,6.3-7.2,2.7-1.6,6-2.4,9.9-2.4s6.8.7,9.5,2.2,4.8,3.8,6.4,7c1.6,3.2,2.3,6.8,2.3,10.7s-.7,7.2-2.2,10.4c-1.5,3.2-3.5,5.6-6.3,7.2s-6,2.4-9.8,2.4ZM243,68.2c3.5,0,6.1-1.3,8.1-3.9,1.9-2.6,2.9-6.2,2.9-11s-1-8.4-2.9-11c-1.9-2.5-4.6-3.8-8-3.8s-6.1,1.3-8,3.8c-1.9,2.5-2.9,6.2-2.9,11s.9,8.4,2.9,11c1.9,2.6,4.6,3.9,8,3.9Z"/>
      <path class="st4" d="M295.5,71.4c-4.5,1.4-8.3,2-11.5,2s-6.5-.9-9.3-2.8c-2.8-1.8-4.9-4.3-6.4-7.3-1.4-3-2.1-6.4-2.1-10.2,0-5.6,1.5-10.4,4.6-14.1,3.1-3.8,7.9-5.7,14.4-5.7s6.3.4,9.9,1.2v5.8c-3.9-1.2-7-1.7-9.5-1.7-3.9,0-6.8,1.5-8.7,4.4s-2.9,6.3-2.9,10.3,1.1,7.8,3.3,10.4,5,4,8.5,4,6.4-.8,9.7-2.4v6h0Z"/>
      <path class="st4" d="M323.4,67.7c-2.1,1.9-4.2,3.3-6.2,4.3-2,1-4,1.4-6,1.4s-5.3-.9-7.6-2.7c-2.4-1.8-3.5-4.4-3.5-7.8s1.6-6.9,4.9-9.3c3.3-2.5,8.5-3.7,15.8-3.7h1.6v-4.6c0-1.8-.2-3.2-.8-4-.5-.8-1.3-1.5-2.4-2-1.1-.5-2.4-.7-4-.7-3.6,0-7.6,1.1-12,3.4v-5.7c4.7-1.9,9.2-2.8,13.4-2.8s4.4.4,6.3,1.1,3.4,1.8,4.6,3.4c1.1,1.5,1.7,4,1.7,7.4v17.3c0,1.9.1,3.2.5,3.9.3.7.7,1.2,1.3,1.5.5.3,1.2.5,1.9.5s.8,0,1.3-.1l.5,3.8c-1.6.8-3.3,1.1-5.2,1.1s-2.5-.4-3.7-1.2-2-2.3-2.5-4.5h0ZM322.4,63.9v-9.9h-2.3c-3.7,0-6.8.6-9.4,2s-3.8,3.3-3.8,5.7.6,3.1,1.9,4.2c1.2,1.2,2.7,1.7,4.3,1.7s3-.3,4.5-1,3.1-1.6,4.7-2.9h0Z"/>
    </g>
    <g>
      <path class="st2" d="M142,97.9c-1.5.4-2.8.7-3.9.7-1.9,0-3.4-.6-4.5-1.9-1.1-1.3-1.6-2.8-1.6-4.5s.2-2.2.7-3.3,1.1-1.8,1.9-2.3c.8-.5,1.7-.8,2.8-.8s2.6.5,3.4,1.5,1.3,2.5,1.3,4.5v.7h-7.8c.1,1.1.4,1.9.7,2.5s.8,1,1.4,1.4c.6.3,1.3.5,2.2.5s.9,0,1.4-.1c.4,0,1.1-.3,2.1-.6v1.8h0ZM134.3,90.8h5.5c0-1.2-.2-2.1-.7-2.6-.5-.5-1.1-.8-1.9-.8s-1.6.3-2,.8c-.5.6-.8,1.4-.9,2.6Z"/>
      <path class="st2" d="M147.3,98.2l-4.5-12.2h2.2l3.5,9.5,3.7-9.5h2.1l-4.8,12.2h-2.2Z"/>
      <path class="st2" d="M164.7,97.9c-1.5.4-2.8.7-3.9.7-1.9,0-3.4-.6-4.5-1.9-1.1-1.3-1.6-2.8-1.6-4.5s.2-2.2.7-3.3,1.1-1.8,1.9-2.3c.8-.5,1.7-.8,2.8-.8s2.6.5,3.4,1.5,1.3,2.5,1.3,4.5v.7h-7.8c.1,1.1.4,1.9.7,2.5s.8,1,1.4,1.4c.6.3,1.3.5,2.2.5s.9,0,1.4-.1c.4,0,1.1-.3,2.1-.6v1.8h0ZM157,90.8h5.5c0-1.2-.2-2.1-.7-2.6-.5-.5-1.1-.8-1.9-.8s-1.6.3-2,.8c-.5.6-.8,1.4-.9,2.6Z"/>
      <path class="st2" d="M167.3,98.2v-12.2h2.2v2.3c.6-.8,1.2-1.4,2-1.9s1.5-.7,2.3-.7,1.9.3,2.5,1,1,1.6,1,2.7v8.8h-2.2v-8c0-.8,0-1.4-.2-1.7s-.4-.5-.6-.6c-.3-.2-.6-.2-.9-.2-.6,0-1.1.2-1.8.5-.6.3-1.3,1.1-2.1,2.2v7.9h-2.2Z"/>
      <path class="st2" d="M186,98.2c-.7.2-1.3.3-1.8.3-1.1,0-2-.3-2.6-.9s-1-1.5-1-2.7v-7.2h-1.5v-1.7h1.5v-2.2l2.2-.2v2.4h3.2v1.7h-3.2v6.8c0,.8.2,1.5.5,1.8.3.4.9.6,1.6.6s.6,0,1.1-.2v1.5h0Z"/>
      <path class="st2" d="M192.8,98.5c-1.2,0-2.2-.2-3-.7-.9-.5-1.5-1.2-2-2.2-.5-1-.8-2.2-.8-3.4s.2-2.3.7-3.3c.5-1,1.1-1.8,2-2.3.9-.5,1.9-.8,3.1-.8s2.2.2,3,.7,1.5,1.2,2,2.2.8,2.2.8,3.4-.2,2.3-.7,3.3c-.5,1-1.1,1.8-2,2.3s-1.9.8-3.1.8ZM192.8,96.9c1.1,0,2-.4,2.6-1.2s.9-2,.9-3.5-.3-2.7-.9-3.5-1.5-1.2-2.6-1.2-1.9.4-2.6,1.2c-.6.8-.9,2-.9,3.5s.3,2.7.9,3.5,1.5,1.2,2.6,1.2h0Z"/>
      <path class="st2" d="M200.4,97.8v-2c1.4.7,2.7,1.1,3.8,1.1s1.1-.2,1.6-.5c.4-.3.6-.8.6-1.3s-.1-.6-.3-.9c-.2-.3-.7-.6-1.4-.9l-1.3-.6c-1-.4-1.7-.9-2.2-1.4-.5-.5-.7-1.2-.7-2s.4-1.8,1.1-2.4,1.8-1,3.2-1,1.5,0,2.5.3h.5v1.9c-1.2-.4-2.2-.6-3-.6s-1.2.2-1.6.5-.5.7-.5,1.1.1.6.4.9c.2.3.6.5,1.3.8l1.1.4c1.4.6,2.3,1.2,2.7,1.8.4.6.6,1.2.6,1.9s-.2,1.3-.5,1.8-.9,1-1.6,1.3c-.7.3-1.5.5-2.4.5s-2.2-.2-3.7-.7h0Z"/>
      <path class="st2" d="M228.2,98.2l-.8-1c-1.2.9-2.7,1.4-4.3,1.4s-2.1-.2-3-.7-1.6-1.1-2.2-1.9c-.5-.8-.8-1.8-.8-2.8s.3-2,.9-3c.6-1,1.6-1.7,3.1-2.2-.8-1.3-1.1-2.5-1.1-3.4s.2-1.2.5-1.7.8-1,1.4-1.3,1.3-.5,2-.5c1.1,0,2,.3,2.7,1s1,1.4,1,2.4c0,1.7-1.2,3.1-3.6,4.3,1.1,2,2.4,3.8,3.9,5.5.3-.4.5-.8.6-1.1.1-.3.2-.8.3-1.3s.1-1.2.1-1.8v-.8h2.2c0,2.4-.7,4.6-2.2,6.3.7.8,1.4,1.7,2.3,2.5h-3.1,0ZM226.4,96c-1.1-1.3-1.9-2.4-2.5-3.3s-1.3-2-2-3.3c-1,.4-1.7.9-2.1,1.5-.4.6-.5,1.2-.5,1.9s.2,1.4.6,2.1c.4.7.9,1.2,1.5,1.6s1.3.5,2.1.5,2-.3,3-1h0ZM223.3,87.5c1.6-.7,2.4-1.7,2.4-2.9s-.1-.9-.5-1.2c-.3-.3-.7-.5-1.3-.5s-1.1.2-1.3.6c-.3.4-.4.8-.4,1.2,0,.8.4,1.7,1.1,2.9h0Z"/>
      <path class="st2" d="M242.9,98.2l-4.5-12.2h2.2l3.5,9.5,3.7-9.5h2.1l-4.8,12.2h-2.2Z"/>
      <path class="st2" d="M251.6,83.9v-2.2h2.2v2.2h-2.2ZM251.6,98.2v-12.2h2.2v12.2h-2.2Z"/>
      <path class="st2" d="M263.5,96.7c-.7.6-1.3,1.1-2,1.4s-1.3.5-1.9.5-1.7-.3-2.4-.8-1.1-1.4-1.1-2.5.5-2.2,1.6-3c1-.8,2.7-1.2,5-1.2h.5v-1.5c0-.6,0-1-.2-1.3s-.4-.5-.8-.6-.8-.2-1.3-.2c-1.2,0-2.4.4-3.8,1.1v-1.8c1.5-.6,2.9-.9,4.3-.9s1.4.1,2,.3,1.1.6,1.5,1.1c.4.5.5,1.3.5,2.4v5.5c0,.6,0,1,.1,1.2s.2.4.4.5c.2.1.4.2.6.2s.2,0,.4,0l.2,1.2c-.5.2-1,.4-1.7.4s-.8-.1-1.2-.4-.6-.7-.8-1.4h0ZM263.2,95.5v-3.2h-.7c-1.2,0-2.2.2-3,.7s-1.2,1.1-1.2,1.8.2,1,.6,1.3c.4.4.9.6,1.4.6s1,0,1.4-.3,1-.5,1.5-.9h0Z"/>
      <path class="st2" d="M268.8,102.3l.3-1.9c1.3.6,2.6.9,3.8.9s2.4-.4,3-1.1c.5-.7.8-1.7.8-2.9v-1.9c-.3.7-.8,1.3-1.5,1.8s-1.5.8-2.5.8c-1.7,0-2.9-.6-3.7-1.8-.8-1.2-1.2-2.6-1.2-4.1s.2-2.2.7-3.2c.5-1,1.1-1.8,1.9-2.3.8-.5,1.7-.8,2.8-.8s.9,0,1.3.2c.4,0,.8.3,1.1.5s.7.6,1.1,1v-1.4h2.2v8.9c0,2.6-.2,4.3-.6,5.3-.4.9-1.1,1.6-2,2.1-.9.4-2,.7-3.3.7s-.9,0-1.3,0-.9,0-1.3-.2c-.4,0-.9-.2-1.5-.4h0ZM276.7,94v-5.1c-.5-.5-1-.9-1.5-1.1-.5-.2-1.1-.4-1.7-.4-1,0-1.8.4-2.4,1.2-.6.8-.9,1.9-.9,3.4s.2,2.1.7,2.9c.5.7,1.2,1.1,2.2,1.1s1.3-.2,1.9-.5c.6-.3,1.2-.8,1.8-1.5Z"/>
      <path class="st2" d="M291.3,97.9c-1.5.4-2.8.7-3.9.7-1.9,0-3.4-.6-4.5-1.9-1.1-1.3-1.6-2.8-1.6-4.5s.2-2.2.7-3.3,1.1-1.8,1.9-2.3,1.7-.8,2.8-.8,2.6.5,3.4,1.5,1.3,2.5,1.3,4.5v.7h-7.8c.1,1.1.4,1.9.7,2.5s.8,1,1.4,1.4c.6.3,1.3.5,2.2.5s.9,0,1.4-.1c.5,0,1.1-.3,2.1-.6v1.8h0ZM283.6,90.8h5.5c0-1.2-.2-2.1-.7-2.6-.5-.5-1.1-.8-1.9-.8s-1.5.3-2,.8c-.5.6-.8,1.4-.9,2.6h0Z"/>
      <path class="st2" d="M294,98.2v-12.2h2.2v2.3c.6-.8,1.2-1.4,2-1.9s1.5-.7,2.3-.7,1.9.3,2.5,1,1,1.6,1,2.7v8.8h-2.2v-8c0-.8,0-1.4-.2-1.7s-.4-.5-.6-.6c-.3-.2-.6-.2-.9-.2-.5,0-1.1.2-1.8.5-.6.3-1.3,1.1-2.1,2.2v7.9h-2.2Z"/>
      <path class="st2" d="M306.6,97.8v-2c1.4.7,2.7,1.1,3.8,1.1s1.1-.2,1.6-.5c.4-.3.6-.8.6-1.3s-.1-.6-.3-.9c-.2-.3-.7-.6-1.5-.9l-1.3-.6c-1-.4-1.7-.9-2.2-1.4-.5-.5-.7-1.2-.7-2s.4-1.8,1.1-2.4,1.8-1,3.2-1,1.5,0,2.5.3h.5v1.9c-1.2-.4-2.2-.6-3-.6s-1.2.2-1.6.5-.5.7-.5,1.1.1.6.4.9c.2.3.6.5,1.3.8l1.1.4c1.4.6,2.3,1.2,2.7,1.8.4.6.6,1.2.6,1.9s-.2,1.3-.5,1.8c-.4.6-.9,1-1.6,1.3-.7.3-1.5.5-2.4.5s-2.2-.2-3.7-.7h0Z"/>
    </g>
    <g>
      <g>
        <path class="st1" d="M17.8,18.1c4-6.2,10.8-5.7,13.6.1s6.9,21.8,12,32.1c9.6,19.3,23.6,12.8,28,4.8,4.5-8.1,13.7-8.9,19.5-.2,1.8,2.7,3.4,5.1,4.8,7.3V13.7c0-7.4-6-13.4-13.4-13.4H15.6c-3.7,0-7,1.5-9.5,3.9-3.8,3.8-3.9,8.6-3.9,9.5v31.5c7.8-13.7,14.4-25.2,15.6-27.1h0Z"/>
        <g class="st5">
          <g>
            <path class="st1" d="M74.7.2c4.4,0,8.8-.3,13.2,0,6.9.5,14.1,5.7,14.7,13.9.8,1.7.9,3.2-.5,4.8,3.1,3.9-1,7-1.8,10.6-1.9,2.5-4.3,4-7.7,3.6-1.2,0-1.4-2.5-3.1-1.3-.5.2-.9.3-1.4.5.8.2,1.5,0,2.2,0,.9.1,1.6.8,2.5.9.7,0,1.3,0,2,0,1.3-.1,2.2-1.6,3.7-1.4.4.2.8.6,1.1.9.2.4.3.9.4,1.4-.3,2-.2,4-1.4,5.8-.4.3-.9.5-1.4.6-1.2-.2-2.4-.3-2.5-.3.1,0,1.3,0,2.4.7.7.4,1.2.8,1.7,1.4.5.5,1.1,1,1.6,1.5,4.4,2.1,2.3,6,2.4,9.2-1,3,1,6.7-1.8,9.3-5.6-.2-7.7-5.1-11-8.3,0-1.9-.6-4,1-5-.3.3-1.1.1-1.8-.1-.4,0-.2-.8-.9-.5.4,0,.6.3.8.6.5,1.7,1.8,3.6-.8,4.7-2,.5-3.9,1.2-5.7,2.3-.4.2-.7.5-1.1.8-.3.3-.7.6-1,.8-.2.1-.3.3-.5.4-.7.5-1.4,1.1-1.9,1.7-.3.4-.6.7-.8,1-.4.5-.9,1-1.5,1.5-.8.6-1.7,1-2.7,1-1.7-.2-3.4-1.2-5.1.1.6.9,2.1,1.1,1.9,2.6-1.1,2.7-3.7,3-6,3.7-1.8.1-3.4-.4-4.5-1.9-.3-2-.2-4,0-5.7-1.1,1.2.9,3.8-1.2,5.1-1.5.6-2.7.2-3.9-.7-.4-.3-.8-.8-1.1-1.2,0-.2-.2-.5-.3-.7-.5-2.1,1-3.7,1.6-5.8.3-.5-.6,0-.6.2,0,1.4-.9,2.2-1.8,3.1-.2.2-.4.3-.6.4-.2,0-.5.2-.7.2-.8,0-1.5-.4-2.1-.8-1.3-1.2-2.2-2.8-2.5-4.6,0-.5,0-1,.2-1.4.8-1.2,1.7-2.3,2.7-3.2.6-.2,1.3-.1,2.4,0-1.2-.3-1.9-.4-2.6.2-.6.5-1.2.5-1.9.2-.3-.3-.5-.7-.5-1.1.1-.3.3-.6.4-.8-.6,0-1,.4-1.6.5-.8,0-1.5,0-2.2-.4-3-3.3-4.3-7.2-4.7-11.6.1-1.1.8-1.9,1.4-2.6-.6-1.6-2.3-2.6-1.6-4.5.3-1.1.4-2.1-.2-3.1-.2-.4-.4-.8-.5-1.2-.3-2.1-1.7-3.2-3.5-3.9-1.2-.9-2-2.2-2.7-3.5-1-2.2-2.1-4.3-4.2-5.8-1-.9-2.7-1.1-2.9-2.8.2-.4.5-.8.9-1,1-.4,2.1-.6,3.1-1.2,1.5-1,2.9-2.2,4.5-3,.4-.2.8-.4,1.2-.6,1.1-.4,2.2-.7,3.3-.3.5.2.9.6,1.2.9.3,0,.5-.3.6-.7.3-.8.7-1.4,1.3-2,.6-.3,1.2-.3,1.8,0,.4.2.8.4,1.1.6.8.4,1.7.4,2.5.2,4,.7,6.5-3,9.7-3.5,2.3.9,2.8,2.5,3,4.3-.1.5-.3.9-.5,1.4.5,0,.2-.6.5-.8.7-1.3-.6-2.9.8-4.2,4.1-2.7,8.8-1.4,13.3-1.5,1,.3,1.8,0,2.4-.7h0Z"/>
            <path class="st1" d="M25.3,12.1h-1.1c-3.8-.6-2.1,3.4-3.8,4.6-.7.7-1.5,1.4-2.6.8-1-.3-1.2-1.4-1.9-2,.1,1.2.6,2,1.9,2.1,1,1.2.3,2.2-.2,3.3-.5.8-1,1.6-1.5,2.4-.9,1.3-1.8,2.7-2.5,4.1-.2.4-.4.8-.6,1.2-.2.4-.4.8-.6,1.2-.2.4-.4.8-.6,1.2-.3.7-.6,1.3-.9,2-1.9,4-3.6,8-6.1,11.7-1,1.4-1.6,3.8-4.3,2.7-.8-5.4-.1-10.9-.3-16.3.1-3.9,3.1-1.2,4.4-2.1-1.1-1-3.6.3-4.3-2-.2-3-.8-6.2,2.4-8.3.4-.5,1-.5,2.8-1-1.7.3-2.1.5-2.5.8-.3.4-.7.5-1.2.3-1.2-1.1-1-2.5-1-3.9,0-.2,0-.5,0-.7v-2.1c.3-.3.6-.6,1-.8.4-.1.8-.2,1.2-.3.6,0,1.2-.2,1.7-.4.7-.4,1.3-1.1,2.1-1.4,1.3-.4,2.7,0,4,0,.8,0,1.6-.3,2.2-.8.3-.3.6-.6.8-.9.6-.9,1.2-1.8,2.1-2.3.4-.2.8-.4,1.2-.6.3-.2.6-.2.9-.2-.5-.3-.9.2-1.3.3-.4.2-.8.4-1.1.6-1.1.7-1.9,1.7-3.3,1.8-.6,0-1.1-.3-1.6-.5,0,0-.4,0-.4,0,0,0-.4,0-.4.1-.2.2-.4.5-.6.8-.2.3-.4.6-.8.7-.4,0-.8,0-1.1,0-.5-.3-1-.7-1.3-1.2-.3-.6-.4-1.1-.2-1.7.1-.4.3-.7.6-1,.2-.3.5-.5.8-.8.3-.2.5-.9.9-1,.6,0,.9-.1,1.3-.5.7-.4,2-.4,2.3-1.5,1.2-.6,2.4-.2,4-.2,6.2.2,12.5,0,18.7,0,.7.9.5,2.1.9,3.1.6,1.4.5,2.5-1,3.3-.4.3-1.1.3-1,1.1-1.4,1.1-2.9,2.2-4.3,3.2-1.2,0-2.3.2-3.2,1.1h0Z"/>
            <path class="st1" d="M57.5,6.7c.4-1.7-1.1-2.7-1.5-4.5-1.7.9-3.8,1.1-4.8,2.9.3.4.6.7.9,1.1-1.7,1.2-2.9,0-4.2-.6-1.2.2-1.9,1.6-3.3,1.1-.7-.6-.6-1.3,0-2,.8-.9,1.7-1.8,3-2.1-1.5-.2-2,1-2.7,1.9-.7.6-1,1.8-2.3,1.2-.7-1.2-2-2.2-1.6-3.9.3-.8,1.1-1,1.6-1.5h31.2c.7.7.6,1.4,0,2.2-3.2-2-6.8-.9-10.2-1-1.9,0-3.5,1.1-4.8,2.5.4.5.7,1,1.1,1.6-.4.8-.8,1.6-1.2,2.3-1,.3-1.5,0-1.1-1.1Z"/>
            <path class="st1" d="M98.5,29.3v-2.9c1-.9,2.1-2,3.2-3v-3.2c-.4-.9-1.7-.1-2.1-1.2.6-.2,1.2-.4,2.2-.7v-4c2.1.4,1,2,1,3,0,14.6,0,29.2,0,43.8v2.7c.6.7.6,1.4,0,2.2-1.2.2-1.7-.7-2-1.6.7-3.7-.1-7.6.9-11.3v-7.3c-1.2,0-1.7,1.5-3,.6-.6-.5-.1-1.2-.3-1.9-.7-1.8,1.6-2.2,1.6-3.6.4-3.1.2-6.2.2-9.3,0-.6-.3-1.1-.9-1.4-.4-.1-.7-.4-.9-.7Z"/>
            <path class="st1" d="M7,7.8h1.1c.3-.2.4-.5.3-.7s-.2-.4-.3-.4v-1.1c.7-.6,1.4-.6,2.2,0,.7,0,1.1.3,1.1,1.1.2,1.1.2,2.2,0,3.2,0,1.3-1.2,1.4-1.7.9-1.1-1.3-2.4-.8-3.7-.9-.3.4-.7.5-1.2.4-1.2-.4-1.3-1.7-2.1-2.5v-1.1c.4-.3.7-.7,1.1-1.1.4-.4.8-.7,1.1-1.1.4-.4.7-.4,1.1,0v2.2c.4.4.7.7,1.1,1.1h0Z"/>
            <path class="st1" d="M41.4,1.3c0,.9-.2,1.7.7,2.3.7.5.2,1.3.4,2-.7-.4-1.4-.7-2.2-1.1-2.5,1.8-4.2,1-5.5-1.5-.6-1.4.2-2.1,1.2-2.8h5.4c.3.2.4.5.3.7,0,.2-.2.4-.3.4h0Z"/>
            <path class="st1" d="M4.9,9.9h1.1c-.2.8.5,2.1-1.1,2.1-.7-.7-1.4-.7-2.2,0h-1.1c-.6-.7-.6-1.4,0-2.1,0-.7.3-1.1,1.1-1.1.8.3,1.5.5,2.1,1.1Z"/>
            <path class="st1" d="M36,.2c-.4.7-.7,1.4-1.1,2.2.4,1.1,0,1.4-1.1,1.1-1.5-.3-1.3-1-.7-2,.2-.4.5-.8.7-1.2h2.2Z"/>
            <path class="st1" d="M11.3,1.3c-.2,1.1,1.8,1.4.9,3-1.5.3-1.6-2-3-1.9,0-1.6,1.3-.9,2.1-1.1h0Z"/>
            <path class="st1" d="M4.9,9.9c-.8-.2-2.1.5-2.2-1.1v-1.1c1.2.3,1.9,1,2.2,2.1h0Z"/>
            <path class="st1" d="M73.7,2.4V.2h1.1c-.2.8.5,2.1-1.1,2.1Z"/>
            <path class="st1" d="M8.1,3.5v-1.1h1.1c0,.7-.3,1.1-1.1,1.1Z"/>
            <path class="st1" d="M41.4,1.3V.2h1.1c0,.7-.3,1.1-1.1,1.1h0Z"/>
            <path class="st1" d="M39.3,38.9c-.7,0-2-.4-1.9-1.1-.8-4.4-2.1-7-2.8-11.5,3.3-1.6,2.5,1.8,3.7,2.9,1.2.8.3,2.3,1.1,3.2.1.9-.7,1.1-1.1,1.7,2.2.8,4,1.8,3,4.7-.6-.3-1-.5-1.5-.8-.1.3-.2.6-.4.9Z"/>
            <path class="st1" d="M73.7,62.6c-.4.7-.7,1.4-1.1,2.1,0,.3-.3.5-.6.6l-.4.2s.2.4.1.4c0,0-.3.3-.3.3-.3.2-.6.3-.9.3-.5,0-1-.2-1.2-.7-1.2-2.5-2.7-.5-4-.2-.6-.8-.2-1.7-.2-2.8,2-.2,4.1-.4,4.7-2.3,2.4-.3,1.2,1.8,2.3,2.1h1.6Z"/>
            <path class="st1" d="M60.8,26c0,.7.3,1.1,1.1,1.1.7.5,1.5,1,1.5,2,0,1.1.4,2.2.3,3.3-.2.4-.4.8-.7,1.1-1.1.8-.3,2.9-2.2,3.2.8-3.4-1.6-6.4-1.1-9.7-.3-1,.1-1.3,1.1-1.1h0Z"/>
            <path class="st1" d="M90.9,54h-3.2c-.3-.2-.4-.5-.3-.7,0-.2.2-.4.3-.4h2.6c-1.8-1.5-1.4-2.9-1.5-4.3,1-.2,2.2.5,3-.3,1.4-1.5,2.9-.2,4.4-1,0,1,.1,1.5.2,2.3h-5.4v4.4h0Z"/>
            <path class="st1" d="M27.4,14.2h-4.7c-1,.6-1.5,1.9-2.8,2.2-.5-1.4.9-2.1,1.1-3.2.3-1-1.4-1.1-1.1-2.2,0-1,1.1-1.3,1.6-2.1.8,1.2,1,2.9,2.7,3.2,0,1.4,1.1,1,1.9,1.1.7,0,1.4,0,1.4,1.1h0Z"/>
            <path class="st1" d="M53.2,64.7h-1.1c-.4-.7-.7-1.4-1.1-2.2.3-.2.4-.5.3-.7s-.2-.4-.3-.4c-.1-1.5,1.3-.8,1.8-1.3,1.3-1.4-.5-2.7-.4-4,1.8-.5,1.6.8,2,1.7.3.8,1.9-.2,1.9,1.1.1,1.5-.8,1.5-1.7,1.5-.6,1.4-.3,3.1-1.5,4.3h0Z"/>
            <path class="st1" d="M86.6,8.8c-.4-1.8-2.5-2.3-3.2-4.3,2.4-.2,4.9,3,6.9,0,.7.9,1.9,1.4,1.6,2.7-1,1.7-3.6-.8-4.3,1.7-.4.5-.7.5-1.1,0h0Z"/>
            <path class="st1" d="M102.7,42.2c0,1.4-1.1,1-1.9,1.1-.7,0-1.4,0-1.3,1.1-.7,0-1.1-.3-1.1-1.1-.8-1.1-.9-2.2,0-3.2,0-2.2-.5-4.5,1.1-6.5.5-.3.9-.3,1.4,0,1.1,1.4,1.2,2.9.6,4.5-.7,1.7-.1,3.1,1.3,4.2Z"/>
            <path class="st1" d="M44.6,9.9c.7-.2.9.4,1.4.9,1.5-1.2,3.3-.8,5-.9.4-.4.7-.4,1.1,0v5.4c-.4.3-.7.3-1.1,0,0-1.6.3-3.2-1.5-4.1-2,.9-4.1,2.1-6-.2.1-.6.5-1,1.1-1.1h0Z"/>
            <path class="st1" d="M79,42.2c-1.1.1-2,0-2.7-1.1-.3.8-.7,1.5-.9,2-.7-.5-1.3-.9-1.8-1.2,0-1.8.9-2.5,2.2-2.8.5,0,.7-.2.3-.7-.2-.2-.3-.4-.3-.4.2-1,.9-1.6,2.2-2.1v4.3c.5.7,1.6.4,2.1,1.3.2.9-.3,1-1.1.9Z"/>
            <path class="st1" d="M100.6,33.6h-1.1c-.3-.4-.8-.7-1.1-1.1-1.1.7-2.2,1.4-3.2,2.2-.7-.7-1.4-.7-2.2,0l-2.2-1.1c-.3-.2-.4-.5-.3-.8,0-.3.1-.4.2-.4.5-.3.9-.2,1.2.2,3,.1,5.9,0,7.5-3.2h1.1c.7.6.9,1.3.9,2.1,0,.9-.3,1.6-.9,2.1h0Z"/>
            <path class="st1" d="M51.1,32.5c2.6,1,3.8-1.9,5.9-2.3,1.3,1.9-.3,3.2-1.3,3.2-1.9,0-1.1,2-1.9,2.3-1.7,0-2.3-.9-2.7-2.2-.3-.2-.4-.5-.3-.7s.2-.4.3-.4h0Z"/>
            <path class="st1" d="M33.9,3.5c.7,0,1.1-.3,1.1-1.1,1.4-.1.8,1.2,1.5,2.2h3.8c-.2.8.5,2.1-1.1,2.2h-.5c-.4,0-.7,0-1.1,0h-.5c-1.4-.5-2.1.9-3.2,1.1-.3-.4-1-.4-1.1-1.1-.2-1.7,1.8-.5,2.1-1.7-.2-.5-1.1-.7-1-1.5h0Z"/>
            <path class="st1" d="M60.8,44.3c1.7-.4,2.8.8,4.1,1.5.8.5,1.5.6,2.4.6.6.7.6,1.4,0,2.2-2.2.2-3.8-2.1-6.5-.8v-3.5h0Z"/>
            <path class="st1" d="M62.9,29.3c-.4-.7-.7-1.4-1.1-2.1h2.2c.7,0,1.4-.7,2.2,0,.7,0,1.4.2.6,1-.7.7-.5,1.5-.6,2.2-.7.7-.7,1.4,0,2.1-.5,2.1-2.2.7-3.2,1.1v-1.1c1.1-1.1.2-2.1,0-3.2h0Z"/>
            <path class="st1" d="M60.8,26c-.7,0-1.1.3-1.1,1.1-1.2,0-2.4.2-2.2-1.7,0-.5-1.1-.7-1-1.6,1.1-.1,2,0,2.7,1.1,1.1-.7,1.6-2.3,3.4-2.1.1.4.5,1,.3,1.3-.4.9-1,1.8-2.1,1.9h0Z"/>
            <path class="st1" d="M102.7,64.7c-1.2-.3-1.9-1-2.2-2.2,1.6-2.1.8-4.5,1.1-6.8.1-1-1-2.5,1-2.9v11.8h0Z"/>
            <path class="st1" d="M76.9,23.9c.7.2.9-.5,1.3-.8,2.2,1.5,4.9.3,7.1,1,.6,1.7-.9,2-1.4,3.3-.6-.9-1.1-1.6-1.6-2.5h-5.4c-.2-.2-.3-.5-.2-.7s.2-.4.2-.4h0Z"/>
            <path class="st1" d="M62.9,20.7c-2.8-4.7-2.9-5.6-.5-8.5,1.2,1.1.2,1.8-.4,2.5.7,1.3,1.3,2.6,2,3.9,0,.9-.4,1.6-1.1,2.1Z"/>
            <path class="st1" d="M58.1,46.5l-3.2-3.2c2.7.6,4.3-1.5,7.2-.9-1.4,1.6-2.8,2.8-4,4.1Z"/>
            <path class="st1" d="M51.1,15.3h1.1c.7-.1.9.3,1.2,1.2-1.1,1.7-2.7,3.1-4.3,4.3-1.5-.5-1.6-1.9-.9-2,2.2-.3,1.7-2.6,2.9-3.6Z"/>
            <path class="st1" d="M71.5,11v-2.7c-1-.8-2.6-.8-3.1-2.3,3-2,3.9,2.2,6.2,2.1-.3,1.2-2,1.4-2,2.8-.4.4-.7.4-1.1,0h0Z"/>
            <path class="st1" d="M81.2,18.5c.3.1.6.2.9.4-.5,1-1.2,1.8-1.2,2.8-1.5.4-1.9-.6-2.7-1.3-.6-1.2,0-2.6-.2-4,1.3-.6,1.8.5,2.4,1.2.3.3.5.6.8.9h0Z"/>
            <path class="st1" d="M33.9,26c0-.7-.5-1.5-.5-2.2,1.5,0,3.6-.4,4.8,2v3.4c-.7.1-1-.3-1-.8-.1-1.4-1.5-1-2.8-1.4-.4.4,0-.7-.5-1h0Z"/>
            <path class="st1" d="M67.2,48.6v-2.2c.9-.1,1.1.7,1.6,1.1.6-.3.8-1.2,1.6-1.1.3.2.4.5.3.7,0,.2-.2.4-.3.4v6.6c-1.9-1.7-.5-3.7-1.3-5.2-.6-.6-1.3-.2-1.9-.3h0Z"/>
            <path class="st1" d="M79,42.2c.5,0,.9-.1.9-.7-.4-.9-2.2.2-2-1.5h4.3c.7.8.5,1.9.6,2.8-.3.8-1.1,1-1.6,1.5-1.2-.3-1.9-1-2.2-2.2h0Z"/>
            <path class="st1" d="M81.2,18.5h-1.1c-1-1.3-.3-3-1.1-4.3.1-1-.3-2.1.6-3.5.3.7.5,1.4.8,2,.2-.1.5-.3.7-.4v6.2h0Z"/>
            <path class="st1" d="M90.9,32.5v1.1c-1.3,0-2.8-.5-3.8,1.1-.5-1-1-2-1.6-3.3h4.3c.6.1,1,.5,1.1,1.1h0Z"/>
            <path class="st1" d="M71.5,17.4v-2.1c-.2-.2-.3-.4-.5-.6,0-.2.2-.4.3-.7.5-.3.9-.2,1.3.1.3,1.8,2,2,3.2,2.7-.5.5-1,1-1.5,1.5-1.3.8-1.6-1.2-2.7-1h0Z"/>
            <path class="st1" d="M51.1,43.2c1.1.6,2.3,1.1,3.2,1.6,0,2.4-2.3,1.3-2.8,2.7-.6-1.5-.4-3.2-1.5-4.3.4-.4.7-.4,1.1,0h0Z"/>
            <path class="st1" d="M70.4,47.5v-1.1c-.4-1.5.6-2.3,1.5-3.1,1.4.6,0,2,.7,2.4.4,1.1,1.8.2,2,1.5-1.4.7-2.8.1-4.2.3h0Z"/>
            <path class="st1" d="M48.8,52.4c2.1-.2,3.7-1.2,5.4-3.4.2,3.2-1.9,3.8-2.5,4.8-1.7.5-1.7-1.2-2.9-1.3h0Z"/>
            <path class="st1" d="M71.4,31.5h1.8c1.3,2.1-.6,3.5-1.2,5.6-1.1-2.1-.3-3.8-.7-5.6Z"/>
            <path class="st1" d="M71.5,17.4v3.9c-1.5-.1-2.2,2.3-4.5,1.2,1.2-.9,1.5-2.3,3-1.8.9-1.1-.4-2.9,1.5-3.3h0Z"/>
            <path class="st1" d="M57.5,68v-1.1c1,0,1.1-.6,1.1-1.3,0-1.7,0-3.4.4-5.1,1,2.5.5,5,.7,7.5h-2.2,0Z"/>
            <path class="st1" d="M50,27.1c-1,1.3-1.2,2.7-1.1,4.3.3.2.4.5.3.7s-.2.4-.3.4c-1.3,0-1.3-1.4-2.6-1.6,1.3-1.4.9-3.2,2.6-3.8.4-.5.7-.5,1.1,0h0Z"/>
            <path class="st1" d="M60.7,37c-.8,1.1-1.5,2.4-1.4,4.2-.6-1.8-1.8-2.8-3.3-4.2h4.7Z"/>
            <path class="st1" d="M76.9,23.9v1.1c-.1.7.3,1.4-.3,2-1.8-.6-1.7-2.6-2.8-3.7,1.4-1.7,2,.9,3.1.7h0Z"/>
            <path class="st1" d="M80.1,57.2c-.2.7.4.9,1,1.6-.8.3-1.7.6-2.6,1-.4.9-.6-.7-1.6-.4.3-1.8,2.4-1,3.2-2.2Z"/>
            <path class="st1" d="M90.9,32.5c-.7,0-1.1-.3-1.1-1.1-.2-1.5.4-2.5,2.2-3.2v4.3h-1.1,0Z"/>
            <path class="st1" d="M30.4,11.1c2.6-.4,3.2.9,3.8,2.7-2.4.9-3-.5-3.8-2.7Z"/>
            <path class="st1" d="M89.8,17.4c.5-1.8-.9-3.2-1.2-4.7.6-.8,1.2-.8,2.3-.3v5c-.4.4-.7.4-1.1,0Z"/>
            <path class="st1" d="M95.3,17.9v-4.2c.4-.7,1-.4,1.5-.5,1.1.8.5,1.9.5,2.8-.5.5-1,1-1.9,1.9Z"/>
            <path class="st1" d="M97.3,42.2c-1.8-1.6-4.2-.8-6.3-1.5,2.1-1,4.2-.5,6.3-.7.7.7.6,1.4,0,2.2Z"/>
            <path class="st1" d="M47.6,40.2c-3.6-.4-4.2-2.2-5.1-4,1.8.6,3,2,5.1,4Z"/>
            <path class="st1" d="M41.4,18.5c-.2,0-.5,0-.5,0-.6-1.7-1.2-3.3-1.9-5.6,2.5,1.2,2.5,3.2,3.5,4.5-.3.4-.4,1-1.1,1.1h0Z"/>
            <path class="st1" d="M56.8,23.9h-3c-1.1-.7,0-2.4-2.2-2.7,1.1-.4,1.5-.6,1.7-.5,1.5.6,2.4,1.9,3.4,3.2Z"/>
            <path class="st1" d="M51.1,43.2h-1.1c-1-.1-2.1.3-3.1-.4v-1.3c1.7-1.3,2.9.2,4.2.7,0,0,0,1.1,0,1.1Z"/>
            <path class="st1" d="M45.7,50.8c1.6-.1,1.9-2.5,3.9-2.1.2.4.3.8.6,1.5-1.2.6-2.3,1.1-3.4,1.7-1,.3-1.3,0-1.1-1.1Z"/>
            <path class="st1" d="M98,18.5c.9,1.9.4,3.2-1.3,4.4-.9-1.8-.5-3.1,1.3-4.4Z"/>
            <path class="st1" d="M87.9,24.8c-.4-.9-.4-1.5.2-2,1.5-.2,2.2,1.4,4.3,1.4-1.9,1.2-3.3.7-4.5.6h0Z"/>
            <path class="st1" d="M48.9,52.9v3.2h-2.2c-.6-.5-.7-1.2-.7-2,.1-.5.3-.9.7-1.2h2.2Z"/>
            <path class="st1" d="M57.5,6.7c0,.7.3,1.1,1.1,1.1-.3,1.2,2.1,1.3,1,2.7-.1.1-.3.4-.4.4-1-.9-2-1.8-2.8-2.5,0-1,0-1.7,1.1-1.6h0Z"/>
            <path class="st1" d="M46.8,52.9v1.1c-.2.4-.6.5-1,.4-.5-.4-.7-1-1.1-1.5-1.6,0-.9-1.3-1.1-2.2h2.2c0,.7.3,1.1,1.1,1.1v1.1h0Z"/>
            <path class="st1" d="M81.2,44.3c0-.7.3-1.1,1.1-1.1.4-.3.4-1,1.1-1.1h1.6c.6.5.7,1.1.2,2.2h-3.9Z"/>
            <path class="st1" d="M88.7,48.6c-1.5-.4-2-2-3.3-2.6.9-1.2,1.9-.6,2.9-.5.7,1,.2,2,.4,3.1h0Z"/>
            <path class="st1" d="M89.8,17.4h1.1v3l-.6.3-.9-2.6c-.7-.1-.5-.7.4-.6h0Z"/>
            <path class="st1" d="M50,27.1h-1.1c.9-1.6-2-2.5-.7-4.1,2.2.7,1.8,2.5,1.8,4.1Z"/>
            <path class="st1" d="M79,14.2c.9,0,1.1.5,1.1,1.3v3c-1,0-1-.6-1.1-1.3,0-.5-.4-.9-1.1-.8.4-.7.7-1.4,1.1-2.1h0Z"/>
            <path class="st1" d="M66.1,27.1c-.8-.1-1,.6-1.5,1-.5-.1-.7-.5-.6-1,.1-1.2.7-1.9,1.8-2,.7.6.2,1.3.4,2Z"/>
            <path class="st1" d="M70.8,26.1c1,.6,1.9,1.2,1.8,2.6-.5.6-1.1.7-1.8.4-.6-.9-.5-1.9,0-3h0Z"/>
            <path class="st1" d="M63,59v-1.4c1.4-.8,2.7-.1,4.8-.7-1.5,2.1-3.8.4-4.8,2h0Z"/>
            <path class="st1" d="M25.3,12.1c0-1.1.9-1.5,1.5-1.9.7-.5,1.7-.5,1.7.9-.5,2.1-2.2.7-3.2,1.1h0Z"/>
            <path class="st1" d="M46.8,20.9c-.2,2-1.1,2.9-3,3,1-1,1.9-1.9,3-3Z"/>
            <path class="st1" d="M39.3,32.5c-2.1-.5-.7-2.2-1.1-3.2h1.7c1.5,1.7-.7,2.1-.6,3.2Z"/>
            <path class="st1" d="M80.1,5.6V1.5c.2-.1.5-.3.7-.4,0,.8,0,1.5.1,2.3.4-.3.8-.6,1.1-.8,0,1-1.3,1.8-.9,3-.4.4-.7.4-1.1,0h0Z"/>
            <path class="st1" d="M70.6,15.3c-.8,1.2-1.3,2.6-3.3,1.9.7-1.4,1.7-2.1,3.3-1.9Z"/>
            <path class="st1" d="M59.6,47.6v1.6c-.5.7-1,.4-1.6.5-.8-1.4-.8-2.2,1.6-2.2Z"/>
            <path class="st1" d="M62.9,20.7c.2-.8-.5-2.1,1.1-2.1,1.4,0,1.1.9.9,1.8-.6.7-1.3.2-2,.4Z"/>
            <path class="st1" d="M36.6,21.7h-1.1c-.7-.5-.7-1.1-.4-1.7.4-.6,1-.4,1.5-.4.8.7.7,1.4,0,2.2Z"/>
            <path class="st1" d="M48.9,32.5v-1.1c.8.2,2.1-.5,2.2,1.1v1.1c-.8-.2-2.1.5-2.2-1.1Z"/>
            <path class="st1" d="M50.9,42.1c.8-1.2,1.3-2.6,3.3-1.9-.7,1.4-1.7,2.1-3.3,1.9Z"/>
            <path class="st1" d="M57.4,53.9c1.4.7,2.3,1.2,3.3,1.7-.9.9-1.9.5-2.8.3-.6-.4-.3-1-.5-2Z"/>
            <path class="st1" d="M45.7,54h1.1v3.2c-1.8-.3-1-2.4-2.2-3.2.4-.4.7-.4,1.1,0h0Z"/>
            <path class="st1" d="M39.3,6.7v4.3c-1.1-2.2-1.6-3.3-2.2-4.3.7-.6,1.4-.6,2.2,0Z"/>
            <path class="st1" d="M52.2,9.9h-1.1v-2c.8,0,1.2-.1,1.7-.2.7,1,1,1.8-.6,2.2Z"/>
            <path class="st1" d="M44.6,9.9c0,.7-.3,1.1-1.1,1.1-1.5-.3-1.5-1.3-.6-2,.6-.5,1.6-.3,1.7.9h0Z"/>
            <path class="st1" d="M72.6,14.2h-1.1c-.8-.5-.3-1.6-1.1-2.2,0-.7.3-1.1,1.1-1.1h1.1v3.2Z"/>
            <path class="st1" d="M76.5,54.9h-4.7c1.9-1,2.8-1.2,4.7,0Z"/>
            <path class="st1" d="M97.1,52.2v4.7c-1-1.9-1.2-2.8,0-4.7Z"/>
            <path class="st1" d="M62.9,37.3c1.1-.8,2.2-.8,3.3,0-1.1.8-2.2.8-3.3,0Z"/>
            <path class="st1" d="M83.3,42.2c0,.7-.3,1.1-1.1,1.1v-3.2c1.6,0,.9,1.3,1.1,2.1Z"/>
            <path class="st1" d="M97.3,42.2v-2.2h1.1v3.2c-.7,0-1.1-.3-1.1-1.1Z"/>
            <path class="st1" d="M42.5,5.6c.7-.4,1.4-.7,2.2-1.1v2.2c-.8-.2-2.1.5-2.2-1.1h0Z"/>
            <path class="st1" d="M64.7,42.7c1-.5,1.7-.8,2.3-1.2.4,1.1.8,2.3-2.3,1.2Z"/>
            <path class="st1" d="M81.2,48.6c.1-.7-.3-1.4.4-2h1.3c.7,1-1.2,1.2-.7,2-.4.4-.7.4-1.1,0h0Z"/>
            <path class="st1" d="M41.4,18.5c0-.7.3-1.1,1.1-1.1-.2.9.8,1,1,1.7-.9.7-1.7,1-2.1-.6h0Z"/>
            <path class="st1" d="M83,31.2h-4.7c1.9-1,2.8-1.2,4.7,0Z"/>
            <path class="st1" d="M86.6,8.8h1.1v2.1c-1.6-.4-.8-1.4-1.1-2.1Z"/>
            <path class="st1" d="M80.1,5.6h1.1c.5,0,.9.1.9.7-.9.6-1.8.8-2-.7Z"/>
            <path class="st1" d="M32.8,6.7c.7,0,1.1.3,1.1,1.1h-1.1c-.5,0-1,0-.9-.7,0-.2.6-.2.9-.4h0Z"/>
            <path class="st1" d="M70.4,12.1c1.6,0,.9,1.3,1.1,2.1-.4.4-.7.4-1.1,0v-2.1Z"/>
            <path class="st1" d="M81.2,48.6h1.1c-.3,1.5-1.1,1.2-2,.7,0-.6.4-.8.9-.7Z"/>
            <path class="st1" d="M75.8,37.9c1.5.3,1.2,1.1.7,2-.6,0-.8-.4-.7-1,0,0,0-1.1,0-1.1Z"/>
            <path class="st1" d="M93,34.6c0-1,.6-1.1,1.3-1s.9.4.8,1h-2.2Z"/>
            <path class="st1" d="M66.1,32.5c-1,0-1.1-.6-1-1.3,0-.5.4-.9,1-.8v2.1Z"/>
            <path class="st1" d="M78.1,29.8c-.9.7-1.5.7-2.1.2.4-1.2,1.1-.9,2.1-.2Z"/>
            <path class="st1" d="M70.4,14.2h1.1v1.1h-1.1v-1.1Z"/>
            <path class="st1" d="M76.9,60.4c0,.7-.3,1.1-1.1,1.1,0-.7.3-1.1,1.1-1.1Z"/>
            <path class="st1" d="M51.1,61.5c.5,0,1,0,.8.7,0,.2-.6.2-.8.4v-1.1h0Z"/>
            <path class="st1" d="M53.2,65.8v-1.1c.7,0,1.1.3,1.1,1.1-.4.3-.7.3-1.1,0Z"/>
            <path class="st1" d="M98.4,32.5c.7,0,1.1.3,1.1,1.1-.7,0-1.1-.3-1.1-1.1Z"/>
            <path class="st1" d="M45.2,31.4c.5.4.5.7,0,1.1-.5-.4-.5-.7,0-1.1Z"/>
            <path class="st1" d="M81.2,56.1c0,.7-.3,1.1-1.1,1.1,0-.7.3-1.1,1.1-1.1Z"/>
            <path class="st1" d="M59.2,17.4c.5.4.5.7,0,1.1-.5-.4-.5-.7,0-1.1Z"/>
            <path class="st1" d="M.6,29.3v-2.1c.9-.2,1,.9,1.8.9.4-.4.8-1.1,1.5-1,1.2,1.4,2.4,2.7,4.1,4.6,0-.2-.9,0-1,.1-.9-.9-1.9-1.4-3-2.5-1,.9-1.5.6-1.8,1-.6-.2-.8-1.2-1.7-1h0Z"/>
            <path class="st1" d="M17.8,17.4c-1.4.6-2.6,1.9-4.2.8,0-1.4,1.6-.1,1.9-1.1.9-1.4-1.5-1.9-.9-3.2.5-1.1,2-.7,2.7-1.7,1.7,1.4-.8,2-.6,3.3.3.5.7,1.2,1.1,1.9Z"/>
            <path class="st1" d="M11.3,9.9c.1-.9-.7-1.1-1.1-1.6.3-.6,1.2-.8,1.1-1.6,1.1-.7,2.1-1.4,3.2-2.2.3.4,1,.4,1.1,1.1-1.1.8-.3,2.9-2.1,3.2,0,1.6-1.3.9-2.1,1.1h0Z"/>
            <path class="st1" d="M9.2,20.7c0-1-.4-2.2,1.2-2.5-.7-.8-1.7-1.2-.9-2.7.2-.3.8-.4,1.6,0,.8,1.8.2,3.5-.8,5.1-.4.4-.7.4-1.1,0h0Z"/>
            <path class="st1" d="M15.6,4.5c1.3-1.7,3-2.4,5.4-2-1,2.1-3,2.1-4.4,3.1-.3-.4-1-.4-1.1-1.1h0Z"/>
            <path class="st1" d="M2.7,18.1c1.8-.2,3.3-1.3,4.7-1.8.9.5.7,1.1.8,1.8-1.7.9-3.6,0-5.5,0Z"/>
            <path class="st1" d="M9.2,20.7h1.1c.2.7-.4.9-.8,1.4-.2,1.3,1.6,1.4,1.7,2.5-.3.6-1.1.6-1.4.4-2.2-1.8-2.2-1.8-.6-4.3h0Z"/>
            <path class="st1" d="M16.7,23.9c-.7,0-1.1-.3-1.1-1.1.2-.8-.5-2.1,1.1-2.1.7,0,1.4.2.6,1-.7.7-.5,1.5-.6,2.2Z"/>
            <path class="st1" d="M24.2,4.5c2,.7.9,2,.8,3.2-1.2-.4-.6-1.4-.8-2.1-.2-.2-.3-.5-.2-.7,0-.2.2-.4.2-.4h0Z"/>
            <path class="st1" d="M4.1,24.6c1.3-.7,2-1,2.5-1.2.2,1-.6,1.4-2.5,1.2Z"/>
            <path class="st1" d="M10.2,5.6h-2.2c0-1,.6-1.1,1.3-1.1.5,0,.9.4.8,1.1Z"/>
            <path class="st1" d="M15.6,4.5c.7,0,1.1.3,1.1,1.1h-1.1c-.7,0-1.1-.3-1.1-1.1h1.1Z"/>
            <path class="st1" d="M2.7,12.1c0-1,.6-1.1,1.3-1.1.5,0,.9.4.8,1.1h-2.2Z"/>
            <path class="st1" d="M5.9,4.5v-1.1h1.1c0,.7-.3,1.1-1.1,1.1Z"/>
            <path class="st1" d="M24.2,4.5v1.1c-.5,0-1,0-.9-.7,0-.2.6-.2.9-.4h0Z"/>
            <path class="st1" d="M7,7.8c-.7,0-1.1-.3-1.1-1.1.7,0,1.1.3,1.1,1.1Z"/>
            <path class="st1" d="M8.1,6.7c.5,0,1,0,.8.7,0,.2-.6.2-.8.4v-1.1h0Z"/>
            <path class="st1" d="M12.4,28.2c0,.7-.3,1.1-1.1,1.1,0-.7.3-1.1,1.1-1.1Z"/>
            <path class="st1" d="M11.3,30.3c0,.7-.3,1.1-1.1,1.1,0-.7.3-1.1,1.1-1.1Z"/>
            <path class="st1" d="M44.6,4.9c.3-1.5-.1-2.4-1.2-3.4h7.7c-1.5,2.8-4.4,1.9-6.5,3.4Z"/>
            <path class="st1" d="M100.6,33.6v-2.1c1-.4,0-2.9,2.2-2.1v12.9h-2.7c-1-1-.3-2.3-.6-3.8.7-.5,1.6-1.2,2.5-1.8-1.1-1-1.5-1.9-1.3-3Z"/>
            <path class="st1" d="M102.7,29.3c-1,0-1,.6-1.1,1.3,0,.5-.4.9-1.1.8v-2.1c0-1,.6-1.1,1.3-1,.5,0,.9.4.8,1Z"/>
            <path class="st1" d="M45.7,54h-1.1v-1.1c.7,0,1.1.3,1.1,1.1Z"/>
            <path class="st1" d="M71.5,64.7c-.5,0-.8-.2-.9-.6,0,0,.2-.3.3-.3.5.1.7.4.6.9h0Z"/>
            <path class="st1" d="M62.9,29.3c1.5,1.1,1.5,2.1,0,3.2,0-.8.2-1.5-.6-2.2-.8-.8,0-.9.6-1Z"/>
            <path class="st1" d="M39.3,6.7h-2.2c0-1,.6-1.1,1.3-1.1s.9.4.8,1.1Z"/>
            <path class="st1" d="M13.5,8.8c-.5,0-.8-.1-.9-.6,0,0,.2-.3.3-.3.5.1.7.4.6.9h0Z"/>
          </g>
        </g>
      </g>
      <g>
        <path class="st0" d="M84.6,70.7c-2.8-3-7.4-4.1-12.2.7-2.6,2.6-3.3,3.4-6.2,6.1-7.1,7-19.2,3.9-22.3-6.6-2.5-8.2-11.9-41.2-13.9-46.8-2-5.6-8.3-7.1-10.5,0-2.4,7.7-12.2,47.6-16.6,65.7,2.1,4.7,6.9,8,12.4,8h67.1c6.3,0,11.6-4.3,13.1-10-3.2-5.9-7.8-13.9-10.8-17.2h0Z"/>
        <g class="st3">
          <g>
            <path class="st0" d="M4.3,76.4v-5.3c.8-7.3,1.7-14.6,4.2-21.6,1.4-1.9,2.7-4,5-5,2.1.4,2.9,2,3.9,3.4.3.4.5.9.6,1.4.4,2-1.7,2.7-2.4,4.2-.1.4-.2.9-.1,1.4.8-.4.2-1.2.5-1.7,1.1-1.3,2.2-2.5,3.2-3.8,1.1-.9,2.3-1.4,3.8-1.1-1.6-1.9-.1-3.4.8-4.9.3-.4.7-.7,1.1-1,.5-.1,1-.1,1.5,0,1.1.9,2.4,1.8,2.2,3.6-.8,1.3-2,2.5-1.5,4.2,1.2,1.8,3.5,1.1,4.8,2.5-1.2-1.4-3.2-1.1-4.5-2.2-.5-2.2.4-3.5,2.1-4.5,1-.3,2.1-.2,3,.2,2,1.6,4.1,3,6.2,4.5,1.6,1.5,1.8,3.7,2.5,5.6.9,4.5,3.3,8.6,4.3,13.1-.5,2.4-2.1,2.4-4,1.8-.3-.2-.5-.3-.5-.4.3.1.5.3.8.6.6.8.2,1.6.2,2.4,1.2-1.8,2.9-1.7,4.7-1.1.9.5,1.5,1.3,1.7,2.3-.1,1.3-.2,2.7,1,3.7.5.9.6,1.8.5,2.7,0,1.2-.9,2.7,1.3,3.1,1.1.2,1.8,1.1,2.7,1.6,1.1.4,2-.4,3.1-.5.5,0,.9.3,1.2.7.6.8.6,1.7.6,2.7,0,.6,0,1.2.6,1.7.5-.4-.2-.6-.1-.9-.3-1.6-.2-3.1-.7-4.7,3.3-1.7,6.2-2.7,8.6.7.3,0,.4.3.5.6.3-.2.2-.4-.3-.4-.9-1.2-2.1-2.2-2.3-3.8,0-.7-.3-3.2.1-3.8,1.2-1.5,2.8-4.6,4.7-5.1.5,0,1.5,3.8,2,4,.7.6,1,1.4,1.4,2.3.2.4.3.8.3,1.2.3,1.1,1.5.6,2.1,1.2,1,.7,2.2.8,3.5,1.2-1.2-.6-2.4-.6-3.3-1.3-.4-.3-.8-.4-1.2-.5-.4-.1-.8-.4-1-.8,0-.4-.2-.8-.3-1.2-.2-.4-.4-.8-.5-1.2-.2-.4-.4-.8-.5-1.2,0-.4-2.5-3.1-2.3-3.5.2-.4,2.1-2.1,2.5-2.4.4-.3,1.7,3.2,2.2,3.1.2,0,.4.2.6.3.2.2.5.4.9.5.6-1.4-1.4-4.7-.6-6.1,5.6-4.6,9.8-3,15,1.7,1.1,2-.2,3.2-1.5,4.3-.2.4-.4.8-.5,1.2-.1.6-.2,1.3-.2,1.9,0,.9,0,1.8-.2,2.7-.1.4-.3.9-.6,1.3-.6,1.1-.2,1.9.9,2.5-.5-.4-.8-.9-.9-1.5.3-1.8,1.4-1.6,2.7-1,1,.6,1.8,1.5,2.6,2.4.3.3.6.7.9,1,.6.7,1.3,1.3,1.7,2.1.9,4.7-3.3,4.9-6.1,6.4-.5.2-1.1.3-.9.4,0,0,.8.2,1.5.6,1.3,1.2,1.3,2.4,0,3.5-1.7,1.6-3.2.5-5.1-.7.1,1.7,1.1,3.6-1.3,4.1-5,.7-10.1.9-15.1-.1-2.6-2.4,0-3.7,1.1-5.4.4-.3.9-.4,1.4-.4.4-.4,1,1.3,1.3-.1,0-.4.2-.8.4-1.1.4-.7.9-1.4,1.5-2.1-.9.7-1.3,1.6-2,2.2-.4.3-.9.6-1.4.7-3.4.9-2.8,5.3-6,6.3-7.9.7-15.8.9-23.7-.1-1.5-.5-2.4-1.6-2.9-3-.9-1.8.6-4-1-5.7-1.6.9-3.1,1.4-4.6,0-.2-.2-.3-.4-.5-.6-.2-.4-.3-.9-.4-1.4,0-1,.3-1.8.7-2.7.9-2.6-.9-4.9-.8-7.4,0-.5,0-.9.2-1.4.3-1.1.6-2.3.7-3.4.5-2-1.5-3.7-.8-4.8-.8,3.6-3.9,3.5-7.3,2.6-.5-.2-.8-.6-1-1-.1-.5-.1-.9,0-1.4.3-.9.8-1.6,1.4-2.4.2-.4.4-.8.6-1.2.4-1.4-.4-2.8-.2-4.2,0-.3.1-.6.4-.9-.8,0-.7.9-1.3,1.2-.9.8,0,1.4.3,2.1.7,1.8-.2,3.3-1.2,4.7-.3.7-.7,1.3-1.4,1.7-2.7,1.1-6.4-.8-8.2,2.8-1.3,2.7-.2,7.1-5.4,6.8-1.9-1.2,0-3.4-2.1-4.7-.3,0-2,1.6-1.9-1.1h0Z"/>
            <path class="st0" d="M4.3,76.4c.1.3.2.8.4.9.4.2.9.1,1.3.1,1.1-.9-.1-2.1.9-3h1.5c.9,1.8-1.9,2.9-.7,4.8.5.2,1.3.5,2,.9-.3,1.1-2.4,0-2.2,1.7,0,0-.3.3-.3.3h-.5s-.4-.3-.4-.2c.2.6,0,1-.5,1.3-2.2.3-2.6-1.4-3.2-2.8,0-1-.1-2,.6-2.8,0-.7.3-1.1,1.1-1.1Z"/>
            <path class="st0" d="M28.3,16.1c.9,2,2.3,3.7,2.4,6,0,.1.5,1.9.8,2,1.3,3.7,1.4,6.3,2.2,10.2-.3,3.2,2,6,2.7,9,.4,1.5.3,3,.5,4.4-2.2,2.7-2.9-.8-4.4-1.1h-3.3c-.4-.3-.6-.7-.6-1.2,0-1.7-1.8-2-2.7-3h-1.1c-.5,0-.6.3-.4.7.1.2.3.3.4.3-.2,1.3-1.6,1.7-2.2,2.8-.4,1,.8,1.3,1,2.2-1.4.5-3,.3-4.2,1.4-.9,0-1.6-.4-2.2-1.1-1.4-2.2-1.3-5.7-4.9-5.2-1.2-1.7-1.4-3-.5-4.3v-1.1c1.5-1.1.5-2.9,1.1-4.2,1.4-5.4,2.7-10.9,5.4-15.9,1.3-1.4,2.5-2.9,3.6-4.1,2-.3,3.6-.1,5.1,1,.3.4.7.7,1.1,1.1h0Z"/>
            <path class="st0" d="M40.2,100.7c-8.5,0-17,0-25.4,0-3.1,0-5.8-.6-8.3-2.2-1.5-2.2-.4-3.5,2.2-4.4-1.2-.3-1.6-.6-2-.9-.4-.4-.7-.8-.9-1.2-1.1-2.9,1-4.7,2.6-6.6.2-.4.5-.8.8-1.2,2.1-1.8,2.6-4.6,4.7-6.3,1.9-.9,2.6,1.8,4.3,1.4,2,.9,2.6,2.3,1.9,3.9-1.2,2.1-4-.2-5,3.2,2.2-3.3,5.2-1,7.2-2.7.7-.6,1.4-1.1,2-1.7.6-.6,1.2-1.3,2.1-1.7.5,0,.9,0,1.2.4,1.2,1.3,1.1,2.8.7,4.3.3,1.1,1.3.9,2.1,1.2,3,.7.9,3.5,2.2,5v1.1c-.6.5-.6,1.2-.7,1.9,0,.4-.2.7-.3.9.4-.4.4-1,.5-1.5,0-.5.2-.9.5-1.3.7.4,1.4.7,2,1.1,1.3-.2,2-1,2.3-2.1,2.2-.4,1.7,1.2,1.5,2.2-.2,1.5-1.1,3,.6,4.2-.5,1.3.9,2.1,1.1,3.2h0Z"/>
            <path class="st0" d="M99,82.7c.3,1.7,2.3,2.1,3,3.9-.3.9,1.4,2.6-.9,3.5-.6.4-1.1.1-1.4-.4-.7-.5,0,.2-.1.2.7,1.6-1.8,2.8-.6,4.4-.6,1.5-1.7,2.6-3.3,3.2-2.3-.9-3.1,1.1-4.4,2.1,0,1-.6,1.1-1.3,1.1h-5.2c-.8-1.6-1.6-3.1-2.3-4.6,1-1.1,1.2,0,1.8.3.3-.3.7-.6,1.1-.9.7,1.2,1,2.8,2.7,3.1,1.2-.1,1.7-1,2.2-1.9,0-.7,0-1.4-1.1-1.3-.6-.7-.7-1.4,0-2.1.1-.6-.3-1.4.3-1.9,1-.5,1.6,0,2.5,1.1.7-1.3,1.4-2.4,2.1-3.5.2.2.4.4.6.6v-2.6c-.7-1.6-1-3,1-4,1.1-.4,2.2-.8,3.4-.2h0Z"/>
            <path class="st0" d="M99,82.7c-1.2.2-1.9,1.6-3.3,1.1-1.8-.4-3.7-.5-5.4-1.1-.8.2-1-.7-1.6-.9-.4.1-.6.4-.5.9-1,.3-1.4,0-1.1-1.1v-1.1c1.6-2.1,1.6-4.2,0-6.3.3-2,2.1-.6,2.9-1.2.7-.5.2-1.3.4-1.9,3.2,3.7,6.7,7.1,8.7,11.6h0Z"/>
            <path class="st0" d="M59.8,79.4c.7,0,1,.4,1.7.4l.8-.2s0,2.7,0,2.6c0,0,0,.2,0,.2,0,0,.3-.1.3-.2.5-.2,0-2,.4-2.4.3-.3,1.6-1.7,2-1.7.2.1.2,3.2.3,3.4,0,1,.9,1.4,1.5,1.9.8.7.7,1.5.7,2.3h-1.6c-.8-.4-.4-1.2-.9-2-1.7,1.7-4.1.4-6.6,1.4,1.2.6,2.2,1,3.3,1.6-1.6,1.3-2,2.1-1.8,3.2-1.2.6-1.6-.5-2.2-1.1v-3.2c-.4-.3-.8-.5-1.3-.7-.2-.2-.4-.3-.6-.5-.8-1.1-1.3-3.4-.2-4.6.8-.2,1.7-1.1,2.4-.5.7,0,1.1-.2,1.9-.2h0Z"/>
            <path class="st0" d="M23.9,73.2h5.9c1.2-1.8,2-3.8,1.7-5.9.8-.7,1.4-.5,2.4,0-.8,1.7-1.8,3.3-1.2,5.2.2,1.1,1.6.2,2.1,1.2.7,1.2-1.2,1.5-1.1,2.6-.4.4-1,.5-1.5.4-2.9-1-6-.4-8.9-1-1.8-.4-4.1.2-5-2.1,1.8-1.5,3.7-1.3,5.6-.4h0Z"/>
            <path class="st0" d="M55.5,81.6c-.5,1.3.9,2.1,1.1,3.2-.7,1.3-1.7,2.1-3.3,2.1-1,0-1-.6-1.1-1.3,0-.5-.4-.9-1.1-.8-1.3-.7-1.6-2-2.2-3.2v-3.2c.3-.4.7-.5,1.2-.5,1.1,0,1.5.9,2.1,1.6h1.1c.3.4.8.7,1.1,1.1h1.1c.4.2.5.5.4.7-.1.2-.3.4-.4.4h0Z"/>
            <path class="st0" d="M12,39.3c0,1.6-.4,3.4,1.8,4.1.3-.2.5-.5.6-.6,1,.9,1.9,1.7,3,2.7v3.4c-2.3-.4-2-3-3.8-4.1-1,1.6-1.8,3.5-3.8,4.1,0-3.1,1.6-6,1.3-9.2,0,0,.6-.2.9-.3h0Z"/>
            <path class="st0" d="M47.8,94.3c0-1-.4-2.2,1.9-2.6-1.4-.9-2.3-1.5-3.1-2,1-1,2-.5,2.8-.6,1.2.7.2,2,.8,2.9.7.7.7-.4,1.7-.4.6.8,1.9,1.4,2.5,2.9-1.3-.2-2.9.7-3.7-1.2-1.2,1.3-.2,3-.8,4.2-1.1.2-2,.4-2-.9.1-.7.7-1.4,0-2.1h0Z"/>
            <path class="st0" d="M23.9,73.2h-4.1c-.7,0-1.4.1-1.3,1.1.7.8.6,1.5-.2,2.1-1.1.4-2-.3-3-.6-.4-.2-.9-.4-1.3-.6-.2-.1-.4-.3-.6-.4-.1-.2-.3-.4-.4-.6.5-2.2,2.9-2.1,4.3-3.3,1.3,1.1,2.8,1.3,4.4,1.2.7-.6,1.4-.6,2.2,0v1.1h0Z"/>
            <path class="st0" d="M32.6,80.6c1.1,2.3.6,5,2.1,7.2.3.5,0,1.3-1,1.2-1.4-.7-1.9-1.8-1.7-3.4-.7.7-1.6.8-2.5.7-.8,0-1.3-.4-1.6-1.2.3-.7.9-.9,1.5-.9-.8-1.4-.3-2.6.5-3.7.4-.3.8-.5,1.3-.6.5,0,.9.3,1.3.6h0Z"/>
            <path class="st0" d="M29.4,45.7v1.1c-1.8,0-.7,2.3-2.2,2.6.5.5,1,1,1.5,1.6.4-.3.7-.6,1.2-.9,1.4,1.1,2.3,3.1,4.8,1.8v2.4c-2.8-1.9-6.4-1.2-8.6-3.7,0-2.1.4-3.7,2.2-4.8.4-.5.7-.5,1.1,0Z"/>
            <path class="st0" d="M44.6,70c1.8.3,1.1,2.4,2.2,3.2h-3.9c-.9,1.5.2,3-.8,4.1-.5,0-1,.3-1.8-.5.9-1.6,1.3-3.6,1.1-5.7.9.3,1.6-1.9,2.7-.1,0,.1.7-.4.6-.9h0Z"/>
            <path class="st0" d="M14.1,78.5c-2.3.2-.3,2.4-1.6,3.2-1,.6-1.9,1.5-1.9,2.8,0,.1-.6.2-.9.4-.5-.7-1.2-1-2.1-1-.8-.7-.9-1.4-.1-2.2h2.7c1.2-1.8,2-3.8,1.7-6.1,0-.7,0-1.4,1.1-1.3.5.4.8.9,1,1.5.2.6.4,1.1.5,1.7,0,.4-.1.8-.5,1h0Z"/>
            <path class="st0" d="M71.6,70.7c.6-1.5,2.6-2.3,4.1-2.9,0,.9,1.3,5.1,2.7,5.8-2.1,1.2-.5,3.4-1.5,4.9-.5,0-.8,0-1.2,0-1.7-1-1.6-7.1-4.1-7.7h0Z"/>
            <path class="st0" d="M39.2,97.5h-2.9c-1-1.9.7-2.3,1.3-3.2.6-1.1,1.4-2.4-.5-3.2.4-2.2,2-.3,2.6-1.1,2,1.8-1.2,2.3-.5,3.9.4,1,0,2.4,0,3.6h0Z"/>
            <path class="st0" d="M90.3,82.7c.1-.6-.3-1.4.6-2.2.6,2.6,3.7,1.3,4.8,3.2-.8.7-.9,1.7-.2,2.8-.3.1-.6.2-.9.4-.8-.2-2.1.5-2.2-1.1.3-.2.5-.5.5-.9,0-.1-.2-.2-.5-.2-1.2-.3-1.9-1-2.2-2.1h0Z"/>
            <path class="st0" d="M26.1,63.7c0,.8,0,1.5.6,2.3.7,1,1.3,2.3-.6,3-.3,1.2-1,1.9-2.2,2.1-.4.4-.7.4-1.1,0-.2-1.9,1.6-3.3,1.1-5.3-.1-1,.4-1.7,1-2.4.5-.2.8-.1,1.2.3h0Z"/>
            <path class="st0" d="M75,80.6c2.4,1.7,4.7,1.2,7-.1,1.5,1.7-.1,2.2-.8,3.2-2.4.4-4.5,0-6.2-2-.4-.2-.5-.5-.4-.7.1-.2.3-.4.4-.4Z"/>
            <path class="st0" d="M87,81.6c0,.7.3,1.1,1.1,1.1.4,2,3,2.3,3.3,4.3,0,1.1-.8,1-1.6,1-.8-2.4-2.6-3.9-4.9-4.7-.2-2.1,1.2-1.5,2.2-1.6h0Z"/>
            <path class="st0" d="M16.3,53.1c-.1,1.4,1.2.8,1.4,1-1.2,1.2-2.5,2.4-3.3,3.2.1-.7-1.4-2.6.8-4.2.4-.4.7-.4,1.1,0h0Z"/>
            <path class="st0" d="M76.5,98.4c1.8-2.5,3.2-4.3,4.7-6.4.2,4.5-.7,5.9-4.7,6.4Z"/>
            <path class="st0" d="M33.6,55.5v6.6c-.5.6-1,1.1-1.5,1.6-.4-.4-.8-.8-1.2-1.2.5-2.1,1.1-4.2,2.7-7h0Z"/>
            <path class="st0" d="M32.6,46.7c2-.6,2.6,1.5,4,2,.1-.4.3-.7.4-.9,2.1.5.7,2.1,1.1,3.2-.8,0-1.7.2-2.3-.6-.8-1.1-1.9-1.7-3.1-1.7,0,0,0-1.9,0-1.9Z"/>
            <path class="st0" d="M71.8,94.3c1.5-1.9,2.2-4.5,5.6-5.1-.7,2.8-3.1,4.1-4.5,6.1-.6-.1-1-.5-1.1-1.1Z"/>
            <path class="st0" d="M57.6,89c.7.4,1.4.7,2.2,1.1,1.5-.4,2.3.5,3.2,1.6-.4.4-.9.9-1.4,1.5-1.5-1.2-4.3-1.1-3.9-4.1Z"/>
            <path class="st0" d="M87,74.2h1.7c1.1,1.9,0,4,.6,5.7-.8,1-1.6.6-2.3.7v-3.2c.7-.7.7-1.4,0-2.1,0,0,0-1.1,0-1.1Z"/>
            <path class="st0" d="M67.4,100.7h-1.1c.2-2.9,1.7-5,4.4-6.3.6.7.6,1.4,0,2.1-2.3.5-2.1,2.9-3.3,4.2Z"/>
            <path class="st0" d="M41.3,71.1h-2.7c-.6-.9-2.4-1.3-1.3-3,1.8-.8,2.4,1.6,4,1.4v1.6h0Z"/>
            <path class="st0" d="M48.9,81.6c1.7.4,2.4,1.5,2.2,3.2,0,.5-.4,1.2-.7.8-.9-1.1-1.5-.4-2.2.2-1.2-1.8,0-2.9.6-4.2Z"/>
            <path class="st0" d="M50,78.5h-4c-.2-.6-.3-.9-.4-1.2-.2-1.7,2.5-.3,2.2-2,1.2.3,1.9,1,2.2,2.1.4.2.5.5.4.7-.1.2-.3.4-.4.4h0Z"/>
            <path class="st0" d="M29.4,85.9c1.1,0,2,0,2.9-1.4.3,1.8.5,3.3,1.4,4.6-1.6,0-.9,1.3-1.1,2.1-.7.1-1-.3-1.1-.8,0-1,0-2,0-2.9-.7-.9-1.5-.4-2.2-.6-.3-.2-.4-.5-.3-.7s.2-.4.3-.4h0Z"/>
            <path class="st0" d="M54.4,94.3h1.7c.6,1.1,1.2,2.3,1.7,3.3-.5,1-1.6,1.2-1.7.8-.5-1.4-2-2.4-1.6-4.1Z"/>
            <path class="st0" d="M16.3,53.1h-1.1c0-1,.9-1.4,1.5-1.9.8-.7.7-1.5.7-2.3.8.2,2.1-.5,2.2,1.1-.6,1.5-1.7,2.6-3.3,3.2h0Z"/>
            <path class="st0" d="M89.2,93.3v2.1c-1.4-.5-2.5-1.8-4.3-.9v-2.9c.3-.5.5-.5.8-.2,1,.9,1.7,2.2,3.4,1.8Z"/>
            <path class="st0" d="M25,63.7c-.2.8.5,2-1.1,2.1-1-.1-2.1.3-3.2-.4v-1.3c1.1-.7,2.2-.3,3.2-.4.4-.4.7-.4,1.1,0h0Z"/>
            <path class="st0" d="M25,63.7h-1.1c1-1.2,1.1-2.6,1.5-5,.7,1.3,1,2,1.4,2.7,1.1.9-.9,1.2-.7,2.2h-1.1Z"/>
            <path class="st0" d="M31.5,80.6h-1.1c-.4.4-.8.3-1.3,0-.1-2.4,1.7-3.2,3.4-4.2h1.1c-.4,1,1,2.7-1.1,3.2-.3.4-.7.7-1.1,1.1h0Z"/>
            <path class="st0" d="M29.4,45.7h-1.1c.1-.7-.3-1-.8-1-1.8,0-1.3-1.2-1.3-2.1h3.3v3.2h0Z"/>
            <path class="st0" d="M53.3,86.9c.3-1.8,2.4-1,3.3-2.1.3.2.4.5.3.7,0,.2-.2.4-.3.4,0,1-.9,1.5-1.5,1.9-.7.5-1.7.4-1.7-.9h0Z"/>
            <path class="st0" d="M15.1,67.2v1.4c-1,.9-2,0-3.1.6.3-1.5,1.3-2.1,3.1-2h0Z"/>
            <path class="st0" d="M67.4,85.9h2.7c.5.5,1,1,1.5,1.5-.2.2-.4.6-.6.6-1.7.2-3.1-.3-3.7-2.1Z"/>
            <path class="st0" d="M72.9,96.4h1.8c.5.9.6,1.5,0,2.1-1.6.2-2.3-.7-2.8-2.1.4-.4.7-.4,1.1,0Z"/>
            <path class="st0" d="M40.6,63.1c-1.6.7-2.5.8-3.5.1v-1.3c1.7-1.2,2.1.5,3.5,1.1h0Z"/>
            <path class="st0" d="M36.4,58.1c.4.7.9,1.4,1.4,2.2-.6.7-1.7-.2-2.5.3-.7-1.1-1-1.8,1.1-2.4h0Z"/>
            <path class="st0" d="M16.4,66.5v-3.4c.9-.8,1.5-.4,2,0,.2,1.6-1,1.9-2,3.4Z"/>
            <path class="st0" d="M25,43.6c-1.6.4-2.4-.7-3.4-1.8,1.4-.1,2.8-1.2,3.4.7v1.1Z"/>
            <path class="st0" d="M72.9,96.4h-2.2v-2.1h1.1c.8,0,1.1.3,1.1,1.1v1.1Z"/>
            <path class="st0" d="M75,80.6v1.1c-1.1-.1-1.6,1.9-3.1.7.3-.6.6-1.2.9-1.8.4-.5.7-.5,1.1,0h1.1Z"/>
            <path class="st0" d="M82.1,73.2c-.9-1.1-.9-2.2,0-3.3.9,1.1.9,2.2,0,3.3Z"/>
            <path class="st0" d="M72.9,79.5c-1.6,0-.9-1.3-1.1-2.1.4-.4.7-.4,1.1,0,.4.4.7.8,1.1,1.1v1.1c-.4.4-.7.4-1.1,0Z"/>
            <path class="st0" d="M72.9,77.4h-2.2c0-.4-.4-2.6-.4-3,.7-.4,1.8,1.2,2.6.9v2.1h0Z"/>
            <path class="st0" d="M47.8,94.3c1,0,1.1.6,1.1,1.3,0,.5-.4.9-1.1.8-.5,0-.8-.1-1-.6.3-.5,1.1-.7,1-1.5Z"/>
            <path class="st0" d="M87,75.3c1,0,1.1.6,1.1,1.3,0,.5-.4.9-1.1.8,0,0,0-2.1,0-2.1Z"/>
            <path class="st0" d="M24.5,52c-.8-.7-.8-1.4,0-2.1.8.7.8,1.4,0,2.1Z"/>
            <path class="st0" d="M22.8,71.1h1.1v1.1h-2.2c0-.7.3-1.1,1.1-1.1Z"/>
            <path class="st0" d="M92.4,84.8c0-.5.1-.9.7-.9.6.9.8,1.7-.7,2v-1.1Z"/>
            <path class="st0" d="M56.5,85.9v-1.1c.8,0,1.1.3,1.1,1.1h-1.1Z"/>
            <path class="st0" d="M74,78.5c-.8,0-1.1-.3-1.1-1.1.8,0,1.1.3,1.1,1.1Z"/>
            <path class="st0" d="M31.5,80.6c0-.7.3-1.1,1.1-1.1v1.1h-1.1Z"/>
            <path class="st0" d="M83.2,88c.5.3.5.7,0,1-.5-.3-.5-.7,0-1Z"/>
            <path class="st0" d="M65.3,80.6h1.1c0,.7-.3,1.1-1.1,1.1-.4-.2-.5-.5-.4-.7.1-.2.2-.4.4-.4Z"/>
            <path class="st0" d="M72.9,79.5h1.1v1.1h-1.1v-1.1Z"/>
            <path class="st0" d="M72.9,75.3c0-.7.3-1.1,1.1-1.1,0,.7-.3,1.1-1.1,1.1Z"/>
            <path class="st0" d="M9.8,85.9c-.4,1.4-1.3,2.4-3.3,2v4.3c-1.8.3-3.6.2-5.4,0-.3-.1-.8-.2-.9-.4-.4-1.8.2-3.4,2-6,2.3.8,4-1.1,6-1.4.8.1,1.1.9,1.6,1.4h0Z"/>
            <path class="st0" d="M8.7,84.8c-1.8.5-2.5,2.4-3.8,3.1h-2.2c-.8-.6-.3-1.4-.5-2v-2.1c.7-.5.3-1.6,1.1-2.1v-1.1c1.6-.1.6,1.6,1.7,2.1.7,0,1.5.3,1.6-1h1.1c.2.8-.5,2,1.1,2.1.3.2.4.5.3.7s-.2.4-.3.4h0Z"/>
            <path class="st0" d="M1.1,92.2c1.7.2.5-1.8,1.7-2.1,1.9-.4,2.2,2,3.8,2.1,1.3,2.4-.5,3.3-2.2,4.2-1.7-.9-3.4-1.9-3.3-4.2Z"/>
            <path class="st0" d="M4.3,96.4c0-1,.9-1.4,1.5-1.9.8-.7.7-1.5.7-2.3,1.9,1.6,4.3.9,6.9,1.2-.8.9-1.3,1.3-1.9,2h-4.5c-.8,1.1-.4,2.2-.5,3.2-1.2-.3-1.9-1-2.2-2.1h0Z"/>
            <path class="st0" d="M99,94.3c-1.1-.6-2.3-1.1-3.2-1.6-.2-1,.1-1.4.6-1.6,1-.4,1.4.8,2.2.9.7-.9.2-2,.4-3,.4-.4.7-.4,1.1,0,0,.7.3,1.1,1.1,1.1,0,1.8-.8,3.2-2.2,4.2h0Z"/>
            <path class="st0" d="M91.3,99.6c-.3-.1-.6-.2-.9-.4.6-1.2,1.5-2.1,3.6-1.6-.8-.9-1.1-1.3-1.5-1.7.4-.4.9-.9,1.4-1.4,1.4.6,2,1.5,1.8,3-1.1,1.4-2.5,2.2-4.4,2.1h0Z"/>
            <path class="st0" d="M3.3,81.6c-.2.8.5,2-1.1,2.1v-2.1h1.1Z"/>
            <path class="st0" d="M13,34.1c.4.7.7,1.3,1.1,2-.2,1.3-1,2-2.2,2.3v-3c0-.7.2-1.3,1.1-1.2Z"/>
            <path class="st0" d="M6.7,82.1c-1.6-1-1.2-1.7-1-2.6,1.4.5.7,1.4,1,2.6Z"/>
            <path class="st0" d="M22.8,20.3c1.7,1.4,3.3,3,5.4,3.5,0,.9,0,1.4-.8,1.9-2.2-1.8-5.4-2.5-6.8-5.5.7-.6,1.4-.7,2.2,0Z"/>
            <path class="st0" d="M16.1,33.3c.8-3.7,3.8-4.8,5.1-6.6,1.6,0,1.6.7,1.7,1.5-2.7.7-4,3.2-6.8,5.1h0Z"/>
            <path class="st0" d="M29.4,31.9c.6,2.3.8,2.4,3.3,3.7,0,.7.2,1.4-1.2,1.7-1.3-1.1-3.3-1.8-3.1-4.3-.4-1.1,0-1.3,1.1-1.1Z"/>
            <path class="st0" d="M22.8,20.3h-2.2v-1.5c.6-1.2,2.5,0,2.6-1.7,1.9,1.7-.7,2.1-.4,3.3h0Z"/>
            <path class="st0" d="M29.4,31.9c-.8,0-1.1.3-1.1,1.1-.2,0-.5,0-.5,0-.6-1.8.3-3.3,2.4-4.2,0,1.2-1.3,2-.8,3.1Z"/>
            <path class="st0" d="M24.8,32.1c.3,3.2-.9,3.8-2.6,4.2-.2-.5-.4-1-.5-1.3.1-.3.1-.5.2-.6.9-.6,2.1-.3,2.9-2.3Z"/>
            <path class="st0" d="M31.5,45.2c.4-.5.7-.5,1.1,0-.4.5-.7.5-1.1,0Z"/>
            <path class="st0" d="M32.6,76.4v1.6c-1.2.8-2.9.9-3.3,2.7-.7.6-1.4.6-2.2,0-.7-.6-1.4-1-2.2-1.3-2.5,0-5,.2-7.6.3-.1.3-.2.6-.4,1.1-1-.7-.8-3.1-2.9-2.1v-1.1c0-.7-.7-.7-1.1-1.1v-2.1h1.1c.4.4.7.4,1.1,0,1.3.1,1.6,1.5,2.8,2,.8-.4.3-1.3.4-2,2.4.2,5-.6,7.6,1,2.2-1.8,4.6-1.4,6.6,1.1h0Z"/>
            <path class="st0" d="M17.4,79.5c.1-.3.3-.9.4-.9,2.4,0,4.7-.6,7-1.2.7-.2,1.4,0,1.4,1-.4.9-1.3,1.3-2,1.8-1.3.9-1.3,2.1-1.2,3.4-.2.9.8,1,1,1.7-.4.4-.8.7-1.1,1.1-.3.5-.4.3-.8.1-1.7-.9-3.2-2.6-5.5-1.5-.7,1.8,2.4,2.9.5,4.9-.4,0-.9,0-1.3,0-.4-2.4-2.2-4.3-1.3-7,1.6-1.4,3,.4,4.7.9,1-2.2.6-3.6-1.6-4.5h0Z"/>
            <path class="st0" d="M25,93.3c-2.5.6,0,3.2-1.7,4.2-.1-.1-.4-.2-.4-.4,0-1,0-2.1,0-3.1-2-1.1-4.4-1.9-2.9-5.1,1.4,1.6,2.8,2.9,5,2.3.6.7.6,1.4,0,2.1h0Z"/>
            <path class="st0" d="M22.8,83.8c-1.1-.2-1.6-1-2.2-1.9.5-1.6,1.4-2.5,3.3-2.3,2.8.3,1.5,1.9,1.1,3.2,0,1.6-1.3.9-2.2,1.1h0Z"/>
            <path class="st0" d="M32.6,93.3c-.2,1.1.1,2,1.1,2.6-1.4.3-.4,2.9-2.5,2.6-1.2-.5-1.1-2.4.3-5.3.4-.3.7-.3,1.1,0Z"/>
            <path class="st0" d="M27.2,80.6h3.3c0,.8.2,1.6-.6,2.2-.9.8.4.9.5,1.4-.4,1-1.3.4-2.1.5-.4.3-.7.3-1.1,0-.2-.9.8-1,1-1.7-.9-.6-1.1-1.5-1-2.6h0Z"/>
            <path class="st0" d="M25,82.7c-.4-1,1-2.7-1.1-3.2,0-1.6,1.3-.9,2.2-1.1,1.6,0,.9,1.3,1.1,2.1-1,0-1,.6-1.1,1.3,0,.5-.4.9-1.1.8h0Z"/>
            <path class="st0" d="M27.2,84.8h1.1c0,.7.3,1.1,1.1,1.1v1.1c-.9-.2-1,.8-1.7,1-1.1-1.2-1.3-2.2-.5-3.1Z"/>
            <path class="st0" d="M25,93.3v-2.1c1.2,0,2.6-.1,2.1,1.6-.7.8-1.4.3-2.1.5h0Z"/>
            <path class="st0" d="M8.7,84.8v-1.1c.1-.3.2-.6.4-.9,1.3.3.5,1.3.7,2v1.1c-.8,0-1.1-.3-1.1-1.1h0Z"/>
            <path class="st0" d="M32.6,93.3h-1.1c0-.7.3-1.1,1.1-1.1v1.1Z"/>
            <path class="st0" d="M100.1,89h-1.1c.3-1.1-1.9-1.3-.5-3.2,1.1-1,1.7.9,2.7,1.6-.3.6-1.2.8-1.1,1.6Z"/>
            <path class="st0" d="M91.3,93.8c-.4.5-.7.5-1.1,0,.4-.5.7-.5,1.1,0Z"/>
            <path class="st0" d="M62.7,79.1c.4,0,1.1,2.5,1.4,2.5,0,1.6-1.3.9-2.2,1.1v-1.1c.4,0-.2-2.7.7-2.5Z"/>
            <path class="st0" d="M62.8,82.5c-1.8,1.6-2.9,1.5-4,.8.9-1.2,2.2-.4,4-.8Z"/>
            <path class="st0" d="M15.2,74.2c0,.5,0,1-.7.8-.2,0-.3-.5-.4-.8h1.1Z"/>
            <path class="st0" d="M13,76.4h1.9c.1,1-.3,1.1-.9,1.1-.8,0-1.1-.3-1.1-1.1Z"/>
            <path class="st0" d="M26.2,69.4c-1.6-1-1.2-1.7-1-2.6,1.4.5.7,1.4,1,2.6Z"/>
          </g>
        </g>
      </g>
    </g>
  </g>
</svg>