<?xml version="1.0" encoding="UTF-8"?>
<svg id="Camada_2" data-name="Camada 2" xmlns="http://www.w3.org/2000/svg" viewBox="0 0 434.13 239.79">
  <defs>
    <style>
      .cls-1 {
        fill: #70c8e3;
      }

      .cls-2, .cls-3 {
        fill: none;
        stroke: #73c9e3;
        stroke-linecap: round;
        stroke-linejoin: round;
        stroke-width: 2px;
      }

      .cls-3 {
        stroke-dasharray: 7.02 7.02;
      }
    </style>
  </defs>
  <g id="Camada_1-2" data-name="Camada 1">
    <g>
      <path class="cls-1" d="M399.6,39.45c-.81-.09-1.63-.19-2.45-.26-1.74-.15-3.47-.34-5.21-.52-1.76-.18-3.52-.37-5.28-.55-1.97-.2-3.94-.4-5.92-.58-1.35-.12-2.69-.27-4.04-.42-.44-.05-.62-.22-.63-.68,0-.13,0-.26.02-.39.1-.67.35-1.29.58-1.91.33-.9.94-1.52,1.87-1.81,1.16-.37,2.3-.83,3.48-1.16.29-.08.43-.24.5-.53.15-.68.33-1.35.52-2.02.22-.75.73-1.09,1.49-.99.6.07,1.17.25,1.74.42.69.21,1.12.58,1.2,1.31.11.02.23,0,.32-.04,1.26-.49,2.56-.88,3.84-1.33.24-.08.3-.2.35-.4.21-.74.39-1.49.6-2.23.17-.63.77-1.11,1.49-.98.73.13,1.45.3,2.13.62.54.26,1.19.53,1.2,1.1,1.58-.55,3.16-1.11,4.75-1.61.49-.16.66-.43.75-.9.28-1.47.61-2.93.92-4.39.3-1.4.59-2.79.91-4.18.25-1.12.51-2.23.84-3.33.55-1.83,1.36-3.53,2.38-5.14,1.2-1.88,2.64-3.57,4.33-5.03.55-.48,1.14-.93,1.81-1.23,1-.45,1.92-.39,2.73.45.49.51.82,1.11,1.08,1.74.66,1.59.99,3.26,1.21,4.96.21,1.61.25,3.23.11,4.86-.13,1.54-.4,3.06-.86,4.53-.52,1.64-1.07,3.26-1.63,4.89-.59,1.73-1.13,3.48-1.73,5.21-.04.13-.08.3.06.42.21.17.35.41.53.61.65.73,1.27,1.47,1.91,2.2.63.73,1.29,1.5,1.95,2.2.11.03.24-.04.25-.12.13-.67.91-.78,1.56-.63.62.14,1.24.29,1.84.49.56.19.91.82.81,1.41-.16.96-.51,1.86-.75,2.8-.04.16-.07.28.07.43.53.61,1.04,1.23,1.58,1.83.46.52.85,1.11,1.41,1.53-.03-.45.8-.74,1.38-.63.58.11,1.16.27,1.74.42,1.02.27,1.35,1.17,1.05,1.99-.25.66-.38,1.37-.58,2.05-.05.17-.04.31.1.47.4.45.79.92,1.18,1.37.83.95,1.65,1.9,2.47,2.84.29.34.5.75.53,1.2.07.95-.2,1.84-.49,2.73-.11.33-.39.37-.67.35-.18-.02-.36-.05-.53-.13-1.68-.8-3.35-1.61-5.03-2.42-1.84-.88-3.66-1.78-5.5-2.65-3.35-1.59-6.68-3.23-10.03-4.83-.6-.29-1.19-.6-1.83-.81-.83,2.11-1.52,4.31-2.24,6.45-.82,2.43-1.66,4.86-2.45,7.3-.06.18-.08.31.06.5,1.32,1.78,2.66,3.53,3.98,5.31.59.8,1.19,1.6,1.78,2.41.27.38.31.79.2,1.21-.25.94-.55,1.86-.82,2.8-.08.27-.2.55-.26.82-.19.88-1.19,1.41-2.17.71-2.05-1.46-4.14-2.85-6.2-4.29-.45-.31-.89-.63-1.34-.93-.22-.15-.3-.13-.44.14-.62,1.23-1.16,2.49-1.76,3.73-.39.79-1.14.97-1.7.53-.46-.36-.47-.85-.39-1.38.17-1.19.28-2.39.47-3.58.02-.13.06-.31-.04-.36-.2-.08-.43-.05-.64-.03-.94.08-1.89.14-2.84.21-.89.07-1.77.14-2.66.2-.92.07-1.84.14-2.76.19-.81.05-1.46-.77-1.24-1.6.32-1.19.64-2.39.95-3.58.13-.5.44-.87.89-1.05,1.44-.6,2.85-1.25,4.28-1.86,1.07-.46,2.12-.95,3.2-1.4.39-.16.57-.4.64-.79.23-1.33.54-2.65.82-3.97.36-1.71.72-3.43,1.09-5.14.24-1.09.47-2.18.7-3.26.13-.61.33-1.21.33-1.84"/>
      <g>
        <path class="cls-2" d="M395.8,72.25c-.62,1-1.25,1.99-1.87,2.96"/>
        <path class="cls-3" d="M390.05,81.06c-52.73,76.82-108.94,52.83-163.77,78.51-58.87,27.57-48.9,73.21-23.61,65.42,33.8-10.41-8.75-58.36-61.44-59.73-76.23-1.99-89.18,80.12-37.55,73.1,35.55-4.84,34.13-54.33-15.11-65.94-21.6-5.09-51.03,2.07-81.89,23.45"/>
        <path class="cls-2" d="M3.82,197.89c-.94.68-1.88,1.37-2.82,2.07"/>
      </g>
    </g>
  </g>
</svg>