<?xml version="1.0" encoding="UTF-8"?>
<svg id="Camada_2" data-name="Camada 2" xmlns="http://www.w3.org/2000/svg" xmlns:xlink="http://www.w3.org/1999/xlink" viewBox="0 0 56.08 32.37">
  <defs>
    <style>
      .cls-1 {
        fill: #1d1d1b;
      }

      .cls-2 {
        fill: #020202;
      }
    </style>
  </defs>
  <g id="Camada_1-2" data-name="Camada 1">
    <g>
      <image width="991" height="572" transform="scale(.06)" xlink:href="../../../Carioca backup/references/Gesel-logo.png"/>
      <g>
        <path class="cls-2" d="M16.37,20.01c-.09-.06-.16-.13-.22-.24-.05-.1-.08-.22-.08-.35v-.74c0-.13.03-.25.08-.35.05-.1.12-.18.22-.23s.2-.08.32-.08.23.03.32.08c.09.05.16.13.21.23.05.1.08.2.08.32v.03s0,.03-.03.03h-.19s-.02,0-.02-.03v-.03c0-.12-.03-.21-.1-.28-.07-.07-.16-.11-.27-.11s-.2.04-.27.11c-.07.08-.1.18-.1.3v.76c0,.13.04.23.11.3.07.08.16.11.28.11s.2-.03.26-.1c.06-.07.1-.16.1-.27v-.22s0-.01-.01-.01h-.34s-.03,0-.03-.03v-.18s0-.03.03-.03h.56s.03,0,.03.03v.37c0,.22-.05.39-.16.51-.11.12-.26.18-.44.18-.12,0-.23-.03-.32-.08Z"/>
        <path class="cls-2" d="M18.39,18.61s.02.02.01.03l-.04.22s-.01.02-.03.02c-.03-.01-.06-.02-.1-.02h-.04c-.08,0-.14.04-.19.1-.05.06-.08.14-.08.23v.85s0,.03-.02.03h-.19s-.03,0-.03-.03v-1.42s0-.03.03-.03h.19s.02,0,.02.03v.15s0,0,0,.01c0,0,0,0,0,0,.08-.14.18-.2.31-.2.05,0,.1.01.14.04Z"/>
        <path class="cls-2" d="M19.49,18.59h.19s.03,0,.03.03v1.42s0,.03-.03.03h-.19s-.03,0-.03-.03v-.11s0,0,0,0c0,0,0,0,0,0-.07.11-.17.16-.31.16-.08,0-.16-.02-.23-.06-.07-.04-.12-.09-.17-.16-.04-.07-.06-.16-.06-.26v-.99s0-.03.03-.03h.19s.02,0,.02.03v.9c0,.1.02.18.07.24.05.06.11.09.19.09s.15-.03.2-.09c.05-.06.08-.14.08-.24v-.9s0-.03.03-.03Z"/>
        <path class="cls-2" d="M21.19,19.33c0,.14-.01.25-.04.35-.04.13-.09.23-.17.3s-.18.11-.31.11c-.06,0-.11-.01-.16-.04-.05-.03-.09-.06-.13-.11,0,0,0,0,0,0,0,0,0,0,0,0v.65s0,.03-.03.03h-.19s-.02,0-.02-.03v-1.98s0-.03.02-.03h.19s.03,0,.03.03v.1s0,0,0,0c0,0,0,0,0,0,.04-.05.08-.09.13-.11.05-.03.1-.04.16-.04.12,0,.22.03.3.1.08.07.14.17.17.29.03.1.05.23.05.37ZM20.94,19.32c0-.15-.02-.27-.06-.36-.05-.11-.13-.16-.24-.16-.1,0-.17.05-.22.16-.04.08-.06.21-.06.37s.02.29.06.37c.05.1.12.15.21.15.1,0,.17-.05.22-.14.05-.09.08-.22.08-.38Z"/>
        <path class="cls-2" d="M21.75,19.98c-.09-.07-.16-.17-.19-.3-.03-.1-.05-.22-.05-.35s.01-.25.04-.35c.04-.13.1-.23.19-.3.09-.07.2-.11.33-.11.12,0,.22.04.31.11s.15.17.19.3c.03.1.04.22.04.35s-.02.25-.04.36c-.04.13-.1.23-.19.3-.09.07-.2.11-.32.11s-.23-.04-.32-.11ZM22.25,19.78c.05-.04.09-.1.11-.18.02-.07.03-.16.03-.27s0-.2-.02-.27c-.02-.08-.06-.14-.11-.18s-.11-.07-.18-.07-.13.02-.18.07-.09.11-.11.18c-.02.07-.03.16-.03.27s0,.2.03.27c.02.08.06.14.11.18.05.04.11.07.18.07.07,0,.12-.02.18-.07Z"/>
        <path class="cls-2" d="M24.28,18.03h.19s.03,0,.03.03v1.98s0,.03-.03.03h-.19s-.02,0-.02-.03v-.1s0,0,0,0,0,0,0,0c-.04.05-.08.09-.13.11-.05.03-.1.04-.16.04-.12,0-.22-.03-.3-.1-.08-.07-.14-.17-.17-.29-.03-.1-.05-.23-.05-.37,0-.14.01-.25.04-.35.03-.13.09-.23.17-.3.08-.07.18-.11.31-.11.06,0,.11.01.16.04s.09.06.13.11c0,0,0,0,0,0,0,0,0,0,0,0v-.65s0-.03.02-.03ZM24.25,19.32c0-.16-.02-.29-.06-.37-.05-.1-.12-.15-.21-.15-.1,0-.17.05-.22.14-.05.1-.08.22-.08.38,0,.15.02.27.06.36.05.11.13.16.24.16.1,0,.17-.05.22-.16.04-.08.06-.2.06-.37Z"/>
        <path class="cls-2" d="M25.95,19.41s0,.03-.02.03h-.8s-.01,0-.01.01c0,.07,0,.12.02.15.02.08.06.14.11.18s.13.07.21.07c.12,0,.22-.06.29-.18,0-.02.02-.02.03,0l.14.11s.01.02,0,.04c-.05.09-.11.16-.2.21-.09.05-.18.08-.29.08-.12,0-.22-.03-.31-.09-.08-.06-.15-.15-.19-.26-.04-.11-.06-.25-.06-.42,0-.14,0-.25.03-.32.03-.13.09-.24.18-.32.09-.08.2-.12.33-.12.17,0,.29.05.38.15.08.1.13.24.15.43,0,.08,0,.17,0,.27ZM25.23,18.87s-.08.1-.1.17c-.01.04-.02.1-.02.16,0,0,0,.01.01.01h.57s0,0,0-.01c0-.06,0-.11-.01-.14-.02-.08-.05-.14-.1-.18-.05-.05-.11-.07-.18-.07s-.13.02-.18.06Z"/>
        <path class="cls-2" d="M27.94,18.27h-.89s0,0,0,.01v.62s0,.01,0,.01h.61s.03,0,.03.03v.18s0,.03-.03.03h-.61s0,0,0,.01v.64s0,.01,0,.01h.89s.02,0,.02.03v.18s0,.03-.02.03h-1.11s-.02,0-.02-.03v-1.98s0-.03.02-.03h1.11s.02,0,.02.03v.18s0,.03-.02.03Z"/>
        <path class="cls-2" d="M28.52,20.03c-.08-.03-.13-.08-.18-.14-.04-.06-.06-.13-.06-.2v-.03s0-.03.03-.03h.18s.02,0,.02.03h0c0,.07.03.12.08.16.05.04.12.06.19.06s.14-.02.18-.06c.05-.04.07-.09.07-.14s-.02-.1-.06-.13c-.04-.03-.11-.06-.21-.09-.1-.03-.17-.06-.24-.09-.06-.03-.12-.08-.16-.14-.04-.06-.07-.14-.07-.23,0-.13.04-.23.13-.31.09-.08.2-.11.35-.11.1,0,.18.02.26.05.07.04.13.09.17.15.04.06.06.14.06.22h0s0,.04-.02.04h-.18s-.02,0-.02-.03h0c0-.06-.02-.11-.07-.15-.05-.04-.11-.06-.19-.06-.07,0-.13.02-.18.05-.05.03-.07.08-.07.13s.02.1.07.13.12.06.21.09c.1.03.18.06.24.09s.12.07.16.13c.05.06.07.14.07.23,0,.13-.04.24-.13.31-.09.08-.21.12-.36.12-.1,0-.19-.02-.26-.05Z"/>
        <path class="cls-2" d="M30.23,18.82h-.27s-.01,0-.01.01v.77c0,.08.02.14.05.18.03.04.08.05.15.05h.07s.03,0,.03.03v.18s0,.03-.03.03c-.05,0-.09,0-.12,0-.13,0-.22-.03-.29-.08-.06-.05-.1-.15-.1-.29v-.87s0-.01,0-.01h-.15s-.03,0-.03-.03v-.17s0-.03.03-.03h.15s0,0,0-.01v-.34s0-.03.02-.03h.18s.02,0,.02.03v.34s0,.01.01.01h.27s.02,0,.02.03v.17s0,.03-.02.03Z"/>
        <path class="cls-2" d="M31.38,18.59h.19s.03,0,.03.03v1.42s0,.03-.03.03h-.19s-.03,0-.03-.03v-.11s0,0,0,0c0,0,0,0,0,0-.07.11-.17.16-.31.16-.08,0-.16-.02-.23-.06-.07-.04-.12-.09-.17-.16-.04-.07-.06-.16-.06-.26v-.99s0-.03.03-.03h.19s.02,0,.02.03v.9c0,.1.02.18.07.24.05.06.11.09.19.09s.15-.03.2-.09c.05-.06.08-.14.08-.24v-.9s0-.03.03-.03Z"/>
        <path class="cls-2" d="M32.82,18.03h.19s.03,0,.03.03v1.98s0,.03-.03.03h-.19s-.02,0-.02-.03v-.1s0,0,0,0,0,0,0,0c-.04.05-.08.09-.13.11-.05.03-.1.04-.16.04-.12,0-.22-.03-.3-.1-.08-.07-.14-.17-.17-.29-.03-.1-.05-.23-.05-.37,0-.14.01-.25.04-.35.03-.13.09-.23.17-.3.08-.07.18-.11.31-.11.06,0,.11.01.16.04s.09.06.13.11c0,0,0,0,0,0,0,0,0,0,0,0v-.65s0-.03.02-.03ZM32.79,19.32c0-.16-.02-.29-.06-.37-.05-.1-.12-.15-.21-.15-.1,0-.17.05-.22.14-.05.1-.08.22-.08.38,0,.15.02.27.06.36.05.11.13.16.24.16.1,0,.17-.05.22-.16.04-.08.06-.2.06-.37Z"/>
        <path class="cls-2" d="M33.64,19.98c-.09-.07-.16-.17-.19-.3-.03-.1-.05-.22-.05-.35s.01-.25.04-.35c.04-.13.1-.23.19-.3.09-.07.2-.11.33-.11.12,0,.22.04.31.11s.15.17.19.3c.03.1.04.22.04.35s-.02.25-.04.36c-.04.13-.1.23-.19.3-.09.07-.2.11-.32.11s-.23-.04-.32-.11ZM34.14,19.78c.05-.04.09-.1.11-.18.02-.07.03-.16.03-.27s0-.2-.02-.27c-.02-.08-.06-.14-.11-.18s-.11-.07-.18-.07-.13.02-.18.07-.09.11-.11.18c-.02.07-.03.16-.03.27s0,.2.03.27c.02.08.06.14.11.18.05.04.11.07.18.07.07,0,.12-.02.18-.07Z"/>
        <path class="cls-2" d="M35.06,20.03c-.08-.03-.13-.08-.18-.14-.04-.06-.06-.13-.06-.2v-.03s0-.03.03-.03h.18s.02,0,.02.03h0c0,.07.03.12.08.16.05.04.12.06.19.06s.14-.02.18-.06c.05-.04.07-.09.07-.14s-.02-.1-.06-.13c-.04-.03-.11-.06-.21-.09-.1-.03-.17-.06-.24-.09-.06-.03-.12-.08-.16-.14-.04-.06-.07-.14-.07-.23,0-.13.04-.23.13-.31.09-.08.2-.11.35-.11.1,0,.18.02.26.05.07.04.13.09.17.15.04.06.06.14.06.22h0s0,.04-.02.04h-.18s-.02,0-.02-.03h0c0-.06-.02-.11-.07-.15-.05-.04-.11-.06-.19-.06-.07,0-.13.02-.18.05-.05.03-.07.08-.07.13s.02.1.07.13.12.06.21.09c.1.03.18.06.24.09s.12.07.16.13c.05.06.07.14.07.23,0,.13-.04.24-.13.31-.09.08-.21.12-.36.12-.1,0-.19-.02-.26-.05Z"/>
        <path class="cls-2" d="M37.44,18.03h.19s.03,0,.03.03v1.98s0,.03-.03.03h-.19s-.02,0-.02-.03v-.1s0,0,0,0,0,0,0,0c-.04.05-.08.09-.13.11-.05.03-.1.04-.16.04-.12,0-.22-.03-.3-.1-.08-.07-.14-.17-.17-.29-.03-.1-.05-.23-.05-.37,0-.14.01-.25.04-.35.03-.13.09-.23.17-.3.08-.07.18-.11.31-.11.06,0,.11.01.16.04s.09.06.13.11c0,0,0,0,0,0,0,0,0,0,0,0v-.65s0-.03.02-.03ZM37.41,19.32c0-.16-.02-.29-.06-.37-.05-.1-.12-.15-.21-.15-.1,0-.17.05-.22.14-.05.1-.08.22-.08.38,0,.15.02.27.06.36.05.11.13.16.24.16.1,0,.17-.05.22-.16.04-.08.06-.2.06-.37Z"/>
        <path class="cls-2" d="M38.26,19.98c-.09-.07-.16-.17-.19-.3-.03-.1-.05-.22-.05-.35s.01-.25.04-.35c.04-.13.1-.23.19-.3.09-.07.2-.11.33-.11.12,0,.22.04.31.11s.15.17.19.3c.03.1.04.22.04.35s-.02.25-.04.36c-.04.13-.1.23-.19.3-.09.07-.2.11-.32.11s-.23-.04-.32-.11ZM38.76,19.78c.05-.04.09-.1.11-.18.02-.07.03-.16.03-.27s0-.2-.02-.27c-.02-.08-.06-.14-.11-.18s-.11-.07-.18-.07-.13.02-.18.07-.09.11-.11.18c-.02.07-.03.16-.03.27s0,.2.03.27c.02.08.06.14.11.18.05.04.11.07.18.07.07,0,.12-.02.18-.07Z"/>
        <path class="cls-2" d="M40.21,20.02c-.09-.05-.17-.11-.22-.2-.05-.09-.08-.18-.08-.3v-.08s0-.03.03-.03h.18s.02,0,.02.03v.07c0,.1.04.18.11.24.07.06.17.1.3.1.12,0,.2-.03.26-.08.06-.06.09-.13.09-.22,0-.06-.02-.11-.05-.15-.03-.04-.07-.08-.13-.12-.06-.04-.14-.08-.25-.13-.12-.05-.22-.1-.29-.15-.07-.04-.13-.1-.18-.18-.05-.07-.07-.16-.07-.27,0-.17.05-.3.15-.39.1-.09.24-.14.42-.14.12,0,.23.02.33.07s.17.12.22.2.08.19.08.3v.06s0,.03-.03.03h-.19s-.02,0-.02-.03v-.04c0-.1-.03-.18-.1-.25-.07-.07-.16-.1-.29-.1-.1,0-.18.02-.24.07s-.09.12-.09.21c0,.06.01.12.04.16.03.04.07.08.13.11s.14.07.26.12c.12.05.21.1.29.15s.13.11.18.18c.05.07.07.17.07.28,0,.17-.05.31-.16.41-.11.1-.26.15-.44.15-.13,0-.24-.02-.33-.07Z"/>
        <path class="cls-2" d="M42.55,19.41s0,.03-.02.03h-.8s-.01,0-.01.01c0,.07,0,.12.02.15.02.08.06.14.11.18s.13.07.21.07c.12,0,.22-.06.29-.18,0-.02.02-.02.03,0l.14.11s.01.02,0,.04c-.05.09-.11.16-.2.21-.09.05-.18.08-.29.08-.12,0-.22-.03-.31-.09-.08-.06-.15-.15-.19-.26-.04-.11-.06-.25-.06-.42,0-.14,0-.25.03-.32.03-.13.09-.24.18-.32.09-.08.2-.12.33-.12.17,0,.29.05.38.15.08.1.13.24.15.43,0,.08,0,.17,0,.27ZM41.84,18.87s-.08.1-.1.17c-.01.04-.02.1-.02.16,0,0,0,.01.01.01h.57s0,0,0-.01c0-.06,0-.11-.01-.14-.02-.08-.05-.14-.1-.18-.05-.05-.11-.07-.18-.07s-.13.02-.18.06Z"/>
        <path class="cls-2" d="M43.5,18.82h-.27s-.01,0-.01.01v.77c0,.08.02.14.05.18.03.04.08.05.15.05h.07s.03,0,.03.03v.18s0,.03-.03.03c-.05,0-.09,0-.12,0-.13,0-.22-.03-.29-.08-.06-.05-.1-.15-.1-.29v-.87s0-.01,0-.01h-.15s-.03,0-.03-.03v-.17s0-.03.03-.03h.15s0,0,0-.01v-.34s0-.03.02-.03h.18s.02,0,.02.03v.34s0,.01.01.01h.27s.02,0,.02.03v.17s0,.03-.02.03Z"/>
        <path class="cls-2" d="M44.04,19.98c-.09-.07-.16-.17-.19-.3-.03-.1-.05-.22-.05-.35s.01-.25.04-.35c.04-.13.1-.23.19-.3.09-.07.2-.11.33-.11.12,0,.22.04.31.11s.15.17.19.3c.03.1.04.22.04.35s-.02.25-.04.36c-.04.13-.1.23-.19.3-.09.07-.2.11-.32.11s-.23-.04-.32-.11ZM44.53,19.78c.05-.04.09-.1.11-.18.02-.07.03-.16.03-.27s0-.2-.02-.27c-.02-.08-.06-.14-.11-.18s-.11-.07-.18-.07-.13.02-.18.07-.09.11-.11.18c-.02.07-.03.16-.03.27s0,.2.03.27c.02.08.06.14.11.18.05.04.11.07.18.07.07,0,.12-.02.18-.07Z"/>
        <path class="cls-2" d="M45.99,18.61s.02.02.01.03l-.04.22s-.01.02-.03.02c-.03-.01-.06-.02-.1-.02h-.04c-.08,0-.14.04-.19.1-.05.06-.08.14-.08.23v.85s0,.03-.02.03h-.19s-.03,0-.03-.03v-1.42s0-.03.03-.03h.19s.02,0,.02.03v.15s0,0,0,.01c0,0,0,0,0,0,.08-.14.18-.2.31-.2.05,0,.1.01.14.04Z"/>
        <path class="cls-2" d="M47.9,18.27h-.89s0,0,0,.01v.62s0,.01,0,.01h.61s.03,0,.03.03v.18s0,.03-.03.03h-.61s0,0,0,.01v.64s0,.01,0,.01h.89s.02,0,.02.03v.18s0,.03-.02.03h-1.11s-.02,0-.02-.03v-1.98s0-.03.02-.03h1.11s.02,0,.02.03v.18s0,.03-.02.03Z"/>
        <path class="cls-2" d="M48.28,20.04v-1.98s0-.03.03-.03h.19s.02,0,.02.03v1.98s0,.03-.02.03h-.19s-.03,0-.03-.03Z"/>
        <path class="cls-2" d="M49.97,19.41s0,.03-.02.03h-.8s-.01,0-.01.01c0,.07,0,.12.02.15.02.08.06.14.11.18s.13.07.21.07c.12,0,.22-.06.29-.18,0-.02.02-.02.03,0l.14.11s.01.02,0,.04c-.05.09-.11.16-.2.21-.09.05-.18.08-.29.08-.12,0-.22-.03-.31-.09-.08-.06-.15-.15-.19-.26-.04-.11-.06-.25-.06-.42,0-.14,0-.25.03-.32.03-.13.09-.24.18-.32.09-.08.2-.12.33-.12.17,0,.29.05.38.15.08.1.13.24.15.43,0,.08,0,.17,0,.27ZM49.25,18.87s-.08.1-.1.17c-.01.04-.02.1-.02.16,0,0,0,.01.01.01h.57s0,0,0-.01c0-.06,0-.11-.01-.14-.02-.08-.05-.14-.1-.18-.05-.05-.11-.07-.18-.07s-.13.02-.18.06ZM49.3,18.39s0-.02,0-.02l.15-.31s.01-.02.03-.02h.17s.02,0,.02.01c0,0,0,.01,0,.02l-.18.31s-.02.02-.03.02h-.13s-.02,0-.02-.01Z"/>
        <path class="cls-2" d="M50.92,18.82h-.27s-.01,0-.01.01v.77c0,.08.02.14.05.18.03.04.08.05.15.05h.07s.03,0,.03.03v.18s0,.03-.03.03c-.05,0-.09,0-.12,0-.13,0-.22-.03-.29-.08-.06-.05-.1-.15-.1-.29v-.87s0-.01,0-.01h-.15s-.03,0-.03-.03v-.17s0-.03.03-.03h.15s0,0,0-.01v-.34s0-.03.02-.03h.18s.02,0,.02.03v.34s0,.01.01.01h.27s.02,0,.02.03v.17s0,.03-.02.03Z"/>
        <path class="cls-2" d="M51.98,18.61s.02.02.01.03l-.04.22s-.01.02-.03.02c-.03-.01-.06-.02-.1-.02h-.04c-.08,0-.14.04-.19.1-.05.06-.08.14-.08.23v.85s0,.03-.02.03h-.19s-.03,0-.03-.03v-1.42s0-.03.03-.03h.19s.02,0,.02.03v.15s0,0,0,.01c0,0,0,0,0,0,.08-.14.18-.2.31-.2.05,0,.1.01.14.04Z"/>
        <path class="cls-2" d="M52.31,18.3s-.05-.08-.05-.13.02-.1.05-.13c.03-.03.07-.05.12-.05s.08.02.12.05c.03.03.04.08.04.13s-.01.1-.04.13-.07.05-.12.05-.09-.02-.12-.05ZM52.3,20.03v-1.42s0-.03.03-.03h.19s.02,0,.02.03v1.42s0,.03-.02.03h-.19s-.03,0-.03-.03Z"/>
        <path class="cls-2" d="M53.14,19.98c-.09-.07-.15-.18-.19-.3-.02-.09-.04-.21-.04-.35,0-.13.01-.25.04-.35.03-.12.1-.22.19-.3.09-.07.2-.11.32-.11s.23.04.33.11c.09.07.15.17.18.28.01.03.02.06.02.1,0,.02,0,.03-.02.03l-.19.03h0s-.02,0-.02-.03v-.05c-.02-.07-.05-.12-.11-.17s-.11-.07-.19-.07-.13.02-.18.07c-.05.04-.08.1-.1.18-.02.07-.02.16-.02.28s0,.2.02.27c.02.08.05.14.1.18.05.04.11.07.18.07s.14-.02.19-.07c.05-.04.09-.1.1-.17,0,0,0,0,0,0,0,0,0,0,0,0h0s.01-.03.03-.03l.19.03s.02.01.02.02h0s0,.05-.01.08c-.03.12-.09.21-.18.28-.09.07-.2.11-.33.11s-.24-.04-.33-.11Z"/>
        <path class="cls-2" d="M54.53,19.98c-.09-.07-.16-.17-.19-.3-.03-.1-.05-.22-.05-.35s.01-.25.04-.35c.04-.13.1-.23.19-.3.09-.07.2-.11.33-.11.12,0,.22.04.31.11s.15.17.19.3c.03.1.04.22.04.35s-.02.25-.04.36c-.04.13-.1.23-.19.3-.09.07-.2.11-.32.11s-.23-.04-.32-.11ZM55.03,19.78c.05-.04.09-.1.11-.18.02-.07.03-.16.03-.27s0-.2-.02-.27c-.02-.08-.06-.14-.11-.18s-.11-.07-.18-.07-.13.02-.18.07-.09.11-.11.18c-.02.07-.03.16-.03.27s0,.2.03.27c.02.08.06.14.11.18.05.04.11.07.18.07.07,0,.12-.02.18-.07Z"/>
      </g>
      <g>
        <path class="cls-1" d="M15.96,23.98v-1.25c0-.28-.06-.43-.06-.5,0-.08.06-.13.26-.13.23,0,.3.05.3.13,0,.07-.09.23-.09.5v1.25c0,.66.26.96.84.96s.84-.3.84-.96v-1.25c0-.28-.08-.43-.08-.5,0-.08.06-.13.24-.13s.23.05.23.13c0,.07-.06.23-.06.5v1.25c0,.81-.39,1.26-1.19,1.26s-1.23-.45-1.23-1.26Z"/>
        <path class="cls-1" d="M19.12,25.08c0-.07.06-.23.06-.5v-1.84c0-.28-.06-.43-.06-.5,0-.08.04-.13.12-.13.15,0,.29,0,.42,0,1.25,0,1.28-.02,1.43-.02.13,0,.26.22.26.39,0,.08-.05.12-.12.12-.03,0-.06-.01-.1-.03-.14-.08-.33-.19-1.02-.19-.49,0-.53.03-.53.17v.74c0,.16.05.17.21.17h.05c.92,0,.92-.1,1.02-.1s.14.07.14.25-.04.24-.14.24c-.1,0-.09-.1-1.03-.1h-.04c-.17,0-.22.02-.22.15v.65c0,.28.08.43.08.5,0,.08-.06.13-.29.13-.21,0-.26-.05-.26-.13Z"/>
        <path class="cls-1" d="M23.64,24.6c-.19-.66-.35-.76-1.06-.76-.21,0-.25.04-.25.14v.59c0,.28.08.43.08.5,0,.08-.06.13-.29.13-.21,0-.26-.05-.26-.13,0-.07.06-.23.06-.5v-1.84c0-.28-.06-.43-.06-.5,0-.08.04-.13.12-.13.14,0,.29,0,.43,0,.2,0,.39,0,.59,0,.73,0,1.12.26,1.12.84,0,.34-.23.59-.61.71-.03.01-.04.02-.04.03,0,.01,0,.02.04.03.2.06.37.23.49.64.12.44.19.58.37.58.08,0,.11.03.11.1,0,.12-.13.21-.29.21-.23,0-.4-.09-.56-.64ZM22.75,23.55c.58,0,.93-.18.93-.59s-.26-.56-.73-.56c-.61,0-.63.03-.63.21v.81c0,.1.07.13.43.13Z"/>
        <path class="cls-1" d="M24.85,24.5c0-.2.12-.34.31-.34.14,0,.22.09.22.22,0,.16-.11.18-.11.22,0,.21.16.35.4.35.32,0,.48-.21.48-.62v-1.59c0-.28-.09-.43-.09-.5,0-.08.06-.13.29-.13.21,0,.27.05.27.13,0,.07-.06.23-.06.5v1.54c0,.58-.35.96-.88.96-.48,0-.82-.31-.82-.74Z"/>
      </g>
    </g>
  </g>
</svg>