<?xml version="1.0" encoding="UTF-8"?>
<svg id="Camada_2" data-name="Camada 2" xmlns="http://www.w3.org/2000/svg" viewBox="0 0 94.54 16.71">
  <g id="Camada_1-2" data-name="Camada 1">
    <g>
      <path d="M65.15,5.8c.03-.15.04-.37,0-.52l-.04-.14c-.02-.27-.16-.51-.36-.69-.27-.22-.57-.32-.91-.39h-5.1s-.63.16-.63.16c-.31.07-.81.43-.98.67l-.23.33-.09.16-.15.34-.17.53-.33,1.29-.36,1.4-.37,1.44-.35,1.38-.26.98h1.46c.1,0,.09-.09.1-.15l.21-.82.41-1.61.32-1.22h5.52s-.25.96-.25.96l-.39,1.54-.33,1.3h1.54s.12-.47.12-.47l.25-.97.2-.8.16-.62.22-.85.25-.95.28-1.08.23-.97.04-.22ZM63.56,6.14l-.05.21-.12.45-.15.57h-5.52s.27-1,.27-1c.05-.18.09-.36.22-.49.13-.15.27-.21.47-.27h4.63c.09,0,.25.11.26.18.02.09.03.25,0,.35Z"/>
      <path d="M84.12,4.72c-.08-.1-.18-.23-.29-.29l-.34-.17c-.26-.12-.61-.11-.85-.17h-6.3s-1.93,7.43-1.93,7.43l-.31,1.19h6.13s.09-.04.09-.04h.44s.25-.05.25-.05l.21-.04c.17-.03.34-.09.48-.16l.29-.16.2-.15c.12-.09.23-.18.32-.3.19-.26.38-.52.48-.83l1.28-4.76.05-.36.04-.27-.03-.26c-.03-.21-.06-.43-.2-.61ZM82.83,6.31s-1.14,4.35-1.3,4.55l-.19.19c-.09.09-.25.13-.37.15l-.22.04h-4.8s1.5-5.68,1.5-5.68h4.86c.61,0,.63.33.52.74Z"/>
      <path d="M93.28,4.1c-.07,0-.12,0-.2,0h-4.81s-.27.05-.27.05c-.17.03-.37.05-.52.12l-.46.23c-.3.15-.52.4-.7.68l-.13.2c-.06.09-.1.18-.14.28l-.11.29-.1.33-1.14,4.47-.05.23c-.22,1.14.48,1.74,1.3,1.74.08,0,.2,0,.3,0h4.4c.15,0,.28-.01.5-.06.39-.08.71-.17,1.03-.41l.19-.14c.3-.22.62-.73.74-1.1,0,0,1.02-3.84,1.35-5.13.21-.82.08-1.79-1.18-1.79ZM92.97,6.15s-1.2,4.6-1.34,4.77c-.13.15-.31.32-.55.32h-4.56s-.07,0-.11-.02c-.16-.06-.26-.22-.26-.39,0-.06,0-.11.02-.16l1.12-4.31c.06-.22.12-.47.3-.59.13-.09.29-.2.46-.2h4.52c.13,0,.21.04.3.13.13.13.14.27.1.45Z"/>
      <path d="M44.67,5.45c0-.65-.34-1.36-1.46-1.36h-4.8c-1.21,0-1.66.53-1.89.87-.26.38-.37.86-.49,1.29l-1.18,4.59-.04.27c-.02.11-.01.26,0,.36l.04.22c.04.26.23.55.45.7.24.16.5.23.78.27l.37.04h4.4c.2,0,.3,0,.6-.07.41-.09.81-.27,1.12-.55.3-.27.55-.58.67-.96l.16-.48.2-.75.21-.83.09-.33.57-2.19s.21-.85.2-1.1ZM43.15,6.02l-.12.49-.21.79-.22.83-.16.62-.09.32-.2.77-.17.65-.09.28c-.08.26-.46.49-.67.49h-4.57c-.15,0-.32-.15-.34-.26-.02-.1-.02-.24,0-.32,0,0,1.17-4.51,1.27-4.72.12-.25.29-.39.6-.38h4.62c.23,0,.39.25.34.45Z"/>
      <path d="M74.4,6.07c.15-.7-.16-1.97-1.69-1.97h-5.42c-.1,0-.1.07-.12.14l-2.22,8.49h1.48s.98-3.76.98-3.76h3.2c-.01.14.49,3.6.49,3.6,0,.05,0,.1.01.13,0,.02.08.04.1.04h1.39s-.5-3.79-.5-3.79l.4-.11c.28-.08.55-.2.76-.41l.29-.28.27-.39c.19-.27.28-.59.36-.91l.21-.77ZM72.97,5.98s-.16.66-.27,1.03c-.11.35-.25.47-.65.47h-4.27s.48-1.92.48-1.92h4.27c.25-.02.49.16.44.41Z"/>
      <path d="M28.94,7.09l.09-.31.2-.76.12-.44h5.38s.08-.28.08-.28l.13-.47.05-.17.06-.21.08-.36h-6.8c-.05.03-.08.14-.09.19l-.13.51-.28,1.08-.25.97-.28,1.06-.25.96-.29,1.1-.25.97-.08.3-.21.78c-.06.23-.13.47-.16.72h6.81s.4-1.47.4-1.47h-5.4s.16-.61.16-.61l.45-1.76h5.12s.13-.48.13-.48l.08-.3.08-.29.07-.23s.01-.06.05-.13h-5.17s.07-.25.07-.25l.02-.12Z"/>
      <path d="M55.22,4.98l.21-.83s.01-.05-.02-.05h-1.26s-1.58,6.11-1.58,6.11l-4.66-6.11h-1.2s-2.27,8.62-2.27,8.62h1.28s1.69-6.39,1.69-6.39l5.05,6.39h.74s1.72-6.56,1.72-6.56l.31-1.19Z"/>
      <path d="M20.03,10.77l.28-1.08.25-.95.28-1.1.25-.95.24-.9.3-1.16.08-.29c.02-.08.04-.16.03-.25h-1.43s-.12.46-.12.46l-.3,1.16-.29,1.1-.27,1.03-.27,1.01-.24.95-.09.31-.23.89-.28,1.09-.14.61h6.65s.36-1.47.36-1.47h-5.2s.13-.48.13-.48Z"/>
      <path d="M12.17,12.39l-.35-.1-.66-.2-.67-.22-.59-.22-.7-.28-.25-.1-.37-.16c-.91-.4-2.47-1.27-3.19-1.88l-.2-.17s-.06-.03-.11-.03l.43.64.17.24.13.18.13.16.18.22.15.19.26.3.25.29c.32.37.68.71,1.03,1.03l.3.27.19.15,1,.73.37.23.24.14.67.33.42.19c.15.07.35.13.48-.03l.19-.23.2-.24.22-.26.18-.22.23-.28.14-.18s.03-.2,0-.25c-.1-.16-.3-.19-.46-.23Z"/>
      <path d="M13.99,7.18c-.15-.1-.33-.14-.51-.13l-.27-.03h-.65s-.13.03-.13.03h-.46c-.14.08-.28.02-.56.08-.09.02-.21,0-.3.02l-.24.03-.18.04-.35.03-.32.04-.35.04-.25.04-.29.04-.27.04-.29.04-.27.04-.24.04-.26.04-.27.05-.26.04-.24.04-.24.04-.24.04-.26.04-.22.04-.21.04-.26.05c-.08.01-.16.03-.22.06l.31.06.32.04.27.04.27.04.23.02.25.04.32.05.26.04.31.04.25.04.32.04.3.04.28.04.32.05.27.04.29.04.27.04.32.04.27.04.34.05.27.04.31.04.25.04.31.04.28.04.31.04.25.04.35.04c.12.01.29.07.4,0,.1-.08.06-.24.08-.34l.04-.27.02-.27.02-.4.04-.18v-.41s-.06-.11-.06-.13Z"/>
      <path d="M7.58,4.16l-.18.14-.32.35-.4.43-.23.27-.23.28-.1.13-.18.22-.13.16-.13.18-.26.38s-.07.05-.06.06l.06.04.26-.26.24-.19.27-.2.63-.42.47-.28,1.16-.58.3-.13.97-.38.26-.09.62-.21.78-.23.99-.25.19-.04.19-.03c.13-.02.26-.05.35-.18.06-.09.02-.24-.05-.33l-.24-.35-.2-.28-.45-.59c-.06-.07-.13-.16-.21-.22-.09-.06-.25,0-.33.04l-.28.1-.16.06-.42.19c-.77.35-1.49.78-2.15,1.31l-.19.15-.2.17-.26.22-.4.37Z"/>
      <path d="M6.99,14.85l-.3-.33-.14-.18-.17-.21-.14-.18-.12-.16-.11-.15-.51-.79-.14-.24-.53-1.07c-.28-.63-.5-1.26-.63-1.92l-.05-.24-.05-.24c-.12.19,0,.39-.1.52v1.8s.04.15.04.15l.02.38.03.19.03.22.05.31.03.2.05.25.18.73.18.54.11.29.18.41.16.32.12.2.41.63.09.12c.07.1.18.21.28.28.11.08.32,0,.43-.02l.25-.04.26-.04.27-.04.31-.04.25-.03c.15-.02.31-.04.41-.21v-.24s-.69-.7-.69-.7c-.15-.15-.31-.31-.46-.47Z"/>
      <path d="M4.01,5.35v1.04c.07.12.07.21.03.37,0,.01.06.03.06.02v-.06s.03-.17.03-.17l.04-.22.04-.19.05-.23.24-.73c.05-.16.14-.31.2-.47.09-.2.19-.39.29-.58l.19-.34.1-.16.16-.26.44-.65.35-.46.17-.21.21-.25.24-.28,1.08-1.09c.06-.06.09-.16.06-.23-.03-.07-.08-.11-.17-.19h-.44s-.08.04-.09.05c-.13,0-.29,0-.42.01l-.27.02c-.1,0-.18.03-.28.04l-.33.02c-.06,0-.16.08-.21.11l-.4.55-.18.27c-.42.63-.83,1.99-.97,2.78l-.04.24-.04.29-.03.22-.02.2c-.02.15-.01.31-.01.46l-.05.09Z"/>
      <path d="M3.18,9.02s-.06,0-.07.01l-.36.2-.88.59-.16.13-.26.22c-.17.15-.34.3-.48.48l-.13.17c-.04.06-.04.21-.03.29l.04.23.07.37c.06.28.13.56.23.85.06.18.19.27.4.25.07,0,.14-.12.17-.2l.17-.55.1-.31.06-.15.38-.93.09-.2.16-.35.5-1.01s.03-.07.01-.07Z"/>
      <path d="M3.03,6.4l-.13-.33-.28-.83-.04-.15-.03-.15-.04-.18-.04-.21-.04-.2-.04-.28-.04-.28-.02-.36c0-.09-.04-.18-.03-.27,0-.12,0-.18-.11-.25-.09-.06-.31-.06-.38.05l-.13.22c-.08.14-.16.29-.22.44l-.09.21-.25.6c-.15.36.35.86.59,1.14l.18.21.29.25.28.25.16.13.67.52-.14-.33-.1-.22Z"/>
      <path d="M1.38,8.34l1.66-.48s-.09-.06-.11-.06l-.3-.07-.37-.08c-.47-.09-.91-.23-1.34-.45l-.11-.08-.25-.23c-.06,0-.19-.01-.25,0-.13.03-.17.18-.19.29l-.03.33s-.03.14-.04.21l-.03.19c-.03.19-.01.38-.02.58.04.05.13.14.17.16l.23-.06.18-.04.26-.07.53-.14Z"/>
    </g>
  </g>
</svg>