<?xml version="1.0" encoding="UTF-8"?>
<svg id="Camada_2" data-name="Camada 2" xmlns="http://www.w3.org/2000/svg" viewBox="0 0 72.52 20.62">
  <g id="Camada_1-2" data-name="Camada 1">
    <g>
      <path d="M61.69,0h-5.47c-2.29.01-5.49,1.72-5.97,3.93l-2.27,10.35c-.38,1.75-.08,3.51,1.13,4.87.65.73,1.57,1.36,2.58,1.38l3.31.08h2.43c1.41.01,2.78-.4,4.01-1.17,1.22-.76,2.05-1.89,2.36-3.31l2.43-10.94c.08-1.46-.4-2.79-1.37-3.85C64,.55,62.91,0,61.69,0ZM61.66,5.71l-1.81,8.53c-.27,1.27-1.23,2.21-2.51,2.2l-3.81-.02c-.78,0-1.38-.97-1.21-1.76l1.94-8.82c.22-.99,1.33-1.63,2.28-1.63h3.78c.74-.01,1.52.68,1.34,1.51Z"/>
      <path d="M24.68.22c.43,1.3.4,2.57.23,3.92l-2.12,9.62L16.61.21h-5c.16.43.26.81.36,1.23.13,1.14.04,2.19-.21,3.32l-3.41,15.58,1.63.02h2.59c.02-.75.04-1.35.2-2.03l2.62-11.55,6.28,13.58h3.83c.07-.97.2-1.85.43-2.81L29.8.22h-5.13Z"/>
      <path d="M47.13,2.75c-1.16-1.47-2.93-2.52-4.87-2.52l-9.68-.02c.37,1.31.52,2.6.23,3.93l-3.56,16.24h4.57s.22-2.2.22-2.2l2.04-8.86c.6,1.02.5,2.67.54,3.96l5.03-.04c1.46-.01,2.82-.72,3.97-1.56,2.86-2.07,3.56-6.32,1.5-8.93ZM42.68,8.6c-.61.3-1.23.42-1.9.4h-4.63s1-4.56,1-4.56h4.88c.95.1,1.73.69,1.98,1.61.12,1.05-.4,2-1.33,2.54Z"/>
      <path d="M3.34.22c.48,1.17.47,2.37.33,3.68L0,20.34h4.54c.04-.61.09-1.1.18-1.7L8.81.22H3.34Z"/>
      <path d="M70.03.2c-1.37,0-2.48,1.11-2.48,2.48s1.11,2.48,2.48,2.48,2.48-1.11,2.48-2.48-1.11-2.48-2.48-2.48ZM70.03,4.74c-1.14,0-2.07-.92-2.07-2.06s.93-2.06,2.07-2.06,2.07.92,2.07,2.06-.93,2.06-2.07,2.06Z"/>
      <path d="M71,2.03c-.05-.39-.36-.64-.79-.64h-1.28s0,2.65,0,2.65h.42s0-1.13,0-1.13c.15-.02.57,0,.66.13l.63.98.53.02-.87-1.2c.42-.05.72-.43.67-.81ZM69.37,2.58v-.84s.84.02.84.02c.13,0,.34.23.36.35.02.13-.17.4-.32.41l-.88.06Z"/>
    </g>
  </g>
</svg>