<?xml version="1.0" encoding="UTF-8"?>
<svg id="Camada_2" data-name="Camada 2" xmlns="http://www.w3.org/2000/svg" viewBox="0 0 62.29 25.27">
  <g id="Camada_1-2" data-name="Camada 1">
    <g>
      <path d="M18.43,16.82h.22s.03-.01.03-.03v-.04c0-.14-.03-.26-.09-.37-.06-.11-.14-.2-.24-.26-.11-.06-.23-.09-.36-.09s-.26.03-.37.09c-.11.06-.19.15-.25.27-.06.12-.09.25-.09.4v.85c0,.15.03.28.09.4.06.12.14.21.25.27.11.06.23.09.37.09.21,0,.38-.07.51-.21.13-.14.19-.33.19-.59v-.42s0-.03-.03-.03h-.64s-.03.01-.03.03v.21s0,.03.03.03h.39s.01,0,.01.01v.26c0,.13-.04.24-.11.31-.07.08-.17.11-.3.11s-.23-.04-.31-.13c-.08-.09-.12-.2-.12-.35v-.87c0-.14.04-.26.12-.35.08-.09.18-.13.31-.13s.23.04.3.12c.08.08.12.19.12.32v.03s0,.03.03.03Z"/>
      <path d="M19.37,16.69h-.22s-.03.01-.03.03v1.63s0,.03.03.03h.22s.03-.01.03-.03v-.97c0-.11.03-.2.09-.26.06-.07.13-.1.22-.11h.04s.08,0,.11.02c.02,0,.03,0,.03-.02l.05-.25s0-.03-.01-.04c-.05-.03-.11-.04-.17-.04-.15,0-.27.08-.35.23,0,0,0,0,0,0,0,0,0,0,0-.01v-.18s0-.03-.03-.03Z"/>
      <path d="M21.14,18.22s0,0,.01,0c0,0,0,0,0,0v.12s0,.03.03.03h.21s.03-.01.03-.03v-1.63s0-.03-.03-.03h-.21s-.03.01-.03.03v1.03c0,.11-.03.2-.09.27-.06.07-.13.1-.23.1s-.17-.03-.22-.1c-.05-.07-.08-.16-.08-.27v-1.03s0-.03-.03-.03h-.21s-.03.01-.03.03v1.13c0,.12.02.22.07.3.05.08.11.14.19.19.08.04.17.06.26.06.16,0,.28-.06.35-.18Z"/>
      <path d="M22.15,16.69h-.22s-.03.01-.03.03v2.26s0,.03.03.03h.22s.03-.01.03-.03v-.74s0,0,0-.01c0,0,0,0,.01,0,.04.06.09.1.15.13.06.03.12.04.18.04.14,0,.26-.04.35-.12.09-.08.16-.2.2-.34.03-.11.05-.25.05-.4,0-.16-.02-.31-.05-.43-.04-.14-.11-.26-.2-.33-.09-.08-.2-.12-.34-.12-.07,0-.13.02-.19.05-.06.03-.11.07-.15.13,0,0,0,0-.01,0,0,0,0,0,0-.01v-.11s0-.03-.03-.03ZM22.25,17.12c.06-.12.14-.18.25-.18.13,0,.22.06.27.18.05.1.07.24.07.41,0,.19-.03.33-.09.44-.06.11-.14.16-.25.16-.11,0-.19-.06-.24-.17-.05-.1-.07-.24-.07-.43s.02-.32.07-.42Z"/>
      <path d="M24.5,18.28c.1-.08.18-.2.22-.35.03-.12.05-.25.05-.41s-.02-.29-.05-.4c-.04-.14-.12-.26-.22-.34s-.22-.12-.36-.12c-.15,0-.27.04-.38.12-.11.08-.18.2-.22.34-.03.11-.05.24-.05.4s.02.29.05.41c.04.15.12.26.22.35.1.08.23.12.37.12s.26-.04.36-.12ZM23.81,17.85c-.02-.08-.03-.18-.03-.31s.01-.23.03-.31c.02-.09.07-.16.12-.21.06-.05.13-.07.2-.07.08,0,.15.02.21.07s.1.12.12.21c.02.08.03.19.03.31s-.01.23-.03.31c-.03.09-.07.16-.12.21-.06.05-.12.07-.2.07-.08,0-.15-.02-.21-.07-.06-.05-.1-.12-.12-.21Z"/>
      <path d="M26.67,16.06s-.03.01-.03.03v.74s0,0,0,0c0,0,0,0-.01,0-.04-.06-.09-.1-.15-.13-.06-.03-.12-.04-.18-.04-.14,0-.26.04-.35.12-.09.08-.16.2-.2.34-.03.11-.05.25-.05.4,0,.17.02.31.05.43.04.14.11.26.2.33.09.08.2.12.34.12.07,0,.13-.02.19-.05.06-.03.11-.07.15-.13,0,0,0,0,.01,0,0,0,0,0,0,0v.11s0,.03.03.03h.22s.03-.01.03-.03v-2.26s0-.03-.03-.03h-.22ZM26.57,17.95c-.06.12-.14.18-.25.18-.13,0-.22-.06-.27-.18-.05-.1-.07-.24-.07-.41,0-.18.03-.33.09-.44.06-.11.14-.16.26-.16.11,0,.19.06.24.17.05.1.07.24.07.43s-.02.33-.07.42Z"/>
      <path d="M28.55,17.66s.03-.01.03-.03c0-.11,0-.21,0-.31-.02-.22-.08-.38-.17-.49-.1-.11-.24-.17-.43-.17-.15,0-.27.04-.38.13-.1.09-.17.21-.21.36-.02.08-.03.21-.03.37,0,.19.02.34.07.48.05.13.12.23.21.3.1.07.21.11.35.11.12,0,.24-.03.33-.09.1-.06.17-.14.23-.24,0-.02,0-.03,0-.04l-.16-.13s-.03-.01-.04.01c-.08.14-.19.2-.33.2-.1,0-.18-.02-.24-.07s-.11-.12-.13-.21c-.01-.04-.02-.1-.02-.17,0,0,0-.01.01-.01h.91ZM27.65,17.2c.02-.08.06-.14.11-.19.05-.05.12-.07.2-.07s.15.03.21.08c.06.05.09.12.11.21,0,.04.01.09.02.16,0,0,0,.01-.01.01h-.66s-.01,0-.01-.01c0-.08.01-.14.03-.19Z"/>
      <path d="M29.59,16.06s-.03.01-.03.03v2.26s0,.03.03.03h1.27s.03-.01.03-.03v-.21s0-.03-.03-.03h-1.02s-.01,0-.01-.01v-.73s0-.01.01-.01h.7s.03-.01.03-.03v-.21s0-.03-.03-.03h-.7s-.01,0-.01-.01v-.71s0-.01.01-.01h1.02s.03-.01.03-.03v-.21s0-.03-.03-.03h-1.27Z"/>
      <path d="M32.12,17.49c-.07-.03-.17-.07-.28-.1-.11-.04-.19-.07-.24-.11s-.08-.08-.08-.15.03-.12.08-.15c.05-.04.12-.06.2-.06.09,0,.17.02.22.06.05.04.08.1.08.16h0s0,.04.03.04h.2s.03-.01.03-.03h0c0-.1-.02-.18-.07-.26-.05-.07-.11-.13-.2-.17-.08-.04-.18-.06-.29-.06-.17,0-.3.04-.4.13-.1.09-.15.21-.15.35,0,.11.03.19.08.26.05.07.11.12.19.16.07.04.16.07.27.11.11.04.19.07.24.1.05.03.07.08.07.14s-.03.12-.08.16c-.05.04-.12.06-.21.06s-.16-.02-.22-.07c-.06-.05-.09-.1-.09-.16v-.02s0-.03-.03-.03h-.21s-.03.01-.03.03v.04c0,.08.02.16.07.23.05.07.11.12.2.16.09.04.19.06.3.06.17,0,.31-.04.41-.13.1-.09.15-.21.15-.36,0-.11-.03-.2-.08-.26-.05-.07-.11-.12-.19-.15Z"/>
      <path d="M33.17,16.69s-.01,0-.01-.01v-.39s0-.03-.03-.03h-.21s-.03.01-.03.03v.39s0,.01-.01.01h-.17s-.03.01-.03.03v.2s0,.03.03.03h.17s.01,0,.01.01v.99c0,.16.04.28.11.34.07.06.18.09.33.09.03,0,.07,0,.13,0,.02,0,.03-.01.03-.03v-.21s0-.03-.03-.03h-.08c-.08,0-.13-.02-.17-.06-.04-.04-.05-.11-.05-.2v-.88s0-.01.01-.01h.31s.03-.01.03-.03v-.2s0-.03-.03-.03h-.31Z"/>
      <path d="M34.8,16.69s-.03.01-.03.03v1.03c0,.11-.03.2-.09.27-.06.07-.13.1-.23.1s-.17-.03-.22-.1c-.05-.07-.08-.16-.08-.27v-1.03s0-.03-.03-.03h-.21s-.03.01-.03.03v1.13c0,.12.02.22.07.3.05.08.11.14.19.19.08.04.17.06.26.06.16,0,.28-.06.35-.18,0,0,0,0,.01,0,0,0,0,0,0,0v.12s0,.03.03.03h.21s.03-.01.03-.03v-1.63s0-.03-.03-.03h-.21Z"/>
      <path d="M36.44,16.06s-.03.01-.03.03v.74s0,0,0,0c0,0,0,0-.01,0-.04-.06-.09-.1-.15-.13-.06-.03-.12-.04-.18-.04-.14,0-.26.04-.35.12-.09.08-.16.2-.2.34-.03.11-.05.25-.05.4,0,.17.02.31.05.43.04.14.11.26.2.33.09.08.2.12.34.12.07,0,.13-.02.19-.05.06-.03.11-.07.15-.13,0,0,0,0,.01,0,0,0,0,0,0,0v.11s0,.03.03.03h.22s.03-.01.03-.03v-2.26s0-.03-.03-.03h-.22ZM36.34,17.95c-.06.12-.14.18-.25.18-.13,0-.22-.06-.27-.18-.05-.1-.07-.24-.07-.41,0-.18.03-.33.09-.44.06-.11.14-.16.26-.16.11,0,.19.06.24.17.05.1.07.24.07.43s-.02.33-.07.42Z"/>
      <path d="M38.11,16.79c-.1-.08-.22-.12-.36-.12-.15,0-.27.04-.38.12-.11.08-.18.2-.22.34-.03.11-.05.24-.05.4s.02.29.05.41c.04.15.12.26.22.35.1.08.23.12.37.12s.26-.04.36-.12c.1-.08.18-.2.22-.35.03-.12.05-.25.05-.41s-.02-.29-.05-.4c-.04-.14-.12-.26-.22-.34ZM38.07,17.85c-.03.09-.07.16-.12.21-.06.05-.12.07-.2.07-.08,0-.15-.02-.21-.07-.06-.05-.1-.12-.12-.21-.02-.08-.03-.18-.03-.31s.01-.23.03-.31c.02-.09.07-.16.12-.21.06-.05.13-.07.2-.07.08,0,.15.02.21.07.06.05.1.12.12.21.02.08.03.19.03.31s-.01.23-.03.31Z"/>
      <path d="M39.6,17.49c-.07-.03-.17-.07-.28-.1-.11-.04-.19-.07-.24-.11-.05-.03-.08-.08-.08-.15s.03-.12.08-.15c.05-.04.12-.06.2-.06.09,0,.17.02.22.06.05.04.08.1.08.16h0s0,.04.03.04h.2s.03-.01.03-.03h0c0-.1-.02-.18-.07-.26-.05-.07-.11-.13-.2-.17-.08-.04-.18-.06-.29-.06-.17,0-.3.04-.4.13-.1.09-.15.21-.15.35,0,.11.03.19.08.26.05.07.11.12.19.16.07.04.16.07.27.11.11.04.19.07.24.1.05.03.07.08.07.14s-.03.12-.08.16c-.05.04-.12.06-.21.06s-.16-.02-.22-.07c-.06-.05-.09-.1-.09-.16v-.02s0-.03-.03-.03h-.21s-.03.01-.03.03v.04c0,.08.02.16.07.23.05.07.11.12.2.16.09.04.19.06.3.06.17,0,.31-.04.41-.13.1-.09.15-.21.15-.36,0-.11-.03-.2-.08-.26-.05-.07-.11-.12-.19-.15Z"/>
      <path d="M41.72,16.06s-.03.01-.03.03v.74s0,0,0,0c0,0,0,0-.01,0-.04-.06-.09-.1-.15-.13-.06-.03-.12-.04-.18-.04-.14,0-.26.04-.35.12-.09.08-.16.2-.2.34-.03.11-.05.25-.05.4,0,.17.02.31.05.43.04.14.11.26.2.33.09.08.2.12.34.12.07,0,.13-.02.19-.05.06-.03.11-.07.15-.13,0,0,0,0,.01,0s0,0,0,0v.11s0,.03.03.03h.22s.03-.01.03-.03v-2.26s0-.03-.03-.03h-.22ZM41.62,17.95c-.06.12-.14.18-.25.18-.13,0-.22-.06-.27-.18-.05-.1-.07-.24-.07-.41,0-.18.03-.33.09-.44.06-.11.14-.16.26-.16.11,0,.19.06.24.17.05.1.07.24.07.43s-.02.33-.07.42Z"/>
      <path d="M43.4,16.79c-.1-.08-.22-.12-.36-.12-.15,0-.27.04-.38.12-.11.08-.18.2-.22.34-.03.11-.05.24-.05.4s.02.29.05.41c.04.15.12.26.22.35.1.08.23.12.37.12s.26-.04.36-.12c.1-.08.18-.2.22-.35.03-.12.05-.25.05-.41s-.02-.29-.05-.4c-.04-.14-.12-.26-.22-.34ZM43.36,17.85c-.03.09-.07.16-.12.21-.06.05-.12.07-.2.07-.08,0-.15-.02-.21-.07-.06-.05-.1-.12-.12-.21-.02-.08-.03-.18-.03-.31s.01-.23.03-.31c.02-.09.07-.16.12-.21s.13-.07.2-.07c.08,0,.15.02.21.07s.1.12.12.21c.02.08.03.19.03.31s-.01.23-.03.31Z"/>
      <path d="M45.68,17.25c-.08-.05-.19-.11-.33-.17-.13-.06-.23-.1-.29-.14-.06-.04-.11-.08-.14-.12-.03-.05-.05-.11-.05-.18,0-.11.03-.19.1-.24.06-.06.16-.08.27-.08.14,0,.25.04.33.11.08.08.12.17.12.29v.05s0,.03.03.03h.21s.03-.01.03-.03v-.07c0-.13-.03-.25-.09-.35-.06-.1-.14-.18-.25-.23-.11-.06-.23-.08-.37-.08-.2,0-.36.05-.48.16-.12.11-.18.26-.18.45,0,.13.03.23.08.31.05.08.12.15.2.2.08.05.19.11.33.17.13.06.22.11.29.15.07.04.12.09.15.13.03.05.05.11.05.18,0,.1-.03.19-.1.25-.07.06-.17.1-.3.1-.15,0-.26-.04-.35-.11-.08-.07-.13-.17-.13-.28v-.08s0-.03-.03-.03h-.21s-.03.01-.03.03v.1c0,.13.03.24.09.34.06.1.14.17.25.23.11.05.24.08.38.08.22,0,.39-.06.51-.17.12-.11.18-.27.18-.46,0-.13-.03-.23-.08-.32-.06-.09-.12-.15-.21-.21Z"/>
      <path d="M47.39,16.83c-.1-.11-.24-.17-.43-.17-.15,0-.27.04-.38.13-.1.09-.17.21-.21.36-.02.08-.03.21-.03.37,0,.19.02.34.07.48.05.13.12.23.21.3.1.07.21.11.35.11.12,0,.24-.03.33-.09.1-.06.17-.14.23-.24,0-.02,0-.03,0-.04l-.16-.13s-.03-.01-.04.01c-.08.14-.19.2-.33.2-.1,0-.18-.02-.24-.07-.06-.05-.11-.12-.13-.21-.01-.04-.02-.1-.02-.17,0,0,0-.01.01-.01h.91s.03-.01.03-.03c0-.11,0-.21,0-.31-.02-.22-.08-.38-.17-.49ZM47.29,17.4h-.66s-.01,0-.01-.01c0-.08.01-.14.03-.19.02-.08.06-.14.11-.19.05-.05.12-.07.2-.07s.15.03.21.08c.06.05.09.12.11.21,0,.04.01.09.02.16,0,0,0,.01-.01.01Z"/>
      <path d="M48.36,16.69s-.01,0-.01-.01v-.39s0-.03-.03-.03h-.21s-.03.01-.03.03v.39s0,.01-.01.01h-.17s-.03.01-.03.03v.2s0,.03.03.03h.17s.01,0,.01.01v.99c0,.16.04.28.11.34.07.06.18.09.33.09.03,0,.07,0,.13,0,.02,0,.03-.01.03-.03v-.21s0-.03-.03-.03h-.08c-.08,0-.13-.02-.17-.06-.04-.04-.05-.11-.05-.2v-.88s0-.01.01-.01h.31s.03-.01.03-.03v-.2s0-.03-.03-.03h-.31Z"/>
      <path d="M50.01,16.79c-.1-.08-.22-.12-.36-.12-.15,0-.27.04-.38.12-.11.08-.18.2-.22.34-.03.11-.05.24-.05.4s.02.29.05.41c.04.15.12.26.22.35.1.08.23.12.37.12s.26-.04.36-.12c.1-.08.18-.2.22-.35.03-.12.05-.25.05-.41s-.02-.29-.05-.4c-.04-.14-.12-.26-.22-.34ZM49.97,17.85c-.03.09-.07.16-.12.21s-.12.07-.2.07c-.08,0-.15-.02-.21-.07-.06-.05-.1-.12-.12-.21-.02-.08-.03-.18-.03-.31s.01-.23.03-.31c.02-.09.07-.16.12-.21s.13-.07.2-.07c.08,0,.15.02.21.07s.1.12.12.21c.02.08.03.19.03.31s-.01.23-.03.31Z"/>
      <path d="M51.34,16.67c-.15,0-.27.08-.35.23,0,0,0,0,0,0,0,0,0,0,0-.01v-.18s0-.03-.03-.03h-.22s-.03.01-.03.03v1.63s0,.03.03.03h.22s.03-.01.03-.03v-.97c0-.11.03-.2.09-.26.06-.07.13-.1.22-.11h.04s.08,0,.11.02c.02,0,.03,0,.03-.02l.05-.25s0-.03-.01-.04c-.05-.03-.11-.04-.17-.04Z"/>
      <path d="M52.43,16.06s-.03.01-.03.03v2.26s0,.03.03.03h1.27s.03-.01.03-.03v-.21s0-.03-.03-.03h-1.02s-.01,0-.01-.01v-.73s0-.01.01-.01h.7s.03-.01.03-.03v-.21s0-.03-.03-.03h-.7s-.01,0-.01-.01v-.71s0-.01.01-.01h1.02s.03-.01.03-.03v-.21s0-.03-.03-.03h-1.27Z"/>
      <path d="M54.16,16.06s-.03.01-.03.03v2.26s0,.03.03.03h.22s.03-.01.03-.03v-2.26s0-.03-.03-.03h-.22Z"/>
      <path d="M55.88,16.83c-.1-.11-.24-.17-.43-.17-.15,0-.27.04-.38.13-.1.09-.17.21-.21.36-.02.08-.03.21-.03.37,0,.19.02.34.07.48.05.13.12.23.21.3.1.07.21.11.35.11.12,0,.24-.03.33-.09.1-.06.17-.14.23-.24,0-.02,0-.03,0-.04l-.16-.13s-.03-.01-.04.01c-.08.14-.19.2-.33.2-.1,0-.18-.02-.24-.07s-.11-.12-.13-.21c-.01-.04-.02-.1-.02-.17,0,0,0-.01.01-.01h.91s.03-.01.03-.03c0-.11,0-.21,0-.31-.02-.22-.08-.38-.17-.49ZM55.78,17.4h-.66s-.01,0-.01-.01c0-.08.01-.14.03-.19.02-.08.06-.14.11-.19.05-.05.12-.07.2-.07s.15.03.21.08c.06.05.09.12.11.21,0,.04.01.09.02.16,0,0,0,.01-.01.01Z"/>
      <path d="M55.51,16.45l.2-.36s0-.02,0-.03c0,0-.01-.01-.02-.01h-.19s-.03,0-.03.02l-.17.36s0,.02,0,.03c0,0,.01.01.02.01h.15s.02,0,.03-.02Z"/>
      <path d="M56.84,16.69s-.01,0-.01-.01v-.39s0-.03-.03-.03h-.21s-.03.01-.03.03v.39s0,.01-.01.01h-.17s-.03.01-.03.03v.2s0,.03.03.03h.17s.01,0,.01.01v.99c0,.16.04.28.11.34.07.06.18.09.33.09.03,0,.07,0,.13,0,.02,0,.03-.01.03-.03v-.21s0-.03-.03-.03h-.08c-.08,0-.13-.02-.17-.06-.04-.04-.05-.11-.05-.2v-.88s0-.01.01-.01h.31s.03-.01.03-.03v-.2s0-.03-.03-.03h-.31Z"/>
      <path d="M58.2,16.67c-.15,0-.27.08-.35.23,0,0,0,0,0,0,0,0,0,0,0-.01v-.18s0-.03-.03-.03h-.22s-.03.01-.03.03v1.63s0,.03.03.03h.22s.03-.01.03-.03v-.97c0-.11.03-.2.09-.26.06-.07.13-.1.22-.11h.04s.08,0,.11.02c.02,0,.03,0,.03-.02l.05-.25s0-.03-.01-.04c-.05-.03-.11-.04-.17-.04Z"/>
      <path d="M58.76,16.69s-.03.01-.03.03v1.62s0,.03.03.03h.22s.03-.01.03-.03v-1.62s0-.03-.03-.03h-.22Z"/>
      <path d="M58.87,16c-.05,0-.1.02-.13.06-.03.04-.05.09-.05.15s.02.11.05.15c.03.04.08.06.13.06s.1-.02.13-.06c.03-.04.05-.09.05-.15s-.02-.11-.05-.15c-.03-.04-.08-.06-.13-.06Z"/>
      <path d="M59.86,17.02c.06-.05.13-.08.21-.08s.16.03.21.08.1.11.11.19v.05s.02.03.04.03h0l.21-.04s.03-.02.03-.03c0-.04-.01-.07-.02-.11-.03-.13-.1-.23-.21-.32-.11-.08-.23-.13-.38-.13s-.27.04-.37.13c-.1.08-.18.2-.21.34-.03.12-.04.25-.04.4,0,.17.01.3.04.4.04.15.11.26.21.35.1.09.23.13.37.13s.27-.04.38-.12c.11-.08.18-.19.21-.33,0-.03.01-.05.01-.07h0s0-.04-.02-.04l-.21-.04s-.03,0-.03.02h0s0,.02,0,.02c0,0,0,0,0,0-.02.08-.05.15-.11.2-.06.05-.13.08-.22.08s-.15-.03-.21-.08c-.06-.05-.09-.12-.11-.21-.02-.08-.03-.18-.03-.31s0-.24.03-.32c.02-.08.05-.15.11-.2Z"/>
      <path d="M62.24,17.13c-.04-.14-.12-.26-.22-.34s-.22-.12-.36-.12c-.15,0-.27.04-.38.12-.11.08-.18.2-.22.34-.03.11-.05.24-.05.4s.02.29.05.41c.04.15.12.26.22.35.1.08.23.12.37.12s.26-.04.36-.12c.1-.08.18-.2.22-.35.03-.12.05-.25.05-.41s-.02-.29-.05-.4ZM61.98,17.85c-.03.09-.07.16-.12.21s-.12.07-.2.07c-.08,0-.15-.02-.21-.07-.06-.05-.1-.12-.12-.21-.02-.08-.03-.18-.03-.31s.01-.23.03-.31c.02-.09.07-.16.12-.21s.13-.07.2-.07c.08,0,.15.02.21.07s.1.12.12.21c.02.08.03.19.03.31s-.01.23-.03.31Z"/>
      <path d="M19.72,20.72c-.2,0-.27.06-.27.15,0,.08.1.26.1.57v1.42c0,.76-.31,1.1-.97,1.1s-.97-.35-.97-1.1v-1.42c0-.32.1-.49.1-.57,0-.09-.07-.15-.34-.15-.23,0-.3.06-.3.15,0,.08.07.26.07.57v1.42c0,.93.48,1.44,1.41,1.44s1.36-.51,1.36-1.44v-1.42c0-.32.07-.49.07-.57,0-.09-.06-.15-.27-.15Z"/>
      <path d="M23.03,20.71c-.18,0-.21.02-1.64.02-.15,0-.31-.01-.48-.01-.09,0-.14.06-.14.15,0,.08.07.26.07.57v2.1c0,.32-.07.49-.07.57,0,.09.06.15.3.15.26,0,.33-.06.33-.15,0-.08-.1-.26-.1-.57v-.75c0-.14.06-.17.25-.17h.05c1.07,0,1.06.12,1.18.12s.16-.07.16-.28-.05-.28-.16-.28c-.12,0-.11.11-1.17.11h-.06c-.19,0-.24-.02-.24-.2v-.85c0-.17.05-.2.61-.2.78,0,1.01.12,1.16.22.05.02.08.04.11.04.07,0,.14-.05.14-.14,0-.2-.14-.45-.3-.45Z"/>
      <path d="M26.77,23.96c-.2,0-.28-.16-.42-.67-.14-.47-.33-.66-.56-.73-.04-.01-.05-.02-.05-.04,0-.01.01-.02.05-.04.43-.13.69-.42.69-.81,0-.66-.45-.96-1.28-.96-.23,0-.44.01-.67.01-.16,0-.33-.01-.49-.01-.09,0-.14.06-.14.15,0,.08.07.26.07.57v2.1c0,.32-.07.49-.07.57,0,.09.06.15.3.15.26,0,.33-.06.33-.15,0-.08-.1-.26-.1-.57v-.67c0-.12.05-.16.29-.16.81,0,1,.12,1.22.87.18.63.37.73.64.73.18,0,.33-.1.33-.24,0-.07-.04-.11-.13-.11ZM24.91,22.37c-.41,0-.49-.04-.49-.15v-.93c0-.21.03-.24.72-.24.53,0,.83.18.83.64s-.4.68-1.07.68Z"/>
      <path d="M29.03,20.72c-.26,0-.33.06-.33.15,0,.08.1.26.1.57v1.82c0,.47-.18.71-.55.71-.27,0-.46-.16-.46-.4,0-.04.13-.07.13-.25,0-.15-.1-.25-.26-.25-.21,0-.35.15-.35.38,0,.5.39.85.94.85.61,0,1.01-.43,1.01-1.1v-1.77c0-.32.07-.49.07-.57,0-.09-.07-.15-.31-.15Z"/>
      <path d="M18.18,11.61c.85.53,1.78.69,2.77.69,1.28,0,2.53-.35,3.58-1.08.31-.21.28-.48.26-.81l-.07-1.09.04-1.56c0-.22-.23-.43-.47-.43h-2.29c-.13,0-.31.1-.36.18-.06.08-.04.37.07.39.9.19,1.9-.07,1.9.72v1.45c0,.56-.3.95-.8,1.2-1.24.63-2.79.5-3.89-.37-1.48-1.16-1.8-3.14-1.25-4.9.52-1.69,1.9-2.91,3.71-2.77,1.15.09,2.05.75,2.46,1.83.05.12.25.25.36.2.12-.05.19-.2.17-.37-.04-.48.08-1.13-.3-1.49-.81-.76-2.36-.93-3.52-.83-1.31.11-2.46.7-3.29,1.71-1.8,2.18-1.49,5.83.91,7.33Z"/>
      <path d="M26.02,11.81c.02.11.18.21.33.21h5.97c.28,0,.57-.04.8-.15.2-.53.25-1.01.23-1.56l-.3-.08-.62.55c-.34.29-.88.47-1.34.47l-2.59.02c-.32-.03-.58-.28-.59-.64l-.02-3.29h3.13s.57.33.57.33c.07.04.22.07.27.05.06-.03.12-.16.12-.22v-1.05c0-.07-.09-.24-.16-.24-.06,0-.19.04-.25.08l-.54.32h-3.13s0-2.3,0-2.3c0-.25.06-.46.19-.68.36-.12.7-.19,1.07-.18l1.61.03c.4,0,.9.03,1.2.29l.63.53c.05.05.23.07.28.03.04-.04.09-.14.09-.2l-.06-.84c-.02-.31-.19-.53-.51-.53h-2.85s-3.37.01-3.37.01c-.09,0-.16.25-.12.33.15.3.71.39.71.71v6.86c0,.89-.79.66-.73,1.14Z"/>
      <path d="M46.84,11.25c-.92.09-1.83.08-2.77.04-.32-.01-.59-.26-.59-.62v-3.35s3.21.03,3.21.03l.48.31c.06.04.22.05.28.02.05-.02.12-.14.12-.2v-1.15c-.24-.11-.49-.05-.62.17-.22.08-.49.16-.73.16h-2.74s.02-2.78.02-2.78c0-.18.38-.33.54-.39,1.01-.09,2-.08,2.99.08.88.14,1.01.87,1.47.76l-.03-1.09c0-.19-.23-.45-.43-.45h-4.28s-1.76-.01-1.76-.01c-.14,0-.33.1-.35.22-.08.39.73.24.73,1.07v3.78s-.02,3.16-.02,3.16c0,.33-.73.45-.71.79,0,.08.2.22.28.22h6.17c.17,0,.53-.09.6-.22.23-.44.28-.98.22-1.45-.5-.28-.59.75-2.06.9Z"/>
      <path d="M39.43,6.95l-1.79-.41c-.58-.13-1.18-.26-1.63-.64-.45-.38-.55-.96-.4-1.54.11-.44.47-.86.99-1.04.75-.27,1.58-.13,2.25.33.42.29.74.66,1.1,1.04.07.08.35.06.35-.04v-.98c0-.32-.28-.53-.55-.66-.73-.37-1.53-.44-2.36-.44-1.53,0-2.71.86-2.88,2.39-.13,1.09.45,2.18,1.55,2.44l2.15.51c1.01.24,1.77.54,1.82,1.59.05,1.4-1.18,2.06-2.56,2.06-.9,0-1.68-.36-2.16-1.13-.09-.14-.32-.22-.46-.21-.11,0-.33.14-.34.27-.04.51.31.85.68,1.12.66.5,1.46.68,2.29.69,2.03.02,3.58-1.06,3.57-3.11,0-1.04-.58-1.92-1.59-2.24Z"/>
      <path d="M56.9,10.53c-.13-.08-.38-.01-.52.09-.61.47-1.27.7-2,.7h-2.04c-.37,0-.69-.23-.69-.65v-6.6c0-.82.89-.67.86-1.08,0-.08-.16-.21-.26-.21h-2.09c-.14-.01-.31.09-.33.21-.07.37.72.31.72,1.08v6.67c0,.76-.77.63-.73,1.08,0,.09.2.21.32.21h6.03c.15,0,.45-.08.54-.18.17-.38.24-.9.18-1.31Z"/>
      <path d="M11.31.9l-.04,4.07L5.2,0c-.57.31-.79.79-.89,1.38L0,25.27l11.29-4.55.02,4.48c.37-.18.64-.4.87-.76V.12c-.44.16-.73.46-.88.78ZM11.3,6.07v6.26s-6.38-4.17-6.38-4.17l5.67-1.79.71-.3ZM5.02,1.48l5.23,4.29-6.36,1.99,1.13-6.28ZM3.7,8.85l6.23,4.07.07.14s-.06.1-.11.15l-6.34,1.89-1.06.34,1.2-6.59ZM.97,24.26c0-.53.11-.97.2-1.46l1.17-6.43,7.29,3.81c.2.1.32.16.51.4L.97,24.26ZM11.29,19.67l-7.47-3.92,6.47-1.97,1.01-.33v6.22Z"/>
    </g>
  </g>
</svg>