<?xml version="1.0" encoding="UTF-8"?>
<svg id="Camada_2" data-name="Camada 2" xmlns="http://www.w3.org/2000/svg" viewBox="0 0 118.84 14.41">
  <defs>
    <style>
      .cls-1 {
        fill: #1d1d1b;
      }
    </style>
  </defs>
  <g id="Camada_1-2" data-name="Camada 1">
    <g>
      <path class="cls-1" d="M36.98,5.87l-1.55-4.22c-1.49,1.85-1.21,4.53.51,6.03l1.05-1.81Z"/>
      <path class="cls-1" d="M37.6,8.61c2.19.63,4.45-.46,5.3-2.51l-4.29.62-1.01,1.89Z"/>
      <path class="cls-1" d="M40.21.22c-1.1-.36-2.29-.27-3.35.26l1.33,3.32,2.02-3.58Z"/>
      <path class="cls-1" d="M39.85,4.66l3.39-.45c-.04-1.18-.54-2.26-1.42-3.06l-1.97,3.51Z"/>
      <path class="cls-1" d="M5.9,2.74c-.51,0-.85.1-1.17.29-.22.13-.44.3-.61.53h-.02c-.23-.48-.78-.82-1.5-.82-.89,0-1.39.36-1.68.75h-.03l-.04-.66h-.85c.02.34.04.68.04,1.11v2.99h.95v-2.47c0-.13.02-.25.08-.36.15-.37.61-.74,1.2-.74.74,0,1.11.47,1.11,1.12v2.46h.95v-2.54c0-.13.03-.26.08-.37.18-.36.59-.67,1.16-.67.77,0,1.16.47,1.16,1.26v2.32h.95v-2.41c0-1.42-1.05-1.78-1.76-1.78Z"/>
      <path class="cls-1" d="M9.5,1.22c-.36,0-.61.2-.61.47,0,.25.23.46.58.46h.01c.37,0,.6-.21.6-.46,0-.26-.24-.47-.59-.47Z"/>
      <rect class="cls-1" x="9.02" y="2.83" width=".97" height="4.1"/>
      <path class="cls-1" d="M15.97,6.33v-2.38c0-.49.01-.83.04-1.12h-.86l-.03.62h-.02c-.24-.35-.74-.71-1.66-.71-1.23,0-2.41.78-2.41,2.17,0,1.14.95,2.01,2.27,2.01.82,0,1.41-.3,1.69-.69h.02v.45c0,1.04-.73,1.44-1.72,1.44-.66,0-1.21-.15-1.56-.33l-.24.58c.43.22,1.13.34,1.77.34.67,0,1.42-.13,1.95-.49.51-.36.76-.93.76-1.88ZM15.01,5.18c0,.14-.02.28-.08.4-.2.48-.74.77-1.34.77-1.03,0-1.57-.68-1.57-1.47,0-.96.66-1.56,1.58-1.56.71,0,1.18.36,1.35.8.04.1.06.21.06.33v.74Z"/>
      <path class="cls-1" d="M21.81,2.83h-.97v2.51c0,.14-.03.28-.09.38-.18.34-.63.69-1.28.69-.87,0-1.19-.53-1.19-1.31v-2.26h-.97v2.4c0,1.43,1,1.79,1.84,1.79.95,0,1.52-.43,1.76-.76h.02l.05.67h.86c-.03-.32-.04-.69-.04-1.13v-2.97Z"/>
      <path class="cls-1" d="M25.38,2.74c-1.55,0-2.51.97-2.51,2.21s.99,2.07,2.62,2.07c.85,0,1.44-.14,1.78-.26l-.18-.53c-.35.12-.78.21-1.47.21-.97,0-1.79-.41-1.82-1.41h3.73c.02-.08.03-.19.03-.35,0-.75-.45-1.93-2.19-1.93ZM23.82,4.48c.08-.52.49-1.21,1.48-1.21,1.08,0,1.34.74,1.33,1.21h-2.82Z"/>
      <rect class="cls-1" x="28.64" y=".92" width=".97" height="6.01"/>
      <path class="cls-1" d="M50.34,2.74c-.86,0-1.5.29-1.88.8h-.02l-.05-.7h-.87c.03.39.04.81.04,1.34v4.44h.97v-2.23h.02c.32.41.92.64,1.64.64,1.24,0,2.42-.73,2.42-2.2,0-1.24-.97-2.08-2.27-2.08ZM50.01,6.44c-.68,0-1.28-.36-1.44-.87-.03-.09-.04-.2-.04-.3v-.71c0-.09.03-.2.05-.3.19-.57.81-.92,1.47-.92,1.02,0,1.57.7,1.57,1.52,0,.94-.59,1.58-1.62,1.58Z"/>
      <rect class="cls-1" x="53.67" y="2.83" width=".97" height="4.1"/>
      <path class="cls-1" d="M54.13,2.14h.01c.37,0,.6-.21.6-.46,0-.26-.24-.47-.59-.47s-.61.2-.61.47c0,.25.23.46.58.46Z"/>
      <path class="cls-1" d="M58.68,2.74c-.88,0-1.5.38-1.76.76h-.02l-.05-.67h-.86c.03.34.04.68.04,1.11v2.99h.97v-2.47c0-.12.02-.25.07-.35.18-.41.67-.76,1.3-.76.91,0,1.23.56,1.23,1.22v2.36h.97v-2.45c0-1.4-1.14-1.74-1.88-1.74Z"/>
      <path class="cls-1" d="M63.02,1.85l-.95.23v.75h-.83v.57h.83v2.23c0,.48.11.85.37,1.07.23.19.59.31,1.04.31.37,0,.67-.05.86-.1l-.04-.57c-.14.03-.3.05-.56.05-.54,0-.73-.29-.73-.8v-2.2h1.39v-.57h-1.39v-.98Z"/>
      <path class="cls-1" d="M67.47,2.74c-1.46,0-2.64.8-2.64,2.18,0,1.29,1.12,2.11,2.55,2.11h.01c1.27,0,2.64-.66,2.64-2.18,0-1.24-1.03-2.1-2.56-2.1ZM67.42,6.46h-.01c-.94,0-1.6-.68-1.6-1.57,0-.78.5-1.59,1.63-1.59s1.6.87,1.6,1.57c0,.93-.69,1.6-1.62,1.6Z"/>
      <path class="cls-1" d="M77.29,3.45h-.02c-.24-.35-.74-.71-1.66-.71-1.23,0-2.41.78-2.41,2.17,0,1.14.95,2.01,2.27,2.01.83,0,1.41-.3,1.69-.69h.02v.45c0,1.04-.73,1.44-1.72,1.44-.66,0-1.21-.15-1.56-.33l-.24.58c.43.22,1.13.34,1.77.34.67,0,1.42-.13,1.95-.49.51-.36.76-.93.76-1.88v-2.38c0-.49.01-.83.04-1.12h-.86l-.03.62ZM77.17,5.18c0,.14-.02.28-.08.4-.2.48-.74.77-1.34.77-1.03,0-1.57-.68-1.57-1.47,0-.96.66-1.56,1.58-1.56.71,0,1.18.36,1.35.8.04.1.05.21.05.33v.74Z"/>
      <path class="cls-1" d="M83.97,5.8v-2.97h-.97v2.51c0,.14-.03.28-.09.38-.18.34-.63.69-1.28.69-.87,0-1.19-.53-1.19-1.31v-2.26h-.97v2.4c0,1.43,1,1.79,1.84,1.79.95,0,1.52-.43,1.76-.76h.02l.05.67h.86c-.03-.32-.04-.69-.04-1.13Z"/>
      <path class="cls-1" d="M85.85,1.22c-.36,0-.61.2-.61.47,0,.25.23.46.58.46h.01c.37,0,.6-.21.6-.46,0-.26-.24-.47-.59-.47Z"/>
      <rect class="cls-1" x="85.37" y="2.83" width=".97" height="4.1"/>
      <path class="cls-1" d="M93.58,2.74c-.51,0-.85.1-1.17.29-.22.13-.44.3-.61.53h-.02c-.23-.48-.78-.82-1.5-.82-.89,0-1.39.36-1.68.75h-.03l-.04-.66h-.85c.02.34.04.68.04,1.11v2.99h.95v-2.47c0-.13.02-.25.08-.36.15-.37.6-.74,1.2-.74.74,0,1.11.47,1.11,1.12v2.46h.95v-2.54c0-.13.03-.26.08-.37.18-.36.59-.67,1.15-.67.77,0,1.16.47,1.16,1.26v2.32h.95v-2.41c0-1.42-1.04-1.78-1.76-1.78Z"/>
      <path class="cls-1" d="M100.47,4.42c0-.82-.4-1.68-2.03-1.68-.67,0-1.32.14-1.76.36l.22.5c.37-.19.89-.3,1.4-.3,1.09,0,1.21.61,1.21.95v.08c-2.06,0-3.2.53-3.2,1.52,0,.59.55,1.18,1.63,1.18.76,0,1.34-.29,1.63-.61h.03l.09.52h.87c-.05-.28-.08-.63-.08-.98v-1.53ZM99.52,5.55c0,.08-.01.16-.04.24-.15.35-.61.69-1.31.69-.48,0-.9-.22-.9-.71,0-.8,1.2-.94,2.25-.92v.71Z"/>
      <path class="cls-1" d="M102.69,3.64h-.03l-.04-.8h-.85c.03.38.04.8.04,1.28v2.82h.97v-2.19c0-.12.01-.24.03-.35.13-.55.62-.95,1.3-.95.13,0,.23,0,.33.02v-.7c-.09,0-.17-.02-.26-.02-.65,0-1.24.35-1.49.9Z"/>
      <path class="cls-1" d="M106.54,1.75c.13,0,.25.05.47.15.23.09.44.18.68.18.52,0,.76-.3.75-.85h-.52c-.02.28-.13.36-.3.36-.14,0-.3-.07-.47-.14-.25-.1-.44-.19-.68-.19-.47,0-.77.33-.75.88h.53c.02-.24.11-.38.29-.38Z"/>
      <path class="cls-1" d="M109.02,4.42c0-.82-.4-1.68-2.03-1.68-.67,0-1.32.14-1.76.36l.22.5c.37-.19.89-.3,1.4-.3,1.09,0,1.21.61,1.21.95v.08c-2.06,0-3.2.53-3.2,1.52,0,.59.55,1.18,1.63,1.18.76,0,1.34-.29,1.63-.61h.03l.09.52h.87c-.05-.28-.08-.63-.08-.98v-1.53ZM108.07,5.55c0,.08-.01.16-.04.24-.15.35-.61.69-1.31.69-.48,0-.9-.22-.9-.71,0-.8,1.2-.94,2.25-.92v.71Z"/>
      <path class="cls-1" d="M112.53,2.74c-1.55,0-2.51.97-2.51,2.21s.99,2.07,2.62,2.07c.85,0,1.44-.14,1.78-.26l-.18-.53c-.35.12-.78.21-1.47.21-.97,0-1.79-.41-1.82-1.41h3.73c.02-.08.03-.19.03-.35,0-.75-.45-1.93-2.19-1.93ZM110.97,4.48c.08-.52.5-1.21,1.49-1.21,1.08,0,1.34.74,1.33,1.21h-2.82Z"/>
      <path class="cls-1" d="M117.45,4.55c-.69-.21-1-.36-1-.7,0-.3.31-.56.88-.56.5,0,.88.14,1.09.24l.23-.53c-.29-.14-.76-.25-1.3-.25-1.13,0-1.84.54-1.84,1.2,0,.48.45.89,1.42,1.16.7.2.98.39.98.74s-.33.61-1.02.61c-.48,0-.99-.15-1.29-.29l-.23.56c.37.17.91.29,1.5.29,1.24,0,1.98-.51,1.98-1.24,0-.61-.48-.96-1.4-1.23Z"/>
      <path class="cls-1" d="M14.61,12.16l-.99,2.02h.83l.13-.33h.92l.13.33h.85l-.99-2.02h-.88ZM14.76,13.41l.29-.73.29.73h-.58Z"/>
      <path class="cls-1" d="M20.59,13.47c-.06-.05-.1-.09-.13-.11-.04-.02-.11-.05-.21-.07.12-.02.22-.05.29-.08.11-.05.19-.12.26-.2.06-.08.09-.18.09-.29,0-.13-.04-.24-.12-.33-.08-.09-.19-.15-.32-.18-.13-.03-.32-.05-.57-.05h-1.35v2.02h.81v-.82h.07c.07,0,.14.02.2.05.04.02.09.08.15.16l.43.62h.92l-.39-.59s-.06-.07-.11-.13ZM20.02,12.89s-.08.06-.13.06c-.11.02-.18.03-.21.03h-.34v-.41h.36c.15,0,.25.02.3.05.05.03.08.08.08.15,0,.04-.02.08-.05.12Z"/>
      <path class="cls-1" d="M25.39,13.89c.19-.18.29-.42.29-.72,0-.34-.12-.59-.36-.77-.24-.18-.57-.27-1.01-.27s-.76.09-1,.28c-.24.18-.36.44-.36.77s.14.61.41.8c.23.16.54.24.94.24.27,0,.49-.03.67-.09.04.03.12.07.23.13.11.06.22.11.34.15l.23-.35c-.08-.03-.14-.05-.19-.07-.03-.01-.1-.05-.2-.1ZM24.77,13.57s-.06-.03-.09-.05c-.12-.06-.19-.1-.23-.12s-.1-.03-.17-.04l-.13.22c.15.05.25.09.32.14-.05,0-.1.01-.16.01-.17,0-.3-.04-.4-.13s-.15-.24-.15-.46c0-.19.05-.33.15-.42.1-.09.23-.13.39-.13.17,0,.31.04.41.13.1.09.15.23.15.44,0,.18-.03.31-.1.4Z"/>
      <path class="cls-1" d="M29.55,13.39c0,.11-.04.2-.12.26-.08.06-.19.09-.33.09s-.25-.03-.33-.09c-.08-.06-.12-.15-.12-.26v-1.23h-.81v1.2c0,.1.03.21.08.34.03.08.09.16.17.23.08.08.18.13.28.17.1.04.23.07.38.08.15.01.29.02.42.02.22,0,.41-.02.57-.07.11-.03.22-.09.32-.17.1-.08.18-.17.23-.28.05-.11.07-.22.07-.34v-1.2h-.81v1.23Z"/>
      <rect class="cls-1" x="32.65" y="12.16" width=".81" height="2.02"/>
      <polygon class="cls-1" points="35.56 12.66 36.39 12.66 36.39 14.18 37.2 14.18 37.2 12.66 38.03 12.66 38.03 12.16 35.56 12.16 35.56 12.66"/>
      <polygon class="cls-1" points="40.92 13.33 42.18 13.33 42.18 12.92 40.92 12.92 40.92 12.59 42.28 12.59 42.28 12.16 40.11 12.16 40.11 14.18 42.32 14.18 42.32 13.73 40.92 13.73 40.92 13.33"/>
      <polygon class="cls-1" points="44.32 12.66 45.15 12.66 45.15 14.18 45.96 14.18 45.96 12.66 46.79 12.66 46.79 12.16 44.32 12.16 44.32 12.66"/>
      <path class="cls-1" d="M50.12,12.13c-.43,0-.76.09-1,.28-.24.18-.36.44-.36.77,0,.24.06.43.18.59.12.16.28.27.47.34.19.07.44.11.74.11s.53-.04.73-.13c.2-.08.34-.2.45-.35.1-.15.15-.34.15-.58,0-.33-.12-.58-.35-.76-.24-.18-.57-.27-1.01-.27ZM50.53,13.62c-.1.09-.23.13-.4.13s-.3-.04-.4-.13c-.1-.09-.15-.24-.15-.44s.05-.35.15-.44c.1-.09.23-.13.39-.13s.31.04.41.13c.1.09.15.23.15.42,0,.23-.05.38-.14.47Z"/>
      <path class="cls-1" d="M55.45,13c-.15-.06-.41-.12-.76-.18-.14-.02-.23-.05-.27-.07-.04-.03-.06-.05-.06-.09,0-.04.02-.08.07-.11.05-.03.12-.05.21-.05.11,0,.2.02.27.06.06.04.11.11.13.2l.76-.03c-.03-.21-.14-.36-.31-.46-.18-.1-.43-.14-.77-.14-.27,0-.49.03-.65.08-.16.05-.27.13-.35.22-.08.09-.12.19-.12.29,0,.16.08.29.23.39.15.1.41.18.76.25.22.04.36.08.42.12.06.04.09.09.09.14,0,.06-.03.1-.09.15-.06.04-.15.06-.27.06-.16,0-.27-.04-.36-.12-.05-.05-.09-.12-.1-.22l-.77.04c.02.2.12.37.29.5.17.13.48.2.93.2.25,0,.47-.03.63-.08.17-.06.3-.14.39-.25.09-.11.14-.23.14-.36,0-.11-.03-.21-.1-.3-.07-.09-.18-.16-.33-.22Z"/>
      <path class="cls-1" d="M61.71,12.16l-.99,2.02h.83l.13-.33h.92l.13.33h.85l-.99-2.02h-.88ZM61.86,13.41l.29-.73.29.73h-.58Z"/>
      <path class="cls-1" d="M67.35,13c-.15-.06-.41-.12-.76-.18-.14-.02-.23-.05-.27-.07-.04-.03-.06-.05-.06-.09,0-.04.02-.08.07-.11.05-.03.12-.05.21-.05.11,0,.2.02.27.06.07.04.11.11.13.2l.76-.03c-.03-.21-.14-.36-.31-.46-.18-.1-.43-.14-.77-.14-.27,0-.49.03-.65.08-.16.05-.27.13-.35.22-.08.09-.12.19-.12.29,0,.16.08.29.23.39.15.1.41.18.76.25.22.04.36.08.42.12.06.04.09.09.09.14,0,.06-.03.1-.09.15-.06.04-.15.06-.27.06-.16,0-.27-.04-.36-.12-.05-.05-.09-.12-.1-.22l-.77.04c.02.2.12.37.29.5.17.13.48.2.93.2.25,0,.46-.03.63-.08.17-.06.3-.14.39-.25.09-.11.14-.23.14-.36,0-.11-.03-.21-.1-.3-.07-.09-.18-.16-.33-.22Z"/>
      <path class="cls-1" d="M71.76,13c-.15-.06-.41-.12-.76-.18-.14-.02-.23-.05-.27-.07-.04-.03-.06-.05-.06-.09,0-.04.02-.08.07-.11.05-.03.12-.05.21-.05.11,0,.2.02.27.06.07.04.11.11.13.2l.76-.03c-.03-.21-.14-.36-.31-.46-.18-.1-.43-.14-.77-.14-.27,0-.49.03-.65.08-.16.05-.27.13-.35.22-.08.09-.12.19-.12.29,0,.16.08.29.23.39.15.1.41.18.76.25.22.04.36.08.42.12.06.04.09.09.09.14,0,.06-.03.1-.09.15-.06.04-.15.06-.27.06-.16,0-.27-.04-.36-.12-.05-.05-.09-.12-.1-.22l-.77.04c.02.2.12.37.29.5.17.13.48.2.93.2.25,0,.46-.03.63-.08.17-.06.3-.14.39-.25.09-.11.14-.23.14-.36,0-.11-.04-.21-.1-.3-.07-.09-.18-.16-.33-.22Z"/>
      <path class="cls-1" d="M75.59,12.13c-.43,0-.76.09-1,.28-.24.18-.36.44-.36.77,0,.24.06.43.18.59.12.16.28.27.47.34s.44.11.73.11.53-.04.73-.13c.2-.08.34-.2.45-.35.1-.15.15-.34.15-.58,0-.33-.12-.58-.35-.76s-.57-.27-1.01-.27ZM76.01,13.62c-.1.09-.23.13-.4.13s-.3-.04-.4-.13c-.1-.09-.15-.24-.15-.44s.05-.35.15-.44c.1-.09.23-.13.39-.13s.31.04.41.13c.1.09.15.23.15.42,0,.23-.05.38-.14.47Z"/>
      <path class="cls-1" d="M80.7,13.65c-.08.07-.2.1-.35.1s-.28-.04-.37-.12c-.09-.08-.13-.24-.13-.46,0-.18.04-.31.11-.4.1-.11.24-.17.42-.17.08,0,.15.01.22.04.07.03.12.06.17.11.03.03.05.07.08.14l.72-.12c-.09-.21-.23-.37-.42-.47-.19-.1-.45-.15-.78-.15-.42,0-.75.09-.98.27-.23.18-.35.44-.35.77,0,.25.07.46.2.62.13.16.29.27.47.34.18.06.41.1.7.1.24,0,.43-.03.58-.08.15-.05.28-.13.38-.23.1-.1.18-.23.23-.38l-.71-.17c-.04.13-.09.22-.17.29Z"/>
      <rect class="cls-1" x="83.72" y="12.16" width=".81" height="2.02"/>
      <path class="cls-1" d="M87.57,12.16l-.99,2.02h.83l.13-.33h.92l.13.33h.85l-.99-2.02h-.88ZM87.72,13.41l.29-.73.29.73h-.58Z"/>
      <path class="cls-1" d="M93.62,12.45c-.1-.09-.22-.16-.36-.21-.15-.05-.34-.07-.58-.07h-1.2v2.02h1.2c.14,0,.31-.02.48-.06.13-.03.25-.08.37-.16.11-.08.2-.18.27-.3.06-.12.1-.29.1-.5,0-.14-.02-.27-.06-.39-.04-.12-.11-.23-.21-.32ZM93.01,13.53c-.04.07-.1.12-.17.15s-.19.04-.36.04h-.2v-1.1h.2c.21,0,.36.04.45.12.09.08.14.23.14.44,0,.16-.02.28-.06.35Z"/>
      <path class="cls-1" d="M97.3,12.13c-.43,0-.76.09-1,.28-.24.18-.36.44-.36.77,0,.24.06.43.18.59.12.16.28.27.47.34.19.07.44.11.74.11s.53-.04.73-.13c.2-.08.34-.2.45-.35.1-.15.15-.34.15-.58,0-.33-.12-.58-.35-.76-.24-.18-.57-.27-1.01-.27ZM97.71,13.62c-.1.09-.23.13-.4.13s-.3-.04-.4-.13c-.1-.09-.15-.24-.15-.44s.05-.35.15-.44c.1-.09.23-.13.39-.13s.31.04.41.13c.1.09.15.23.15.42,0,.23-.05.38-.14.47Z"/>
      <path class="cls-1" d="M102.63,13c-.15-.06-.41-.12-.76-.18-.14-.02-.23-.05-.27-.07-.04-.03-.06-.05-.06-.09,0-.04.02-.08.07-.11.05-.03.12-.05.21-.05.11,0,.2.02.27.06.07.04.11.11.13.2l.76-.03c-.03-.21-.14-.36-.31-.46-.18-.1-.43-.14-.77-.14-.27,0-.49.03-.65.08-.16.05-.27.13-.35.22-.08.09-.12.19-.12.29,0,.16.08.29.23.39.15.1.41.18.76.25.22.04.36.08.42.12.06.04.09.09.09.14,0,.06-.03.1-.09.15-.06.04-.15.06-.27.06-.16,0-.27-.04-.36-.12-.05-.05-.09-.12-.1-.22l-.77.04c.02.2.12.37.29.5.17.13.48.2.93.2.25,0,.46-.03.63-.08.17-.06.3-.14.39-.25.09-.11.14-.23.14-.36,0-.11-.03-.21-.1-.3-.07-.09-.18-.16-.33-.22Z"/>
    </g>
  </g>
</svg>